<svg width="14" height="14" viewBox="0 0 14 14" fill="none" xmlns="http://www.w3.org/2000/svg">
<path d="M6.99433 14C3.14008 14 0 10.8599 0 6.99433C0 3.12874 3.14008 0 6.99433 0C10.8486 0 13.9887 3.14008 13.9887 6.99433C13.9887 10.8486 10.8599 14 6.99433 14ZM6.99433 0.77085C3.55951 0.77085 0.77085 3.55951 0.77085 6.99433C0.77085 10.4291 3.55951 13.2178 6.99433 13.2178C10.4291 13.2178 13.2178 10.4291 13.2178 6.99433C13.2178 3.55951 10.4291 0.77085 6.99433 0.77085Z" fill="black"/>
<path d="M6.99432 11.4834C9.47356 11.4834 11.4834 9.47356 11.4834 6.99432C11.4834 4.51507 9.47356 2.50525 6.99432 2.50525C4.51507 2.50525 2.50525 4.51507 2.50525 6.99432C2.50525 9.47356 4.51507 11.4834 6.99432 11.4834Z" fill="black"/>
</svg>
