<svg width="1440" height="539" viewBox="0 0 1440 539" fill="none" xmlns="http://www.w3.org/2000/svg">
<path d="M1451 0.970703H0V458.971H1451V0.970703Z" fill="url(#paint0_linear)"/>
<g clip-path="url(#clip0)">
<path d="M1.54092 126.739L1448.01 538.261L1451 278.36L0.755371 34.2227L1.54092 126.739Z" fill="url(#paint1_linear)"/>
<path d="M521.786 56.1166L512.405 57.953L507.608 57.3635L513.847 56.1392L436.221 46.6549L439.892 45.2266L517.571 54.6127L518.772 52.7914L523.568 53.3657L521.786 56.1166Z" fill="white"/>
<path d="M626.898 68.8735L616.868 70.8611L611.331 70.1734L617.993 68.8508L528.697 57.9457L532.429 56.3965L621.755 67.1807L622.601 65.1705L628.145 65.8355L626.898 68.8735Z" fill="white"/>
<path d="M749.059 83.7004L738.288 85.8618L731.815 85.0608L738.968 83.6249L635.154 70.9438L638.916 69.251L742.729 81.7809L743.092 79.544L749.565 80.3224L749.059 83.7004Z" fill="white"/>
<path d="M892.784 101.15L881.16 103.508L873.493 102.563L881.213 100.991L759.037 86.0659L762.791 84.1992L884.914 98.9434L884.604 96.4269L892.256 97.3413L892.784 101.15Z" fill="white"/>
<path d="M1064.34 121.978L1051.72 124.577L1042.5 123.436L1050.88 121.706L904.99 103.886L908.669 101.8L1054.43 119.401L1053.16 116.529L1062.36 117.632L1064.34 121.978Z" fill="white"/>
<path d="M1272.68 147.265L1258.87 150.174L1247.57 148.769L1256.74 146.842L1079.49 125.19L1083.01 122.84L1259.98 144.204L1257.35 140.887L1268.59 142.232L1272.68 147.265Z" fill="white"/>
<path d="M501.913 64.3242L492.411 66.1908L487.63 65.5635L493.952 64.3242L416.598 54.273L420.352 52.8145L497.759 62.7598L499.05 60.8856L503.839 61.4902L501.913 64.3242Z" fill="white"/>
<path d="M606.829 77.8661L596.662 79.8839L591.126 79.1508L597.886 77.8132L508.756 66.2355L512.571 64.6484L601.731 76.0977L602.682 74.027L608.219 74.7298L606.829 77.8661Z" fill="white"/>
<path d="M728.982 93.6305L718.06 95.8297L711.579 94.9757L718.838 93.5172L615.032 80.035L618.884 78.2969L722.698 91.6279L723.159 89.3153L729.639 90.1391L728.982 93.6305Z" fill="white"/>
<path d="M873.025 112.229L861.219 114.632L853.529 113.619L861.37 112.025L738.922 96.1168L742.782 94.1973L865.177 109.909L864.965 107.302L872.639 108.276L873.025 112.229Z" fill="white"/>
<path d="M1045.41 134.477L1032.57 137.138L1023.29 135.913L1031.82 134.152L885.223 115.108L889.023 112.962L1035.48 131.764L1034.3 128.779L1043.55 129.958L1045.41 134.477Z" fill="white"/>
<path d="M1255.41 161.586L1241.35 164.556L1229.94 163.052L1239.27 161.087L1060.61 137.879L1064.24 135.445L1242.64 158.351L1240.06 154.883L1251.41 156.326L1255.41 161.586Z" fill="white"/>
<path d="M481.579 72.727L471.949 74.6163L467.19 73.9513L473.588 72.6968L396.544 62.0562L400.381 60.5674L477.486 71.0946L478.875 69.1675L483.649 69.8099L481.579 72.727Z" fill="white"/>
<path d="M586.246 87.0864L575.943 89.1344L570.414 88.3636L577.265 86.9957L488.347 74.7227L492.252 73.1055L581.216 85.2424L582.258 83.1037L587.787 83.8519L586.246 87.0864Z" fill="white"/>
<path d="M708.361 103.84L697.273 106.069L690.792 105.163L698.157 103.681L594.389 89.3528L598.347 87.5693L702.122 101.732L702.689 99.3435L709.17 100.22L708.361 103.84Z" fill="white"/>
<path d="M852.676 123.633L840.681 126.081L832.969 125.001L840.938 123.376L718.264 106.44L722.222 104.468L844.858 121.207L844.745 118.494L852.449 119.537L852.676 123.633Z" fill="white"/>
<path d="M1025.86 147.393L1012.79 150.106L1003.46 148.799L1012.13 147L864.867 126.671L868.772 124.457L1015.92 144.537L1014.83 141.431L1024.14 142.693L1025.86 147.393Z" fill="white"/>
<path d="M1237.52 176.428L1223.18 179.466L1211.66 177.856L1221.18 175.838L1041.1 150.983L1044.86 148.474L1224.66 173.012L1222.16 169.385L1233.61 170.934L1237.52 176.428Z" fill="white"/>
<path d="M460.755 81.3273L451.004 83.2469L446.26 82.544L452.741 81.2669L376.044 70.0141L379.964 68.4951L456.729 79.6269L458.225 77.6394L462.976 78.3271L460.755 81.3273Z" fill="white"/>
<path d="M565.142 96.5405L554.696 98.6188L549.182 97.8026L556.123 96.4196L467.447 83.4136L471.45 81.751L560.172 94.621L561.328 92.4143L566.842 93.2078L565.142 96.5405Z" fill="white"/>
<path d="M687.167 114.322L675.912 116.589L669.431 115.629L676.909 114.118L573.217 98.9128L577.273 97.084L680.981 112.123L681.653 109.652L688.141 110.581L687.167 114.322Z" fill="white"/>
<path d="M831.715 135.392L819.524 137.879L811.79 136.73L819.887 135.075L697.016 117.058L701.088 115.025L823.928 132.838L823.92 130.027L831.64 131.137L831.715 135.392Z" fill="white"/>
<path d="M1005.65 160.739L992.353 163.505L982.971 162.107L991.801 160.278L843.884 138.589L847.917 136.307L995.706 157.731L994.717 154.497L1004.08 155.842L1005.65 160.739Z" fill="white"/>
<path d="M1218.95 191.823L1204.34 194.929L1192.71 193.206L1202.42 191.142L1020.93 164.533L1024.82 161.934L1206.03 188.21L1203.6 184.424L1215.16 186.087L1218.95 191.823Z" fill="white"/>
<path d="M439.439 90.132L429.552 92.0817L424.831 91.3411L431.395 90.0413L355.076 78.1537L359.087 76.6045L435.481 88.3636L437.075 86.3156L441.819 87.0411L439.439 90.132Z" fill="white"/>
<path d="M543.494 106.236L532.897 108.352L527.398 107.483L534.438 106.077L446.049 92.3156L450.142 90.6152L538.592 104.233L539.854 101.959L545.36 102.798L543.494 106.236Z" fill="white"/>
<path d="M665.375 125.107L653.947 127.412L647.474 126.392L655.065 124.858L551.493 108.73L555.655 106.849L659.25 122.802L660.035 120.24L666.523 121.23L665.375 125.107Z" fill="white"/>
<path d="M810.105 147.506L797.71 150.045L789.96 148.821L798.193 147.136L675.172 127.978L679.356 125.885L802.355 144.823L802.461 141.914L810.203 143.093L810.105 147.506Z" fill="white"/>
<path d="M984.761 174.539L971.218 177.358L961.784 175.869L970.773 173.995L822.251 150.87L826.405 148.52L974.821 171.365L973.93 168.002L983.341 169.438L984.761 174.539Z" fill="white"/>
<path d="M1199.69 207.806L1184.78 210.98L1173.05 209.128L1182.95 207.02L1000.08 178.552L1004.1 175.861L1186.7 203.974L1184.34 200.014L1196.01 201.798L1199.69 207.806Z" fill="white"/>
<path d="M417.595 99.1548L407.587 101.135L402.881 100.349L409.536 99.0339L333.632 86.4813L337.733 84.8867L413.72 97.3108L415.427 95.2024L420.14 95.9656L417.595 99.1548Z" fill="white"/>
<path d="M521.272 116.196L510.524 118.343L505.04 117.421L512.186 115.992L424.121 101.43L428.313 99.6914L516.446 114.103L517.828 111.745L523.319 112.637L521.272 116.196Z" fill="white"/>
<path d="M642.964 136.193L631.363 138.543L624.882 137.455L632.594 135.898L529.196 118.796L533.463 116.869L636.907 133.782L637.813 131.13L644.286 132.18L642.964 136.193Z" fill="white"/>
<path d="M787.823 159.998L775.216 162.583L767.451 161.283L775.82 159.568L652.693 139.208L657.006 137.055L780.118 157.187L780.345 154.164L788.102 155.419L787.823 159.998Z" fill="white"/>
<path d="M963.151 188.815L949.359 191.694L939.872 190.107L949.027 188.195L799.938 163.543L804.221 161.117L953.211 185.467L952.441 181.968L961.898 183.494L963.151 188.815Z" fill="white"/>
<path d="M1179.69 224.394L1164.47 227.651L1152.63 225.671L1162.73 223.51L978.5 193.054L982.654 190.266L1166.62 220.344L1164.36 216.202L1176.14 218.114L1179.69 224.394Z" fill="white"/>
<path d="M395.69 108.209L385.546 110.211L380.871 109.38L387.616 108.05L312.158 94.8172L316.357 93.1924L391.899 106.289L393.719 104.113L398.41 104.921L395.69 108.209Z" fill="white"/>
<path d="M498.945 126.195L488.038 128.379L482.577 127.404L489.82 125.96L402.118 110.581L406.424 108.798L494.194 124.011L495.689 121.585L501.165 122.529L498.945 126.195Z" fill="white"/>
<path d="M620.395 147.363L608.612 149.751L602.138 148.602L609.971 147.015L506.777 128.923L511.158 126.943L614.398 144.839L615.432 142.103L621.906 143.214L620.395 147.363Z" fill="white"/>
<path d="M765.321 172.619L752.503 175.256L744.723 173.873L753.236 172.12L630.048 150.521L634.482 148.314L757.662 169.664L758.017 166.527L765.79 167.865L765.321 172.619Z" fill="white"/>
<path d="M941.254 203.271L927.205 206.219L917.68 204.526L927.001 202.576L777.392 176.345L781.818 173.836L931.329 199.757L930.672 196.107L940.174 197.74L941.254 203.271Z" fill="white"/>
<path d="M1159.33 241.276L1143.81 244.609L1131.86 242.485L1142.17 240.279L956.618 207.752L960.916 204.873L1146.21 236.991L1144.04 232.661L1155.93 234.702L1159.33 241.276Z" fill="white"/>
<path d="M372.773 117.678L362.486 119.711L357.84 118.834L364.676 117.481L289.724 103.531L294.014 101.86L369.065 115.675L371.006 113.438L375.666 114.292L372.773 117.678Z" fill="white"/>
<path d="M475.529 136.685L464.463 138.907L459.025 137.879L466.375 136.405L379.095 120.157L383.507 118.328L470.869 134.41L472.493 131.901L477.946 132.899L475.529 136.685Z" fill="white"/>
<path d="M596.67 159.099L584.698 161.532L578.24 160.308L586.194 158.698L483.271 139.541L487.773 137.508L590.756 156.461L591.919 153.62L598.385 154.799L596.67 159.099Z" fill="white"/>
<path d="M741.604 185.913L728.559 188.603L720.772 187.137L729.435 185.346L606.248 162.417L610.817 160.143L734.005 182.814L734.496 179.557L742.276 180.97L741.604 185.913Z" fill="white"/>
<path d="M918.095 218.567L903.782 221.575L894.204 219.769L903.714 217.774L753.629 189.842L758.191 187.25L908.193 214.857L907.664 211.048L917.212 212.793L918.095 218.567Z" fill="white"/>
<path d="M1137.72 259.202L1121.86 262.618L1109.81 260.343L1120.34 258.084L933.474 223.298L937.931 220.312L1124.55 254.66L1122.48 250.126L1134.47 252.31L1137.72 259.202Z" fill="white"/>
<path d="M349.275 127.381L338.844 129.452L334.229 128.522L341.155 127.155L266.754 112.441L271.15 110.74L345.657 125.303L347.726 122.998L352.357 123.89L349.275 127.381Z" fill="white"/>
<path d="M451.479 147.461L440.247 149.713L434.832 148.633L442.294 147.136L355.491 129.974L360.008 128.1L446.909 145.081L448.669 142.489L454.1 143.539L451.479 147.461Z" fill="white"/>
<path d="M572.242 171.183L560.074 173.662L553.631 172.37L561.713 170.73L459.116 150.446L463.746 148.36L566.411 168.425L567.718 165.478L574.168 166.732L572.242 171.183Z" fill="white"/>
<path d="M717.108 199.644L703.83 202.387L696.042 200.83L704.857 199.009L581.729 174.667L586.435 172.324L709.578 196.386L710.212 193.001L718 194.512L717.108 199.644Z" fill="white"/>
<path d="M894.099 234.415L879.498 237.499L869.89 235.571L879.573 233.531L729.073 203.786L733.794 201.11L884.219 230.508L883.834 226.533L893.426 228.392L894.099 234.415Z" fill="white"/>
<path d="M1115.23 277.861L1099.03 281.367L1086.87 278.926L1097.62 276.606L909.485 239.425L914.1 236.326L1102 273.047L1100.05 268.286L1112.15 270.629L1115.23 277.861Z" fill="white"/>
<path d="M325.172 137.342L314.597 139.443L310.012 138.468L317.045 137.07L243.241 121.57L247.743 119.832L321.66 135.173L323.85 132.793L328.458 133.737L325.172 137.342Z" fill="white"/>
<path d="M426.765 158.532L415.359 160.83L409.974 159.681L417.55 158.162L331.268 140.047L335.905 138.12L422.293 156.053L424.189 153.371L429.597 154.482L426.765 158.532Z" fill="white"/>
<path d="M547.075 183.637L534.702 186.162L528.274 184.794L536.492 183.116L434.28 161.661L439.039 159.515L541.334 180.743L542.792 177.697L549.22 179.02L547.075 183.637Z" fill="white"/>
<path d="M691.797 213.836L678.284 216.64L670.489 214.977L679.462 213.118L556.463 187.295L561.313 184.877L684.342 210.413L685.127 206.891L692.922 208.493L691.797 213.836Z" fill="white"/>
<path d="M869.21 250.852L854.323 254.003L844.669 251.947L854.557 249.862L703.694 218.197L708.573 215.431L859.368 246.725L859.134 242.576L868.765 244.556L869.21 250.852Z" fill="white"/>
<path d="M1091.8 297.299L1075.23 300.896L1062.97 298.289L1073.96 295.908L884.589 256.149L889.378 252.938L1078.53 292.19L1076.7 287.202L1088.9 289.711L1091.8 297.299Z" fill="white"/>
<path d="M300.45 147.552L289.717 149.69L285.177 148.655L292.307 147.242L219.161 130.926L223.768 129.135L297.043 145.3L299.377 142.836L303.94 143.841L300.45 147.552Z" fill="white"/>
<path d="M401.355 169.922L389.768 172.257L384.413 171.04L392.11 169.491L306.425 150.379L311.183 148.406L396.982 167.322L399.036 164.556L404.407 165.727L401.355 169.922Z" fill="white"/>
<path d="M521.129 196.469L508.552 199.046L502.147 197.595L510.501 195.887L408.75 173.193L413.645 170.986L515.494 193.446L517.103 190.28L523.523 191.678L521.129 196.469Z" fill="white"/>
<path d="M665.632 228.505L651.862 231.369L644.075 229.608L653.214 227.711L530.412 200.316L535.412 197.822L658.26 224.907L659.212 221.242L666.999 222.943L665.632 228.505Z" fill="white"/>
<path d="M843.385 267.909L828.188 271.135L818.512 268.951L828.588 266.813L677.446 233.1L682.499 230.243L833.589 263.556L833.521 259.225L843.182 261.334L843.385 267.909Z" fill="white"/>
<path d="M1067.36 317.568L1050.42 321.263L1038.06 318.467L1049.3 316.018L858.741 273.516L863.719 270.184L1054.06 312.149L1052.37 306.912L1064.68 309.595L1067.36 317.568Z" fill="white"/>
<path d="M275.078 158.034L264.194 160.202L259.692 159.122L266.921 157.678L194.484 140.501L199.205 138.672L271.785 155.683L274.262 153.144L278.787 154.202L275.078 158.034Z" fill="white"/>
<path d="M375.221 181.628L363.453 184.001L358.135 182.724L365.953 181.152L280.917 160.981L285.804 158.956L370.968 178.915L373.166 176.051L378.506 177.29L375.221 181.628Z" fill="white"/>
<path d="M494.383 209.71L481.587 212.325L475.212 210.798L483.71 209.06L382.479 185.058L387.518 182.783L488.853 206.536L490.628 203.256L497.026 204.737L494.383 209.71Z" fill="white"/>
<path d="M638.561 243.68L624.534 246.605L616.754 244.738L626.068 242.796L503.537 213.746L508.696 211.169L631.287 239.902L632.413 236.085L640.2 237.891L638.561 243.68Z" fill="white"/>
<path d="M816.563 285.63L801.056 288.933L791.343 286.597L801.63 284.406L650.284 248.524L655.511 245.562L806.827 281.028L806.925 276.493L816.624 278.745L816.563 285.63Z" fill="white"/>
<path d="M1041.86 338.712L1024.52 342.514L1012.06 339.521L1023.56 337.004L831.889 291.563L837.056 288.094L1028.53 332.969L1027 327.459L1039.4 330.339L1041.86 338.712Z" fill="white"/>
<path d="M249.586 168.569L238.543 170.768L234.079 169.627L241.42 168.168L169.739 150.107L174.573 148.232L246.406 166.12L249.027 163.506L253.513 164.609L249.586 168.569Z" fill="white"/>
<path d="M348.897 193.425L336.948 195.835L331.668 194.49L339.606 192.888L255.281 171.645L260.296 169.566L344.765 190.591L347.13 187.628L352.425 188.936L348.897 193.425Z" fill="white"/>
<path d="M467.372 223.072L454.35 225.747L448.012 224.122L456.653 222.354L356.02 197.007L361.202 194.672L461.956 219.754L463.905 216.346L470.272 217.918L467.372 223.072Z" fill="white"/>
<path d="M611.142 259.06L596.851 262.045L589.079 260.057L598.566 258.085L476.39 227.312L481.715 224.659L603.967 255.085L605.273 251.117L613.046 253.029L611.142 259.06Z" fill="white"/>
<path d="M789.281 303.648L773.449 307.033L763.713 304.547L774.219 302.302L622.759 264.161L628.16 261.093L779.612 298.796L779.899 294.058L789.621 296.453L789.281 303.648Z" fill="white"/>
<path d="M1015.8 360.341L998.04 364.241L985.494 361.037L997.262 358.46L804.553 309.927L809.931 306.322L1002.45 354.243L1001.08 348.454L1013.58 351.53L1015.8 360.341Z" fill="white"/>
<path d="M222.854 179.61L211.645 181.847L207.234 180.653L214.682 179.165L143.831 160.166L148.794 158.246L219.803 177.056L222.582 174.358L227.024 175.522L222.854 179.61Z" fill="white"/>
<path d="M321.237 205.819L309.091 208.275L303.856 206.854L311.923 205.222L228.398 182.822L233.55 180.684L317.233 202.857L319.771 199.788L325.029 201.171L321.237 205.819Z" fill="white"/>
<path d="M438.903 237.159L425.654 239.887L419.347 238.171L428.139 236.365L328.201 209.567L333.534 207.164L433.616 233.675L435.761 230.146L442.083 231.801L438.903 237.159Z" fill="white"/>
<path d="M582.145 275.315L567.575 278.368L559.825 276.259L569.493 274.242L447.778 241.609L453.27 238.866L575.083 271.136L576.593 266.994L584.351 269.035L582.145 275.315Z" fill="white"/>
<path d="M760.314 322.782L744.134 326.251L734.383 323.598L745.116 321.301L593.641 280.696L599.238 277.521L750.728 317.651L751.212 312.693L760.956 315.247L760.314 322.782Z" fill="white"/>
<path d="M987.972 383.422L969.783 387.435L957.139 384.004L969.194 381.343L775.526 329.433L781.123 325.677L974.617 376.938L973.439 370.846L986.03 374.141L987.972 383.422Z" fill="white"/>
<path d="M195.39 190.954L184.015 193.229L179.657 191.966L187.218 190.455L117.273 170.481L122.357 168.509L192.475 188.294L195.428 185.505L199.809 186.729L195.39 190.954Z" fill="white"/>
<path d="M292.746 218.575L280.403 221.084L275.222 219.58L283.425 217.918L200.776 194.316L206.063 192.117L288.886 215.484L291.605 212.31L296.817 213.769L292.746 218.575Z" fill="white"/>
<path d="M409.505 251.707L396.015 254.488L389.753 252.674L398.704 250.83L299.551 222.505L305.042 220.034L404.361 248.056L406.695 244.384L412.987 246.137L409.505 251.707Z" fill="white"/>
<path d="M552.09 292.167L537.233 295.288L529.513 293.052L539.37 290.981L418.214 256.384L423.894 253.55L545.164 287.769L546.886 283.446L554.628 285.608L552.09 292.167Z" fill="white"/>
<path d="M730.168 342.695L713.626 346.247L703.867 343.421L714.835 341.063L563.45 297.835L569.259 294.548L720.673 337.269L721.376 332.07L731.135 334.798L730.168 342.695Z" fill="white"/>
<path d="M958.846 407.582L940.204 411.715L927.477 408.028L939.834 405.292L745.297 349.746L751.121 345.839L945.507 400.674L944.532 394.258L957.207 397.795L958.846 407.582Z" fill="white"/>
<path d="M167.171 202.607L155.614 204.927L151.324 203.597L158.998 202.063L90.0286 181.054L95.2404 179.036L164.406 199.841L167.526 196.962L171.854 198.247L167.171 202.607Z" fill="white"/>
<path d="M263.401 231.725L250.855 234.272L245.726 232.692L254.065 230.999L172.383 206.121L177.821 203.861L259.692 228.49L262.608 225.203L267.759 226.737L263.401 231.725Z" fill="white"/>
<path d="M379.126 266.737L365.394 269.571L359.177 267.652L368.294 265.77L270.025 235.843L275.69 233.289L374.133 262.906L376.686 259.09L382.933 260.949L379.126 266.737Z" fill="white"/>
<path d="M520.932 309.633L505.773 312.829L498.083 310.456L508.137 308.34L387.661 271.65L393.53 268.718L514.149 305.008L516.098 300.496L523.81 302.793L520.932 309.633Z" fill="white"/>
<path d="M698.761 363.433L681.842 367.091L672.083 364.075L683.299 361.657L532.126 315.618L538.154 312.21L689.38 357.697L690.324 352.248L700.091 355.158L698.761 363.433Z" fill="white"/>
<path d="M928.33 432.891L909.205 437.153L896.402 433.201L909.069 430.375L713.785 370.914L719.865 366.841L915.021 425.546L914.266 418.767L927.031 422.568L928.33 432.891Z" fill="white"/>
<path d="M138.166 214.593L126.428 216.95L122.191 215.552L129.986 213.988L62.0735 191.906L67.4288 189.835L135.545 211.706L138.846 208.728L143.121 210.088L138.166 214.593Z" fill="white"/>
<path d="M233.157 245.275L220.392 247.874L215.331 246.204L223.806 244.474L143.181 218.265L148.778 215.938L229.614 241.897L232.726 238.481L237.825 240.106L233.157 245.275Z" fill="white"/>
<path d="M347.726 282.268L333.73 285.17L327.574 283.137L336.865 281.218L239.585 249.591L245.424 246.953L342.9 278.255L345.672 274.288L351.866 276.253L347.726 282.268Z" fill="white"/>
<path d="M488.597 327.762L473.12 331.034L465.468 328.51L475.741 326.341L356.065 287.437L362.138 284.406L481.972 322.888L484.163 318.18L491.837 320.621L488.597 327.762Z" fill="white"/>
<path d="M666.017 385.062L648.705 388.818L638.946 385.598L650.427 383.112L499.617 334.088L505.871 330.536L656.765 378.986L657.966 373.272L667.732 376.371L666.017 385.062Z" fill="white"/>
<path d="M896.319 459.441L876.695 463.839L863.817 459.592L876.816 456.682L680.92 392.997L687.257 388.75L883.055 451.611L882.549 444.455L895.39 448.535L896.319 459.441Z" fill="white"/>
<path d="M108.33 226.919L96.4035 229.322L92.2416 227.848L100.158 226.254L33.3859 203.045L38.8772 200.914L105.875 223.911L109.365 220.827L113.572 222.256L108.33 226.919Z" fill="white"/>
<path d="M201.977 259.249L188.985 261.894L183.992 260.133L192.618 258.372L113.149 230.75L118.905 228.362L198.601 255.712L201.924 252.175L206.962 253.883L201.977 259.249Z" fill="white"/>
<path d="M315.24 298.342L300.986 301.305L294.891 299.151L304.355 297.193L208.193 263.768L214.213 261.055L310.602 294.125L313.608 289.999L319.741 292.077L315.24 298.342Z" fill="white"/>
<path d="M455.022 346.595L439.213 349.943L431.614 347.26L442.098 345.038L323.367 303.776L329.651 300.64L448.571 341.449L451.026 336.537L458.655 339.121L455.022 346.595Z" fill="white"/>
<path d="M631.846 407.627L614.126 411.489L604.382 408.051L616.127 405.496L465.838 353.268L472.342 349.58L622.744 401.189L624.224 395.188L633.983 398.498L631.846 407.627Z" fill="white"/>
<path d="M862.707 487.319L842.547 491.861L829.608 487.297L842.962 484.296L646.598 416.062L653.222 411.618L849.511 478.968L849.277 471.404L862.193 475.787L862.707 487.319Z" fill="white"/>
<path d="M78.283 239.334L66.1674 241.775L62.0735 240.226L70.1178 238.609L4.54712 214.237L10.1819 212.053L75.9943 236.191L79.6879 233.009L83.8196 234.513L78.283 239.334Z" fill="white"/>
<path d="M170.479 273.349L157.269 276.055L152.351 274.196L161.121 272.405L82.8906 243.332L88.8125 240.876L167.292 269.662L170.842 265.989L175.804 267.795L170.479 273.349Z" fill="white"/>
<path d="M282.337 314.627L267.804 317.65L261.784 315.375L271.422 313.373L176.477 278.088L182.693 275.284L277.888 310.199L281.143 305.906L287.209 308.105L282.337 314.627Z" fill="white"/>
<path d="M420.866 365.737L404.732 369.175L397.186 366.326L407.889 364.052L290.23 320.333L296.734 317.091L414.611 360.326L417.338 355.187L424.914 357.938L420.866 365.737Z" fill="white"/>
<path d="M596.919 430.699L578.776 434.666L569.055 431.001L581.08 428.371L431.463 372.788L438.223 368.956L587.984 423.875L589.759 417.579L599.495 421.109L596.919 430.699Z" fill="white"/>
<path d="M828.12 516.005L807.409 520.698L794.417 515.801L808.134 512.695L611.497 439.647L618.408 435.007L815.015 507.103L815.075 499.107L828.044 503.808L828.12 516.005Z" fill="white"/>
<path d="M137.297 288.222L123.852 290.973L119.011 289.015L127.939 287.187L51.0833 256.557L57.1864 254.025L134.306 284.353L138.09 280.551L142.977 282.448L137.297 288.222Z" fill="white"/>
<path d="M247.546 331.835L232.726 334.934L226.782 332.523L236.616 330.475L143.045 293.187L149.466 290.293L243.309 327.195L246.829 322.721L252.818 325.049L247.546 331.835Z" fill="white"/>
<path d="M384.609 386.067L368.113 389.588L360.643 386.565L371.58 384.23L255.183 337.851L261.92 334.488L378.574 380.353L381.596 374.98L389.111 377.905L384.609 386.067Z" fill="white"/>
<path d="M559.643 455.321L541.047 459.402L531.364 455.487L543.691 452.782L394.95 393.518L401.982 389.535L550.904 448.081L553.012 441.453L562.71 445.225L559.643 455.321Z" fill="white"/>
<path d="M790.95 546.84L769.649 551.691L756.612 546.416L770.722 543.212L574.01 464.836L581.246 459.977L777.965 537.317L778.358 528.846L791.38 533.909L790.95 546.84Z" fill="white"/>
<path d="M103.035 303.571L89.3336 306.383L84.5901 304.32L93.6843 302.453L18.332 270.183L24.6089 267.576L100.256 299.528L104.297 295.576L109.093 297.578L103.035 303.571Z" fill="white"/>
<path d="M211.486 349.678L196.372 352.837L190.526 350.29L200.557 348.197L108.519 308.786L115.143 305.793L207.483 344.796L211.298 340.133L217.197 342.597L211.486 349.678Z" fill="white"/>
<path d="M346.873 407.226L330.006 410.839L322.619 407.619L333.798 405.231L218.851 356.003L225.838 352.52L341.079 401.196L344.426 395.566L351.866 398.672L346.873 407.226Z" fill="white"/>
<path d="M520.63 481.083L501.558 485.293L491.927 481.099L504.564 478.318L356.934 415.109L364.261 410.952L512.118 473.398L514.58 466.422L524.241 470.45L520.63 481.083Z" fill="white"/>
<path d="M751.771 579.343L729.836 584.368L716.776 578.685L731.294 575.368L534.748 491.21L542.331 486.124L738.93 569.148L739.7 560.162L752.753 565.611L751.771 579.343Z" fill="white"/>
<path d="M174.105 368.17L158.681 371.412L152.933 368.714L163.168 366.568L72.8296 324.898L79.6805 321.807L170.351 363.039L174.468 358.18L180.276 360.787L174.105 368.17Z" fill="white"/>
<path d="M307.565 429.263L290.313 432.974L283.017 429.55L294.46 427.094L181.16 374.836L188.411 371.224L302.036 422.893L305.73 416.998L313.079 420.3L307.565 429.263Z" fill="white"/>
<path d="M479.759 508.078L460.188 512.416L450.626 507.935L463.595 505.063L317.316 437.607L324.953 433.276L471.511 499.909L474.351 492.555L483.959 496.863L479.759 508.078Z" fill="white"/>
<path d="M710.401 613.653L687.809 618.86L674.734 612.731L689.69 609.292L493.589 518.862L501.543 513.534L697.749 602.732L698.927 593.18L712.002 599.052L710.401 613.653Z" fill="white"/>
<path d="M135.318 387.366L119.562 390.683L113.927 387.827L124.381 385.628L35.9163 341.569L43.0089 338.372L131.836 381.97L136.278 376.891L141.973 379.657L135.318 387.366Z" fill="white"/>
<path d="M266.596 452.238L248.928 456.047L241.745 452.404L253.453 449.88L142.033 394.395L149.564 390.639L261.361 445.497L265.417 439.315L272.669 442.829L266.596 452.238Z" fill="white"/>
<path d="M436.894 536.387L416.802 540.861L407.322 536.063L420.639 533.108L275.992 461.072L283.961 456.553L428.94 527.697L432.203 519.935L441.728 524.553L436.894 536.387Z" fill="white"/>
<path d="M223.844 476.201L205.753 480.124L198.691 476.247L210.686 473.654L101.389 414.7L109.214 410.801L218.926 469.082L223.391 462.591L230.528 466.332L223.844 476.201Z" fill="white"/>
<path d="M391.891 566.117L371.24 570.735L361.866 565.596L375.545 562.543L232.847 485.572L241.171 480.856L384.262 556.86L387.986 548.66L397.42 553.603L391.891 566.117Z" fill="white"/>
<path d="M96.6452 396.314L91.8564 401.612L5.06834 355.505L0.755371 357.447V360.447L84.1142 405.413L73.4413 407.665L78.9477 410.688L95.0364 407.295L102.227 399.239L96.6452 396.314Z" fill="white"/>
<path d="M33.3179 327.127L28.733 331.397L0.755371 317.658V324.082L21.7159 334.518L12.2818 336.468L16.8138 338.766L31.0292 335.833L37.9179 329.357L33.3179 327.127Z" fill="white"/>
<path d="M69.3852 311.09L65.0873 315.201L0.755371 285.947V291.683L58.2893 318.224L49.0364 320.129L53.6818 322.305L67.6253 319.433L74.0909 313.206L69.3852 311.09Z" fill="white"/>
<path d="M16.4135 258.984L12.2893 262.392L0.755371 257.518V262.679L6.06538 264.946L0.755371 266.027V267.939L1.67688 268.34L14.1928 265.808L20.3865 260.639L16.4135 258.984Z" fill="white"/>
<path d="M48.5077 245.803L44.6102 249.106L0.755371 231.86V236.523L38.5599 251.585L30.3796 253.24L34.398 254.865L46.71 252.378L52.5638 247.391L48.5077 245.803Z" fill="white"/>
<rect y="23.9707" width="1440" height="518" fill="url(#paint2_linear)"/>
</g>
<path d="M704.199 71.8281C703.988 71.8205 703.777 71.8129 703.565 71.8281C703.346 71.8432 703.104 71.8734 702.893 71.9036C700.34 72.3571 697.787 72.7727 695.226 73.1808C692.673 73.5965 690.105 73.9517 687.544 74.3144L672.181 76.574L671.984 76.6042C670.088 76.8839 668.631 78.2744 668.177 80.0201C667.498 82.6425 666.871 85.2724 666.259 87.9099L665.353 91.8699L664.476 95.8375C663.895 98.4825 663.313 101.128 662.762 103.78C662.278 106.04 661.81 108.307 661.357 110.574L656.424 116.182C654.204 119.348 654.581 123.656 657.323 126.384L658.668 127.721C659.831 128.878 661.802 128.492 662.437 126.973L664.31 122.484C663.744 122.779 663.109 122.96 662.475 122.983C662.369 122.983 662.263 122.983 662.157 122.983L661.999 122.976C661.946 122.976 661.893 122.968 661.84 122.96C661.629 122.93 661.432 122.915 661.221 122.847C661.115 122.817 661.009 122.794 660.911 122.756C660.888 122.749 660.858 122.741 660.836 122.734L660.79 122.719L660.7 122.681L660.352 122.53L658.955 121.94L659.944 118.948L661.364 119.288L661.719 119.371L661.81 119.393L661.855 119.401C661.87 119.401 661.87 119.401 661.87 119.401C661.886 119.393 661.908 119.393 661.923 119.393C661.954 119.401 661.999 119.378 662.037 119.378C662.044 119.378 662.059 119.378 662.067 119.378L662.097 119.363C662.112 119.356 662.135 119.348 662.15 119.348C662.286 119.295 662.384 119.197 662.467 119.091C662.55 118.985 662.588 118.834 662.58 118.728C662.588 118.706 662.573 118.675 662.573 118.653C662.573 118.645 662.565 118.63 662.558 118.623C662.55 118.615 662.55 118.6 662.55 118.592C662.543 118.585 662.535 118.57 662.528 118.562C662.528 118.555 662.52 118.555 662.52 118.547V118.532L662.512 118.471C662.49 118.313 662.475 118.162 662.46 118.003C662.407 117.383 662.407 116.771 662.444 116.174C662.46 115.872 662.49 115.577 662.528 115.29C662.543 115.146 662.565 115.003 662.588 114.859L662.648 114.459L662.875 112.985L667.785 114.149L667.8 114.118C667.8 114.118 668.072 111.33 668.11 111.224C669.008 108.662 669.016 108.299 669.877 105.73C670.746 103.16 671.592 100.591 672.438 98.0139L673.707 94.1522L674.945 90.2829C675.429 88.7563 675.897 87.2222 676.365 85.6881L688.768 84.5847C691.261 84.358 693.746 84.1161 696.238 83.9272C697.417 81.3955 698.64 78.8865 699.947 76.4078C701.254 73.9139 702.628 72.5007 704.199 71.8281Z" fill="white"/>
<path d="M640.495 187.976L633.832 190.024C631.604 190.696 629.384 191.369 627.155 192.034C629.384 191.369 631.612 190.696 633.832 190.024L640.495 187.976L647.149 185.905C649.37 185.217 651.583 184.514 653.796 183.812C651.583 184.514 649.37 185.217 647.149 185.905L640.495 187.976Z" fill="white"/>
<path d="M616.943 185.316C618.998 184.22 621.052 183.132 623.122 182.059C621.052 183.139 618.99 184.22 616.943 185.316C616.936 185.316 616.936 185.323 616.928 185.323L616.414 184.893L610.334 185.165L611.467 210.24C611.573 212.522 613.499 214.283 615.78 214.177L622.586 196.266C623.839 197.415 625.781 197.324 626.929 196.07L628.175 194.709L625.531 192.503L616.936 185.323C616.928 185.323 616.936 185.323 616.943 185.316Z" fill="white"/>
<path d="M641.741 172.535C645.888 170.434 650.049 168.386 654.204 166.308L658.947 163.98L654.204 166.308C650.049 168.386 645.88 170.434 641.741 172.535L635.517 175.679L633.417 176.752L635.517 175.679L641.741 172.535Z" fill="white"/>
<path d="M706.012 91.5294C704.494 89.4663 702.961 87.4107 701.405 85.3703C701.276 85.1965 701.133 84.9924 701.02 84.8035C699.411 82.0904 700.272 78.5839 702.953 76.9364C705.71 75.236 709.374 76.2336 711.028 79.0222C712.312 81.1911 713.634 83.3374 714.955 85.4761C716.194 87.4939 717.478 89.4814 718.755 91.4765C719.661 89.5797 720.598 87.6828 721.557 85.7935C723.408 82.166 722.615 79.657 720.651 77.5712L720.394 77.9264C718.974 79.8988 716.194 80.3447 714.23 78.9164C712.297 77.5183 711.836 74.8052 713.18 72.8404C712.455 72.5456 711.753 72.2887 711.133 72.1073C708.331 71.2911 706.118 71.0039 704.199 71.8201C702.628 72.4927 701.254 73.9059 699.939 76.4074C698.633 78.8862 697.409 81.3952 696.231 83.9268C691.381 94.3861 687.544 105.238 684.055 116.015C684.04 116.068 684.017 116.128 684.002 116.181C683.617 117.368 683.239 118.554 682.861 119.733C682.015 122.393 680.965 124.985 679.855 127.54C679.379 128.636 679.069 129.784 678.896 130.963L678.805 131.114C676.773 134.674 674.824 138.286 672.966 141.944L671.584 144.695L670.224 147.461C669.318 149.305 668.434 151.164 667.535 153.008L666.062 156.068L681.063 169.294L681.698 168.364L685.203 163.293C686.366 161.6 687.544 159.915 688.692 158.215L690.422 155.668L692.129 153.106C693.67 150.763 695.158 148.39 696.616 146.01C699.599 146.773 702.598 147.514 705.604 148.194L708.951 148.934L712.304 149.645C714.54 150.128 716.783 150.574 719.019 151.035C717.811 150.786 716.602 150.536 715.394 150.287L726.044 131.885L730.976 133.646L724.518 131.341C722.365 130.578 720.213 129.799 718.052 129.051L714.819 127.918L711.572 126.822C709.653 126.179 707.719 125.56 705.786 124.955C705.876 124.66 705.967 124.358 706.058 124.063C706.088 123.973 706.11 123.882 706.141 123.799C708.384 116.567 710.945 109.463 713.86 102.45L710.491 97.7717C709.011 95.6784 707.538 93.5926 706.012 91.5294Z" fill="white"/>
<path d="M714.23 78.9169C716.202 80.3376 718.974 79.8918 720.394 77.9269L720.651 77.5717L723.287 73.9291C723.189 73.8762 723.09 73.8309 722.992 73.7704C722.962 73.7553 722.932 73.7326 722.902 73.7175C720.205 72.1229 718.354 69.6517 717.478 66.8857L713.241 72.7502C713.218 72.7804 713.203 72.8106 713.18 72.8484C711.836 74.8057 712.289 77.5188 714.23 78.9169Z" fill="white"/>
<path d="M666.063 156.076L664.862 158.57L663.253 161.857L658.94 163.973L654.196 166.301C650.042 168.379 645.872 170.427 641.733 172.528L635.509 175.672L633.409 176.745L629.3 178.846C627.238 179.912 625.169 180.977 623.107 182.058C621.045 183.139 618.982 184.212 616.928 185.315C616.92 185.315 616.92 185.323 616.913 185.323L625.509 192.502C626.052 192.343 626.596 192.185 627.14 192.026C629.368 191.361 631.597 190.688 633.817 190.016L640.479 187.968L647.134 185.897C649.355 185.209 651.568 184.507 653.781 183.804C655.994 183.101 658.207 182.391 660.42 181.688L673.669 177.395C674.069 177.267 674.454 177.1 674.817 176.912C675.542 176.534 676.176 176.042 676.72 175.476C676.856 175.332 676.985 175.181 677.106 175.03C677.226 174.879 677.347 174.72 677.453 174.561L678.208 173.45L681.048 169.286L666.063 156.076Z" fill="white"/>
<path d="M722.902 73.7248C722.932 73.74 722.962 73.7626 722.992 73.7777C723.09 73.8306 723.189 73.8835 723.287 73.9364C726.482 75.6368 730.281 75.2514 733.076 73.2034C733.529 72.8709 733.937 72.493 734.315 72.0849L734.692 71.6919C734.919 71.4274 735.131 71.1478 735.327 70.8531C735.402 70.7322 735.486 70.6112 735.561 70.4903L739.783 64.6486C736.354 64.437 732.948 63.9004 729.617 63.0238L728.227 62.661C729.111 60.9682 728.514 58.7993 726.709 57.8546C725.372 57.1518 723.687 57.4012 722.615 58.4592C721.912 59.1545 721.557 60.0311 721.534 60.9077L717.403 66.5757C717.433 66.6815 717.463 66.7873 717.493 66.8855C718.355 69.659 720.205 72.1303 722.902 73.7248Z" fill="white"/>
<path d="M722.599 58.4592C723.679 57.4012 725.356 57.1518 726.693 57.8546C728.506 58.7993 729.095 60.9682 728.211 62.661L729.601 63.0238C732.932 63.8929 736.339 64.437 739.768 64.6486C741.679 64.7695 743.59 64.7846 745.509 64.6939L740.788 60.7037L748.983 59.8875L734.201 49.1865H734.194C734.164 49.1638 734.133 49.1411 734.103 49.1184C728.642 45.166 721.013 46.3978 717.063 51.8617C713.792 56.3885 714.072 62.4116 717.372 66.5908L717.38 66.5833L721.512 60.9153C721.542 60.0311 721.897 59.1469 722.599 58.4592Z" fill="white"/>
<path d="M662.641 114.458L662.58 114.858C662.558 115.002 662.543 115.145 662.52 115.289C662.482 115.584 662.46 115.879 662.437 116.173C662.399 116.77 662.399 117.382 662.452 118.002C662.467 118.161 662.482 118.312 662.505 118.471L662.512 118.531V118.546C662.512 118.554 662.512 118.554 662.52 118.561C662.528 118.569 662.528 118.576 662.543 118.592C662.543 118.599 662.543 118.614 662.55 118.622C662.55 118.629 662.565 118.644 662.565 118.652C662.565 118.675 662.58 118.705 662.573 118.728C662.58 118.833 662.543 118.977 662.46 119.09C662.376 119.204 662.278 119.302 662.142 119.347C662.127 119.347 662.105 119.355 662.089 119.362L662.059 119.378C662.052 119.378 662.037 119.378 662.029 119.378C661.991 119.378 661.946 119.4 661.916 119.393C661.901 119.393 661.886 119.4 661.863 119.4C661.855 119.4 661.855 119.408 661.848 119.4L661.802 119.393L661.712 119.37L661.357 119.287L659.937 118.947L658.947 121.939L660.345 122.529L660.692 122.68L660.783 122.718L660.828 122.733C660.843 122.741 660.873 122.748 660.904 122.756C661.009 122.786 661.108 122.816 661.213 122.846C661.425 122.907 661.629 122.929 661.833 122.96C661.886 122.967 661.938 122.975 661.991 122.975L662.15 122.982C662.256 122.982 662.361 122.982 662.467 122.982C663.102 122.96 663.736 122.778 664.303 122.484C664.499 122.385 664.688 122.272 664.862 122.144C665.564 121.645 666.115 120.949 666.455 120.126C666.546 119.922 666.606 119.703 666.667 119.491C666.697 119.385 666.712 119.272 666.735 119.158C666.75 119.045 666.773 118.932 666.788 118.818C666.795 118.705 666.803 118.592 666.803 118.478V118.304V118.259V118.236V118.229V118.191C666.81 118.1 666.81 118.01 666.818 117.911C666.848 117.541 666.916 117.163 667.007 116.778C667.052 116.589 667.105 116.392 667.165 116.196C667.196 116.098 667.226 115.999 667.256 115.901L667.362 115.576L667.822 114.155L667.762 114.14L662.852 112.977L662.641 114.458Z" fill="white"/>
<path d="M757.654 70.7701C757.096 69.2209 755.147 68.7372 753.931 69.8406L750.328 73.0977C750.109 73.1053 749.89 73.128 749.671 73.1658C748.825 73.3169 748.024 73.7099 747.367 74.3145C747.201 74.458 747.05 74.6319 746.906 74.8057C746.831 74.8888 746.77 74.987 746.702 75.0777C746.634 75.1684 746.574 75.2667 746.513 75.3649C746.46 75.4632 746.408 75.569 746.355 75.6672L746.279 75.8183L746.264 75.8561L746.256 75.8712L746.249 75.8788L746.234 75.909C746.188 75.9922 746.143 76.0677 746.098 76.1509C745.909 76.4758 745.69 76.7857 745.441 77.0955C745.32 77.2467 745.184 77.4054 745.048 77.5565C744.98 77.6321 744.912 77.7077 744.836 77.7832L744.602 78.0326C744.036 78.6825 743.794 79.5441 743.9 80.398C743.922 80.5567 743.915 80.6777 743.87 80.723C741.83 82.6577 739.806 84.5999 737.789 86.5572C735.765 88.507 733.771 90.4719 731.769 92.4443L728.77 95.3992L725.794 98.3767C725.251 98.9209 724.714 99.4725 724.17 100.017L719.072 91.9833C718.966 91.817 718.86 91.6583 718.755 91.4921C717.478 89.497 716.194 87.5094 714.955 85.4916C713.634 83.3529 712.312 81.1991 711.028 79.0377C709.373 76.2567 705.71 75.2516 702.953 76.9519C700.279 78.607 699.411 82.106 701.019 84.819C701.133 85.008 701.269 85.212 701.405 85.3858C702.961 87.4187 704.494 89.4819 706.012 91.545C707.538 93.6006 709.018 95.6939 710.506 97.7797L713.875 102.458L719.487 110.257L719.601 110.415C721.111 112.509 724.027 112.985 726.127 111.481C726.399 111.285 726.656 111.05 726.875 110.816C728.748 108.73 730.583 106.614 732.411 104.483L735.138 101.279L737.842 98.0518C739.64 95.898 741.445 93.7441 743.22 91.5752C744.882 89.5574 746.536 87.5321 748.175 85.4992L754.777 82.1816C758.138 80.2696 759.633 76.2113 758.319 72.5763L757.654 70.7701Z" fill="white"/>
<path d="M743.175 140.047C743.545 140.682 743.839 141.362 744.036 142.08C743.832 141.362 743.545 140.682 743.175 140.047Z" fill="white"/>
<path d="M744.202 142.806C744.293 143.297 744.338 143.796 744.338 144.31C744.338 143.796 744.293 143.297 744.202 142.806Z" fill="white"/>
<path d="M724.911 173.949L724.85 177.29L724.752 183.978L724.85 177.29L724.911 173.949Z" fill="white"/>
<path d="M725.455 152.358L725.304 157.248C725.251 159.477 725.19 161.699 725.13 163.929C725.19 161.699 725.251 159.477 725.304 157.248L725.455 152.358Z" fill="white"/>
<path d="M734.322 196.749C735.153 192.918 735.939 189.086 736.724 185.247C735.939 189.086 735.153 192.918 734.322 196.749Z" fill="white"/>
<path d="M724.752 183.978C724.722 187.416 724.692 190.855 724.684 194.293C724.692 190.855 724.714 187.416 724.752 183.978Z" fill="white"/>
<path d="M736.724 185.255L738.031 178.695L739.315 172.128L738.031 178.695L736.724 185.255Z" fill="white"/>
<path d="M715.401 150.294C716.609 150.544 717.818 150.786 719.026 151.043L725.447 152.365L725.296 157.255C725.243 159.484 725.182 161.706 725.122 163.935C725.062 166.165 725.009 168.387 724.971 170.616L724.903 173.956L724.835 177.297L724.737 183.985C724.707 187.423 724.676 190.862 724.669 194.3L734.307 196.756C735.138 192.925 735.923 189.093 736.709 185.254L738.016 178.695L739.292 172.135C740.153 167.759 740.954 163.376 741.777 159L744.179 145.858C744.277 145.337 744.323 144.823 744.315 144.309C744.315 143.803 744.27 143.296 744.179 142.805C744.134 142.563 744.081 142.314 744.013 142.08C743.817 141.362 743.522 140.682 743.152 140.047C742.162 138.354 740.591 137.016 738.658 136.344L737.434 135.921L730.961 133.653L726.028 131.893L715.401 150.294Z" fill="white"/>
<path d="M724.684 194.293L724.42 194.225L719.057 197.096L730.901 219.224C731.973 221.234 734.481 221.99 736.49 220.917L734.896 201.82C736.52 202.311 738.235 201.389 738.726 199.764L739.262 197.996L734.33 196.741L724.684 194.293ZM732.842 218.861L731.459 201.873L733.265 201.721L734.647 218.71L732.842 218.861Z" fill="white"/>
<path d="M733.266 201.752L731.459 201.899L732.844 218.892L734.651 218.745L733.266 201.752Z" fill="white"/>
<path d="M961.535 175.809C962.086 176.474 962.758 177.116 963.967 177.872C964.548 178.234 965.311 178.423 966.082 178.431C965.311 178.423 964.548 178.234 963.967 177.872C962.758 177.116 962.086 176.466 961.535 175.809Z" fill="white"/>
<path d="M961.308 175.521C961.157 175.332 961.014 175.136 960.87 174.939C961.014 175.136 961.157 175.332 961.308 175.521Z" fill="white"/>
<path d="M967.328 178.271C967.109 178.332 966.883 178.377 966.648 178.4C966.883 178.377 967.109 178.324 967.328 178.271Z" fill="white"/>
<path d="M960.87 174.939C960.726 174.743 960.575 174.539 960.409 174.327C960.575 174.539 960.726 174.743 960.87 174.939Z" fill="white"/>
<path d="M972.306 176.201C971.362 176.503 970.433 176.836 969.534 177.237C970.433 176.828 971.362 176.503 972.306 176.201Z" fill="white"/>
<path d="M974.005 175.649C973.439 175.838 972.872 176.012 972.306 176.201C972.872 176.012 973.439 175.838 974.005 175.649Z" fill="white"/>
<path d="M1123.59 96.1472L1123.09 94.2654C1122.65 92.6331 1120.69 91.9605 1119.34 92.9883L1115.36 96.0187C1115.13 96.0111 1114.91 96.0112 1114.68 96.0338C1113.8 96.1094 1112.94 96.4495 1112.22 97.0087C1112.03 97.1447 1111.87 97.3034 1111.7 97.4697C1111.62 97.5453 1111.54 97.6435 1111.47 97.7342C1111.39 97.8249 1111.32 97.9156 1111.25 98.0138C1111.18 98.1121 1111.12 98.2103 1111.06 98.3086L1110.97 98.4597L1110.95 98.4975L1110.94 98.5126L1110.93 98.5202L1110.91 98.5504C1110.86 98.6335 1110.8 98.7091 1110.75 98.7847C1110.53 99.1021 1110.28 99.4044 1110 99.6991C1109.85 99.8502 1109.71 99.9938 1109.56 100.137C1109.48 100.205 1109.41 100.281 1109.32 100.349L1109.06 100.583L1107.92 101.611L1107.96 101.656L1107.93 101.679L1106.94 103.961L1081.66 112.161L1067.32 104.626L1067.4 104.498L1058.52 98.8224L1049.72 95.331L1048.28 97.8778C1047.08 99.9938 1044.37 100.75 1042.26 99.5479C1040.14 98.3539 1039.39 95.6408 1040.59 93.5248L1041.43 92.036L1035.91 89.8444L1033.31 88.8015C1033.31 88.8015 1033.31 88.8091 1033.3 88.8166L1033.28 88.8091L1028.68 87.3203L1019.11 90.8571L1019.25 100.168L1024.83 101.226C1021.6 106.357 1020.84 110.03 1019.18 117.073C1017.74 119.567 1014.91 123.247 1011.89 126.996C1011.86 127.026 1011.83 127.064 1011.8 127.094L1011.84 126.996L1005.22 131.598C1002.78 133.299 1000.8 135.551 999.415 138.135C997.088 140.826 995.328 143.985 994.309 147.438L967.668 168.697L984.844 154.988L991.136 169.505C993.47 168.667 995.804 167.828 998.138 166.989C998.138 166.989 1001.88 163.996 1006.23 160.535L1012.89 165.591L1033.57 197.15L1018.16 173.632L1032.88 164.268L1040.75 194.86L1032.7 163.581L1020.91 145.587C1021.47 144.891 1022.04 144.196 1022.6 143.493C1022.85 143.176 1023.11 142.859 1023.37 142.534C1023.83 141.952 1024.3 141.37 1024.76 140.78C1025.04 140.44 1025.3 140.108 1025.57 139.768C1030.3 133.79 1035.03 127.585 1039.26 121.479C1040.45 120.806 1041.6 120.421 1042.82 119.847C1044.47 117.156 1046.34 114.436 1048.12 111.708L1061.88 113.627L1062.55 112.516L1078.91 119.696C1079.27 119.854 1079.65 119.953 1080.04 119.998C1080.39 120.126 1080.76 120.209 1081.14 120.232L1094.56 118.978L1112.25 109.289C1112.65 109.07 1119.09 105.707 1119.09 105.707C1122.74 104.029 1124.62 99.9938 1123.59 96.1472Z" fill="white"/>
<path d="M1019.12 90.8499L1001.36 89.4216C1000.96 89.3914 1000.56 89.4216 1000.19 89.5047C999.815 89.4972 999.438 89.5425 999.067 89.6408L986.793 95.2256L974.413 108.836C972.623 110.446 971.075 112.305 970.025 114.474L968.967 116.665C967.306 120.119 968.363 124.268 971.483 126.49L973.008 127.578C974.33 128.523 976.196 127.828 976.574 126.241L977.684 121.555C977.858 121.427 978.024 121.283 978.175 121.132C978.779 120.535 979.21 119.756 979.406 118.902C979.466 118.691 979.482 118.464 979.512 118.245C979.527 118.132 979.519 118.018 979.527 117.912C979.527 117.799 979.527 117.686 979.519 117.572C979.512 117.459 979.497 117.346 979.482 117.232L979.459 117.066L979.451 117.021V116.998V116.99L979.444 116.953C979.436 116.862 979.421 116.771 979.421 116.681C979.391 116.31 979.399 115.932 979.421 115.539C979.436 115.343 979.459 115.146 979.482 114.95C979.497 114.852 979.512 114.746 979.527 114.648L979.58 114.315L979.655 113.832L1001.26 97.4247L1019.26 100.153L1019.12 90.8499Z" fill="white"/>
<path d="M1018.19 173.624L1033.6 197.142L1036.24 211.705L1036.62 212C1046.06 219.602 1054.31 228.581 1061.1 238.609L1062.59 228.308L1062.7 228.293L1040.78 194.852L1032.91 164.261L1018.19 173.624Z" fill="white"/>
<path d="M1061.1 238.609L1061 239.35L1064.34 244.444L1085.31 230.682C1087.22 229.427 1087.75 226.873 1086.5 224.961L1062.7 228.294L1062.59 228.309L1061.1 238.609Z" fill="white"/>
<path d="M1040.59 93.5177C1039.39 95.6338 1040.14 98.3393 1042.26 99.5409C1044.37 100.735 1047.08 99.9867 1048.28 97.8707L1049.72 95.3239L1051.38 92.3842C1049.43 90.2077 1048.24 87.5324 1047.91 84.7513L1047.65 84.8193C1047.65 84.8193 1047.45 83.5119 1047.2 81.8418C1047.15 81.9174 1047.11 81.9929 1047.06 82.0761L1041.44 92.029L1040.59 93.5177Z" fill="white"/>
<path d="M1058.63 81.7731C1059.21 80.3221 1058.66 78.6217 1057.25 77.8358C1055.72 76.9743 1053.79 77.5108 1052.93 79.0374C1052.14 80.4355 1052.53 82.1812 1053.78 83.1259L1047.89 84.7582C1048.22 87.5318 1049.42 90.2146 1051.37 92.3911C1052.31 93.4491 1053.43 94.3862 1054.72 95.157C1054.74 95.1646 1054.74 95.1721 1054.76 95.1797C1056.66 96.3057 1059.12 95.618 1060.21 93.6985C1062.14 90.3128 1065.23 84.864 1067.22 81.3499L1064.9 80.035L1058.63 81.7731Z" fill="white"/>
<path d="M1047.9 84.7507L1053.78 83.1183C1052.54 82.1737 1052.14 80.428 1052.94 79.0299C1053.8 77.5033 1055.73 76.9667 1057.26 77.8283C1058.66 78.6218 1059.22 80.3146 1058.64 81.7656L1064.92 80.0199L1067.24 81.3348L1072.96 84.5693C1072.96 84.5693 1073.5 77.6393 1070.24 71.9109C1067.83 67.6789 1063.1 63.9229 1058.12 63.4544C1056.6 63.3108 1055.06 63.477 1053.55 64.0212C1049.06 65.6535 1046.48 70.0745 1046.13 74.692C1046.12 74.7525 1046.74 78.8712 1047.2 81.8412C1047.45 83.5113 1047.64 84.8187 1047.64 84.8187L1047.9 84.7507Z" fill="white"/>
<path d="M967.683 168.69L963.846 159.13L963.431 158.918C952.652 153.371 942.772 146.23 934.101 137.766L934.705 148.157L934.607 148.195C937.802 151.406 940.99 154.618 944.185 157.83C947.795 161.465 951.406 165.1 955.016 168.728C956.406 170.126 957.803 171.531 959.193 172.93C959.699 173.436 960.077 173.897 960.402 174.32C960.568 174.532 960.719 174.736 960.863 174.932C961.006 175.129 961.15 175.325 961.301 175.514C961.376 175.612 961.452 175.703 961.527 175.801C962.079 176.466 962.751 177.109 963.959 177.864C964.541 178.227 965.304 178.416 966.074 178.424C966.263 178.424 966.46 178.416 966.648 178.401C966.883 178.378 967.109 178.333 967.328 178.273C967.645 178.189 967.94 178.076 968.197 177.925C968.627 177.668 969.073 177.441 969.534 177.237C970.433 176.829 971.362 176.504 972.306 176.202C972.872 176.02 973.439 175.839 974.005 175.65C974.285 175.559 974.572 175.461 974.844 175.363C978.704 173.98 982.563 172.589 986.423 171.199C988.002 170.632 989.573 170.065 991.151 169.499L984.86 154.981L967.683 168.69Z" fill="white"/>
<path d="M934.101 137.765L934.056 137.016L929.765 132.701L911.977 150.4C910.361 152.01 910.353 154.625 911.962 156.242L934.615 148.194L934.713 148.156L934.101 137.765Z" fill="white"/>
<path d="M444.213 78.2289C443.752 76.7855 441.977 76.2716 440.814 77.2465L437.385 80.1258C437.181 80.1258 436.984 80.1409 436.78 80.1711C435.995 80.2769 435.247 80.617 434.62 81.146C434.462 81.2745 434.318 81.4256 434.182 81.5768C434.106 81.6524 434.046 81.7355 433.986 81.8186C433.925 81.9017 433.857 81.9849 433.804 82.0756C433.751 82.1662 433.699 82.2569 433.646 82.3476L433.57 82.4837L433.555 82.5214L433.548 82.5366L433.54 82.5441L433.525 82.5743C433.48 82.6499 433.442 82.7179 433.389 82.7935C433.208 83.0807 432.989 83.3679 432.754 83.6399C432.634 83.7759 432.513 83.912 432.377 84.048C432.309 84.116 432.248 84.184 432.18 84.252L431.954 84.4712L430.979 85.431L431.017 85.4688L430.994 85.4914L430.201 87.5697L407.972 95.9582L394.844 89.8369L394.905 89.7235L386.739 85.0304L378.733 82.2872L377.554 84.6224C376.58 86.5646 374.193 87.3505 372.252 86.3681C370.311 85.3932 369.525 83.0051 370.507 81.0629L371.195 79.695L366.172 77.972L363.815 77.1482L363.807 77.1558L363.792 77.1482L359.615 76.0146L351.231 79.5741L335.301 79.0527C334.946 79.0375 334.599 79.0904 334.259 79.1811C333.926 79.1887 333.594 79.2416 333.262 79.355L322.536 84.8566L312.059 97.5301C310.526 99.0416 309.219 100.772 308.381 102.752L307.527 104.755C306.19 107.906 307.308 111.564 310.186 113.423L311.599 114.33C312.822 115.116 314.454 114.413 314.726 112.985L315.519 108.753C315.67 108.632 315.813 108.496 315.942 108.352C316.455 107.793 316.81 107.083 316.946 106.304C316.992 106.108 316.999 105.911 317.014 105.715C317.022 105.616 317.014 105.518 317.014 105.412C317.007 105.314 317.007 105.208 316.992 105.11C316.977 105.012 316.961 104.914 316.939 104.808L316.909 104.657L316.901 104.619V104.604V104.596L316.893 104.566C316.878 104.483 316.871 104.407 316.856 104.324C316.818 103.999 316.803 103.659 316.81 103.304C316.818 103.13 316.825 102.949 316.841 102.775C316.848 102.684 316.856 102.594 316.863 102.503L316.893 102.201L316.939 101.762L335.535 86.2018L351.73 87.872L356.76 88.5824C354.086 93.3056 353.565 96.6157 352.387 102.979C351.201 105.269 348.837 108.67 346.291 112.146C346.268 112.176 346.246 112.206 346.223 112.237L346.253 112.146L340.543 116.537C338.436 118.154 336.766 120.247 335.633 122.62C333.669 125.122 332.234 128.016 331.471 131.145L308.577 151.255L304.748 142.881L304.362 142.707C294.498 138.211 285.381 132.256 277.276 125.061L277.208 124.396L273.197 120.723L258.06 137.281C256.686 138.785 256.791 141.12 258.295 142.496L278.183 134.349C281.166 137.085 284.157 139.821 287.148 142.549C290.525 145.64 293.909 148.731 297.285 151.821C298.584 153.015 299.891 154.202 301.19 155.396C301.545 155.721 301.832 156.023 302.089 156.303C302.255 156.492 302.414 156.673 302.557 156.847C303.35 157.814 303.917 158.615 305.662 159.59C305.926 159.741 306.236 159.847 306.56 159.915C306.727 159.953 306.893 159.976 307.059 159.991C307.225 160.006 307.399 160.006 307.573 160.006C307.958 159.991 308.343 159.923 308.698 159.809C308.97 159.719 309.227 159.613 309.446 159.462C309.665 159.311 309.899 159.175 310.126 159.046C310.36 158.918 310.594 158.797 310.828 158.676C312.022 158.094 313.291 157.663 314.529 157.187C314.779 157.089 315.028 156.991 315.27 156.892C318.661 155.494 322.045 154.089 325.436 152.683C328.866 151.262 332.302 149.841 335.732 148.421C335.732 148.421 338.949 145.594 342.688 142.314L348.852 146.546L368.657 173.851L371.633 186.743L371.973 186.993C380.734 193.379 388.469 201.049 394.965 209.718L394.897 210.383L398.092 214.788L416.243 201.609C417.889 200.415 418.26 198.102 417.059 196.455L395.947 200.437L374.964 171.508L366.451 143.917L355.159 128.349C355.627 127.706 356.103 127.056 356.579 126.406C356.798 126.112 357.009 125.817 357.221 125.522C357.614 124.978 358.006 124.434 358.407 123.882C358.633 123.572 358.852 123.263 359.079 122.953C363.052 117.413 367.01 111.677 370.53 106.04C371.572 105.39 372.577 104.997 373.649 104.43C375.009 101.959 376.565 99.4497 378.038 96.9407L390.41 98.0743L390.962 97.054L405.872 102.775C406.204 102.903 406.552 102.971 406.899 102.994C407.217 103.092 407.549 103.153 407.896 103.16L419.831 101.475L435.209 92.0738C435.557 91.8622 441.169 88.5899 441.169 88.5899C444.326 86.9424 445.837 83.2621 444.749 79.8688L444.213 78.2289Z" fill="white"/>
<path d="M370.515 81.0554C369.54 82.9976 370.326 85.3857 372.26 86.3605C374.201 87.3354 376.588 86.5495 377.562 84.6148L378.74 82.2796L380.1 79.5892C378.272 77.7302 377.094 75.3874 376.678 72.9237L376.452 72.9993C376.452 72.9993 376.225 71.8506 375.931 70.377C375.893 70.445 375.84 70.5054 375.802 70.5734L371.202 79.695L370.515 81.0554Z" fill="white"/>
<path d="M376.671 72.9165C377.086 75.3801 378.265 77.7229 380.092 79.5819C380.984 80.4888 382.019 81.2748 383.204 81.9096C383.212 81.9171 383.227 81.9247 383.235 81.9247C384.98 82.8542 387.147 82.1287 388.046 80.3679C389.625 77.2619 392.155 72.2665 393.787 69.0396L399.036 71.6846C399.036 71.6846 399.218 65.4726 396.068 60.4999C393.741 56.8271 389.36 53.6681 384.889 53.4641C383.529 53.4036 382.162 53.6152 380.833 54.1669C376.897 55.8144 374.775 59.8726 374.662 64.0065C374.662 64.0594 375.394 67.7322 375.915 70.3621C376.21 71.8358 376.437 72.9845 376.437 72.9845L376.671 72.9165Z" fill="white"/>
<path d="M667.755 120.723L672.687 115.116C673.14 112.849 673.609 110.581 674.092 108.322C674.643 105.669 675.225 103.024 675.807 100.379L676.683 96.4115L677.589 92.4515C678.201 89.814 678.835 87.1841 679.508 84.5617C679.961 82.816 681.419 81.4255 683.315 81.1459L683.511 81.1156L698.875 78.856C701.435 78.4857 704.003 78.1381 706.556 77.7224C709.117 77.3143 711.67 76.8987 714.223 76.4452C714.434 76.4075 714.676 76.3772 714.895 76.3697C718.083 76.1807 720.817 78.6142 721.006 81.8033C721.195 84.9925 718.763 87.7282 715.575 87.9172C712.984 88.0683 710.409 88.2572 707.825 88.4613C705.242 88.6502 702.666 88.9072 700.091 89.1414L687.688 90.2448C687.227 91.7789 686.751 93.313 686.268 94.8396L685.029 98.7089L683.76 102.571C682.914 105.148 682.068 107.717 681.2 110.287C680.339 112.856 680.323 113.219 679.432 115.781C679.394 115.887 679.122 118.675 679.122 118.675L673.76 131.53C673.125 133.049 671.161 133.442 669.99 132.278L668.646 130.941C665.912 128.197 665.534 123.89 667.755 120.723Z" fill="#DDA08C"/>
<path d="M698.814 126.481C698.603 126.504 698.429 126.557 698.24 126.594C698.066 126.64 697.893 126.685 697.726 126.738C697.56 126.791 697.409 126.851 697.251 126.904L696.805 127.093C696.231 127.35 695.74 127.66 695.294 127.993C694.411 128.665 693.753 129.466 693.24 130.35L691.669 132.995L690.128 135.656C688.096 139.215 686.147 142.827 684.289 146.485L682.907 149.236L681.547 152.002C680.641 153.846 679.757 155.705 678.858 157.549L676.184 163.104L673.48 168.643L678.027 164.698L665.526 170.842C661.372 172.92 657.203 174.968 653.063 177.069L646.839 180.213L640.631 183.387C636.499 185.526 632.367 187.657 628.258 189.849C625.97 191.073 625.101 193.922 626.332 196.219C627.397 198.207 629.686 199.121 631.77 198.524C636.25 197.247 640.699 195.895 645.148 194.557L651.81 192.509L658.464 190.438C662.905 189.063 667.317 187.634 671.75 186.229L684.999 181.936C686.6 181.415 687.907 180.395 688.791 179.102L689.546 177.991L693.021 172.898L696.525 167.827C697.689 166.134 698.867 164.449 700.015 162.748L701.745 160.202L703.452 157.64C705.71 154.209 707.886 150.732 709.97 147.203L711.519 144.551L713.037 141.883C713.558 140.999 713.928 140.031 714.072 138.928C714.14 138.376 714.163 137.794 714.11 137.167L714.057 136.691C714.027 136.525 714.004 136.366 713.966 136.192C713.936 136.026 713.891 135.852 713.838 135.671C713.777 135.482 713.732 135.316 713.649 135.119C711.141 129.119 704.978 125.748 698.814 126.481Z" fill="url(#paint3_linear)"/>
<path d="M699.229 145.201C702.357 146.909 699.955 145.616 699.955 145.616C706.828 146.319 712.637 145.495 714.827 137.447C719.253 121.176 725.092 105.601 732.887 90.3275C735.47 85.2641 732.925 82.3773 729.194 79.7927C727.592 78.6818 724.548 77.2535 722.464 76.6489C717.373 75.1677 714.193 75.3944 711.269 80.949C702.915 96.8041 697.432 113.921 692.243 130.456C689.659 138.686 696.072 143.47 699.229 145.201Z" fill="#373C41"/>
<path d="M725.56 83.4502C727.532 84.8709 730.304 84.4251 731.724 82.4602L738.091 73.6484C739.511 71.676 739.066 68.9025 737.102 67.4817C735.131 66.0609 732.358 66.5068 730.938 68.4717L724.571 77.2835C723.143 79.2559 723.589 82.0294 725.56 83.4502Z" fill="#DEA095"/>
<path d="M677.393 160.609L676.192 163.103L674.583 166.391L665.534 170.842C661.38 172.92 657.21 174.968 653.071 177.069L646.847 180.213L640.638 183.387C636.507 185.526 632.375 187.657 628.266 189.848C627.722 190.136 627.269 190.521 626.891 190.959L630.169 198.683C630.706 198.721 631.249 198.668 631.778 198.517C636.257 197.239 640.706 195.887 645.155 194.549L651.817 192.501L658.472 190.43C662.913 189.055 667.324 187.627 671.758 186.221L685.007 181.928C686.608 181.407 687.915 180.387 688.798 179.094L689.554 177.983L692.394 173.819L677.393 160.609Z" fill="#DDA08C"/>
<path d="M743.349 55.8514L751.506 68.6231L746.884 75.0166C746.808 75.1375 746.733 75.2584 746.649 75.3793C746.453 75.674 746.242 75.9537 746.015 76.2182L745.637 76.6111C745.252 77.0192 744.844 77.3971 744.399 77.7296C741.513 79.8457 737.563 80.1933 734.315 78.3115C734.285 78.2964 734.254 78.2737 734.224 78.2586C728.249 74.7294 726.376 66.9001 730.221 61.0205C733.099 56.6222 738.439 54.6573 743.349 55.8514Z" fill="#DDA08C"/>
<path d="M745.433 53.6521C745.464 53.6748 745.494 53.6975 745.524 53.7201H745.532L760.321 64.4136L752.126 65.2298L756.847 69.22C751.491 69.4694 746.128 68.9102 740.939 67.5499L739.549 67.1871C740.433 65.4943 739.836 63.3254 738.031 62.3807C736.694 61.6779 735.01 61.9273 733.937 62.9853C733.235 63.6806 732.88 64.5572 732.857 65.4339L728.718 71.1169C725.417 66.9378 725.13 60.9222 728.408 56.3878C732.343 50.9315 739.972 49.6997 745.433 53.6521Z" fill="#623C34"/>
<path d="M639.497 199.25L627.744 189.434L621.664 189.706L622.797 214.781C622.903 217.063 624.829 218.824 627.11 218.718L633.916 200.807C635.169 201.956 637.111 201.865 638.259 200.611L639.497 199.25Z" fill="#373C41"/>
<path d="M630.768 199.33L624.688 215.257L626.382 215.904L632.462 199.977L630.768 199.33Z" fill="white"/>
<path d="M679.168 118.705L678.707 120.125L678.601 120.45C678.571 120.549 678.541 120.647 678.511 120.745C678.45 120.942 678.397 121.13 678.352 121.327C678.262 121.712 678.194 122.09 678.163 122.461C678.156 122.551 678.148 122.649 678.148 122.74V122.778V122.785V122.808V122.854V123.027C678.148 123.141 678.141 123.254 678.133 123.367C678.118 123.481 678.103 123.594 678.08 123.707C678.058 123.821 678.042 123.934 678.012 124.04C677.952 124.259 677.891 124.478 677.801 124.675C677.461 125.499 676.909 126.201 676.207 126.693C675.512 127.191 674.666 127.501 673.805 127.531C673.699 127.531 673.594 127.531 673.488 127.531L673.329 127.524C673.276 127.524 673.223 127.516 673.171 127.509C672.959 127.479 672.763 127.463 672.551 127.395C672.445 127.365 672.34 127.335 672.241 127.305C672.219 127.297 672.189 127.29 672.166 127.282L672.121 127.267L672.03 127.229L671.683 127.078L670.285 126.489L671.275 123.496L672.695 123.836L673.05 123.919L673.14 123.942L673.186 123.949C673.201 123.949 673.201 123.949 673.201 123.949C673.216 123.942 673.239 123.942 673.254 123.942C673.284 123.949 673.329 123.927 673.367 123.927C673.374 123.927 673.39 123.927 673.397 123.927L673.427 123.912C673.442 123.904 673.465 123.896 673.48 123.896C673.616 123.844 673.714 123.745 673.797 123.639C673.881 123.534 673.918 123.383 673.911 123.277C673.918 123.254 673.903 123.224 673.903 123.201C673.903 123.194 673.896 123.178 673.888 123.171C673.881 123.163 673.881 123.148 673.881 123.141C673.873 123.133 673.865 123.118 673.858 123.11C673.858 123.103 673.85 123.103 673.85 123.095V123.08L673.843 123.02C673.82 122.861 673.805 122.71 673.79 122.551C673.737 121.932 673.737 121.319 673.775 120.722C673.79 120.42 673.82 120.125 673.858 119.838C673.873 119.695 673.896 119.551 673.918 119.407L673.979 119.007L674.205 117.533L679.168 118.705Z" fill="url(#paint4_linear)"/>
<path d="M714.283 81.4705C717.04 79.7701 720.704 80.7677 722.358 83.5563C723.642 85.7252 724.964 87.8715 726.286 90.0102C727.63 92.1942 729.02 94.348 730.402 96.5019L735.501 104.535C736.037 103.991 736.581 103.439 737.125 102.895L740.101 99.9177L743.099 96.9629C745.101 94.998 747.103 93.0255 749.119 91.0758C751.136 89.1184 753.161 87.1762 755.2 85.2416C755.245 85.2038 755.245 85.0753 755.23 84.9166C755.124 84.0626 755.366 83.2011 755.933 82.5512L756.167 82.3018C756.235 82.2262 756.31 82.1506 756.378 82.0751C756.514 81.9239 756.643 81.7728 756.771 81.6141C757.02 81.3042 757.239 80.9944 757.428 80.6694C757.473 80.5863 757.519 80.5107 757.564 80.4276L757.579 80.3974L757.587 80.3898L757.594 80.3747L757.609 80.3369L757.685 80.1858C757.738 80.08 757.791 79.9817 757.844 79.8835C757.904 79.7852 757.972 79.6945 758.032 79.5963C758.1 79.5056 758.161 79.4074 758.236 79.3242C758.387 79.1504 758.531 78.9842 758.697 78.833C759.354 78.236 760.155 77.8355 761.001 77.6843C761.212 77.6465 761.431 77.6238 761.658 77.6163L765.269 74.3591C766.492 73.2558 768.433 73.747 768.992 75.2887L769.634 77.0722C770.949 80.7072 769.453 84.7655 766.092 86.6774L759.49 89.9951C757.851 92.028 756.197 94.0533 754.535 96.0711C752.76 98.2476 750.955 100.394 749.157 102.548L746.453 105.775L743.726 108.986C741.898 111.118 740.063 113.234 738.19 115.319C737.971 115.554 737.714 115.796 737.442 115.984C735.35 117.496 732.427 117.02 730.916 114.919L730.803 114.76L721.829 102.283C720.341 100.197 718.861 98.104 717.335 96.0484C715.817 93.9853 714.283 91.9297 712.727 89.8893C712.599 89.7155 712.456 89.5114 712.342 89.3225C710.741 86.6245 711.602 83.1255 714.283 81.4705Z" fill="#DDA08C"/>
<path d="M694.199 124.244C694.592 123.012 694.985 121.788 695.385 120.549L717.478 128.325C717.358 128.711 717.244 129.096 717.123 129.489C719.057 130.094 720.983 130.713 722.909 131.356L726.157 132.451L729.39 133.585C731.55 134.333 733.703 135.112 735.856 135.875L742.314 138.18L748.787 140.447L750.011 140.87C753.878 142.223 756.295 146.228 755.532 150.385L753.13 163.527C752.299 167.903 751.499 172.286 750.645 176.661L749.369 183.221L748.062 189.781C747.171 194.149 746.279 198.525 745.32 202.885C744.852 205.001 742.963 206.596 740.697 206.581C738.099 206.565 736.029 204.381 736.022 201.782C735.999 197.353 736.045 192.932 736.09 188.511L736.188 181.823L736.317 175.135C736.392 170.676 736.528 166.225 736.641 161.774L736.792 156.884L730.372 155.562C728.136 155.101 725.893 154.647 723.657 154.171L720.303 153.461L716.957 152.72C712.501 151.715 708.074 150.612 703.671 149.418L700.378 148.503L697.092 147.558C695.989 147.256 694.939 146.788 693.957 146.07C693.466 145.707 692.99 145.291 692.537 144.785L692.205 144.392C692.099 144.248 691.986 144.112 691.88 143.961C691.774 143.81 691.669 143.651 691.57 143.493C691.472 143.311 691.366 143.153 691.276 142.949C689.682 139.442 689.72 135.482 691.2 132.074C692.303 129.512 693.353 126.912 694.199 124.244Z" fill="#373C41"/>
<path d="M750.003 140.878L748.779 140.455L742.306 138.188L737.374 136.427L726.724 154.829C727.932 155.078 729.141 155.32 730.349 155.577L736.77 156.899L736.619 161.789C736.513 166.24 736.377 170.691 736.294 175.15L736.165 181.838L736.067 188.526C736.022 192.947 735.977 197.368 735.999 201.797C736.014 204.397 738.076 206.588 740.675 206.596C742.941 206.611 744.829 205.016 745.297 202.9C746.257 198.54 747.148 194.164 748.039 189.796L749.346 183.236L750.622 176.677C751.484 172.301 752.284 167.918 753.107 163.542L755.509 150.4C756.287 146.229 753.87 142.231 750.003 140.878Z" fill="#DDA08C"/>
<path d="M750.585 202.537L735.742 198.759L730.379 201.631L742.223 223.758C743.296 225.768 745.803 226.524 747.813 225.451L746.219 206.354C747.843 206.845 749.557 205.923 750.048 204.298L750.585 202.537Z" fill="#373C41"/>
<path d="M744.594 206.293L742.788 206.44L744.173 223.433L745.98 223.286L744.594 206.293Z" fill="white"/>
<path d="M1016.52 154.965C1016.27 155.207 1016.16 155.305 1016.52 154.965V154.965Z" fill="#A4E603"/>
<path d="M1014.98 141.619C1019.48 136.012 1027.68 126.52 1030.52 121.608C1032.26 114.209 1033 110.536 1036.67 104.982C1038.7 101.906 1040.82 97.8552 1043.2 94.8927C1043.69 94.2881 1044.17 93.7667 1044.64 93.3359L1063.3 100.855C1065.4 103.531 1065.33 106.153 1063.11 110.264C1060.55 114.995 1057.04 119.733 1054.18 124.374C1052.96 124.94 1051.81 125.333 1050.62 126.006C1044.27 135.158 1036.83 144.551 1029.89 153.031C1025.61 158.275 1021.61 158.366 1016.52 154.973C1011.43 151.58 1011.41 146.07 1014.98 141.619Z" fill="#373C41"/>
<path d="M1012.91 153.847C1012.91 153.824 1012.91 153.802 1012.9 153.771C1012.91 153.794 1012.91 153.824 1012.91 153.847Z" fill="#373C41"/>
<path d="M1012.92 153.893C1012.92 153.878 1012.91 153.863 1012.91 153.848C1012.92 153.863 1012.92 153.878 1012.92 153.893Z" fill="#373C41"/>
<path d="M1012.92 153.893C1012.94 153.953 1012.94 153.982 1012.92 153.893V153.893Z" fill="#373C41"/>
<path d="M1012.9 153.771C1012.89 153.733 1012.88 153.703 1012.88 153.688C1012.89 153.718 1012.9 153.741 1012.9 153.771Z" fill="#373C41"/>
<path d="M944.072 140.984C953.068 150.03 963.423 157.61 974.761 163.452L975.177 163.664L979.014 173.224L1005.65 151.965C1007.12 147.023 1010.07 142.655 1014.09 139.435L1016.12 137.826C1021.02 133.918 1028.18 134.84 1031.93 139.866C1032.87 141.12 1033.5 142.511 1033.84 143.947L1031.48 143.758L1022.93 160.8C1016.87 165.636 1009.5 171.516 1009.5 171.516C1005.59 172.921 1001.68 174.327 997.769 175.733C993.909 177.123 990.049 178.514 986.189 179.897C983.961 180.698 981.589 181.234 979.542 182.459C978.372 183.161 976.468 183.124 975.305 182.406C972.548 180.69 972.563 179.511 970.539 177.478C969.149 176.08 967.752 174.675 966.362 173.277C962.751 169.642 959.141 166.007 955.53 162.379C952.041 158.865 948.551 155.351 945.054 151.837C943.15 149.917 941.239 148.005 939.336 146.086C939.275 146.025 939.215 145.965 939.147 145.897L944.072 140.984Z" fill="url(#paint5_linear)"/>
<path d="M1009.15 146.668C1010.31 142.39 1012.93 138.657 1016.57 136.125L1023.19 131.523L1023.15 131.621C1023.18 131.583 1023.22 131.546 1023.25 131.508L1036.93 144.28C1035.37 146.252 1033.81 148.194 1032.26 150.099L1044.06 168.092L1052.11 199.372L1079.31 240.876L1073.5 244.693C1066.5 234.022 1057.88 224.515 1047.94 216.519L1047.57 216.225L1044.92 201.662L1024.24 170.103L1016.36 164.125L1010.78 155.608L1010.61 155.343C1010.54 155.238 1010.48 155.132 1010.42 155.026L1007.96 151.081L1009.15 146.668Z" fill="#373C41"/>
<path d="M1057.42 104.37C1058.65 101.566 1061.99 100.394 1064.7 101.815L1092.99 116.68L1118.27 108.481L1119.26 106.198L1130.66 97.5151C1132.01 96.4873 1133.96 97.1599 1134.41 98.7923L1134.91 100.674C1135.95 104.521 1134.06 108.556 1130.45 110.226C1130.45 110.226 1124.01 113.582 1123.61 113.809L1105.93 123.497L1092.5 124.751C1092.12 124.729 1091.75 124.646 1091.4 124.517C1091.01 124.472 1090.63 124.374 1090.27 124.215L1070.91 115.713C1068.35 116.711 1065.49 116.65 1062.98 115.547L1061.53 114.912C1057.48 113.143 1055.64 108.42 1057.42 104.37Z" fill="url(#paint6_linear)"/>
<path d="M980.298 121.207L981.355 119.015C982.397 116.846 983.953 114.987 985.744 113.377L998.124 99.7668L1010.4 94.182C1010.78 94.0762 1011.15 94.0385 1011.52 94.046C1011.89 93.9629 1012.29 93.9251 1012.69 93.9629L1033.76 95.6557C1035.85 93.8722 1038.57 92.9955 1041.31 93.2147L1042.89 93.3432C1047.3 93.6984 1050.58 97.5601 1050.23 101.966C1049.98 105.019 1047.21 107.218 1044.18 106.765L1012.59 101.981L990.986 118.388L990.91 118.872L990.857 119.204C990.842 119.302 990.827 119.408 990.812 119.506C990.789 119.703 990.767 119.907 990.751 120.096C990.721 120.489 990.721 120.867 990.751 121.237C990.759 121.328 990.767 121.418 990.774 121.509L990.782 121.547V121.554V121.577L990.789 121.622L990.812 121.789C990.827 121.902 990.842 122.015 990.85 122.129C990.857 122.242 990.857 122.355 990.857 122.469C990.857 122.582 990.857 122.696 990.842 122.801C990.819 123.021 990.797 123.247 990.736 123.459C990.54 124.32 990.109 125.091 989.505 125.688C989.354 125.839 989.188 125.983 989.014 126.111L987.904 130.797C987.526 132.384 985.668 133.079 984.339 132.135L982.813 131.046C979.693 128.809 978.636 124.66 980.298 121.207Z" fill="#EEB5AC"/>
<path d="M1044.23 168.795L1052.11 199.387L1079.31 240.891L1073.5 244.708C1066.5 234.037 1057.88 224.53 1047.94 216.534L1047.57 216.239L1044.92 201.677L1029.52 178.158L1044.23 168.795Z" fill="#EEB5AC"/>
<path d="M1016.52 154.965C1016.27 155.207 1016.16 155.305 1016.52 154.965V154.965Z" fill="#373C41"/>
<path d="M1044.62 93.3364L1069.84 103.342L1078.72 109.018L1073.24 118.154L1057.31 115.933L1036.17 105.753L1030.59 104.695L1030.45 95.3845L1040.01 91.8477L1044.62 93.3364Z" fill="#373C41"/>
<path d="M1073.92 232.843L1072.32 243.884L1075.66 248.978L1096.63 235.216C1098.54 233.961 1099.07 231.407 1097.82 229.495L1073.92 232.843Z" fill="#373C41"/>
<path d="M1095.74 231.541L1078.95 234.429L1079.26 236.216L1096.05 233.328L1095.74 231.541Z" fill="white"/>
<path d="M1053.59 104.075C1055.7 105.269 1058.41 104.52 1059.61 102.404L1066.07 90.9627C1067.27 88.8467 1065.4 88.1136 1063.29 86.912L1064.4 84.9396C1062.29 83.7455 1059.59 84.4937 1058.38 86.6097L1051.92 98.0514C1050.72 100.167 1051.47 102.88 1053.59 104.075Z" fill="#DEA095"/>
<path d="M1075.13 73.0743C1075.29 73.1726 1075.45 73.2708 1075.6 73.3691C1075.69 73.4295 1075.77 73.49 1075.86 73.5505C1075.92 73.5958 1075.98 73.6411 1076.04 73.6865C1076.16 73.7696 1076.27 73.8603 1076.38 73.951C1076.41 73.9737 1076.44 73.9963 1076.47 74.019C1076.6 74.1248 1076.73 74.2382 1076.86 74.344C1076.87 74.3515 1076.87 74.3591 1076.89 74.3666C1077.42 74.8427 1077.89 75.3718 1078.32 75.9234C1079.75 77.8354 1080.51 80.1479 1080.49 82.468C1080.49 82.468 1074.57 92.897 1071.55 98.2098C1070.45 100.129 1068 100.825 1066.1 99.691C1066.08 99.6834 1066.07 99.6759 1066.06 99.6683C1060.69 96.4641 1058.18 90.3502 1059.46 84.7654C1059.4 84.5992 1059.36 84.4253 1059.32 84.2591C1059.28 84.0928 1059.25 83.919 1059.21 83.7527V83.7452C1059.18 83.5789 1059.15 83.4127 1059.12 83.2389C1059.12 83.2313 1059.12 83.2237 1059.12 83.2162C1059.1 83.0499 1059.08 82.8837 1059.06 82.7174C1059.06 82.7098 1059.06 82.6947 1059.06 82.6872C1059.05 82.5285 1059.04 82.3622 1059.03 82.2035C1059.03 82.1884 1059.03 82.1733 1059.03 82.1582C1059.03 81.9995 1059.03 81.8483 1059.03 81.6896C1059.03 81.6669 1059.03 81.6443 1059.03 81.6292C1059.03 81.478 1059.03 81.3269 1059.04 81.1757C1059.04 81.1455 1059.04 81.1228 1059.05 81.0926C1059.06 80.949 1059.07 80.8054 1059.09 80.6618C1059.09 80.6316 1059.09 80.5938 1059.09 80.5636C1059.11 80.4276 1059.13 80.2915 1059.15 80.1555C1059.16 80.1177 1059.16 80.0799 1059.17 80.0421C1059.19 79.9137 1059.22 79.7852 1059.25 79.6492C1059.25 79.6038 1059.26 79.5585 1059.28 79.5131C1059.31 79.3922 1059.34 79.2637 1059.37 79.1428C1059.38 79.0975 1059.39 79.0446 1059.4 78.9992C1059.43 78.8783 1059.47 78.765 1059.51 78.644C1059.52 78.5911 1059.54 78.5382 1059.56 78.4853C1059.6 78.372 1059.65 78.2586 1059.68 78.1453C1059.71 78.0924 1059.72 78.0319 1059.74 77.979C1059.79 77.8656 1059.83 77.7598 1059.89 77.6465C1059.91 77.5936 1059.93 77.5331 1059.96 77.4802C1060.02 77.3669 1060.08 77.2535 1060.13 77.1402C1060.15 77.0948 1060.17 77.0419 1060.2 76.9966C1060.29 76.8379 1060.38 76.6792 1060.48 76.5205C1063.43 71.5553 1070 70.0061 1075.13 73.0743Z" fill="#EEB5AC"/>
<path d="M1064.88 68.5631C1066.39 68.019 1067.93 67.8528 1069.45 67.9964C1074.44 68.4649 1079.16 72.2209 1081.57 76.4529C1084.82 82.1738 1084.29 89.1113 1084.29 89.1113L1076.25 84.5618L1069.97 86.3076C1070.55 84.8566 1069.99 83.1562 1068.59 82.3702C1067.06 81.5087 1065.13 82.0453 1064.27 83.5719C1063.48 84.9699 1063.87 86.7157 1065.11 87.6603L1058.97 89.3683C1058.97 89.3683 1057.46 79.3398 1057.46 79.2491C1057.81 74.6241 1060.39 70.1955 1064.88 68.5631Z" fill="#623C34"/>
<path d="M1119.25 106.145L1120.39 105.118L1120.65 104.883C1120.73 104.815 1120.81 104.74 1120.89 104.672C1121.04 104.528 1121.19 104.385 1121.33 104.234C1121.61 103.939 1121.86 103.636 1122.08 103.319C1122.13 103.243 1122.19 103.16 1122.24 103.085L1122.26 103.055L1122.27 103.047L1122.28 103.032L1122.3 102.994L1122.39 102.843C1122.45 102.745 1122.52 102.646 1122.58 102.548C1122.65 102.458 1122.72 102.359 1122.8 102.269C1122.87 102.178 1122.94 102.087 1123.03 102.004C1123.2 101.845 1123.37 101.679 1123.55 101.543C1124.27 100.984 1125.13 100.644 1126.01 100.568C1126.89 100.485 1127.8 100.644 1128.58 101.059C1128.68 101.112 1128.77 101.165 1128.86 101.226L1129 101.309C1129.05 101.339 1129.09 101.369 1129.13 101.407C1129.3 101.543 1129.47 101.664 1129.63 101.83C1129.7 101.906 1129.79 101.989 1129.86 102.072C1129.88 102.087 1129.91 102.117 1129.91 102.133L1129.94 102.17L1130 102.246L1130.24 102.556L1131.18 103.803L1128.75 105.957L1127.66 104.914L1127.39 104.657L1127.32 104.589L1127.29 104.558C1127.29 104.551 1127.29 104.551 1127.28 104.551C1127.26 104.543 1127.24 104.543 1127.23 104.536C1127.2 104.521 1127.15 104.506 1127.12 104.49C1127.11 104.49 1127.1 104.483 1127.09 104.475L1127.06 104.468C1127.04 104.468 1127.02 104.46 1127.01 104.453C1126.86 104.43 1126.72 104.46 1126.59 104.521C1126.46 104.574 1126.36 104.687 1126.3 104.785C1126.28 104.808 1126.29 104.838 1126.27 104.861C1126.27 104.868 1126.27 104.883 1126.27 104.899C1126.27 104.914 1126.26 104.921 1126.26 104.929C1126.26 104.944 1126.26 104.951 1126.26 104.967C1126.26 104.974 1126.26 104.974 1126.26 104.982L1126.25 104.997L1126.23 105.05C1126.17 105.201 1126.1 105.344 1126.03 105.488C1125.76 106.07 1125.44 106.614 1125.1 107.128C1124.93 107.385 1124.76 107.634 1124.57 107.876C1124.48 107.997 1124.39 108.118 1124.29 108.231L1124.03 108.556L1123.07 109.758L1119.25 106.145Z" fill="url(#paint7_linear)"/>
<path d="M940.121 146.871L940.975 144.068L944.072 140.984C953.068 150.03 963.423 157.61 974.761 163.452L975.176 163.664L979.014 173.224L996.19 159.515L1002.48 174.032C1000.9 174.599 999.332 175.166 997.753 175.733C993.894 177.123 990.034 178.514 986.174 179.897C983.946 180.698 981.574 181.234 979.527 182.459C978.356 183.161 976.453 183.124 975.29 182.406C972.533 180.69 972.548 179.511 970.524 177.478C969.134 176.08 967.736 174.675 966.347 173.277C962.736 169.641 959.126 166.006 955.515 162.379C952.025 158.865 948.536 155.351 945.039 151.837C943.407 150.174 941.76 148.527 940.121 146.871Z" fill="#EEB5AC"/>
<path d="M946.035 152.691L945.386 141.552L941.096 137.236L923.307 154.935C921.691 156.545 921.683 159.16 923.292 160.777L946.035 152.691Z" fill="#373C41"/>
<path d="M940.043 150.46L924.172 156.664L924.832 158.353L940.703 152.149L940.043 150.46Z" fill="white"/>
<path d="M352.644 137.915C352.432 138.135 352.334 138.233 352.644 137.915V137.915Z" fill="#A4E603"/>
<path d="M350.695 126.058C354.479 120.858 361.398 112.039 363.732 107.527C364.971 100.847 365.477 97.5368 368.521 92.4205C370.205 89.5865 371.927 85.8759 373.929 83.1326C374.337 82.5734 374.745 82.0897 375.145 81.6816L392.117 87.6065C394.104 89.9039 394.149 92.2542 392.344 96.0177C390.267 100.348 387.329 104.724 384.979 109.001C383.907 109.56 382.902 109.961 381.86 110.611C376.573 119.052 370.326 127.758 364.495 135.618C360.892 140.485 357.327 140.734 352.636 137.915C347.945 135.096 347.696 130.184 350.695 126.058Z" fill="#373C41"/>
<path d="M349.373 137.06C349.365 137.038 349.365 137.015 349.358 136.992C349.365 137.015 349.365 137.038 349.373 137.06Z" fill="#373C41"/>
<path d="M349.38 137.106C349.38 137.091 349.373 137.083 349.373 137.068C349.38 137.083 349.38 137.091 349.38 137.106Z" fill="#373C41"/>
<path d="M349.381 137.107C349.396 137.16 349.403 137.182 349.381 137.107V137.107Z" fill="#373C41"/>
<path d="M349.358 136.994C349.35 136.963 349.343 136.933 349.343 136.918C349.35 136.948 349.35 136.971 349.358 136.994Z" fill="#373C41"/>
<path d="M349.343 136.917C349.343 136.91 349.343 136.91 349.335 136.902C349.335 136.902 349.335 136.91 349.343 136.917Z" fill="#373C41"/>
<path d="M287.352 128.492C295.767 136.193 305.337 142.526 315.708 147.249L316.093 147.423L319.922 155.796L342.817 135.686C343.912 131.212 346.359 127.184 349.819 124.146L351.556 122.62C355.771 118.917 362.206 119.446 365.764 123.776C366.655 124.857 367.274 126.073 367.637 127.336L365.522 127.268L358.603 142.851C353.399 147.423 347.069 152.985 347.069 152.985C343.64 154.406 340.203 155.826 336.774 157.247C333.382 158.653 329.999 160.051 326.607 161.457C324.651 162.265 322.558 162.847 320.776 164.026C319.756 164.699 318.057 164.751 316.992 164.154C314.461 162.741 314.424 161.691 312.528 159.953C311.228 158.759 309.922 157.572 308.623 156.378C305.246 153.287 301.862 150.196 298.486 147.105C295.223 144.113 291.952 141.128 288.689 138.135C286.907 136.502 285.124 134.87 283.341 133.238C283.281 133.185 283.228 133.132 283.168 133.079L287.352 128.492Z" fill="url(#paint8_linear)"/>
<path d="M345.71 130.812C346.556 126.942 348.746 123.496 351.888 121.086L357.599 116.695L357.568 116.785C357.591 116.748 357.621 116.717 357.652 116.68L370.417 127.509C369.11 129.338 367.796 131.137 366.497 132.905L377.789 148.473L386.301 176.065L412.345 211.977L407.315 215.627C400.615 206.392 392.518 198.268 383.303 191.549L382.963 191.3L379.987 178.407L360.182 151.103L352.893 146.1L347.545 138.724L347.379 138.497C347.311 138.407 347.251 138.316 347.198 138.225L344.833 134.81L345.71 130.812Z" fill="#373C41"/>
<path d="M387.019 90.9999C388.001 88.4455 390.939 87.259 393.417 88.4153L419.302 100.492L441.531 92.1032L442.325 90.025L452.144 81.7876C453.307 80.8127 455.082 81.3266 455.543 82.77L456.072 84.4326C457.159 87.8258 455.649 91.5062 452.491 93.1537C452.491 93.1537 446.879 96.426 446.532 96.6376L431.153 106.039L419.219 107.724C418.871 107.717 418.539 107.664 418.222 107.558C417.874 107.535 417.527 107.467 417.195 107.339L399.55 100.567C397.307 101.565 394.754 101.633 392.457 100.756L391.135 100.25C387.449 98.8292 385.606 94.6878 387.019 90.9999Z" fill="#7F4E46"/>
<path d="M318.865 109.296L319.718 107.294C320.557 105.314 321.864 103.591 323.397 102.072L333.873 89.3981L344.599 83.8965C344.931 83.7907 345.264 83.7378 345.596 83.7226C345.929 83.632 346.284 83.5866 346.639 83.5942L365.529 84.2139C367.327 82.5362 369.714 81.6368 372.169 81.7124L373.581 81.7578C377.532 81.8862 380.629 85.1963 380.5 89.1488C380.41 91.8845 378.023 93.9703 375.304 93.6907L346.895 90.7584L328.299 106.319L328.254 106.757L328.223 107.059C328.216 107.15 328.208 107.241 328.201 107.332C328.186 107.513 328.178 107.687 328.171 107.861C328.163 108.208 328.178 108.548 328.216 108.881C328.223 108.964 328.239 109.047 328.254 109.123L328.261 109.153V109.16V109.175L328.269 109.213L328.299 109.364C328.314 109.463 328.337 109.561 328.352 109.667C328.359 109.765 328.367 109.871 328.375 109.969C328.375 110.067 328.382 110.173 328.375 110.271C328.359 110.468 328.352 110.672 328.307 110.861C328.163 111.639 327.816 112.35 327.302 112.909C327.174 113.052 327.03 113.188 326.879 113.309L326.086 117.541C325.821 118.97 324.182 119.672 322.959 118.887L321.546 117.98C318.653 116.113 317.528 112.448 318.865 109.296Z" fill="#7F4E46"/>
<path d="M377.97 149.085L386.301 176.072L412.345 211.984L407.315 215.634C400.615 206.399 392.518 198.275 383.303 191.557L382.963 191.307L379.987 178.415L365.228 158.071L377.97 149.085Z" fill="#7F4E46"/>
<path d="M352.644 137.916C352.432 138.135 352.334 138.234 352.644 137.916V137.916Z" fill="#373C41"/>
<path d="M375.122 81.6893L398.077 89.5564L406.242 94.2494L401.733 102.638L387.419 101.331L368.105 93.1309L363.075 92.4281L362.561 84.1151L370.945 80.5557L375.122 81.6893Z" fill="#373C41"/>
<path d="M407.194 205.023L406.235 214.953L409.43 219.359L427.58 206.179C429.227 204.985 429.597 202.673 428.404 201.025L407.194 205.023Z" fill="#373C41"/>
<path d="M426.668 202.906L411.792 206.197L412.141 207.776L427.017 204.485L426.668 202.906Z" fill="white"/>
<path d="M383.59 90.8948C385.531 91.8697 387.918 91.0837 388.892 89.149L394.179 78.6596C395.154 76.7174 393.462 76.143 391.521 75.1606L392.434 73.3544C390.493 72.3795 388.106 73.1654 387.132 75.1001L381.845 85.5896C380.863 87.5318 381.648 89.9199 383.59 90.8948Z" fill="#623C34"/>
<path d="M401.514 62.2983C401.657 62.3739 401.808 62.4571 401.944 62.5402C402.028 62.5855 402.103 62.6384 402.186 62.6913C402.247 62.7291 402.307 62.7669 402.36 62.8047C402.466 62.8727 402.571 62.9483 402.677 63.0238C402.707 63.0465 402.73 63.0616 402.76 63.0843C402.881 63.175 403.002 63.2657 403.115 63.3639C403.123 63.3715 403.13 63.379 403.138 63.3866C403.636 63.7947 404.082 64.2406 404.475 64.7167C405.834 66.3641 406.605 68.3971 406.688 70.4753C406.688 70.4753 401.846 80.0352 399.376 84.9172C398.485 86.678 396.31 87.4035 394.565 86.474C394.557 86.4664 394.542 86.4589 394.535 86.4589C389.602 83.8214 387.102 78.4709 388.008 73.4302C387.956 73.279 387.91 73.1355 387.865 72.9843C387.82 72.8332 387.782 72.682 387.744 72.5309V72.5233C387.706 72.3722 387.676 72.2286 387.646 72.0774C387.646 72.0699 387.646 72.0623 387.646 72.0623C387.616 71.9187 387.593 71.7676 387.578 71.624C387.578 71.6164 387.578 71.6013 387.57 71.5938C387.548 71.4502 387.533 71.3066 387.525 71.163C387.525 71.1479 387.525 71.1328 387.518 71.1177C387.502 70.9816 387.495 70.838 387.495 70.702C387.495 70.6869 387.495 70.6642 387.495 70.6491C387.487 70.498 387.487 70.3619 387.487 70.2259C387.487 70.2032 387.487 70.1806 387.487 70.1503C387.487 70.0219 387.495 69.8934 387.502 69.7649C387.502 69.7347 387.502 69.7045 387.51 69.6742C387.518 69.5533 387.533 69.4248 387.548 69.3039C387.555 69.2661 387.555 69.2359 387.555 69.1981C387.57 69.0772 387.585 68.9638 387.608 68.8429C387.616 68.8051 387.623 68.7598 387.623 68.722C387.646 68.6087 387.669 68.4953 387.691 68.3895C387.699 68.3442 387.706 68.2988 387.721 68.261C387.744 68.1552 387.774 68.0494 387.805 67.9436C387.82 67.8983 387.827 67.8454 387.842 67.8C387.873 67.6942 387.903 67.596 387.94 67.4902C387.956 67.4373 387.971 67.3919 387.986 67.339C388.024 67.2408 388.061 67.135 388.099 67.0367C388.122 66.9838 388.137 66.9385 388.16 66.8856C388.205 66.7798 388.25 66.674 388.296 66.5758C388.318 66.5304 388.333 66.4851 388.356 66.4397C388.424 66.2886 388.499 66.145 388.575 66.0014C391.007 61.4368 396.808 59.7742 401.514 62.2983Z" fill="#7F4E46"/>
<path d="M392.17 58.7079C393.492 58.1562 394.867 57.9446 396.226 58.0051C400.698 58.2091 405.079 61.3681 407.405 65.0409C410.555 70.0136 410.374 76.2256 410.374 76.2256L403.002 72.5075L397.473 74.3288C397.933 73.0062 397.359 71.5175 396.075 70.8675C394.678 70.1647 392.971 70.724 392.268 72.1221C391.619 73.4068 392.042 74.9485 393.197 75.7344L387.789 77.5179C387.789 77.5179 386.007 68.623 386.014 68.5399C386.112 64.4137 388.227 60.3554 392.17 58.7079Z" fill="#373C41"/>
<path d="M442.31 89.9647L443.284 89.0049L443.511 88.7858C443.579 88.7177 443.646 88.6497 443.707 88.5817C443.835 88.4457 443.964 88.3097 444.085 88.1736C444.319 87.9016 444.538 87.6144 444.719 87.3272C444.764 87.2516 444.81 87.1836 444.855 87.1081L444.87 87.0778L444.878 87.0703L444.885 87.0552L444.9 87.0174L444.976 86.8813C445.029 86.7907 445.082 86.7 445.135 86.6093C445.195 86.5261 445.255 86.4355 445.316 86.3523C445.376 86.2692 445.437 86.1861 445.512 86.1105C445.656 85.9594 445.792 85.8082 445.958 85.6797C446.585 85.1507 447.333 84.8107 448.118 84.7049C448.896 84.5915 449.719 84.6973 450.429 85.0374C450.52 85.0827 450.603 85.1281 450.686 85.1734L450.815 85.2414C450.86 85.2641 450.898 85.2943 450.935 85.3245C451.094 85.4379 451.253 85.5361 451.396 85.6797C451.472 85.7477 451.54 85.8158 451.615 85.8838C451.63 85.8989 451.653 85.9216 451.668 85.9367L451.698 85.9669L451.751 86.0349L451.978 86.307L452.869 87.3801L450.792 89.4055L449.772 88.5213L449.515 88.3021L449.455 88.2492L449.425 88.219C449.417 88.2114 449.417 88.2114 449.41 88.2114C449.395 88.2039 449.379 88.2039 449.364 88.1963C449.342 88.1812 449.296 88.1736 449.266 88.1585C449.259 88.1585 449.251 88.151 449.244 88.151H449.213C449.198 88.151 449.183 88.1434 449.16 88.1434C449.032 88.1283 448.904 88.1661 448.79 88.219C448.677 88.2719 448.586 88.3777 448.541 88.4684C448.526 88.4835 448.526 88.5137 448.518 88.5364C448.511 88.5439 448.518 88.5591 448.511 88.5666C448.511 88.5742 448.511 88.5893 448.503 88.5968C448.503 88.6119 448.511 88.6195 448.503 88.6271C448.503 88.6346 448.503 88.6346 448.503 88.6422L448.496 88.6573L448.481 88.7102C448.435 88.8462 448.382 88.9823 448.322 89.1107C448.103 89.6397 447.846 90.1385 447.559 90.6146C447.416 90.8489 447.272 91.0832 447.113 91.3023C447.038 91.4157 446.962 91.5215 446.879 91.6349L446.66 91.9371L445.852 93.0481L442.31 89.9647Z" fill="#623C34"/>
<path d="M284.074 133.918L284.716 131.379L287.352 128.492C295.767 136.193 305.337 142.526 315.708 147.249L316.093 147.423L319.922 155.797L334.682 142.828L340.913 155.524C339.531 156.099 338.149 156.673 336.766 157.24C333.375 158.646 329.991 160.044 326.6 161.449C324.643 162.258 322.551 162.84 320.768 164.019C319.749 164.691 318.049 164.744 316.984 164.147C314.454 162.734 314.416 161.684 312.52 159.945C311.221 158.751 309.914 157.565 308.615 156.371C305.239 153.28 301.855 150.189 298.478 147.098C295.215 144.105 291.945 141.12 288.682 138.128C287.148 136.73 285.608 135.324 284.074 133.918Z" fill="#623C34"/>
<path d="M289.603 138.867L288.553 128.944L284.542 125.271L269.406 141.829C268.031 143.333 268.137 145.669 269.64 147.044L289.603 138.867Z" fill="#373C41"/>
<path d="M284.212 137.136L270.299 143.349L270.958 144.826L284.87 138.612L284.212 137.136Z" fill="white"/>
<defs>
<linearGradient id="paint0_linear" x1="725.5" y1="458.971" x2="725.5" y2="0.970703" gradientUnits="userSpaceOnUse">
<stop offset="0.341667" stop-color="#F7F7F7"/>
<stop offset="0.9963" stop-color="#DB4F69"/>
</linearGradient>
<linearGradient id="paint1_linear" x1="843.729" y1="879.909" x2="721.148" y2="173.725" gradientUnits="userSpaceOnUse">
<stop offset="0.461458" stop-color="#F7F7F7"/>
<stop offset="0.773958" stop-color="#ECB7C1"/>
<stop offset="0.9963" stop-color="#DB4F69"/>
</linearGradient>
<linearGradient id="paint2_linear" x1="720" y1="23.9707" x2="720" y2="541.971" gradientUnits="userSpaceOnUse">
<stop offset="0.506159" stop-color="white" stop-opacity="0"/>
<stop offset="1" stop-color="#F7F7F7"/>
</linearGradient>
<linearGradient id="paint3_linear" x1="659.951" y1="181.482" x2="699.185" y2="147.481" gradientUnits="userSpaceOnUse">
<stop stop-color="#373C41"/>
<stop offset="1"/>
</linearGradient>
<linearGradient id="paint4_linear" x1="679.2" y1="122.365" x2="670.081" y2="122.645" gradientUnits="userSpaceOnUse">
<stop stop-color="#EEB5AC"/>
<stop offset="1" stop-color="#DEA095"/>
</linearGradient>
<linearGradient id="paint5_linear" x1="950.612" y1="169.274" x2="1027.98" y2="131.363" gradientUnits="userSpaceOnUse">
<stop stop-color="#373C41"/>
<stop offset="1"/>
</linearGradient>
<linearGradient id="paint6_linear" x1="1134.01" y1="113.749" x2="1057.21" y2="104.15" gradientUnits="userSpaceOnUse">
<stop stop-color="#EEB5AC"/>
<stop offset="1" stop-color="#DEA095"/>
</linearGradient>
<linearGradient id="paint7_linear" x1="1117.79" y1="106.036" x2="1129.28" y2="104.834" gradientUnits="userSpaceOnUse">
<stop stop-color="#EEB5AC"/>
<stop offset="1" stop-color="#DEA095"/>
</linearGradient>
<linearGradient id="paint8_linear" x1="294.219" y1="153.203" x2="361.701" y2="116.072" gradientUnits="userSpaceOnUse">
<stop stop-color="#373C41"/>
<stop offset="1"/>
</linearGradient>
<clipPath id="clip0">
<rect width="1450.24" height="504.039" fill="white" transform="translate(0.755371 34.2227)"/>
</clipPath>
</defs>
</svg>
