<svg width="375" height="179" viewBox="0 0 375 179" fill="none" xmlns="http://www.w3.org/2000/svg">
<g clip-path="url(#clip0)">
<path d="M375 0H0V160H375V0Z" fill="url(#paint0_linear)"/>
<path d="M-28.7573 39.4501L418.076 166L419 86.0761L-29 11L-28.7573 39.4501Z" fill="url(#paint1_linear)"/>
<path d="M131.928 17.339L129.034 17.9052L127.554 17.7235L129.479 17.346L105.532 14.4218L106.664 13.9814L130.627 16.8753L130.998 16.3138L132.478 16.4909L131.928 17.339Z" fill="white"/>
<path d="M164.354 21.2719L161.259 21.8847L159.551 21.6727L161.607 21.2649L134.06 17.9027L135.211 17.425L162.767 20.75L163.028 20.1302L164.738 20.3352L164.354 21.2719Z" fill="white"/>
<path d="M202.039 25.8436L198.716 26.5099L196.719 26.263L198.926 25.8203L166.901 21.9105L168.061 21.3885L200.086 25.2517L200.198 24.562L202.195 24.802L202.039 25.8436Z" fill="white"/>
<path d="M246.377 31.2236L242.791 31.9505L240.426 31.6593L242.807 31.1746L205.117 26.5728L206.275 25.9973L243.949 30.5432L243.853 29.7673L246.214 30.0492L246.377 31.2236Z" fill="white"/>
<path d="M299.301 37.6451L295.407 38.4466L292.562 38.0948L295.147 37.5612L250.142 32.067L251.277 31.424L296.242 36.8506L295.853 35.9652L298.688 36.3053L299.301 37.6451Z" fill="white"/>
<path d="M363.571 45.4414L359.311 46.3385L355.826 45.9051L358.652 45.3109L303.973 38.6354L305.059 37.9108L359.654 44.4977L358.841 43.4749L362.31 43.8896L363.571 45.4414Z" fill="white"/>
<path d="M125.797 19.8694L122.866 20.4449L121.391 20.2516L123.341 19.8694L99.4783 16.7705L100.636 16.3208L124.516 19.3871L124.914 18.8093L126.391 18.9957L125.797 19.8694Z" fill="white"/>
<path d="M158.163 24.0448L155.026 24.6669L153.318 24.4409L155.404 24.0285L127.908 20.4589L129.085 19.9696L156.59 23.4996L156.883 22.8612L158.591 23.0779L158.163 24.0448Z" fill="white"/>
<path d="M195.846 28.9053L192.476 29.5834L190.477 29.3201L192.716 28.8704L160.693 24.7136L161.882 24.1777L193.907 28.2879L194.049 27.5749L196.048 27.8289L195.846 28.9053Z" fill="white"/>
<path d="M240.281 34.6394L236.639 35.3803L234.267 35.0681L236.686 34.5765L198.912 29.6718L200.103 29.08L237.86 33.9241L237.795 33.1202L240.162 33.4208L240.281 34.6394Z" fill="white"/>
<path d="M293.46 41.4991L289.501 42.3192L286.637 41.9418L289.268 41.3989L244.044 35.5272L245.216 34.8655L290.398 40.6626L290.034 39.7422L292.886 40.1057L293.46 41.4991Z" fill="white"/>
<path d="M358.244 49.8568L353.906 50.7725L350.385 50.3088L353.265 49.703L298.15 42.5475L299.269 41.7972L354.304 48.8595L353.509 47.7901L357.009 48.2351L358.244 49.8568Z" fill="white"/>
<path d="M119.524 22.4603L116.553 23.0428L115.085 22.8378L117.059 22.451L93.2917 19.1703L94.4755 18.7113L118.261 21.957L118.69 21.3629L120.163 21.5609L119.524 22.4603Z" fill="white"/>
<path d="M151.813 26.8873L148.635 27.5188L146.929 27.2811L149.043 26.8594L121.612 23.0754L122.817 22.5768L150.261 26.3188L150.583 25.6594L152.288 25.8901L151.813 26.8873Z" fill="white"/>
<path d="M189.484 32.053L186.064 32.7404L184.065 32.4608L186.336 32.0041L154.325 27.5864L155.546 27.0365L187.56 31.403L187.735 30.6667L189.734 30.937L189.484 32.053Z" fill="white"/>
<path d="M234.004 38.1554L230.304 38.9103L227.925 38.5771L230.383 38.0762L192.539 32.8546L193.76 32.2465L231.592 37.4075L231.557 36.571L233.934 36.8925L234.004 38.1554Z" fill="white"/>
<path d="M287.429 45.481L283.398 46.3175L280.52 45.9144L283.195 45.3599L237.765 39.0921L238.969 38.4094L284.363 44.6003L284.027 43.6427L286.898 44.0318L287.429 45.481Z" fill="white"/>
<path d="M352.724 54.433L348.302 55.3696L344.748 54.8733L347.684 54.2512L292.131 46.5878L293.289 45.8142L348.758 53.3798L347.985 52.2614L351.519 52.739L352.724 54.433Z" fill="white"/>
<path d="M113.1 25.1119L110.092 25.7037L108.629 25.487L110.628 25.0933L86.9678 21.6239L88.1771 21.1555L111.858 24.5876L112.32 23.9748L113.785 24.1869L113.1 25.1119Z" fill="white"/>
<path d="M145.303 29.8023L142.08 30.443L140.379 30.1914L142.52 29.765L115.165 25.755L116.4 25.2424L143.769 29.2105L144.126 28.5301L145.827 28.7747L145.303 29.8023Z" fill="white"/>
<path d="M182.946 35.2849L179.474 35.9839L177.475 35.688L179.782 35.222L147.794 30.534L149.045 29.9701L181.038 34.6068L181.245 33.8449L183.247 34.1315L182.946 35.2849Z" fill="white"/>
<path d="M227.538 41.7809L223.777 42.5475L221.391 42.1933L223.889 41.683L185.985 36.1282L187.241 35.5015L225.136 40.9933L225.133 40.1266L227.515 40.4691L227.538 41.7809Z" fill="white"/>
<path d="M281.196 49.5958L277.093 50.4486L274.199 50.0176L276.923 49.4537L231.292 42.7665L232.536 42.0629L278.127 48.6685L277.822 47.6712L280.709 48.086L281.196 49.5958Z" fill="white"/>
<path d="M346.997 59.1792L342.488 60.1369L338.902 59.6056L341.896 58.9695L285.91 50.7655L287.107 49.964L343.01 58.0655L342.259 56.8981L345.827 57.4107L346.997 59.1792Z" fill="white"/>
<path d="M106.525 27.8265L103.474 28.4277L102.018 28.1993L104.043 27.7985L80.4993 24.1334L81.7366 23.6558L105.304 27.2813L105.795 26.6498L107.258 26.8735L106.525 27.8265Z" fill="white"/>
<path d="M138.624 32.7916L135.355 33.444L133.659 33.1761L135.831 32.7427L108.563 28.4997L109.826 27.9755L137.112 32.1742L137.501 31.4728L139.2 31.7315L138.624 32.7916Z" fill="white"/>
<path d="M176.224 38.6098L172.698 39.3205L170.701 39.0059L173.043 38.5329L141.092 33.5606L142.376 32.9805L174.334 37.8992L174.576 37.1093L176.578 37.4145L176.224 38.6098Z" fill="white"/>
<path d="M220.871 45.5159L217.047 46.2988L214.657 45.9214L217.196 45.4018L179.246 39.4951L180.536 38.8497L218.48 44.6888L218.513 43.7917L220.901 44.1552L220.871 45.5159Z" fill="white"/>
<path d="M274.751 53.8504L270.573 54.7195L267.663 54.2605L270.435 53.6826L224.618 46.5528L225.9 45.8281L271.684 52.8718L271.409 51.8349L274.313 52.2776L274.751 53.8504Z" fill="white"/>
<path d="M341.055 64.1072L336.455 65.0858L332.836 64.5149L335.889 63.8649L279.476 55.0877L280.716 54.2582L337.047 62.9259L336.32 61.7049L339.92 62.2548L341.055 64.1072Z" fill="white"/>
<path d="M99.7859 30.6086L96.6985 31.219L95.2468 30.9767L97.2997 30.5713L73.8842 26.7011L75.1494 26.2095L98.5905 30.04L99.1172 29.39L100.571 29.6253L99.7859 30.6086Z" fill="white"/>
<path d="M131.769 35.8626L128.453 36.5243L126.762 36.24L128.966 35.7997L101.799 31.3097L103.092 30.7738L130.28 35.2172L130.707 34.4902L132.401 34.7651L131.769 35.8626Z" fill="white"/>
<path d="M169.31 42.0279L165.731 42.7526L163.732 42.4171L166.111 41.9371L134.214 36.6642L135.53 36.0701L167.441 41.2847L167.721 40.4668L169.718 40.7907L169.31 42.0279Z" fill="white"/>
<path d="M213.997 49.3675L210.108 50.1644L207.713 49.7636L210.295 49.2347L172.311 42.9576L173.642 42.2936L211.621 48.5008L211.691 47.5688L214.084 47.9555L213.997 49.3675Z" fill="white"/>
<path d="M268.084 58.2519L263.829 59.1397L260.903 58.6504L263.727 58.0609L217.735 50.4603L219.056 49.7124L265.018 57.2197L264.78 56.1409L267.697 56.6116L268.084 58.2519Z" fill="white"/>
<path d="M334.885 69.2216L330.189 70.2259L326.536 69.6154L329.651 68.949L272.819 59.559L274.101 58.6992L330.853 67.9727L330.154 66.6959L333.789 67.2854L334.885 69.2216Z" fill="white"/>
<path d="M93.0284 33.3999L89.8991 34.0174L88.4567 33.7611L90.5375 33.351L67.2595 29.2711L68.5551 28.7701L91.8587 32.8081L92.4203 32.137L93.8673 32.3863L93.0284 33.3999Z" fill="white"/>
<path d="M124.881 38.9454L121.517 39.6188L119.832 39.3182L122.067 38.8732L95.0114 34.1316L96.3395 33.5817L123.416 38.272L123.877 37.5241L125.566 37.8153L124.881 38.9454Z" fill="white"/>
<path d="M162.348 45.4719L158.713 46.2082L156.716 45.854L159.132 45.3647L127.298 39.7866L128.649 39.1761L160.497 44.6936L160.817 43.8502L162.814 44.1927L162.348 45.4719Z" fill="white"/>
<path d="M207.056 53.2587L203.102 54.0719L200.701 53.6455L203.328 53.1049L165.325 46.4457L166.693 45.7654L204.693 52.3477L204.803 51.3807L207.2 51.7931L207.056 53.2587Z" fill="white"/>
<path d="M261.329 62.7092L256.995 63.6179L254.057 63.096L256.932 62.4949L210.779 54.4074L212.145 53.6338L258.267 61.6258L258.065 60.5004L260.996 61.0036L261.329 62.7092Z" fill="white"/>
<path d="M328.605 74.427L323.814 75.4545L320.13 74.7998L323.308 74.1194L266.069 64.091L267.394 63.2032L324.557 73.1059L323.886 71.7707L327.554 72.3999L328.605 74.427Z" fill="white"/>
<path d="M85.9588 36.3194L82.7851 36.9461L81.3521 36.6759L83.4609 36.2588L60.339 31.9576L61.6625 31.4426L84.8147 35.7019L85.4135 35.0122L86.8512 35.2755L85.9588 36.3194Z" fill="white"/>
<path d="M117.658 42.1795L114.244 42.8646L112.567 42.5477L114.834 42.0933L87.9091 37.0838L89.2699 36.5199L116.22 41.4782L116.721 40.7046L118.404 41.0122L117.658 42.1795Z" fill="white"/>
<path d="M155.029 49.0902L151.335 49.8405L149.343 49.463L151.797 48.9667L120.046 43.0601L121.435 42.4333L153.204 48.2771L153.563 47.401L155.558 47.7645L155.029 49.0902Z" fill="white"/>
<path d="M199.739 57.3572L195.715 58.1867L193.313 57.7347L195.985 57.1825L157.983 50.1132L159.393 49.4119L197.395 56.4019L197.546 55.3977L199.946 55.8334L199.739 57.3572Z" fill="white"/>
<path d="M254.185 67.4253L249.769 68.3526L246.815 67.7957L249.748 67.1806L203.449 58.5688L204.856 57.7697L251.13 66.2812L250.967 65.1069L253.912 65.6451L254.185 67.4253Z" fill="white"/>
<path d="M321.938 79.9539L317.045 81.0071L313.328 80.3057L316.574 79.6091L258.929 68.884L260.304 67.9636L317.875 78.5536L317.236 77.1556L320.934 77.8289L321.938 79.9539Z" fill="white"/>
<path d="M78.7098 39.3113L75.4918 39.9497L74.0681 39.6631L76.2049 39.2414L53.2531 34.7048L54.6092 34.1805L77.5936 38.6705L78.2321 37.9598L79.6604 38.2348L78.7098 39.3113Z" fill="white"/>
<path d="M110.239 45.502L106.774 46.1963L105.103 45.8631L107.405 45.4018L80.6276 40.1103L82.021 39.5325L108.829 44.768L109.372 43.9688L111.047 44.2927L110.239 45.502Z" fill="white"/>
<path d="M147.493 52.8161L143.739 53.5803L141.751 53.1819L144.245 52.6763L112.594 46.4225L114.023 45.7794L145.694 51.9656L146.097 51.0569L148.087 51.4437L147.493 52.8161Z" fill="white"/>
<path d="M192.183 61.5909L188.086 62.4367L185.684 61.9567L188.403 61.3952L150.42 53.8902L151.871 53.1678L189.859 60.5866L190.055 59.5428L192.457 60.0088L192.183 61.5909Z" fill="white"/>
<path d="M246.782 72.3114L242.278 73.262L239.314 72.6679L242.301 72.0388L195.873 62.8678L197.33 62.043L243.734 71.1068L243.616 69.8812L246.575 70.4543L246.782 72.3114Z" fill="white"/>
<path d="M314.999 85.7066L310.001 86.7877L306.25 86.0351L309.568 85.3198L251.529 73.8561L252.953 72.9008L310.919 84.2223L310.316 82.7544L314.049 83.4767L314.999 85.7066Z" fill="white"/>
<path d="M71.2744 42.3822L68.0122 43.0299L66.5978 42.7294L68.7671 42.2983L45.9994 37.5194L47.3881 36.9835L70.1908 41.7135L70.8666 40.9795L72.288 41.2708L71.2744 42.3822Z" fill="white"/>
<path d="M102.615 48.9156L99.096 49.6239L97.4347 49.2698L99.7718 48.8014L73.1547 43.2163L74.5854 42.6222L101.235 48.1513L101.82 47.3242L103.488 47.6667L102.615 48.9156Z" fill="white"/>
<path d="M139.729 56.6558L135.912 57.4341L133.929 57.0123L136.464 56.4951L104.933 49.8801L106.401 49.2184L137.958 55.7634L138.408 54.8244L140.391 55.2322L139.729 56.6558Z" fill="white"/>
<path d="M184.374 65.9666L180.206 66.8311L177.801 66.3185L180.569 65.7453L142.625 57.7836L144.121 57.038L182.075 64.9111L182.317 63.8253L184.722 64.3193L184.374 65.9666Z" fill="white"/>
<path d="M239.105 77.3791L234.512 78.3507L231.534 77.7169L234.584 77.0738L188.044 67.311L189.55 66.4583L236.068 76.1069L235.996 74.8277L238.967 75.4382L239.105 77.3791Z" fill="white"/>
<path d="M307.771 91.6994L302.659 92.8085L298.877 92.0047L302.267 91.2707L243.849 79.0125L245.326 78.0222L303.677 90.1244L303.113 88.5865L306.876 89.3601L307.771 91.6994Z" fill="white"/>
<path d="M63.6478 45.5301L60.3367 46.1895L58.9363 45.8703L61.1359 45.4345L38.5709 40.404L39.9923 39.8518L62.5969 44.8357L63.3169 44.0761L64.7243 44.386L63.6478 45.5301Z" fill="white"/>
<path d="M94.7761 52.4269L91.2016 53.1469L89.5496 52.7718L91.924 52.2941L65.491 46.4015L66.959 45.7933L93.4269 51.6254L94.0607 50.7726L95.7174 51.1337L94.7761 52.4269Z" fill="white"/>
<path d="M131.725 60.6123L127.845 61.4069L125.869 60.9595L128.446 60.4329L97.0573 53.4359L98.5672 52.7555L129.987 59.6803L130.483 58.704L132.464 59.1351L131.725 60.6123Z" fill="white"/>
<path d="M176.303 70.4893L172.055 71.3724L169.653 70.8295L172.472 70.2447L134.589 61.7983L136.131 61.0294L174.028 69.3802L174.322 68.2502L176.724 68.7744L176.303 70.4893Z" fill="white"/>
<path d="M231.138 82.6379L226.449 83.6328L223.465 82.9594L226.573 82.3L179.947 71.9058L181.506 71.025L228.115 81.2958L228.095 79.9607L231.075 80.6107L231.138 82.6379Z" fill="white"/>
<path d="M300.233 97.9486L295.004 99.088L291.192 98.2259L294.66 97.4709L235.875 84.3669L237.411 83.3394L296.128 96.278L295.608 94.6633L299.404 95.4904L300.233 97.9486Z" fill="white"/>
<path d="M55.8209 48.7618L52.4632 49.4305L51.0744 49.0973L53.3043 48.6522L30.9584 43.3561L32.4147 42.7922L54.8049 48.0371L55.5692 47.2542L56.965 47.5804L55.8209 48.7618Z" fill="white"/>
<path d="M86.7138 56.0361L83.0834 56.7677L81.443 56.3739L83.8547 55.8893L57.6221 49.6705L59.1297 49.046L85.4019 55.1996L86.08 54.3165L87.7274 54.6986L86.7138 56.0361Z" fill="white"/>
<path d="M123.474 64.6945L119.527 65.5007L117.56 65.03L120.182 64.4941L88.9531 57.0939L90.5073 56.3926L121.768 63.7159L122.316 62.7046L124.29 63.1613L123.474 64.6945Z" fill="white"/>
<path d="M167.952 75.1679L163.624 76.0697L161.224 75.4941L164.097 74.8953L126.298 65.9387L127.89 65.1442L165.708 74.0029L166.055 72.8263L168.457 73.3831L167.952 75.1679Z" fill="white"/>
<path d="M222.863 88.1018L218.08 89.1201L215.083 88.4001L218.257 87.7244L171.568 76.6614L173.18 75.748L219.86 86.6828L219.89 85.2848L222.882 85.9792L222.863 88.1018Z" fill="white"/>
<path d="M292.367 104.468L287.017 105.64L283.172 104.717L286.721 103.941L227.591 89.9309L229.185 88.8615L288.254 102.697L287.781 100.999L291.607 101.886L292.367 104.468Z" fill="white"/>
<path d="M47.9568 52.0097L44.5501 52.6877L43.173 52.3359L45.4379 51.8862L23.325 46.3175L24.8162 45.7396L46.9758 51.2548L47.7843 50.4486L49.1684 50.7888L47.9568 52.0097Z" fill="white"/>
<path d="M78.5933 59.6733L74.907 60.4165L73.2783 60.0018L75.7272 59.5078L49.7136 52.9581L51.2608 52.3174L77.3187 58.7995L78.048 57.8861L79.6815 58.2892L78.5933 59.6733Z" fill="white"/>
<path d="M115.141 68.8137L111.124 69.6385L109.169 69.1376L111.835 68.5924L80.7906 60.7775L82.3891 60.0575L113.471 67.7908L114.072 66.74L116.036 67.2246L115.141 68.8137Z" fill="white"/>
<path d="M159.493 79.9094L155.085 80.8297L152.687 80.2169L155.614 79.6088L117.924 70.1209L119.566 69.3031L157.28 78.6838L157.683 77.4605L160.08 78.05L159.493 79.9094Z" fill="white"/>
<path d="M214.447 93.6566L209.563 94.7005L206.56 93.9339L209.801 93.2419L163.077 81.4822L164.743 80.5363L211.464 92.1607L211.553 90.6998L214.552 91.4384L214.447 93.6566Z" fill="white"/>
<path d="M284.325 111.136L278.847 112.339L274.977 111.351L278.607 110.556L219.159 95.5927L220.818 94.4813L280.208 109.256L279.784 107.471L283.64 108.42L284.325 111.136Z" fill="white"/>
<path d="M39.7104 55.4139L36.2524 56.1036L34.8916 55.7354L37.1892 55.2764L15.3325 49.4187L16.8634 48.8269L38.769 54.6263L39.6265 53.7945L40.9966 54.1533L39.7104 55.4139Z" fill="white"/>
<path d="M70.0604 63.4944L66.3136 64.2517L64.6988 63.8136L67.1874 63.3103L41.4208 56.4041L43.0099 55.7448L68.8255 62.581L69.6084 61.635L71.2302 62.0614L70.0604 63.4944Z" fill="white"/>
<path d="M106.359 73.1569L102.272 73.9981L100.326 73.4692L103.039 72.9123L72.2087 64.65L73.8538 63.9091L104.728 72.0828L105.39 70.9947L107.34 71.5049L106.359 73.1569Z" fill="white"/>
<path d="M150.548 84.9213L146.053 85.8626L143.662 85.2126L146.645 84.5904L109.097 74.5294L110.791 73.6836L148.369 83.6328L148.835 82.3559L151.228 82.985L150.548 84.9213Z" fill="white"/>
<path d="M205.511 99.5562L200.52 100.626L197.512 99.8078L200.823 99.0995L154.094 86.5803L155.821 85.6017L202.554 97.9741L202.703 96.4456L205.709 97.2332L205.511 99.5562Z" fill="white"/>
<path d="M275.741 118.252L270.13 119.49L266.23 118.432L269.948 117.612L210.204 101.607L211.93 100.449L271.621 116.253L271.258 114.375L275.142 115.391L275.741 118.252Z" fill="white"/>
<path d="M31.238 58.9113L27.7288 59.6126L26.3843 59.2235L28.7168 58.7575L7.13977 52.5992L8.70795 51.9911L30.3386 58.0911L31.2497 57.2313L32.6011 57.6088L31.238 58.9113Z" fill="white"/>
<path d="M61.2711 67.4274L57.4637 68.201L55.8652 67.7373L58.3957 67.2247L32.8994 59.9481L34.5305 59.27L60.0804 66.4745L60.9193 65.4958L62.527 65.9455L61.2711 67.4274Z" fill="white"/>
<path d="M97.2903 77.6423L93.1287 78.4998L91.197 77.9406L93.9583 77.372L63.3706 68.6391L65.0646 67.8772L95.7035 76.5169L96.4235 75.3845L98.3645 75.9251L97.2903 77.6423Z" fill="white"/>
<path d="M141.276 90.1172L136.693 91.0795L134.312 90.3898L137.352 89.7514L99.9771 79.0846L101.729 78.2108L139.14 88.7612L139.671 87.4284L142.059 88.0948L141.276 90.1172Z" fill="white"/>
<path d="M196.211 105.696L191.108 106.791L188.098 105.919L191.481 105.192L144.781 91.8646L146.573 90.8511L193.282 104.023L193.499 102.42L196.51 103.261L196.211 105.696Z" fill="white"/>
<path d="M266.756 125.701L261.005 126.976L257.079 125.839L260.891 124.995L200.879 107.87L202.675 106.665L262.641 123.572L262.341 121.593L266.251 122.684L266.756 125.701Z" fill="white"/>
<path d="M22.5327 62.5041L18.9676 63.2195L17.6441 62.8094L20.0115 62.3364L-1.26489 55.8589L0.342897 55.2368L21.6799 61.6514L22.6423 60.7636L23.9774 61.1597L22.5327 62.5041Z" fill="white"/>
<path d="M52.2186 71.4817L48.3482 72.2669L46.7661 71.7799L49.3386 71.258L24.1405 63.5875L25.8182 62.8909L51.0745 70.4844L51.9739 69.4709L53.5631 69.9439L52.2186 71.4817Z" fill="white"/>
<path d="M87.9185 82.2767L83.6823 83.1504L81.7646 82.5586L84.5771 81.9784L54.2621 72.7515L56.0097 71.964L86.3783 81.0953L87.1659 79.9187L89.0929 80.4919L87.9185 82.2767Z" fill="white"/>
<path d="M131.664 95.5018L126.988 96.4874L124.616 95.7558L127.717 95.1034L90.5515 83.7911L92.362 82.8871L129.572 94.0758L130.173 92.6848L132.552 93.3931L131.664 95.5018Z" fill="white"/>
<path d="M186.523 112.089L181.303 113.217L178.293 112.287L181.753 111.542L135.118 97.3472L136.977 96.2964L183.629 110.321L183.92 108.641L186.933 109.538L186.523 112.089Z" fill="white"/>
<path d="M257.342 133.505L251.443 134.819L247.493 133.6L251.401 132.729L191.157 114.396L193.033 113.14L253.237 131.24L253.004 129.15L256.942 130.322L257.342 133.505Z" fill="white"/>
<path d="M13.585 66.1996L9.96393 66.9265L8.65673 66.4955L11.0614 66.0132L-9.88879 59.2048L-8.23673 58.5664L12.7764 65.3095L13.7947 64.3915L15.1135 64.8109L13.585 66.1996Z" fill="white"/>
<path d="M42.8887 75.6594L38.9508 76.4609L37.3896 75.946L40.004 75.4124L15.1322 67.3319L16.8588 66.6143L41.7959 74.6179L42.7559 73.5647L44.3288 74.0657L42.8887 75.6594Z" fill="white"/>
<path d="M78.2321 87.0648L73.9143 87.9596L72.0153 87.3328L74.8813 86.741L44.8716 76.9898L46.6728 76.1766L76.7431 85.8276L77.5983 84.6043L79.509 85.2101L78.2321 87.0648Z" fill="white"/>
<path d="M121.689 101.092L116.915 102.1L114.554 101.322L117.723 100.654L80.8046 88.6586L82.678 87.7242L119.646 99.5887L120.321 98.1371L122.689 98.8897L121.689 101.092Z" fill="white"/>
<path d="M176.422 118.758L171.081 119.916L168.07 118.923L171.612 118.157L125.089 103.042L127.018 101.947L173.567 116.885L173.938 115.123L176.95 116.078L176.422 118.758Z" fill="white"/>
<path d="M247.467 141.69L241.414 143.046L237.441 141.737L241.451 140.839L181.019 121.204L182.974 119.895L243.376 139.276L243.22 137.069L247.181 138.328L247.467 141.69Z" fill="white"/>
<path d="M4.38093 69.9998L0.701645 70.7407L-0.582256 70.2864L1.85973 69.7947L-18.7386 62.6392L-17.0446 61.9822L3.62363 69.0724L4.70015 68.1218L5.99804 68.5622L4.38093 69.9998Z" fill="white"/>
<path d="M33.2699 79.9676L29.2621 80.7831L27.7219 80.2402L30.3829 79.6973L5.86755 71.1811L7.64311 70.4448L32.2283 78.8772L33.2536 77.7867L34.8078 78.3133L33.2699 79.9676Z" fill="white"/>
<path d="M68.2103 92.0208L63.8133 92.9341L61.9329 92.2701L64.8525 91.6666L35.1876 81.3609L37.0447 80.5244L66.7796 90.7206L67.707 89.4484L69.599 90.0892L68.2103 92.0208Z" fill="white"/>
<path d="M111.332 106.898L106.455 107.93L104.111 107.103L107.345 106.418L70.7174 93.6961L72.6561 92.7291L109.342 105.311L110.099 103.797L112.452 104.594L111.332 106.898Z" fill="white"/>
<path d="M165.88 125.715L160.414 126.906L157.408 125.846L161.031 125.058L114.668 108.955L116.675 107.818L163.072 123.73L163.529 121.88L166.54 122.901L165.88 125.715Z" fill="white"/>
<path d="M237.098 150.285L230.879 151.686L226.888 150.278L231.007 149.353L170.431 128.316L172.474 126.946L233.028 147.711L232.955 145.378L236.94 146.73L237.098 150.285Z" fill="white"/>
<path d="M23.5533 84.3155L19.4779 85.1496L17.961 84.5764L20.6663 84.0242L-3.46692 75.0606L-1.64009 74.3033L22.57 83.1784L23.6651 82.046L25.196 82.6029L23.5533 84.3155Z" fill="white"/>
<path d="M58.0601 97.0421L53.577 97.9741L51.7198 97.2728L54.6931 96.6553L25.4033 85.7764L27.321 84.912L56.6877 95.6767L57.692 94.3532L59.5631 95.0313L58.0601 97.0421Z" fill="white"/>
<path d="M100.795 112.8L95.8177 113.86L93.4899 112.982L96.7917 112.28L60.4952 98.8012L62.5015 97.8016L98.8655 111.132L99.7067 109.547L102.044 110.395L100.795 112.8Z" fill="white"/>
<path d="M155.106 132.829L149.509 134.052L146.51 132.922L150.219 132.111L104.064 114.974L106.149 113.793L152.349 130.725L152.897 128.784L155.9 129.872L155.106 132.829Z" fill="white"/>
<path d="M226.429 159.13L220.039 160.577L216.032 159.067L220.263 158.11L159.603 135.588L161.735 134.157L222.386 156.386L222.404 153.92L226.405 155.37L226.429 159.13Z" fill="white"/>
<path d="M13.3171 88.9009L9.16944 89.749L7.67582 89.1456L10.43 88.5817L-13.2791 79.1381L-11.3963 78.3575L12.3943 87.7079L13.5617 86.5359L15.0693 87.1208L13.3171 88.9009Z" fill="white"/>
<path d="M47.3276 102.348L42.7559 103.303L40.9221 102.56L43.9559 101.928L15.0902 90.4318L17.0708 89.5394L46.0204 100.917L47.1062 99.5376L48.954 100.255L47.3276 102.348Z" fill="white"/>
<path d="M89.6103 119.068L84.5213 120.154L82.2168 119.222L85.5908 118.502L49.6835 104.202L51.762 103.165L87.7485 117.306L88.6806 115.65L90.999 116.551L89.6103 119.068Z" fill="white"/>
<path d="M143.606 140.42L137.869 141.678L134.882 140.471L138.685 139.637L92.8 121.365L94.9694 120.137L140.91 138.188L141.56 136.145L144.552 137.307L143.606 140.42Z" fill="white"/>
<path d="M214.962 168.637L208.391 170.133L204.369 168.506L208.722 167.518L148.038 143.354L150.271 141.855L210.957 165.701L211.078 163.089L215.095 164.65L214.962 168.637Z" fill="white"/>
<path d="M2.74753 93.6334L-1.47933 94.5002L-2.94265 93.8641L-0.137175 93.2886L-23.3826 83.3394L-21.4462 82.5355L1.89004 92.3869L3.13666 91.1683L4.61629 91.7857L2.74753 93.6334Z" fill="white"/>
<path d="M36.2036 107.849L31.541 108.823L29.7375 108.037L32.8319 107.392L4.43921 95.2409L6.48274 94.3182L34.9686 106.343L36.1453 104.906L37.9652 105.665L36.2036 107.849Z" fill="white"/>
<path d="M77.9689 125.592L72.7657 126.706L70.4868 125.713L73.9354 124.977L38.4755 109.799L40.6308 108.725L76.1817 123.733L77.2139 121.997L79.5091 122.954L77.9689 125.592Z" fill="white"/>
<path d="M131.571 148.363L125.688 149.661L122.717 148.368L126.615 147.51L81.0726 128.022L83.3329 126.741L128.945 145.994L129.705 143.843L132.685 145.085L131.571 148.363Z" fill="white"/>
<path d="M202.876 178.658L196.109 180.208L192.08 178.456L196.559 177.433L135.926 151.485L138.266 149.917L198.914 175.515L199.152 172.745L203.178 174.425L202.876 178.658Z" fill="white"/>
<path d="M24.6719 113.55L19.9137 114.55L18.1405 113.718L21.2978 113.056L-6.57056 100.209L-4.45713 99.2556L23.5138 111.968L24.7837 110.47L26.5756 111.274L24.6719 113.55Z" fill="white"/>
<path d="M65.8428 132.386L60.5208 133.53L58.2699 132.475L61.8 131.718L26.848 115.605L29.085 114.492L64.1371 130.422L65.2766 128.605L67.5438 129.623L65.8428 132.386Z" fill="white"/>
<path d="M118.963 156.686L112.926 158.023L109.976 156.642L113.976 155.756L68.8511 134.959L71.2068 133.623L116.418 154.167L117.295 151.9L120.258 153.228L118.963 156.686Z" fill="white"/>
<path d="M190.113 189.237L183.144 190.842L179.111 188.952L183.724 187.892L123.229 160.011L125.683 158.368L186.21 185.87L186.574 182.925L190.607 184.735L190.113 189.237Z" fill="white"/>
<path d="M12.7064 119.469L7.84575 120.491L6.10747 119.611L9.33237 118.933L-17.9581 105.349L-15.7701 104.363L11.6322 117.805L13.0023 116.239L14.7593 117.092L12.7064 119.469Z" fill="white"/>
<path d="M53.2042 139.469L47.754 140.644L45.538 139.521L49.1497 138.743L14.778 121.635L17.1011 120.477L51.5894 137.391L52.8407 135.485L55.0776 136.569L53.2042 139.469Z" fill="white"/>
<path d="M105.739 165.414L99.5412 166.794L96.6169 165.314L100.725 164.403L56.1029 142.193L58.5612 140.8L103.286 162.735L104.292 160.342L107.231 161.765L105.739 165.414Z" fill="white"/>
<path d="M176.622 200.421L169.434 202.089L165.402 200.05L170.158 198.948L109.906 168.961L112.48 167.234L172.791 196.809L173.295 193.678L177.328 195.63L176.622 200.421Z" fill="white"/>
<path d="M40.0156 146.858L34.4349 148.067L32.2563 146.872L35.9565 146.073L2.2395 127.896L4.65352 126.694L38.4987 144.663L39.8758 142.662L42.0778 143.815L40.0156 146.858Z" fill="white"/>
<path d="M91.8565 174.581L85.4859 176.004L82.5942 174.42L86.8141 173.479L42.7932 149.747L45.361 148.293L89.5031 171.727L90.6518 169.198L93.5621 170.722L91.8565 174.581Z" fill="white"/>
<path d="M162.334 212.267L154.912 214L150.893 211.796L155.802 210.652L95.9016 178.365L98.6092 176.55L158.587 208.387L159.249 205.048L163.275 207.157L162.334 212.267Z" fill="white"/>
<path d="M0.776217 122.227L-0.701086 123.861L-27.4743 109.645L-28.8048 110.244V111.169L-3.08947 125.033L-6.38195 125.727L-4.68328 126.659L0.2799 125.613L2.49818 123.129L0.776217 122.227Z" fill="white"/>
<path d="M188.2 22.1832C188.135 22.1809 188.07 22.1786 188.005 22.1832C187.937 22.1879 187.862 22.1972 187.797 22.2065C187.01 22.3463 186.222 22.4745 185.432 22.6003C184.645 22.7285 183.852 22.838 183.062 22.9498L178.323 23.6465L178.262 23.6558C177.677 23.742 177.228 24.1707 177.088 24.709C176.878 25.5175 176.685 26.3283 176.496 27.1415L176.216 28.3625L175.946 29.5857C175.767 30.4012 175.587 31.2167 175.417 32.0346C175.268 32.7312 175.124 33.4303 174.984 34.1293L173.462 35.8581C172.777 36.8344 172.894 38.1625 173.74 39.0037L174.154 39.4161C174.513 39.7726 175.121 39.6537 175.317 39.1854L175.895 37.8014C175.72 37.8922 175.524 37.9482 175.329 37.9552C175.296 37.9552 175.263 37.9552 175.231 37.9552L175.182 37.9528C175.166 37.9528 175.149 37.9505 175.133 37.9482C175.068 37.9388 175.007 37.9342 174.942 37.9132C174.909 37.9039 174.877 37.8969 174.846 37.8853C174.839 37.8829 174.83 37.8806 174.823 37.8783L174.809 37.8736L174.781 37.862L174.674 37.8154L174.243 37.6336L174.548 36.7109L174.986 36.8158L175.096 36.8414L175.124 36.8484L175.138 36.8507C175.142 36.8507 175.142 36.8507 175.142 36.8507C175.147 36.8484 175.154 36.8484 175.159 36.8484C175.168 36.8507 175.182 36.8437 175.194 36.8437C175.196 36.8437 175.201 36.8437 175.203 36.8437L175.212 36.8391C175.217 36.8367 175.224 36.8344 175.229 36.8344C175.27 36.8181 175.301 36.7878 175.326 36.7552C175.352 36.7226 175.364 36.676 175.361 36.6434C175.364 36.6364 175.359 36.627 175.359 36.6201C175.359 36.6177 175.357 36.6131 175.354 36.6107C175.352 36.6084 175.352 36.6037 175.352 36.6014C175.35 36.5991 175.347 36.5944 175.345 36.5921C175.345 36.5898 175.343 36.5898 175.343 36.5874V36.5828L175.34 36.5641C175.333 36.5152 175.329 36.4686 175.324 36.4197C175.308 36.2286 175.308 36.0399 175.319 35.8558C175.324 35.7626 175.333 35.6717 175.345 35.5832C175.35 35.5389 175.357 35.4947 175.364 35.4504L175.382 35.3269L175.452 34.8725L176.967 35.2314L176.971 35.222C176.971 35.222 177.055 34.3623 177.067 34.3296C177.344 33.5398 177.347 33.4279 177.612 32.6357C177.88 31.8435 178.141 31.0513 178.402 30.2568L178.794 29.0661L179.176 27.8731C179.325 27.4025 179.469 26.9295 179.614 26.4565L183.44 26.1163C184.209 26.0464 184.975 25.9718 185.744 25.9136C186.108 25.133 186.485 24.3595 186.888 23.5952C187.292 22.8263 187.716 22.3906 188.2 22.1832Z" fill="white"/>
<path d="M168.548 57.9933L166.493 58.6247C165.806 58.8321 165.12 59.0395 164.433 59.2445C165.12 59.0395 165.808 58.8321 166.493 58.6247L168.548 57.9933L170.601 57.3549C171.286 57.1429 171.969 56.9262 172.652 56.7095C171.969 56.9262 171.286 57.1429 170.601 57.3549L168.548 57.9933Z" fill="white"/>
<path d="M161.283 57.1732C161.916 56.8353 162.55 56.4998 163.189 56.1689C162.55 56.5021 161.914 56.8353 161.283 57.1732C161.28 57.1732 161.28 57.1755 161.278 57.1755L161.12 57.0427L159.244 57.1266L159.593 64.8576C159.626 65.5613 160.22 66.1042 160.924 66.0716L163.023 60.5494C163.41 60.9036 164.009 60.8756 164.363 60.4888L164.748 60.0694L163.932 59.389L161.28 57.1755C161.278 57.1755 161.28 57.1755 161.283 57.1732Z" fill="white"/>
<path d="M168.933 53.2332C170.212 52.5854 171.496 51.954 172.777 51.3132L174.241 50.5956L172.777 51.3132C171.496 51.954 170.209 52.5854 168.933 53.2332L167.013 54.2025L166.365 54.5333L167.013 54.2025L168.933 53.2332Z" fill="white"/>
<path d="M188.76 28.2577C188.291 27.6216 187.818 26.9878 187.338 26.3587C187.299 26.3051 187.254 26.2422 187.219 26.1839C186.723 25.3475 186.989 24.2663 187.816 23.7584C188.666 23.2341 189.797 23.5417 190.307 24.4015C190.703 25.0702 191.111 25.7319 191.518 26.3913C191.901 27.0134 192.297 27.6262 192.691 28.2413C192.97 27.6565 193.259 27.0717 193.555 26.4892C194.126 25.3708 193.881 24.5972 193.275 23.9541L193.196 24.0636C192.758 24.6717 191.901 24.8092 191.295 24.3688C190.698 23.9378 190.556 23.1013 190.971 22.4955C190.747 22.4046 190.53 22.3254 190.339 22.2695C189.475 22.0178 188.792 21.9293 188.2 22.1809C187.716 22.3883 187.292 22.824 186.886 23.5953C186.483 24.3595 186.106 25.1331 185.742 25.9136C184.246 29.1384 183.062 32.4843 181.986 35.8069C181.981 35.8232 181.974 35.8419 181.97 35.8582C181.851 36.224 181.734 36.5898 181.618 36.9533C181.357 37.7735 181.033 38.5727 180.69 39.3602C180.544 39.6981 180.448 40.0522 180.394 40.4157L180.366 40.4623C179.74 41.5598 179.139 42.6735 178.565 43.8012L178.139 44.6494L177.719 45.5022C177.44 46.0707 177.167 46.6439 176.89 47.2124L176.436 48.1561L181.063 52.2336L181.259 51.947L182.34 50.3836C182.699 49.8616 183.062 49.342 183.417 48.8178L183.95 48.0326L184.477 47.2427C184.952 46.5204 185.411 45.7888 185.861 45.0548C186.781 45.2901 187.706 45.5185 188.634 45.7282L189.666 45.9565L190.701 46.1755C191.39 46.3247 192.082 46.4621 192.772 46.6043C192.399 46.5274 192.026 46.4505 191.654 46.3736L194.939 40.7L196.461 41.2429L194.468 40.5322C193.804 40.2969 193.14 40.0569 192.474 39.8262L191.477 39.4767L190.475 39.1389C189.883 38.9408 189.286 38.7498 188.69 38.5633C188.718 38.4725 188.746 38.3793 188.774 38.2884C188.783 38.2604 188.79 38.2325 188.799 38.2069C189.491 35.977 190.281 33.7868 191.181 31.6245L190.141 30.1823C189.685 29.5368 189.23 28.8937 188.76 28.2577Z" fill="white"/>
<path d="M191.295 24.3688C191.903 24.8069 192.758 24.6694 193.196 24.0636L193.275 23.9541L194.089 22.831C194.058 22.8147 194.028 22.8007 193.998 22.7821C193.988 22.7774 193.979 22.7704 193.97 22.7658C193.138 22.2741 192.567 21.5122 192.297 20.6594L190.99 22.4675C190.983 22.4768 190.978 22.4862 190.971 22.4978C190.556 23.1013 190.696 23.9378 191.295 24.3688Z" fill="white"/>
<path d="M176.436 48.1584L176.065 48.9274L175.569 49.9409L174.238 50.5933L172.775 51.311C171.493 51.9517 170.207 52.5832 168.93 53.2309L167.01 54.2002L166.362 54.5311L165.095 55.1788C164.459 55.5073 163.82 55.8359 163.184 56.1691C162.548 56.5023 161.912 56.8331 161.278 57.1733C161.276 57.1733 161.276 57.1756 161.273 57.1756L163.925 59.3892C164.093 59.3402 164.261 59.2913 164.428 59.2424C165.116 59.0373 165.803 58.8299 166.488 58.6226L168.543 57.9911L170.596 57.3527C171.281 57.1407 171.964 56.924 172.647 56.7073C173.33 56.4906 174.012 56.2716 174.695 56.0549L178.782 54.7314C178.906 54.6918 179.024 54.6406 179.136 54.5823C179.36 54.4658 179.556 54.3144 179.723 54.1396C179.765 54.0953 179.805 54.0487 179.842 54.0021C179.88 53.9555 179.917 53.9066 179.949 53.8577L180.182 53.5152L181.059 52.2313L176.436 48.1584Z" fill="white"/>
<path d="M193.97 22.768C193.979 22.7727 193.988 22.7797 193.998 22.7843C194.028 22.8006 194.058 22.8169 194.089 22.8333C195.074 23.3575 196.246 23.2387 197.108 22.6072C197.248 22.5047 197.374 22.3882 197.491 22.2624L197.607 22.1412C197.677 22.0597 197.742 21.9735 197.803 21.8826C197.826 21.8453 197.852 21.808 197.875 21.7708L199.178 19.9697C198.12 19.9044 197.069 19.739 196.041 19.4687L195.613 19.3569C195.885 18.8349 195.701 18.1662 195.144 17.875C194.732 17.6583 194.212 17.7352 193.881 18.0614C193.665 18.2757 193.555 18.546 193.548 18.8163L192.273 20.5638C192.283 20.5964 192.292 20.6291 192.301 20.6593C192.567 21.5145 193.138 22.2764 193.97 22.768Z" fill="white"/>
<path d="M193.877 18.0614C194.21 17.7352 194.727 17.6583 195.14 17.875C195.699 18.1663 195.881 18.835 195.608 19.3569L196.037 19.4687C197.064 19.7367 198.115 19.9045 199.173 19.9697C199.763 20.007 200.352 20.0116 200.944 19.9837L199.488 18.7534L202.016 18.5018L197.456 15.2025H197.453C197.444 15.1955 197.435 15.1885 197.425 15.1815C195.741 13.9629 193.387 14.3427 192.169 16.0273C191.16 17.423 191.246 19.28 192.264 20.5685L192.267 20.5662L193.541 18.8187C193.55 18.5461 193.66 18.2734 193.877 18.0614Z" fill="white"/>
<path d="M175.38 35.327L175.361 35.4505C175.354 35.4948 175.35 35.5391 175.343 35.5833C175.331 35.6742 175.324 35.7651 175.317 35.856C175.305 36.04 175.305 36.2288 175.322 36.4198C175.326 36.4688 175.331 36.5154 175.338 36.5643L175.34 36.5829V36.5876C175.34 36.5899 175.34 36.5899 175.343 36.5922C175.345 36.5946 175.345 36.5969 175.35 36.6016C175.35 36.6039 175.35 36.6086 175.352 36.6109C175.352 36.6132 175.357 36.6179 175.357 36.6202C175.357 36.6272 175.361 36.6365 175.359 36.6435C175.361 36.6761 175.35 36.7204 175.324 36.7553C175.298 36.7903 175.268 36.8206 175.226 36.8346C175.222 36.8346 175.215 36.8369 175.21 36.8392L175.201 36.8439C175.198 36.8439 175.194 36.8439 175.191 36.8439C175.18 36.8439 175.166 36.8509 175.156 36.8485C175.152 36.8485 175.147 36.8509 175.14 36.8509C175.138 36.8509 175.138 36.8532 175.135 36.8509L175.121 36.8485L175.093 36.8416L174.984 36.8159L174.546 36.7111L174.241 37.6338L174.672 37.8155L174.779 37.8621L174.807 37.8738L174.821 37.8784C174.825 37.8807 174.835 37.8831 174.844 37.8854C174.877 37.8947 174.907 37.9041 174.94 37.9134C175.005 37.932 175.068 37.939 175.131 37.9483C175.147 37.9507 175.163 37.953 175.18 37.953L175.229 37.9553C175.261 37.9553 175.294 37.9553 175.326 37.9553C175.522 37.9483 175.718 37.8924 175.893 37.8015C175.953 37.7712 176.011 37.7363 176.065 37.6967C176.282 37.5429 176.452 37.3285 176.557 37.0746C176.585 37.0117 176.603 36.9441 176.622 36.8788C176.631 36.8462 176.636 36.8113 176.643 36.7763C176.648 36.7414 176.655 36.7064 176.659 36.6715C176.662 36.6365 176.664 36.6016 176.664 36.5666V36.513V36.499V36.4921V36.4897V36.4781C176.666 36.4501 176.666 36.4222 176.669 36.3919C176.678 36.2777 176.699 36.1612 176.727 36.0424C176.741 35.9841 176.757 35.9235 176.776 35.863C176.785 35.8327 176.794 35.8024 176.804 35.7721L176.836 35.6719L176.979 35.2338L176.96 35.2292L175.445 34.8704L175.38 35.327Z" fill="white"/>
<path d="M204.691 21.857C204.518 21.3793 203.917 21.2302 203.542 21.5704L202.43 22.5747C202.363 22.577 202.295 22.584 202.228 22.5956C201.967 22.6422 201.72 22.7634 201.517 22.9498C201.466 22.9941 201.419 23.0476 201.375 23.1012C201.352 23.1269 201.333 23.1572 201.312 23.1851C201.291 23.2131 201.272 23.2434 201.254 23.2737C201.237 23.3039 201.221 23.3366 201.205 23.3669L201.182 23.4135L201.177 23.4251L201.175 23.4298L201.172 23.4321L201.168 23.4414C201.154 23.467 201.14 23.4903 201.126 23.516C201.067 23.6162 201 23.7117 200.923 23.8072C200.886 23.8538 200.844 23.9028 200.802 23.9494C200.781 23.9727 200.76 23.996 200.736 24.0193L200.664 24.0962C200.489 24.2965 200.415 24.5622 200.448 24.8255C200.455 24.8744 200.452 24.9117 200.438 24.9256C199.809 25.5221 199.185 26.1209 198.562 26.7244C197.938 27.3256 197.323 27.9314 196.705 28.5395L195.78 29.4505L194.862 30.3686C194.694 30.5363 194.529 30.7064 194.361 30.8742L192.788 28.3974C192.756 28.3461 192.723 28.2972 192.691 28.2459C192.297 27.6308 191.901 27.018 191.519 26.3959C191.111 25.7365 190.703 25.0724 190.307 24.406C189.797 23.5486 188.666 23.2387 187.816 23.763C186.991 24.2732 186.723 25.352 187.219 26.1885C187.254 26.2468 187.296 26.3097 187.338 26.3633C187.818 26.99 188.291 27.6261 188.76 28.2622C189.23 28.896 189.687 29.5414 190.146 30.1845L191.185 31.6268L192.917 34.0314L192.952 34.0803C193.418 34.7257 194.317 34.8725 194.965 34.4088C195.049 34.3483 195.128 34.276 195.195 34.2038C195.773 33.5607 196.34 32.9083 196.903 32.2512L197.745 31.2633L198.579 30.2684C199.133 29.6043 199.69 28.9403 200.238 28.2716C200.75 27.6494 201.261 27.025 201.766 26.3982L203.803 25.3753C204.84 24.7858 205.301 23.5346 204.896 22.4139L204.691 21.857Z" fill="white"/>
<path d="M200.224 43.2164C200.338 43.4122 200.429 43.6219 200.49 43.8432C200.427 43.6219 200.338 43.4122 200.224 43.2164Z" fill="white"/>
<path d="M200.541 44.0668C200.569 44.2182 200.583 44.372 200.583 44.5304C200.583 44.372 200.569 44.2182 200.541 44.0668Z" fill="white"/>
<path d="M194.59 53.6688L194.571 54.6987L194.541 56.7608L194.571 54.6987L194.59 53.6688Z" fill="white"/>
<path d="M194.757 47.012L194.711 48.5195C194.695 49.2068 194.676 49.8919 194.657 50.5792C194.676 49.8919 194.695 49.2068 194.711 48.5195L194.757 47.012Z" fill="white"/>
<path d="M197.493 60.6984C197.749 59.5171 197.992 58.3358 198.234 57.1521C197.992 58.3358 197.749 59.5171 197.493 60.6984Z" fill="white"/>
<path d="M194.541 56.7607C194.531 57.8209 194.522 58.8811 194.52 59.9412C194.522 58.8811 194.529 57.8209 194.541 56.7607Z" fill="white"/>
<path d="M198.234 57.1545L198.637 55.1321L199.033 53.1073L198.637 55.1321L198.234 57.1545Z" fill="white"/>
<path d="M191.656 46.3759C192.029 46.4528 192.402 46.5273 192.774 46.6066L194.755 47.0143L194.708 48.5218C194.692 49.2092 194.674 49.8942 194.655 50.5816C194.636 51.2689 194.62 51.954 194.608 52.6413L194.587 53.6712L194.566 54.7011L194.536 56.7631C194.527 57.8233 194.517 58.8835 194.515 59.9436L197.488 60.7009C197.745 59.5196 197.987 58.3382 198.229 57.1546L198.632 55.1321L199.026 53.1097C199.292 51.7606 199.539 50.4092 199.793 49.0601L200.534 45.0082C200.564 44.8474 200.578 44.6889 200.576 44.5305C200.576 44.3744 200.562 44.2183 200.534 44.0668C200.52 43.9923 200.504 43.9154 200.483 43.8431C200.422 43.6218 200.331 43.4121 200.217 43.2164C199.912 42.6944 199.427 42.282 198.831 42.0747L198.453 41.9442L196.456 41.2452L194.935 40.7023L191.656 46.3759Z" fill="white"/>
<path d="M194.52 59.9413L194.438 59.9203L192.784 60.8057L196.437 67.628C196.768 68.2478 197.542 68.4808 198.162 68.1499L197.67 62.262C198.171 62.4134 198.7 62.1292 198.851 61.6282L199.017 61.083L197.495 60.6962L194.52 59.9413ZM197.036 67.5162L196.61 62.2783L197.167 62.2317L197.593 67.4696L197.036 67.5162Z" fill="white"/>
<path d="M197.167 62.2409L196.61 62.2864L197.037 67.5256L197.594 67.4801L197.167 62.2409Z" fill="white"/>
<path d="M267.586 54.2421C267.756 54.4471 267.963 54.6452 268.336 54.8782C268.515 54.99 268.751 55.0483 268.988 55.0506C268.751 55.0483 268.515 54.99 268.336 54.8782C267.963 54.6452 267.756 54.4448 267.586 54.2421Z" fill="white"/>
<path d="M267.516 54.1535C267.469 54.0953 267.425 54.0347 267.381 53.9741C267.425 54.0347 267.469 54.0953 267.516 54.1535Z" fill="white"/>
<path d="M269.373 55.0016C269.305 55.0202 269.235 55.0342 269.163 55.0412C269.235 55.0342 269.305 55.0179 269.373 55.0016Z" fill="white"/>
<path d="M267.381 53.974C267.336 53.9134 267.29 53.8505 267.239 53.7853C267.29 53.8505 267.336 53.9134 267.381 53.974Z" fill="white"/>
<path d="M270.908 54.3632C270.617 54.4564 270.331 54.5589 270.053 54.6824C270.331 54.5566 270.617 54.4564 270.908 54.3632Z" fill="white"/>
<path d="M271.433 54.1931C271.258 54.2514 271.083 54.305 270.908 54.3632C271.083 54.305 271.258 54.2514 271.433 54.1931Z" fill="white"/>
<path d="M317.579 29.6812L317.423 29.101C317.287 28.5977 316.684 28.3904 316.267 28.7072L315.039 29.6416C314.969 29.6392 314.899 29.6392 314.829 29.6462C314.557 29.6695 314.293 29.7744 314.07 29.9468C314.011 29.9887 313.962 30.0377 313.911 30.0889C313.885 30.1122 313.862 30.1425 313.839 30.1705C313.816 30.1984 313.792 30.2264 313.771 30.2567C313.75 30.287 313.732 30.3173 313.713 30.3476L313.685 30.3942L313.678 30.4058L313.676 30.4105L313.673 30.4128L313.666 30.4221C313.65 30.4478 313.634 30.4711 313.617 30.4944C313.55 30.5922 313.471 30.6854 313.384 30.7763C313.34 30.8229 313.296 30.8672 313.249 30.9114C313.226 30.9324 313.203 30.9557 313.177 30.9767L313.096 31.0489L312.744 31.3658L312.758 31.3798L312.748 31.3868L312.443 32.0904L304.644 34.6185L300.219 32.2955L300.243 32.2559L297.505 30.506L294.79 29.4295L294.345 30.2148C293.977 30.8672 293.14 31.1002 292.488 30.7297C291.835 30.3616 291.602 29.5251 291.973 28.8727L292.232 28.4137L290.528 27.7379L289.729 27.4164C289.727 27.4164 289.727 27.4187 289.724 27.4211L289.72 27.4187L288.298 26.9597L285.348 28.0502L285.39 30.9208L287.112 31.247C286.115 32.829 285.882 33.9614 285.369 36.133C284.924 36.9019 284.053 38.0366 283.118 39.1923C283.109 39.2017 283.102 39.2133 283.093 39.2226L283.104 39.1923L281.063 40.6113C280.311 41.1356 279.7 41.8299 279.271 42.6268C278.554 43.4563 278.011 44.4302 277.696 45.4951L269.478 52.0494L274.776 47.8228L276.718 52.2987C277.438 52.0401 278.158 51.7815 278.878 51.5228C278.878 51.5228 280.033 50.6001 281.373 49.533L283.428 51.0918L289.808 60.822L285.055 53.5709L289.594 50.684L292.024 60.116L289.54 50.472L285.903 44.9242C286.075 44.7098 286.25 44.4955 286.422 44.2788C286.502 44.1809 286.581 44.0831 286.66 43.9829C286.805 43.8035 286.947 43.624 287.091 43.4423C287.175 43.3375 287.257 43.2349 287.341 43.1301C288.799 41.287 290.258 39.3741 291.563 37.4914C291.931 37.2841 292.285 37.1652 292.663 36.9881C293.171 36.1587 293.748 35.3198 294.296 34.4787L298.542 35.0705L298.747 34.728L303.794 36.9415C303.905 36.9905 304.024 37.0208 304.143 37.0347C304.25 37.0744 304.365 37.1 304.483 37.107L308.624 36.7202L314.079 33.7331C314.202 33.6655 316.19 32.6287 316.19 32.6287C317.315 32.1114 317.896 30.8672 317.579 29.6812Z" fill="white"/>
<path d="M285.351 28.0478L279.87 27.6074C279.749 27.5981 279.626 27.6074 279.509 27.633C279.395 27.6307 279.278 27.6447 279.164 27.675L275.378 29.3969L271.559 33.5932C271.006 34.0895 270.529 34.6627 270.205 35.3314L269.879 36.0071C269.366 37.072 269.692 38.3512 270.655 39.0362L271.125 39.3717C271.533 39.663 272.109 39.4486 272.225 38.9593L272.568 37.5147C272.621 37.4751 272.673 37.4308 272.719 37.3842C272.906 37.2001 273.038 36.9601 273.099 36.6968C273.118 36.6316 273.122 36.5617 273.132 36.4941C273.136 36.4592 273.134 36.4242 273.136 36.3916C273.136 36.3567 273.136 36.3217 273.134 36.2867C273.132 36.2518 273.127 36.2169 273.122 36.1819L273.115 36.1306L273.113 36.1167V36.1097V36.1073L273.111 36.0957C273.108 36.0677 273.104 36.0398 273.104 36.0118C273.094 35.8976 273.097 35.7811 273.104 35.66C273.108 35.5994 273.115 35.5388 273.122 35.4782C273.127 35.4479 273.132 35.4153 273.136 35.385L273.153 35.2825L273.176 35.1334L279.84 30.0749L285.393 30.916L285.351 28.0478Z" fill="white"/>
<path d="M285.064 53.5687L289.818 60.8197L290.633 65.3097L290.747 65.4005C293.662 67.7445 296.204 70.5126 298.302 73.6045L298.761 70.4287L298.793 70.4241L292.034 60.1137L289.603 50.6818L285.064 53.5687Z" fill="white"/>
<path d="M298.302 73.6045L298.269 73.8328L299.299 75.4033L305.77 71.1603C306.357 70.7735 306.522 69.986 306.135 69.3965L298.793 70.424L298.761 70.4287L298.302 73.6045Z" fill="white"/>
<path d="M291.973 28.8704C291.605 29.5228 291.836 30.3569 292.488 30.7274C293.14 31.0956 293.975 30.8649 294.345 30.2125L294.79 29.4273L295.303 28.5209C294.702 27.8498 294.333 27.025 294.231 26.1676L294.152 26.1885C294.152 26.1885 294.091 25.7854 294.014 25.2705C293.998 25.2938 293.984 25.3171 293.97 25.3427L292.236 28.4114L291.973 28.8704Z" fill="white"/>
<path d="M297.54 25.2496C297.719 24.8022 297.546 24.278 297.113 24.0356C296.642 23.77 296.046 23.9355 295.78 24.4061C295.536 24.8372 295.657 25.3754 296.041 25.6667L294.226 26.17C294.329 27.0251 294.697 27.8522 295.298 28.5233C295.589 28.8495 295.934 29.1384 296.333 29.3761C296.337 29.3784 296.34 29.3807 296.344 29.3831C296.931 29.7302 297.689 29.5182 298.027 28.9264C298.621 27.8825 299.574 26.2026 300.189 25.1191L299.473 24.7137L297.54 25.2496Z" fill="white"/>
<path d="M294.228 26.1676L296.044 25.6643C295.659 25.373 295.538 24.8348 295.783 24.4037C296.048 23.9331 296.645 23.7676 297.116 24.0333C297.547 24.2779 297.721 24.7998 297.542 25.2472L299.478 24.709L300.194 25.1144L301.96 26.1116C301.96 26.1116 302.125 23.975 301.119 22.2089C300.375 20.904 298.919 19.746 297.381 19.6016C296.913 19.5573 296.437 19.6086 295.971 19.7763C294.587 20.2796 293.79 21.6427 293.683 23.0663C293.681 23.0849 293.872 24.3548 294.012 25.2705C294.089 25.7854 294.149 26.1885 294.149 26.1885L294.228 26.1676Z" fill="white"/>
<path d="M269.482 52.0472L268.299 49.0997L268.17 49.0344C264.845 47.3242 261.798 45.1223 259.123 42.5127L259.309 45.7165L259.279 45.7281C260.264 46.7184 261.248 47.7087 262.233 48.6989C263.347 49.8197 264.461 50.9404 265.575 52.0588C266.003 52.4899 266.435 52.9232 266.863 53.3543C267.019 53.5104 267.136 53.6525 267.236 53.783C267.287 53.8483 267.334 53.9112 267.378 53.9718C267.422 54.0323 267.467 54.0929 267.513 54.1512C267.537 54.1815 267.56 54.2094 267.583 54.2397C267.753 54.4448 267.961 54.6428 268.334 54.8758C268.513 54.9876 268.748 55.0459 268.986 55.0482C269.044 55.0482 269.105 55.0459 269.163 55.0412C269.235 55.0342 269.305 55.0203 269.373 55.0016C269.471 54.976 269.562 54.941 269.641 54.8944C269.774 54.8152 269.911 54.7453 270.053 54.6824C270.33 54.5566 270.617 54.4564 270.908 54.3632C271.083 54.3073 271.258 54.2514 271.433 54.1931C271.519 54.1651 271.607 54.1349 271.691 54.1046C272.882 53.6782 274.073 53.2494 275.263 52.8207C275.75 52.646 276.235 52.4712 276.722 52.2965L274.781 47.8205L269.482 52.0472Z" fill="white"/>
<path d="M259.123 42.5128L259.109 42.2821L257.785 40.9517L252.298 46.4086C251.799 46.9049 251.797 47.7111 252.293 48.2097L259.281 45.7282L259.311 45.7166L259.123 42.5128Z" fill="white"/>
<path d="M107.997 24.1568C107.855 23.7118 107.308 23.5533 106.949 23.8539L105.891 24.7417C105.828 24.7417 105.767 24.7463 105.704 24.7556C105.462 24.7883 105.231 24.8931 105.038 25.0562C104.989 25.0958 104.945 25.1424 104.903 25.189C104.88 25.2123 104.861 25.2379 104.842 25.2636C104.824 25.2892 104.803 25.3148 104.786 25.3428C104.77 25.3708 104.754 25.3987 104.737 25.4267L104.714 25.4686L104.709 25.4803L104.707 25.4849L104.705 25.4873L104.7 25.4966C104.686 25.5199 104.675 25.5409 104.658 25.5642C104.602 25.6527 104.535 25.7412 104.462 25.8251C104.425 25.8671 104.388 25.909 104.346 25.9509C104.325 25.9719 104.306 25.9929 104.285 26.0138L104.215 26.0814L103.915 26.3773L103.927 26.389L103.92 26.396L103.675 27.0367L96.8173 29.6231L92.7675 27.7357L92.7862 27.7008L90.2673 26.2538L87.7974 25.408L87.4339 26.128C87.1333 26.7268 86.3969 26.9692 85.7981 26.6663C85.1993 26.3657 84.9569 25.6294 85.2598 25.0306L85.4719 24.6088L83.9223 24.0776L83.1953 23.8236L83.193 23.826L83.1884 23.8236L81.8998 23.4741L79.3133 24.5716L74.3991 24.4108C74.2896 24.4061 74.1824 24.4224 74.0775 24.4504C73.975 24.4527 73.8725 24.469 73.77 24.504L70.4612 26.2002L67.2293 30.1077C66.7563 30.5737 66.3531 31.1073 66.0945 31.7177L65.8312 32.3352C65.4188 33.3068 65.7636 34.4346 66.6514 35.0077L67.0871 35.2873C67.4646 35.5297 67.9679 35.313 68.0518 34.8726L68.2965 33.5678C68.3431 33.5305 68.3874 33.4886 68.427 33.4443C68.5854 33.2719 68.6949 33.0529 68.7369 32.8129C68.7508 32.7523 68.7532 32.6917 68.7578 32.6311C68.7602 32.6008 68.7578 32.5705 68.7578 32.5379C68.7555 32.5076 68.7555 32.475 68.7509 32.4447C68.7462 32.4144 68.7415 32.3841 68.7345 32.3515L68.7252 32.3049L68.7229 32.2933V32.2886V32.2863L68.7206 32.277C68.7159 32.2513 68.7136 32.228 68.7089 32.2024C68.6973 32.1022 68.6926 31.9974 68.6949 31.8878C68.6973 31.8342 68.6996 31.7783 68.7043 31.7247C68.7066 31.6968 68.7089 31.6688 68.7112 31.6409L68.7206 31.5477L68.7345 31.4125L74.4713 26.615L79.4671 27.1299L81.019 27.349C80.1941 28.8052 80.0334 29.8258 79.6699 31.7876C79.304 32.4936 78.5747 33.5422 77.7894 34.614C77.7824 34.6233 77.7755 34.6326 77.7685 34.6419L77.7778 34.614L76.0162 35.9677C75.3661 36.4663 74.8511 37.1118 74.5016 37.8434C73.8958 38.6146 73.4531 39.507 73.2177 40.4716L66.1551 46.6718L64.9737 44.0902L64.8549 44.0366C61.8117 42.6502 58.9992 40.8142 56.499 38.596L56.478 38.3909L55.2407 37.2585L50.5712 42.3636C50.1471 42.8273 50.1797 43.5473 50.6434 43.9713L56.7786 41.4596C57.699 42.303 58.6218 43.1465 59.5445 43.9877C60.5861 44.9406 61.63 45.8936 62.6715 46.8466C63.0723 47.2147 63.4754 47.5806 63.8762 47.9487C63.9857 48.0489 64.0743 48.1421 64.1535 48.2283C64.2048 48.2865 64.2537 48.3425 64.298 48.3961C64.5426 48.6943 64.7174 48.9413 65.2557 49.2419C65.3372 49.2885 65.4327 49.3211 65.5329 49.3421C65.5842 49.3537 65.6355 49.3607 65.6867 49.3654C65.738 49.37 65.7916 49.37 65.8452 49.37C65.964 49.3654 66.0829 49.3444 66.1924 49.3094C66.2763 49.2815 66.3555 49.2488 66.423 49.2022C66.4906 49.1556 66.5629 49.1137 66.6328 49.0741C66.705 49.0345 66.7772 48.9972 66.8495 48.9599C67.2176 48.7805 67.6091 48.6477 67.9912 48.5009C68.0681 48.4706 68.145 48.4403 68.2196 48.41C69.2658 47.979 70.3097 47.5456 71.3559 47.1122C72.4138 46.6742 73.474 46.2361 74.5319 45.7981C74.5319 45.7981 75.5245 44.9267 76.678 43.9154L78.5794 45.2202L84.689 53.6386L85.607 57.6136L85.7119 57.6905C88.4148 59.6594 90.8009 62.0244 92.8048 64.6969L92.7838 64.902L93.7695 66.2604L99.3688 62.1968C99.8768 61.8287 99.991 61.1157 99.6205 60.6077L93.1077 61.8356L86.6346 52.9163L84.0086 44.4094L80.525 39.6095C80.6695 39.4115 80.8163 39.2111 80.9631 39.0107C81.0307 38.9199 81.0959 38.829 81.1611 38.7381C81.2823 38.5703 81.4035 38.4026 81.527 38.2325C81.5969 38.137 81.6645 38.0414 81.7344 37.9459C82.96 36.238 84.181 34.4695 85.2668 32.7313C85.5884 32.5309 85.8983 32.4098 86.2292 32.235C86.6486 31.4731 87.1286 30.6995 87.583 29.926L91.3997 30.2755L91.5698 29.9609L96.1695 31.7247C96.2721 31.7643 96.3792 31.7853 96.4864 31.7923C96.5843 31.8226 96.6868 31.8412 96.794 31.8436L100.476 31.324L105.22 28.4254C105.327 28.3602 107.058 27.3513 107.058 27.3513C108.032 26.8433 108.498 25.7086 108.163 24.6624L107.997 24.1568Z" fill="white"/>
<path d="M85.2622 25.0283C84.9616 25.6271 85.2039 26.3634 85.8005 26.664C86.3993 26.9645 87.1356 26.7222 87.4362 26.1257L87.7997 25.4057L88.2191 24.5763C87.6552 24.0031 87.2917 23.2808 87.1636 22.5212L87.0937 22.5445C87.0937 22.5445 87.0238 22.1903 86.9329 21.736C86.9213 21.7569 86.9049 21.7756 86.8933 21.7965L85.4742 24.6089L85.2622 25.0283Z" fill="white"/>
<path d="M87.1612 22.5186C87.2894 23.2782 87.6529 24.0005 88.2167 24.5737C88.4917 24.8533 88.8109 25.0956 89.1768 25.2914C89.1791 25.2937 89.1838 25.296 89.1861 25.296C89.7243 25.5826 90.3931 25.3589 90.6704 24.816C91.1574 23.8584 91.938 22.3182 92.4413 21.3233L94.0607 22.1388C94.0607 22.1388 94.1166 20.2236 93.145 18.6904C92.4273 17.558 91.0758 16.5841 89.6964 16.5211C89.277 16.5025 88.8552 16.5677 88.4451 16.7378C87.2311 17.2458 86.5763 18.497 86.5414 19.7715C86.5414 19.7878 86.7674 20.9202 86.9282 21.7311C87.0191 22.1854 87.089 22.5396 87.089 22.5396L87.1612 22.5186Z" fill="white"/>
<path d="M176.957 37.2583L178.479 35.5294C178.619 34.8304 178.763 34.1314 178.912 33.4347C179.083 32.6169 179.262 31.8014 179.441 30.9859L179.712 29.7626L179.991 28.5417C180.18 27.7285 180.376 26.9176 180.583 26.1091C180.723 25.5709 181.173 25.1422 181.758 25.056L181.818 25.0466L186.558 24.35C187.348 24.2358 188.14 24.1286 188.927 24.0004C189.717 23.8746 190.505 23.7465 191.292 23.6067C191.358 23.595 191.432 23.5857 191.5 23.5834C192.483 23.5251 193.327 24.2754 193.385 25.2587C193.443 26.2419 192.693 27.0854 191.71 27.1437C190.91 27.1903 190.116 27.2485 189.319 27.3114C188.522 27.3697 187.727 27.4489 186.933 27.5211L183.107 27.8613C182.965 28.3343 182.818 28.8073 182.669 29.278L182.286 30.4709L181.895 31.6616C181.634 32.4561 181.373 33.2483 181.105 34.0405C180.839 34.8327 180.835 34.9446 180.56 35.7344C180.548 35.7671 180.464 36.6268 180.464 36.6268L178.81 40.5902C178.614 41.0586 178.008 41.1797 177.647 40.8209L177.232 40.4085C176.389 39.5627 176.272 38.2346 176.957 37.2583Z" fill="#DDA08C"/>
<path d="M186.539 39.0338C186.474 39.0408 186.42 39.0571 186.362 39.0687C186.308 39.0827 186.255 39.0967 186.203 39.113C186.152 39.1293 186.105 39.148 186.057 39.1643L185.919 39.2225C185.742 39.3017 185.591 39.3973 185.453 39.4998C185.18 39.7072 184.978 39.9541 184.819 40.2268L184.335 41.0423L183.859 41.8624C183.232 42.9599 182.631 44.0736 182.058 45.2014L181.632 46.0495L181.212 46.9023C180.933 47.4708 180.66 48.044 180.383 48.6125L179.558 50.3251L178.724 52.033L180.126 50.8167L176.27 52.711C174.988 53.3518 173.702 53.9832 172.425 54.631L170.505 55.6003L168.59 56.5789C167.315 57.2383 166.041 57.8953 164.773 58.571C164.067 58.9485 163.799 59.8269 164.179 60.5353C164.507 61.148 165.214 61.43 165.857 61.2459C167.238 60.8521 168.611 60.4351 169.983 60.0227L172.038 59.3912L174.091 58.7528C175.461 58.3287 176.822 57.8883 178.19 57.455L182.277 56.1315C182.771 55.9707 183.174 55.6562 183.447 55.2578L183.68 54.9152L184.752 53.3448L185.833 51.7814C186.192 51.2594 186.555 50.7398 186.909 50.2156L187.443 49.4304L187.97 48.6405C188.666 47.5826 189.337 46.5108 189.98 45.4227L190.458 44.6049L190.927 43.7824C191.087 43.5098 191.201 43.2115 191.246 42.8713C191.267 42.7012 191.274 42.5218 191.257 42.3284L191.241 42.1816C191.232 42.1304 191.225 42.0815 191.213 42.0279C191.204 41.9766 191.19 41.923 191.174 41.8671C191.155 41.8088 191.141 41.7576 191.115 41.697C190.342 39.847 188.44 38.8078 186.539 39.0338Z" fill="url(#paint2_linear)"/>
<path d="M186.667 44.8052C187.632 45.3318 186.891 44.9333 186.891 44.9333C189.011 45.15 190.803 44.8961 191.479 42.4146C192.844 37.398 194.646 32.5959 197.05 27.8869C197.847 26.3258 197.062 25.4357 195.911 24.6388C195.417 24.2963 194.478 23.8559 193.835 23.6695C192.264 23.2129 191.283 23.2828 190.381 24.9953C187.804 29.8837 186.113 35.1612 184.512 40.2593C183.715 42.7967 185.693 44.2716 186.667 44.8052Z" fill="#373C41"/>
<path d="M194.79 25.7667C195.398 26.2047 196.253 26.0672 196.691 25.4614L198.656 22.7446C199.094 22.1365 198.956 21.2814 198.35 20.8433C197.742 20.4053 196.887 20.5428 196.449 21.1486L194.485 23.8654C194.044 24.4735 194.182 25.3286 194.79 25.7667Z" fill="#DEA095"/>
<path d="M179.931 49.5563L179.56 50.3252L179.064 51.3387L176.272 52.7111C174.991 53.3519 173.705 53.9833 172.428 54.6311L170.508 55.6004L168.592 56.579C167.318 57.2384 166.043 57.8954 164.776 58.5711C164.608 58.6597 164.468 58.7785 164.351 58.9137L165.363 61.2949C165.528 61.3066 165.696 61.2903 165.859 61.2437C167.241 60.8499 168.613 60.4328 169.986 60.0204L172.041 59.389L174.094 58.7506C175.464 58.3265 176.825 57.8861 178.192 57.4527L182.279 56.1293C182.773 55.9685 183.177 55.654 183.449 55.2555L183.682 54.913L184.558 53.6292L179.931 49.5563Z" fill="#DDA08C"/>
<path d="M200.278 17.2574L202.794 21.1952L201.368 23.1664C201.345 23.2036 201.321 23.2409 201.296 23.2782C201.235 23.3691 201.17 23.4553 201.1 23.5368L200.984 23.658C200.865 23.7838 200.739 23.9003 200.601 24.0028C199.711 24.6552 198.493 24.7624 197.491 24.1822C197.481 24.1776 197.472 24.1706 197.463 24.1659C195.62 23.0778 195.042 20.6639 196.228 18.8512C197.116 17.4951 198.763 16.8893 200.278 17.2574Z" fill="#DDA08C"/>
<path d="M200.921 16.5793C200.93 16.5863 200.939 16.5933 200.949 16.6003H200.951L205.513 19.8973L202.985 20.1489L204.441 21.3792C202.789 21.4561 201.135 21.2837 199.534 20.8643L199.105 20.7524C199.378 20.2305 199.194 19.5618 198.637 19.2705C198.225 19.0538 197.705 19.1307 197.374 19.4569C197.157 19.6713 197.048 19.9416 197.041 20.2119L195.764 21.964C194.746 20.6755 194.657 18.8208 195.668 17.4228C196.882 15.7405 199.236 15.3607 200.921 16.5793Z" fill="#623C34"/>
<path d="M168.24 61.4696L164.615 58.4429L162.739 58.5268L163.089 66.2578C163.121 66.9614 163.715 67.5043 164.419 67.4717L166.518 61.9496C166.905 62.3037 167.504 62.2758 167.858 61.889L168.24 61.4696Z" fill="#373C41"/>
<path d="M165.548 61.4941L163.672 66.4048L164.194 66.6043L166.07 61.6937L165.548 61.4941Z" fill="white"/>
<path d="M180.478 36.6362L180.336 37.0742L180.304 37.1744C180.294 37.2047 180.285 37.235 180.276 37.2653C180.257 37.3259 180.241 37.3841 180.227 37.4447C180.199 37.5635 180.178 37.68 180.168 37.7942C180.166 37.8222 180.164 37.8525 180.164 37.8804V37.8921V37.8944V37.9014V37.9154V37.9689C180.164 38.0039 180.161 38.0389 180.159 38.0738C180.154 38.1088 180.15 38.1437 180.143 38.1787C180.136 38.2136 180.131 38.2486 180.122 38.2812C180.103 38.3487 180.084 38.4163 180.057 38.4769C179.952 38.7309 179.782 38.9476 179.565 39.099C179.35 39.2528 179.09 39.3483 178.824 39.3576C178.791 39.3576 178.759 39.3576 178.726 39.3576L178.677 39.3553C178.661 39.3553 178.644 39.353 178.628 39.3507C178.563 39.3413 178.502 39.3367 178.437 39.3157C178.404 39.3064 178.372 39.2971 178.342 39.2877C178.335 39.2854 178.325 39.2831 178.318 39.2808L178.304 39.2761L178.276 39.2644L178.169 39.2178L177.738 39.0361L178.043 38.1134L178.481 38.2183L178.591 38.2439L178.619 38.2509L178.633 38.2532C178.637 38.2532 178.637 38.2532 178.637 38.2532C178.642 38.2509 178.649 38.2509 178.654 38.2509C178.663 38.2532 178.677 38.2462 178.689 38.2462C178.691 38.2462 178.696 38.2462 178.698 38.2462L178.707 38.2416C178.712 38.2392 178.719 38.2369 178.724 38.2369C178.766 38.2206 178.796 38.1903 178.822 38.1577C178.847 38.1251 178.859 38.0785 178.857 38.0458C178.859 38.0388 178.854 38.0295 178.854 38.0225C178.854 38.0202 178.852 38.0155 178.85 38.0132C178.847 38.0109 178.847 38.0062 178.847 38.0039C178.845 38.0016 178.843 37.9969 178.84 37.9946C178.84 37.9922 178.838 37.9923 178.838 37.9899V37.9853L178.836 37.9666C178.829 37.9177 178.824 37.8711 178.819 37.8222C178.803 37.6311 178.803 37.4424 178.815 37.2583C178.819 37.1651 178.829 37.0742 178.84 36.9857C178.845 36.9414 178.852 36.8971 178.859 36.8529L178.877 36.7294L178.947 36.275L180.478 36.6362Z" fill="url(#paint3_linear)"/>
<path d="M191.311 25.1562C192.162 24.6319 193.292 24.9395 193.802 25.7992C194.198 26.468 194.606 27.1297 195.014 27.7891C195.428 28.4625 195.857 29.1265 196.284 29.7906L197.856 32.2674C198.022 32.0996 198.19 31.9295 198.357 31.7618L199.275 30.8437L200.201 29.9327C200.818 29.3269 201.435 28.7188 202.058 28.1176C202.68 27.5141 203.304 26.9153 203.933 26.3188C203.947 26.3072 203.947 26.2676 203.943 26.2187C203.91 25.9554 203.985 25.6897 204.159 25.4894L204.232 25.4125C204.253 25.3892 204.276 25.3659 204.297 25.3426C204.339 25.296 204.378 25.2494 204.418 25.2004C204.495 25.1049 204.563 25.0094 204.621 24.9092C204.635 24.8835 204.649 24.8602 204.663 24.8346L204.667 24.8253L204.67 24.823L204.672 24.8183L204.677 24.8067L204.7 24.7601C204.716 24.7274 204.733 24.6971 204.749 24.6669C204.768 24.6366 204.789 24.6086 204.807 24.5783C204.828 24.5504 204.847 24.5201 204.87 24.4944C204.917 24.4408 204.961 24.3896 205.012 24.343C205.215 24.1589 205.462 24.0354 205.723 23.9888C205.788 23.9772 205.856 23.9702 205.926 23.9678L207.039 22.9636C207.417 22.6234 208.016 22.7749 208.188 23.2502L208.386 23.8001C208.792 24.9208 208.33 26.1721 207.293 26.7615L205.257 27.7844C204.751 28.4112 204.241 29.0356 203.728 29.6578C203.181 30.3288 202.624 30.9905 202.069 31.6546L201.235 32.6495L200.394 33.6398C199.83 34.2968 199.264 34.9493 198.686 35.5923C198.618 35.6646 198.539 35.7391 198.455 35.7974C197.81 36.2634 196.908 36.1166 196.442 35.4688L196.407 35.4199L193.639 31.573C193.18 30.93 192.723 30.2845 192.252 29.6508C191.784 29.0147 191.311 28.3809 190.831 27.7518C190.791 27.6982 190.747 27.6353 190.712 27.5771C190.218 26.7452 190.484 25.6664 191.311 25.1562Z" fill="#DDA08C"/>
<path d="M185.115 38.3441C185.236 37.9643 185.358 37.5868 185.481 37.2047L192.297 39.6023C192.259 39.7211 192.224 39.84 192.187 39.9611C192.784 40.1475 193.378 40.3386 193.972 40.5366L194.974 40.8745L195.971 41.224C196.638 41.4547 197.302 41.6947 197.966 41.93L199.958 42.6407L201.955 43.3397L202.333 43.4701C203.526 43.8872 204.271 45.1221 204.036 46.4036L203.295 50.4556C203.039 51.8046 202.792 53.1561 202.528 54.5051L202.135 56.5276L201.731 58.5501C201.457 59.8968 201.182 61.2459 200.886 62.5903C200.741 63.2427 200.159 63.7344 199.46 63.7297C198.658 63.725 198.02 63.0517 198.017 62.2501C198.01 60.8847 198.024 59.5217 198.038 58.1586L198.068 56.0965L198.108 54.0345C198.131 52.6598 198.173 51.2874 198.208 49.915L198.255 48.4075L196.274 47.9997C195.585 47.8576 194.893 47.7178 194.203 47.571L193.168 47.352L192.136 47.1236C190.761 46.8137 189.396 46.4735 188.037 46.1054L187.021 45.8235L186.008 45.5322C185.667 45.439 185.344 45.2946 185.041 45.0732C184.889 44.9614 184.742 44.8332 184.603 44.6771L184.5 44.5559C184.467 44.5117 184.433 44.4697 184.4 44.4231C184.367 44.3765 184.335 44.3276 184.304 44.2787C184.274 44.2227 184.241 44.1738 184.213 44.1109C183.722 43.0298 183.733 41.8088 184.19 40.758C184.53 39.9681 184.854 39.1666 185.115 38.3441Z" fill="#373C41"/>
<path d="M202.33 43.4726L201.953 43.3421L199.956 42.6431L198.434 42.1002L195.149 47.7738C195.522 47.8507 195.894 47.9253 196.267 48.0045L198.248 48.4123L198.201 49.9198C198.169 51.2922 198.127 52.6645 198.101 54.0393L198.061 56.1013L198.031 58.1634C198.017 59.5265 198.003 60.8895 198.01 62.2549C198.015 63.0564 198.651 63.7322 199.453 63.7345C200.152 63.7391 200.734 63.2475 200.879 62.5951C201.175 61.2507 201.449 59.9016 201.724 58.5548L202.128 56.5324L202.521 54.5099C202.787 53.1608 203.034 51.8094 203.288 50.4603L204.029 46.4084C204.269 45.1223 203.523 43.8897 202.33 43.4726Z" fill="#DDA08C"/>
<path d="M202.51 62.4831L197.931 61.3181L196.277 62.2035L199.93 69.0258C200.261 69.6456 201.035 69.8786 201.655 69.5478L201.163 63.6598C201.664 63.8112 202.193 63.527 202.344 63.026L202.51 62.4831Z" fill="#373C41"/>
<path d="M200.662 63.6409L200.104 63.6864L200.532 68.9256L201.089 68.8801L200.662 63.6409Z" fill="white"/>
<path d="M284.55 47.8156C284.472 47.8915 284.437 47.9223 284.55 47.8156V47.8156Z" fill="#A4E603"/>
<path d="M284.071 43.7007C285.46 41.9719 287.991 39.0453 288.867 37.5308C289.403 35.2497 289.631 34.1173 290.764 32.4048C291.39 31.4565 292.045 30.2076 292.779 29.2942C292.931 29.1078 293.077 28.947 293.224 28.8142L298.98 31.1326C299.627 31.9574 299.604 32.7659 298.919 34.0335C298.132 35.4921 297.048 36.953 296.167 38.3836C295.79 38.5584 295.436 38.6795 295.067 38.8869C293.108 41.7086 290.813 44.6048 288.674 47.2191C287.352 48.8361 286.12 48.8641 284.549 47.8179C282.979 46.7717 282.972 45.0731 284.071 43.7007Z" fill="#373C41"/>
<path d="M283.435 47.4709C283.433 47.464 283.433 47.4571 283.431 47.4479C283.433 47.4548 283.435 47.464 283.435 47.4709Z" fill="#373C41"/>
<path d="M283.438 47.4863C283.438 47.4815 283.435 47.4766 283.435 47.4718C283.438 47.4766 283.438 47.4815 283.438 47.4863Z" fill="#373C41"/>
<path d="M283.438 47.486C283.443 47.5054 283.443 47.5151 283.438 47.486V47.486Z" fill="#373C41"/>
<path d="M283.43 47.4476C283.428 47.4363 283.426 47.4273 283.426 47.4227C283.428 47.4318 283.43 47.4386 283.43 47.4476Z" fill="#373C41"/>
<path d="M262.199 43.5051C264.974 46.2942 268.168 48.6312 271.666 50.4323L271.794 50.4975L272.978 53.445L281.196 46.8906C281.648 45.3668 282.557 44.0201 283.799 43.0275L284.423 42.5312C285.936 41.3265 288.145 41.6108 289.303 43.1603C289.592 43.5471 289.785 43.9758 289.89 44.4185L289.163 44.3602L286.525 49.6144C284.656 51.1057 282.382 52.9184 282.382 52.9184C281.175 53.3518 279.97 53.7852 278.763 54.2186C277.573 54.6473 276.382 55.076 275.191 55.5024C274.504 55.7494 273.772 55.9148 273.141 56.2923C272.78 56.509 272.192 56.4973 271.834 56.276C270.983 55.7471 270.988 55.3836 270.363 54.7568C269.935 54.3258 269.504 53.8924 269.075 53.4613C267.961 52.3406 266.847 51.2198 265.733 50.1014C264.657 49.018 263.58 47.9345 262.501 46.851C261.914 46.2592 261.325 45.6697 260.738 45.0779C260.719 45.0592 260.7 45.0406 260.679 45.0196L262.199 43.5051Z" fill="url(#paint4_linear)"/>
<path d="M282.275 45.2572C282.631 43.9384 283.44 42.7873 284.563 42.0068L286.604 40.5878L286.593 40.6181C286.602 40.6064 286.614 40.5948 286.623 40.5831L290.845 44.5209C290.363 45.129 289.883 45.7278 289.405 46.315L293.042 51.8628L295.526 61.5067L303.917 74.3032L302.125 75.4799C299.968 72.1899 297.307 69.2587 294.24 66.7936L294.126 66.7027L293.31 62.2127L286.931 52.4826L284.5 50.6395L282.778 48.0136L282.725 47.932C282.704 47.8994 282.685 47.8668 282.666 47.8342L281.907 46.6179L282.275 45.2572Z" fill="#373C41"/>
<path d="M297.165 32.2162C297.544 31.3517 298.577 30.9906 299.411 31.4286L308.137 36.0118L315.936 33.4837L316.241 32.78L319.76 30.1028C320.175 29.7859 320.778 29.9933 320.916 30.4966L321.072 31.0768C321.391 32.2628 320.808 33.507 319.695 34.0219C319.695 34.0219 317.707 35.0565 317.584 35.1264L312.129 38.1134L307.988 38.5002C307.869 38.4932 307.755 38.4676 307.648 38.428C307.529 38.414 307.41 38.3837 307.298 38.3348L301.326 35.7135C300.536 36.0211 299.656 36.0024 298.88 35.6623L298.432 35.4665C297.183 34.9213 296.617 33.465 297.165 32.2162Z" fill="url(#paint5_linear)"/>
<path d="M273.374 37.4073L273.7 36.7316C274.022 36.0629 274.502 35.4897 275.054 34.9934L278.873 30.797L282.659 29.0752C282.776 29.0425 282.89 29.0309 283.004 29.0332C283.121 29.0076 283.242 28.9959 283.365 29.0076L289.867 29.5295C290.512 28.9796 291.351 28.7093 292.197 28.7769L292.684 28.8165C294.042 28.926 295.056 30.1167 294.946 31.4751C294.872 32.4164 294.014 33.0945 293.08 32.9547L283.335 31.4797L276.671 36.5382L276.648 36.6873L276.631 36.7899C276.627 36.8202 276.622 36.8528 276.617 36.8831C276.61 36.9437 276.603 37.0066 276.599 37.0648C276.589 37.186 276.589 37.3025 276.599 37.4166C276.601 37.4446 276.603 37.4726 276.606 37.5005L276.608 37.5122V37.5145V37.5215L276.61 37.5355L276.617 37.5867C276.622 37.6217 276.627 37.6566 276.629 37.6916C276.631 37.7265 276.631 37.7615 276.631 37.7964C276.631 37.8314 276.631 37.8663 276.627 37.899C276.62 37.9665 276.613 38.0364 276.594 38.1017C276.534 38.3673 276.401 38.605 276.214 38.789C276.168 38.8356 276.116 38.8799 276.063 38.9195L275.72 40.3641C275.604 40.8534 275.031 41.0678 274.621 40.7765L274.15 40.441C273.188 39.7513 272.861 38.4722 273.374 37.4073Z" fill="#EEB5AC"/>
<path d="M293.096 52.0796L295.527 61.5115L303.917 74.308L302.126 75.4847C299.968 72.1947 297.307 69.2635 294.24 66.7983L294.126 66.7075L293.311 62.2175L288.557 54.9665L293.096 52.0796Z" fill="#EEB5AC"/>
<path d="M284.55 47.8156C284.472 47.8915 284.437 47.9223 284.55 47.8156V47.8156Z" fill="#373C41"/>
<path d="M293.217 28.8142L300.998 31.8992L303.736 33.649L302.046 36.466L297.132 35.781L290.61 32.6425L288.888 32.3163L288.846 29.4457L291.796 28.3552L293.217 28.8142Z" fill="#373C41"/>
<path d="M302.256 71.8265L301.762 75.2307L302.792 76.8011L309.263 72.5581C309.85 72.1713 310.015 71.3838 309.628 70.7943L302.256 71.8265Z" fill="#373C41"/>
<path d="M308.988 71.425L303.808 72.3154L303.902 72.8665L309.083 71.9761L308.988 71.425Z" fill="white"/>
<path d="M295.983 32.1252C296.636 32.4933 297.47 32.2627 297.84 31.6103L299.835 28.0826C300.203 27.4302 299.628 27.2042 298.975 26.8337L299.32 26.2256C298.668 25.8574 297.833 26.0881 297.463 26.7405L295.468 30.2682C295.098 30.9206 295.331 31.757 295.983 32.1252Z" fill="#DEA095"/>
<path d="M302.629 22.5675C302.678 22.5978 302.727 22.6281 302.773 22.6584C302.801 22.6771 302.827 22.6957 302.852 22.7143C302.871 22.7283 302.892 22.7423 302.911 22.7563C302.946 22.7819 302.981 22.8099 303.015 22.8378C303.025 22.8448 303.034 22.8518 303.043 22.8588C303.083 22.8914 303.123 22.9264 303.162 22.959C303.165 22.9613 303.167 22.9636 303.172 22.966C303.335 23.1128 303.482 23.2759 303.612 23.446C304.055 24.0355 304.288 24.7484 304.281 25.4638C304.281 25.4638 302.456 28.6792 301.524 30.3172C301.186 30.909 300.429 31.1234 299.842 30.7739C299.837 30.7716 299.835 30.7692 299.83 30.7669C298.174 29.779 297.4 27.894 297.794 26.1721C297.777 26.1208 297.763 26.0672 297.752 26.016C297.74 25.9647 297.728 25.9111 297.717 25.8599V25.8575C297.707 25.8063 297.698 25.755 297.691 25.7014C297.691 25.6991 297.691 25.6968 297.691 25.6944C297.684 25.6432 297.677 25.5919 297.673 25.5407C297.673 25.5383 297.673 25.5337 297.673 25.5313C297.668 25.4824 297.666 25.4311 297.663 25.3822C297.663 25.3776 297.663 25.3729 297.663 25.3682C297.661 25.3193 297.661 25.2727 297.661 25.2238C297.661 25.2168 297.661 25.2098 297.661 25.2051C297.661 25.1585 297.663 25.1119 297.666 25.0653C297.666 25.056 297.666 25.049 297.668 25.0397C297.67 24.9954 297.675 24.9512 297.68 24.9069C297.68 24.8976 297.682 24.8859 297.682 24.8766C297.687 24.8347 297.693 24.7927 297.7 24.7508C297.703 24.7391 297.703 24.7275 297.705 24.7158C297.712 24.6762 297.719 24.6366 297.728 24.5947C297.731 24.5807 297.733 24.5667 297.738 24.5527C297.747 24.5154 297.756 24.4758 297.766 24.4386C297.77 24.4246 297.773 24.4083 297.777 24.3943C297.787 24.357 297.798 24.3221 297.81 24.2848C297.815 24.2685 297.819 24.2522 297.826 24.2358C297.838 24.2009 297.852 24.1659 297.864 24.131C297.871 24.1147 297.875 24.096 297.882 24.0797C297.896 24.0448 297.91 24.0122 297.926 23.9772C297.933 23.9609 297.941 23.9423 297.95 23.9259C297.966 23.891 297.985 23.856 298.001 23.8211C298.008 23.8071 298.015 23.7908 298.024 23.7768C298.05 23.7279 298.078 23.679 298.108 23.63C299.019 22.0992 301.047 21.6216 302.629 22.5675Z" fill="#EEB5AC"/>
<path d="M299.467 21.1765C299.933 21.0087 300.408 20.9574 300.876 21.0017C302.414 21.1462 303.871 22.3042 304.614 23.609C305.618 25.3728 305.455 27.5118 305.455 27.5118L302.974 26.1091L301.037 26.6474C301.217 26.2 301.044 25.6757 300.611 25.4334C300.14 25.1678 299.544 25.3332 299.278 25.8039C299.033 26.2349 299.154 26.7732 299.539 27.0644L297.645 27.591C297.645 27.591 297.176 24.4991 297.178 24.4711C297.286 23.0451 298.08 21.6797 299.467 21.1765Z" fill="#623C34"/>
<path d="M316.239 32.7636L316.591 32.4467L316.672 32.3745C316.696 32.3535 316.721 32.3302 316.745 32.3093C316.791 32.265 316.838 32.2207 316.88 32.1741C316.966 32.0833 317.045 31.9901 317.113 31.8922C317.129 31.8689 317.145 31.8433 317.162 31.82L317.169 31.8106L317.171 31.8083L317.173 31.8037L317.18 31.792L317.208 31.7454C317.227 31.7151 317.248 31.6848 317.267 31.6545C317.288 31.6266 317.311 31.5963 317.334 31.5683C317.357 31.5404 317.378 31.5124 317.406 31.4868C317.458 31.4378 317.509 31.3866 317.565 31.3446C317.789 31.1722 318.052 31.0674 318.324 31.0441C318.595 31.0184 318.877 31.0674 319.117 31.1955C319.147 31.2118 319.175 31.2281 319.205 31.2468L319.247 31.2724C319.261 31.2817 319.275 31.291 319.287 31.3027C319.34 31.3446 319.392 31.3819 319.441 31.4332C319.464 31.4565 319.49 31.4821 319.513 31.5077C319.517 31.5124 319.527 31.5217 319.529 31.5264L319.538 31.538L319.557 31.5613L319.629 31.6569L319.918 32.0413L319.17 32.7054L318.835 32.3838L318.751 32.3046L318.73 32.2836L318.721 32.2743C318.718 32.272 318.718 32.272 318.716 32.272C318.711 32.2697 318.704 32.2697 318.7 32.2673C318.693 32.2627 318.676 32.258 318.667 32.2533C318.665 32.2533 318.662 32.251 318.658 32.2487L318.648 32.2464C318.641 32.2464 318.637 32.244 318.632 32.2417C318.588 32.2347 318.544 32.244 318.504 32.2627C318.464 32.279 318.432 32.3139 318.415 32.3442C318.408 32.3512 318.411 32.3605 318.406 32.3675C318.404 32.3698 318.404 32.3745 318.404 32.3792C318.404 32.3838 318.401 32.3862 318.401 32.3885C318.401 32.3931 318.401 32.3955 318.401 32.4001C318.401 32.4025 318.401 32.4025 318.401 32.4048L318.399 32.4095L318.392 32.4258C318.373 32.4724 318.352 32.5166 318.331 32.5609C318.248 32.7403 318.15 32.9081 318.045 33.0665C317.991 33.1457 317.938 33.2226 317.882 33.2972C317.854 33.3345 317.826 33.3718 317.796 33.4067L317.714 33.5069L317.418 33.8774L316.239 32.7636Z" fill="url(#paint6_linear)"/>
<path d="M260.98 45.3201L261.243 44.4557L262.199 43.505C264.974 46.294 268.168 48.6311 271.666 50.4322L271.794 50.4974L272.978 53.4449L278.276 49.2182L280.217 53.6942C279.73 53.869 279.246 54.0437 278.759 54.2185C277.568 54.6472 276.377 55.0759 275.187 55.5023C274.499 55.7493 273.768 55.9147 273.136 56.2922C272.775 56.5089 272.188 56.4972 271.829 56.2759C270.978 55.747 270.983 55.3835 270.359 54.7567C269.93 54.3256 269.499 53.8923 269.07 53.4612C267.956 52.3405 266.842 51.2197 265.729 50.1013C264.652 49.0178 263.576 47.9344 262.497 46.8509C261.993 46.3383 261.485 45.8304 260.98 45.3201Z" fill="#EEB5AC"/>
<path d="M262.804 47.1143L262.604 43.6798L261.28 42.3494L255.793 47.8063C255.294 48.3026 255.292 49.1088 255.788 49.6074L262.804 47.1143Z" fill="#373C41"/>
<path d="M260.956 46.4264L256.06 48.3392L256.263 48.8601L261.159 46.9472L260.956 46.4264Z" fill="white"/>
<path d="M79.7502 42.5591C79.6839 42.6279 79.653 42.6587 79.7502 42.5591V42.5591Z" fill="#A4E603"/>
<path d="M79.148 38.9033C80.3154 37.3003 82.4498 34.5811 83.1698 33.1901C83.5519 31.1304 83.708 30.1098 84.6471 28.5324C85.1667 27.6586 85.698 26.5146 86.3155 25.6688C86.4413 25.4964 86.5671 25.3473 86.6906 25.2214L91.9264 27.0482C92.5392 27.7565 92.5532 28.4811 91.9963 29.6415C91.3555 30.9766 90.4491 32.3257 89.7244 33.6445C89.3936 33.8169 89.0837 33.9404 88.7621 34.1408C87.131 36.7434 85.204 39.4276 83.4051 41.8508C82.2936 43.3514 81.1938 43.4282 79.7468 42.5591C78.2998 41.69 78.2229 40.1755 79.148 38.9033Z" fill="#373C41"/>
<path d="M78.7406 42.2974C78.7382 42.2901 78.7381 42.2828 78.7357 42.2755C78.7381 42.2828 78.7382 42.2901 78.7406 42.2974Z" fill="#373C41"/>
<path d="M78.7427 42.3105C78.7427 42.3057 78.7404 42.3033 78.7404 42.2986C78.7427 42.3033 78.7427 42.3057 78.7427 42.3105Z" fill="#373C41"/>
<path d="M78.7428 42.3109C78.7477 42.328 78.7501 42.3353 78.7428 42.3109V42.3109Z" fill="#373C41"/>
<path d="M78.7354 42.2745C78.7331 42.2653 78.7308 42.2561 78.7308 42.2515C78.7331 42.2607 78.7331 42.2676 78.7354 42.2745Z" fill="#373C41"/>
<path d="M78.7308 42.2514C78.7308 42.2491 78.7308 42.2491 78.7285 42.2468C78.7285 42.2468 78.7285 42.2491 78.7308 42.2514Z" fill="#373C41"/>
<path d="M59.6074 39.6536C62.2032 42.0279 65.1555 43.9804 68.3547 45.4367L68.4736 45.4903L69.6549 48.0719L76.7176 41.8718C77.0554 40.4924 77.8104 39.2505 78.8776 38.3138L79.4135 37.8432C80.7137 36.7014 82.699 36.8645 83.7965 38.1996C84.0714 38.5328 84.2625 38.908 84.3744 39.2971L83.7219 39.2761L81.5875 44.0806C79.9821 45.4903 78.0294 47.2052 78.0294 47.2052C76.9715 47.6432 75.9113 48.0813 74.8535 48.5193C73.8072 48.9527 72.7633 49.3837 71.7171 49.8171C71.1136 50.0664 70.4681 50.2459 69.9182 50.6093C69.6037 50.8167 69.0794 50.833 68.7508 50.6489C67.9703 50.2132 67.9586 49.8894 67.3737 49.3535C66.973 48.9853 66.5698 48.6195 66.1691 48.2514C65.1275 47.2984 64.0836 46.3454 63.042 45.3924C62.0354 44.4697 61.0265 43.5494 60.0199 42.6267C59.4699 42.1234 58.92 41.6201 58.3701 41.1168C58.3515 41.1005 58.3352 41.0842 58.3165 41.0679L59.6074 39.6536Z" fill="url(#paint7_linear)"/>
<path d="M77.61 40.3689C77.871 39.1759 78.5467 38.1134 79.5161 37.3701L81.2776 36.0164L81.2683 36.0443C81.2753 36.0327 81.2846 36.0234 81.294 36.0117L85.2319 39.3506C84.8288 39.9145 84.4233 40.4691 84.0225 41.0143L87.5061 45.8141L90.1322 54.321L98.1664 65.3933L96.6146 66.5187C94.5478 63.6714 92.0498 61.1667 89.2071 59.0953L89.1022 59.0184L88.1842 55.0434L82.0746 46.625L79.826 45.0825L78.1762 42.8084L78.125 42.7385C78.104 42.7105 78.0854 42.6826 78.0691 42.6546L77.3397 41.6014L77.61 40.3689Z" fill="#373C41"/>
<path d="M90.3535 28.0942C90.6564 27.3067 91.5628 26.9409 92.3271 27.2973L100.312 31.0207L107.17 28.4344L107.415 27.7936L110.444 25.2539C110.803 24.9533 111.35 25.1118 111.492 25.5568L111.656 26.0694C111.991 27.1156 111.525 28.2503 110.551 28.7583C110.551 28.7583 108.82 29.7672 108.713 29.8324L103.968 32.731L100.287 33.2506C100.18 33.2482 100.077 33.2319 99.9793 33.1993C99.8721 33.1923 99.7649 33.1713 99.6624 33.1317L94.2192 31.044C93.5271 31.3516 92.7396 31.3726 92.0312 31.1023L91.6234 30.9462C90.4863 30.5081 89.9178 29.2313 90.3535 28.0942Z" fill="#7F4E46"/>
<path d="M69.3286 33.7352L69.5919 33.1177C69.8506 32.5073 70.2537 31.976 70.7267 31.5077L73.9586 27.6002L77.2674 25.904C77.3699 25.8714 77.4724 25.8551 77.575 25.8504C77.6775 25.8224 77.787 25.8085 77.8965 25.8108L83.7242 26.0018C84.2787 25.4846 85.0151 25.2073 85.7724 25.2306L86.2081 25.2446C87.4268 25.2842 88.3821 26.3047 88.3425 27.5234C88.3145 28.3668 87.5782 29.0099 86.7394 28.9237L77.9757 28.0196L72.239 32.8172L72.225 32.9523L72.2157 33.0455C72.2133 33.0735 72.211 33.1014 72.2087 33.1294C72.204 33.1853 72.2017 33.2389 72.1994 33.2925C72.197 33.3997 72.2017 33.5045 72.2133 33.607C72.2157 33.6327 72.2203 33.6583 72.225 33.6816L72.2273 33.6909V33.6933V33.6979L72.2296 33.7096L72.239 33.7562C72.2436 33.7865 72.2506 33.8167 72.2553 33.8494C72.2576 33.8797 72.2599 33.9123 72.2623 33.9426C72.2623 33.9729 72.2646 34.0055 72.2623 34.0358C72.2576 34.0963 72.2553 34.1593 72.2413 34.2175C72.197 34.4575 72.0898 34.6765 71.9314 34.8489C71.8918 34.8932 71.8475 34.9352 71.8009 34.9724L71.5562 36.2772C71.4747 36.7176 70.969 36.9343 70.5916 36.692L70.1558 36.4124C69.2634 35.8369 68.9162 34.7068 69.3286 33.7352Z" fill="#7F4E46"/>
<path d="M87.562 46.0029L90.1322 54.3234L98.1665 65.3957L96.6146 66.5211C94.5478 63.6738 92.0499 61.1691 89.2071 59.0977L89.1023 59.0208L88.1842 55.0457L83.6311 48.7733L87.562 46.0029Z" fill="#7F4E46"/>
<path d="M79.7502 42.5591C79.6839 42.6279 79.653 42.6587 79.7502 42.5591V42.5591Z" fill="#373C41"/>
<path d="M86.6835 25.2236L93.7648 27.6492L96.2837 29.0961L94.8926 31.6825L90.4769 31.2794L84.5188 28.7513L82.9669 28.5346L82.8085 25.9716L85.3949 24.8741L86.6835 25.2236Z" fill="#373C41"/>
<path d="M96.5773 63.2497L96.2814 66.3113L97.267 67.6697L102.866 63.6062C103.374 63.238 103.488 62.525 103.12 62.0171L96.5773 63.2497Z" fill="#373C41"/>
<path d="M102.585 62.5971L97.9957 63.6117L98.1034 64.0985L102.692 63.0839L102.585 62.5971Z" fill="white"/>
<path d="M89.2957 28.0617C89.8945 28.3622 90.6308 28.1199 90.9314 27.5234L92.5625 24.2893C92.8631 23.6905 92.3412 23.5134 91.7423 23.2105L92.0243 22.6537C91.4254 22.3531 90.6891 22.5954 90.3885 23.1919L88.7574 26.426C88.4545 27.0248 88.6968 27.7611 89.2957 28.0617Z" fill="#623C34"/>
<path d="M94.8251 19.2449C94.8694 19.2682 94.916 19.2938 94.9579 19.3195C94.9836 19.3335 95.0069 19.3498 95.0325 19.3661C95.0511 19.3777 95.0698 19.3894 95.0861 19.401C95.1187 19.422 95.1513 19.4453 95.1839 19.4686C95.1933 19.4756 95.2003 19.4802 95.2096 19.4872C95.2469 19.5152 95.2841 19.5432 95.3191 19.5734C95.3214 19.5758 95.3238 19.5781 95.3261 19.5804C95.4799 19.7063 95.6174 19.8437 95.7385 19.9905C96.1579 20.4985 96.3956 21.1252 96.4212 21.766C96.4212 21.766 94.9276 24.7135 94.1657 26.2187C93.8907 26.7616 93.2196 26.9853 92.6814 26.6987C92.6791 26.6963 92.6744 26.694 92.6721 26.694C91.1505 25.8808 90.3792 24.2312 90.6588 22.677C90.6425 22.6304 90.6285 22.5862 90.6146 22.5396C90.6006 22.493 90.5889 22.4464 90.5773 22.3998V22.3974C90.5656 22.3508 90.5563 22.3066 90.547 22.26C90.547 22.2576 90.547 22.2553 90.547 22.2553C90.5377 22.211 90.5307 22.1644 90.526 22.1202C90.526 22.1178 90.526 22.1132 90.5237 22.1108C90.5167 22.0666 90.512 22.0223 90.5097 21.978C90.5097 21.9734 90.5097 21.9687 90.5074 21.9641C90.5027 21.9221 90.5004 21.8778 90.5004 21.8359C90.5004 21.8312 90.5004 21.8243 90.5004 21.8196C90.498 21.773 90.498 21.731 90.498 21.6891C90.498 21.6821 90.498 21.6751 90.498 21.6658C90.498 21.6262 90.5004 21.5866 90.5027 21.547C90.5027 21.5377 90.5027 21.5283 90.505 21.519C90.5074 21.4817 90.512 21.4421 90.5167 21.4048C90.519 21.3932 90.519 21.3839 90.519 21.3722C90.5237 21.3349 90.5283 21.3 90.5353 21.2627C90.5377 21.2511 90.54 21.2371 90.54 21.2254C90.547 21.1905 90.554 21.1555 90.561 21.1229C90.5633 21.1089 90.5656 21.095 90.5703 21.0833C90.5773 21.0507 90.5866 21.0181 90.5959 20.9854C90.6006 20.9715 90.6029 20.9552 90.6076 20.9412C90.6169 20.9086 90.6262 20.8783 90.6378 20.8456C90.6425 20.8293 90.6472 20.8154 90.6518 20.799C90.6635 20.7688 90.6751 20.7361 90.6868 20.7058C90.6938 20.6895 90.6984 20.6756 90.7054 20.6592C90.7194 20.6266 90.7334 20.594 90.7474 20.5637C90.7544 20.5497 90.759 20.5357 90.766 20.5218C90.787 20.4752 90.8103 20.4309 90.8336 20.3866C91.5839 18.9793 93.3734 18.4667 94.8251 19.2449Z" fill="#7F4E46"/>
<path d="M91.9427 18.1381C92.3504 17.968 92.7745 17.9028 93.1939 17.9214C94.5734 17.9843 95.9249 18.9583 96.6425 20.0907C97.6142 21.6238 97.5583 23.5391 97.5583 23.5391L95.2841 22.3927L93.5784 22.9543C93.7205 22.5465 93.5435 22.0875 93.1473 21.8871C92.7163 21.6704 92.1897 21.8428 91.9729 22.2739C91.7726 22.67 91.903 23.1453 92.2596 23.3876L90.5912 23.9375C90.5912 23.9375 90.0413 21.1951 90.0436 21.1695C90.0739 19.8973 90.7263 18.6461 91.9427 18.1381Z" fill="#373C41"/>
<path d="M107.41 27.7749L107.711 27.479L107.781 27.4115C107.801 27.3905 107.822 27.3695 107.841 27.3486C107.881 27.3066 107.92 27.2647 107.958 27.2227C108.03 27.1388 108.097 27.0503 108.153 26.9618C108.167 26.9385 108.181 26.9175 108.195 26.8942L108.2 26.8849L108.202 26.8825L108.205 26.8779L108.209 26.8662L108.233 26.8243C108.249 26.7963 108.265 26.7684 108.282 26.7404C108.3 26.7148 108.319 26.6868 108.337 26.6612C108.356 26.6356 108.375 26.6099 108.398 26.5866C108.442 26.54 108.484 26.4934 108.535 26.4538C108.729 26.2907 108.96 26.1859 109.202 26.1532C109.442 26.1183 109.696 26.1509 109.915 26.2558C109.943 26.2697 109.969 26.2837 109.994 26.2977L110.034 26.3187C110.048 26.3257 110.059 26.335 110.071 26.3443C110.12 26.3793 110.169 26.4096 110.213 26.4538C110.236 26.4748 110.257 26.4958 110.281 26.5167C110.285 26.5214 110.292 26.5284 110.297 26.533L110.306 26.5424L110.323 26.5633L110.393 26.6472L110.668 26.9781L110.027 27.6025L109.712 27.3299L109.633 27.2623L109.614 27.246L109.605 27.2367C109.603 27.2344 109.603 27.2344 109.6 27.2344C109.596 27.2321 109.591 27.2321 109.586 27.2297C109.579 27.2251 109.565 27.2227 109.556 27.2181C109.554 27.2181 109.551 27.2157 109.549 27.2157H109.54C109.535 27.2157 109.53 27.2134 109.523 27.2134C109.484 27.2088 109.444 27.2204 109.409 27.2367C109.374 27.253 109.346 27.2856 109.332 27.3136C109.328 27.3183 109.328 27.3276 109.325 27.3346C109.323 27.3369 109.325 27.3416 109.323 27.3439C109.323 27.3462 109.323 27.3509 109.321 27.3532C109.321 27.3579 109.323 27.3602 109.321 27.3625C109.321 27.3649 109.321 27.3649 109.321 27.3672L109.318 27.3719L109.314 27.3882C109.3 27.4301 109.283 27.472 109.265 27.5117C109.197 27.6748 109.118 27.8285 109.029 27.9753C108.985 28.0476 108.941 28.1198 108.892 28.1874C108.869 28.2223 108.845 28.2549 108.82 28.2899L108.752 28.3831L108.503 28.7256L107.41 27.7749Z" fill="#623C34"/>
<path d="M58.5962 41.3264L58.7943 40.5435L59.6075 39.6534C62.2032 42.0277 65.1555 43.9803 68.3548 45.4366L68.4736 45.4902L69.655 48.0718L74.2081 44.0735L76.1304 47.9879C75.704 48.165 75.2776 48.3421 74.8512 48.5169C73.8049 48.9502 72.7611 49.3813 71.7148 49.8147C71.1113 50.064 70.4659 50.2434 69.916 50.6069C69.6014 50.8143 69.0771 50.8306 68.7486 50.6465C67.968 50.2108 67.9563 49.8869 67.3715 49.351C66.9707 48.9829 66.5676 48.6171 66.1668 48.2489C65.1252 47.2959 64.0813 46.3429 63.0398 45.39C62.0331 44.4673 61.0242 43.5469 60.0176 42.6242C59.5446 42.1932 59.0692 41.7598 58.5962 41.3264Z" fill="#623C34"/>
<path d="M60.3018 42.8526L59.9779 39.7933L58.7406 38.6609L54.071 43.766C53.6469 44.2297 53.6796 44.9496 54.1433 45.3737L60.3018 42.8526Z" fill="#373C41"/>
<path d="M58.6385 42.3188L54.3466 44.2344L54.5498 44.6897L58.8417 42.7741L58.6385 42.3188Z" fill="white"/>
</g>
<defs>
<linearGradient id="paint0_linear" x1="187.5" y1="160" x2="187.5" y2="0" gradientUnits="userSpaceOnUse">
<stop offset="0.0802085" stop-color="white"/>
<stop offset="0.757292" stop-color="#E797A5"/>
<stop offset="0.9963" stop-color="#DB4F69"/>
</linearGradient>
<linearGradient id="paint1_linear" x1="231.406" y1="271.062" x2="193.871" y2="53.8419" gradientUnits="userSpaceOnUse">
<stop offset="0.411" stop-color="#F7F7F7"/>
<stop offset="0.4849" stop-color="#F5EAEC"/>
<stop offset="0.6221" stop-color="#EFC7CF"/>
<stop offset="0.8076" stop-color="#E68F9F"/>
<stop offset="0.9963" stop-color="#DB4F69"/>
</linearGradient>
<linearGradient id="paint2_linear" x1="174.55" y1="55.9913" x2="186.647" y2="45.5016" gradientUnits="userSpaceOnUse">
<stop stop-color="#373C41"/>
<stop offset="1"/>
</linearGradient>
<linearGradient id="paint3_linear" x1="180.488" y1="37.7647" x2="177.675" y2="37.8511" gradientUnits="userSpaceOnUse">
<stop stop-color="#EEB5AC"/>
<stop offset="1" stop-color="#DEA095"/>
</linearGradient>
<linearGradient id="paint4_linear" x1="264.216" y1="52.2274" x2="288.079" y2="40.5282" gradientUnits="userSpaceOnUse">
<stop stop-color="#373C41"/>
<stop offset="1"/>
</linearGradient>
<linearGradient id="paint5_linear" x1="320.792" y1="35.1079" x2="297.102" y2="32.1451" gradientUnits="userSpaceOnUse">
<stop stop-color="#EEB5AC"/>
<stop offset="1" stop-color="#DEA095"/>
</linearGradient>
<linearGradient id="paint6_linear" x1="315.789" y1="32.7299" x2="319.333" y2="32.3588" gradientUnits="userSpaceOnUse">
<stop stop-color="#EEB5AC"/>
<stop offset="1" stop-color="#DEA095"/>
</linearGradient>
<linearGradient id="paint7_linear" x1="61.7257" y1="47.2725" x2="82.5377" y2="35.8144" gradientUnits="userSpaceOnUse">
<stop stop-color="#373C41"/>
<stop offset="1"/>
</linearGradient>
<clipPath id="clip0">
<rect width="375" height="179" fill="white"/>
</clipPath>
</defs>
</svg>
