<?xml version="1.0" encoding="utf-8"?><svg viewBox="0 0 1440 598" xmlns="http://www.w3.org/2000/svg" xmlns:xlink="http://www.w3.org/1999/xlink"><style>:root>svg{display:none}:root>svg:target{display:block}</style><svg fill="none" viewBox="0 0 1440 598" id="about-bg" xmlns="http://www.w3.org/2000/svg"><path d="M488.255 514.057l4.564 7.737-2.809 4.974-3.04-5.182-47.87 85.024-4.386-2.749 47.769-84.838-5.926.031 2.786-4.943 8.912-.054zM544.583 413.96l4.748 7.414-2.809 4.973-3.163-4.958-47.862 85.008-4.502-2.533 47.762-84.823-6.049.239 2.786-4.943 9.089-.377zM600.911 313.878l4.925 7.09-2.801 4.974-3.286-4.743-47.862 85.001-4.626-2.318 47.762-84.815-6.172.454 2.794-4.942 9.266-.701zM657.231 213.812l5.11 6.759-2.809 4.973-3.402-4.527-47.854 85.001-4.749-2.102 47.755-84.816-6.288.67 2.786-4.942 9.451-1.016zM512.283 527.661l4.694 7.868-2.84 5.034-3.124-5.265-48.417 85.993-4.486-2.81 48.308-85.809h-6.041l2.816-4.996 9.09-.015zM569.257 426.416l4.879 7.537-2.832 5.035-3.255-5.043-48.409 85.986-4.61-2.595 48.308-85.8-6.172.223 2.817-4.997 9.274-.346zM626.231 325.188l5.064 7.205-2.84 5.035-3.371-4.827-48.408 85.978-4.733-2.371 48.3-85.793-6.287.439 2.816-4.997 9.459-.669zM683.197 223.966l5.249 6.875-2.84 5.035-3.494-4.604-48.408 85.97-4.856-2.148 48.3-85.785-6.41.654 2.816-4.996 9.643-1.001zM536.872 541.58l4.825 8.006-2.871 5.089-3.217-5.358-48.978 87.002-4.594-2.88 48.878-86.801-6.172-.031 2.855-5.058 9.274.031zM594.508 439.165l5.018 7.668-2.871 5.089-3.34-5.135-48.978 86.986-4.718-2.648 48.87-86.794-6.295.192 2.847-5.058 9.467-.3zM652.136 336.758l5.21 7.329-2.87 5.089-3.471-4.904-48.971 86.979-4.84-2.425 48.862-86.794-6.426.423 2.855-5.058 9.651-.639zM709.764 234.359l5.403 6.99-2.878 5.089-3.594-4.673-48.963 86.963-4.972-2.194 48.855-86.778-6.541.639 2.847-5.058 9.843-.978zM562.03 555.83l4.98 8.145-2.91 5.15-3.309-5.45-49.555 88.018-4.702-2.941 49.447-87.826-6.295-.061 2.886-5.12 9.458.085zM620.343 452.207l5.172 7.798-2.909 5.151-3.44-5.22-49.548 88.01-4.833-2.71 49.44-87.818-6.426.17 2.886-5.12 9.658-.261zM678.649 348.599l5.364 7.452-2.901 5.15-3.571-4.988-49.548 88.002-4.956-2.486 49.432-87.803-6.557.393 2.886-5.112 9.851-.608zM736.955 244.999l5.557 7.105-2.91 5.151-3.701-4.758-49.54 87.995-5.088-2.256 49.433-87.795-6.681.624 2.879-5.112 10.051-.954zM587.797 570.411l5.118 8.299-2.94 5.212-3.41-5.551-50.14 89.066-4.818-3.01 50.033-88.873-6.426-.093 2.916-5.181 9.667.131zM646.803 465.556l5.318 7.945-2.94 5.212-3.548-5.312-50.133 89.057-4.948-2.779 50.025-88.857-6.558.138 2.917-5.173 9.867-.231zM705.801 360.716l5.518 7.591-2.94 5.204-3.679-5.073-50.132 89.05-5.079-2.541 50.024-88.849-6.695.369 2.924-5.173 10.059-.578zM764.792 255.892l5.718 7.229-2.94 5.204-3.81-4.834-50.132 89.042-5.21-2.31 50.017-88.842-6.827.608 2.925-5.173 10.259-.924zM614.179 585.346l5.272 8.453-2.979 5.274-3.509-5.651-50.748 90.135-4.926-3.087 50.633-89.935-6.565-.131 2.955-5.235 9.867.177zM673.893 479.236l5.472 8.084-2.971 5.273-3.648-5.412-50.74 90.135-5.064-2.848 50.625-89.927-6.704.107 2.956-5.235 10.074-.177zM733.599 373.134l5.68 7.722-2.978 5.266-3.787-5.166-50.733 90.128-5.194-2.603 50.617-89.919-6.834.346 2.955-5.235 10.274-.539zM793.298 267.04l5.88 7.359-2.971 5.274-3.925-4.927-50.725 90.112-5.341-2.363 50.617-89.905-6.972.593 2.955-5.243 10.482-.9zM701.052 492.947l5.642 8.23-3.017 5.335-3.748-5.504-51.349 91.205-5.187-2.91 51.233-90.998-6.842.077 2.986-5.296 10.282-.139zM761.475 385.583l5.841 7.852-3.009 5.335-3.895-5.258-51.34 91.198-5.326-2.664 51.225-90.99-6.98.324 2.986-5.297 10.498-.5zM821.881 278.226l6.049 7.483-3.009 5.335-4.033-5.012-51.333 91.19-5.464-2.417 51.218-90.975-7.119.57 2.994-5.304 10.697-.87zM729.474 507.29l5.803 8.384-3.048 5.404-3.863-5.612-51.98 92.337-5.31-2.987 51.856-92.114-6.995.039 3.032-5.359 10.505-.092zM790.635 398.601l6.018 7.999-3.047 5.404-4.01-5.35-51.972 92.322-5.456-2.734 51.848-92.106-7.134.293 3.025-5.358 10.728-.47zM851.788 289.92l6.226 7.622-3.047 5.396-4.148-5.096-51.965 92.314-5.602-2.479 51.848-92.099-7.28.555 3.032-5.366 10.936-.847zM758.604 521.994l5.98 8.538-3.086 5.474-3.987-5.713-52.618 93.484-5.449-3.056 52.503-93.269-7.15.008 3.063-5.427 10.744-.039zM820.527 411.95l6.195 8.145-3.086 5.466-4.133-5.45-52.618 93.476-5.587-2.794 52.495-93.261-7.296.269 3.063-5.427 10.967-.424zM882.434 301.914l6.419 7.753-3.086 5.473-4.272-5.189-52.618 93.461-5.741-2.54 52.495-93.246-7.442.532 3.063-5.428 11.182-.816zM788.465 537.076l6.164 8.699-3.124 5.536-4.102-5.821-53.288 94.67-5.587-3.141 53.157-94.439-7.304-.023 3.101-5.504 10.983.023zM851.165 425.631l6.395 8.299-3.124 5.543-4.264-5.551-53.28 94.655-5.734-2.872 53.157-94.431-7.457.239 3.101-5.497 11.206-.385zM913.857 314.209l6.619 7.899-3.125 5.535-4.41-5.281-53.28 94.646-5.879-2.602 53.149-94.423-7.604.5 3.102-5.496 11.428-.778zM819.095 552.534l6.357 8.869-3.163 5.613-4.233-5.936-53.972 95.878-5.734-3.218 53.842-95.647-7.473-.062 3.14-5.573 11.236.076zM882.596 439.665l6.588 8.461-3.163 5.612-4.395-5.658-53.965 95.87-5.88-2.948 53.834-95.64-7.626.208 3.14-5.566 11.467-.339zM946.089 326.819l6.818 8.045-3.17 5.605-4.541-5.381-53.957 95.863-6.034-2.672 53.826-95.632-7.78.485 3.14-5.574 11.698-.739zM850.518 568.394l6.558 9.045-3.21 5.682-4.363-6.051-54.674 97.125-5.879-3.302 54.534-96.887-7.642-.1 3.178-5.643 11.498.131zM914.842 454.069l6.788 8.615-3.209 5.689-4.525-5.774-54.658 97.118-6.041-3.025 54.534-96.872-7.804.177 3.179-5.643 11.736-.285zM979.151 339.753l7.027 8.199-3.202 5.682-4.687-5.49-54.658 97.111-6.195-2.749 54.527-96.864-7.966.455 3.187-5.636 11.967-.708zM882.088 584.33l6.757 9.215-3.255 5.758-4.495-6.166-55.373 98.373-6.034-3.388 55.235-98.134-7.819-.138 3.217-5.713 11.767.193zM947.228 468.535l7.003 8.784-3.248 5.751-4.664-5.874-55.365 98.365-6.196-3.102 55.228-98.119-7.981.139 3.224-5.713 11.999-.231zM1012.37 352.748l7.24 8.353-3.25 5.751-4.82-5.589-55.362 98.357-6.357-2.81 55.219-98.111-8.142.431 3.222-5.712 12.25-.67zM981.183 483.693l7.219 8.962-3.294 5.827-4.81-5.997-56.097 99.682-6.357-3.187 55.958-99.42-8.181.1 3.271-5.782 12.291-.185zM1047.18 366.367l7.47 8.514-3.29 5.836-4.98-5.697-56.093 99.658-6.518-2.887 55.951-99.412-8.34.401 3.27-5.79 12.53-.623zM1016.05 499.26l7.45 9.146-3.34 5.913-4.96-6.121-56.859 101.021-6.534-3.271 56.713-100.76-8.37.069 3.31-5.866 12.59-.131zM1082.93 380.355l7.71 8.684-3.33 5.913-5.14-5.812-56.85 101.013-6.7-2.972 56.7-100.751-8.53.369 3.31-5.866 12.83-.578zM1051.86 515.258l7.7 9.331-3.38 5.989-5.13-6.243-57.63 102.406-6.711-3.364 57.481-102.137-8.58.03 3.36-5.951 12.89-.061zM1119.67 394.729l7.95 8.853-3.38 5.997-5.3-5.928-57.63 102.392-6.88-3.049 57.47-102.13-8.75.339 3.36-5.943 13.16-.531zM1088.67 531.694l7.95 9.524-3.43 6.074-5.29-6.375-58.43 103.831-6.9-3.456 58.28-103.554-8.79-.016 3.4-6.028h13.21zM1157.41 409.495l8.22 9.038-3.43 6.074-5.48-6.051-58.42 103.816-7.08-3.134L1149.5 415.7l-8.98.3 3.4-6.028 13.49-.477zM1126.52 548.593l8.21 9.731-3.47 6.159-5.48-6.513-59.25 105.286-7.09-3.549 59.1-105.001-9.02-.062 3.44-6.113 13.56.062zM1196.22 424.676l8.49 9.23-3.48 6.159-5.66-6.174-59.24 105.271-7.27-3.218 59.08-104.994-9.2.262 3.45-6.105 13.83-.431zM1164.62 565.607l8.48 9.932-3.52 6.251-5.65-6.652-60.08 106.764-7.29-3.656 59.91-106.464-9.24-.108 3.5-6.197 13.89.13zM1235.28 439.966l8.78 9.415-3.53 6.251-5.85-6.305-60.06 106.742-7.48-3.311 59.9-106.456-9.43.231 3.5-6.198 14.17-.369zM1204.65 583.483l8.76 10.147-3.58 6.336-5.84-6.79-60.94 108.304-7.51-3.757 60.78-108.004-9.48-.162 3.55-6.282 14.26.208zM1276.33 456.018l9.06 9.623-3.57 6.336-6.05-6.436-60.93 108.288-7.7-3.41 60.77-107.996-9.68.192 3.55-6.282 14.55-.315zM1318.57 472.546l9.38 9.832-3.63 6.436-6.25-6.583-61.83 109.875-7.93-3.503 61.67-109.582-9.94.154 3.59-6.382 14.94-.247zM1362.08 489.568l9.7 10.047-3.69 6.528-6.47-6.729-62.74 111.515-8.17-3.611 62.58-111.199-10.21.1 3.65-6.474 15.35-.177zM1406.89 507.098l10.04 10.277-3.74 6.629-6.69-6.883-63.69 113.208-8.41-3.726 63.5-112.877-10.48.046 3.7-6.567 15.77-.107zM1453.08 525.167l10.39 10.524-3.79 6.728-6.93-7.044-64.67 114.94-8.67-3.834 64.48-114.609h-10.78l3.77-6.675 16.2-.03z" fill="#fff"/><path d="M709.018 378.023l-7.435-15.828-39.558-15.828s-7.673 23.503 7.912 28.061 39.081 3.595 39.081 3.595zM952.168 196.305l-.585-.069a6.725 6.725 0 00-5.433 1.855l-45.13 43.651a8.204 8.204 0 00-2.855 1.178l-26.344 17.099c-5.372-1.032-16.216 4.388-20.856 7.437l-4.556 8.876c-7.458 4.904-11.868 9.677-7.112 16.922 3.294 5.012 10.267 6.097 15.193 2.363l52.741-40.04a8.308 8.308 0 001.254-1.186c.447-.1.893-.238 1.339-.423l23.181-14.227 23.642-33.104a6.777 6.777 0 001.255-3.719 6.483 6.483 0 00-5.734-6.613z" fill="#fff"/><path d="M803.195 304.64c-8.088-3.111-17.239 1.124-20.441 9.454l-1.146 2.987c-1.994 5.181-1.909 10.924.238 15.951l-14.823 38.563-58.79 3.125a6.74 6.74 0 00-5.064 2.718l-.354.477a6.454 6.454 0 00.947 8.692 6.722 6.722 0 003.578 1.617l40.343 5.227 26.198-7.298a7.81 7.81 0 003.763-3.572 8.097 8.097 0 003.171-3.542l27.914-60.057c2.609-5.597.061-12.187-5.534-14.342zM928.642 491.547l-.662-1.54a6.899 6.899 0 00.177-3.318l-12.114-62.99-25.066-43.967c-5.734-10.062-18.417-13.757-28.66-8.345-10.721 5.666-14.623 19.077-8.62 29.609l10.051 17.637 13.822 6.559 30.184 52.944-8.689-1.294-.431.493c-11.751 13.334-25.635 23.527-41.151 30.202l5.311 12.348 58.044-24.982a6.87 6.87 0 005.88-2.533l1.924-.823z" fill="#fff"/><path d="M869.882 521.371l-10.028-19.1-10.998-4.18-17.224 45.352a7.995 7.995 0 004.626 10.301l33.624-32.373z" fill="#fff"/><path d="M857.661 522.295l-23.01 23.588 2.506 2.447 23.01-23.588-2.506-2.447zM688.269 378.069c13.449 0 24.351-10.905 24.351-24.358 0-13.453-10.902-24.358-24.351-24.358-13.448 0-24.35 10.905-24.35 24.358 0 13.453 10.902 24.358 24.35 24.358zM863.771 366.729c-11.883-2.394-23.388 5.528-25.397 17.483l-3.363 20.025 6.557 13.826-11.952 71.205-28.322 6.998-.523.746a235.821 235.821 0 01-51.248 52.736l8.057 10.755 79.047-59.226a6.91 6.91 0 005.249-3.587l30.438-56.454 8.381-49.918c1.916-11.417-5.572-22.303-16.924-24.589z" fill="#fff"/><path d="M767.601 552.858l-18.594-10.932-11.544 2.256 9.297 47.616c.846 4.326 5.041 7.152 9.366 6.305l11.475-45.245z" fill="#fff"/><path d="M757.66 560.024l-7.104 32.184 3.42.755 7.103-32.184-3.419-.755zM879.91 400.803c.029-.008.022-.008 0 0zM879.279 400.912c-.015 0-.023.007-.038.007.015-.007.023-.007.038-.007zM879.788 400.819c-.1.015-.27.046-.508.085.161-.024.369-.062.508-.085zM879.808 400.818c-.007 0-.014 0-.021.007.007-.007.014-.007.021-.007zM879.911 400.803c-.016 0-.055.008-.101.016.046-.008.085-.016.101-.016zM879.093 400.942c-.015 0-.03.008-.045.008.008-.008.023-.008.045-.008zM879.241 400.912l-.139.023c.039-.008.085-.016.139-.023zM820.765 295.248c4.41-1.609 6.711-6.536 5.103-10.948l-8.689-23.873c-1.608-4.411-5.033-2.594-9.443-.985l-1.501-4.119c-4.41 1.609-6.711 6.536-5.102 10.947l8.688 23.874c1.609 4.411 6.534 6.713 10.944 5.104z" fill="#fff"/><path d="M795.23 225.013c.323-.162.646-.323.969-.47.185-.084.377-.161.562-.238.139-.062.277-.123.416-.177.261-.1.523-.193.785-.285.069-.023.138-.054.207-.077.308-.108.616-.2.932-.293l.069-.023a20.974 20.974 0 014.017-.747c4.603-.4 9.166.724 12.953 3.134 0 0 12.275 19.092 17.901 29.485 2.032 3.757-6.188 9.5-9.982 11.471-.023.016-2.486 2.017-2.509 2.025-10.751 5.535-15.284 1.701-23.134-6.113-.331-.092-.654-.192-.978-.292h-.007a23.882 23.882 0 01-.947-.339c-.008 0-.015-.008-.015-.008-.308-.115-.608-.246-.916-.377-.008-.008-.023-.008-.031-.015a18.73 18.73 0 01-.87-.416c-.015-.008-.038-.015-.054-.031a16.221 16.221 0 01-.823-.439c-.023-.015-.054-.03-.077-.046a16.177 16.177 0 01-.877-.531c-.247-.154-.485-.323-.724-.485-.046-.031-.084-.062-.131-.092a36.364 36.364 0 01-.669-.501c-.054-.038-.1-.077-.154-.115-.208-.17-.416-.339-.616-.516l-.169-.146c-.192-.17-.377-.347-.562-.524-.061-.061-.131-.115-.192-.177-.177-.169-.347-.354-.516-.531a5.5 5.5 0 01-.2-.208 14.134 14.134 0 01-.469-.539c-.07-.085-.139-.162-.208-.239-.146-.177-.285-.361-.431-.546-.07-.093-.139-.177-.208-.27-.139-.184-.269-.377-.4-.569-.069-.1-.139-.193-.2-.293l-.393-.623c-.054-.093-.115-.178-.161-.27a21.554 21.554 0 01-.508-.931c-5.126-9.97-.955-22.334 9.32-27.623z" fill="#fff"/><path d="M779.037 243.713c2.147-12.472 11.744-25.659 28.314-25.798 12.729-.108 23.542 8.469 23.542 8.469l-25.843 9.923-3.556 12.087a6.13 6.13 0 00-7.873-1.763 6.135 6.135 0 00-2.447 8.322c1.485 2.733 4.748 3.872 7.573 2.787l3.317 11.71s-12.96-2.556-13.099-2.656c-7.227-5.282-11.498-13.981-9.928-23.081z" fill="#fff"/><path d="M802.187 267.055l11.783-5.25a98.209 98.209 0 0118.363-6.097l1.693-.385c2.416 4.211-1.586 7.121-1.586 7.121l-11.205 9.146-10.321 2.656-8.727-7.191zM889.284 359.877l-9.497 69.18 27.99 48.979 20.141 11.994-1.331-47.4-37.303-82.753z" fill="#fff"/><path d="M885.297 375.629c-3.24-5.189-6.742-10.671-10.282-16.306l11.359-5.89-35.486-85.985c-1.401.546-64.424 40.071-64.424 40.071s-2.694 3.98-3.687 6.551l22.966 11.364.738-1.594c.231.801.447 1.571.631 2.271l.093.331 6.349 47.516h27.329l.008-.008c4.44 7.314 8.812 14.412 12.937 20.717 6.672 10.201 17.093 11.225 25.181 6.298 8.097-4.935 12.537-15.328 6.288-25.336z" fill="#fff"/><path d="M886.09 352.795l-45.192 21.148-6.003 29.986 6.25 16.66-11.529 68.718 10.313 11.27 68.318-98.627-22.157-49.155zM948.274 210.971l-1.354-13.611 4.271-2.287c.154-.415.3-.831.47-1.239.184-.454.369-.916.577-1.363l.3-.67.323-.662a36.89 36.89 0 012.971-5.034 38.778 38.778 0 013.671-4.466c.331-.346.677-.677 1.016-1.016l.523-.493c.169-.161.354-.331.516-.469l1.962-1.74 4.164 3.949-1.632 2.048c-.146.177-.254.323-.377.485l-.362.47c-.23.323-.461.646-.684.97a31.07 31.07 0 00-2.317 4.088 30.664 30.664 0 00-1.116 2.717l4.017-.97-.03-.077 1.316-.585a54.63 54.63 0 0119.617-4.619h.077l.269 5.736h-.077a48.638 48.638 0 00-14.114 2.771l-.062 1.286a55.113 55.113 0 0117.509-1.147l1.139.107-.547 5.713-1.139-.108a49.488 49.488 0 00-17.239 1.409l-.008.185a54.83 54.83 0 0113.576 1.416l3.248.755-1.301 5.589-3.247-.755a49.058 49.058 0 00-12.399-1.262 55.025 55.025 0 017.027 2.633l3.355 1.524-2.378 5.227-3.355-1.524a49.552 49.552 0 00-8.874-3.056l-6.919-1.671.031-.146-12.414-.108zM694.634 372.988l-12.706 1.201-.039-.038.031.053a34.326 34.326 0 01-3.325-.408 35.044 35.044 0 01-5.187-1.324c-.423-.146-.847-.308-1.27-.462l-.631-.254a12.249 12.249 0 01-.646-.269l-2.748-1.186-3.101 5.774 2.501 1.632c.2.131.446.277.669.424l.693.431c.47.269.939.546 1.424.808a43.452 43.452 0 006.011 2.702 42.082 42.082 0 006.433 1.763l.824.154.831.131c.554.093 1.108.162 1.67.224.5.069 1.001.1 1.509.146l18.324 3.356.039-4.919-1.571-6.02-9.735-3.919z" fill="#fff"/><path d="M720.562 387.261l-7.434-15.828-39.558-15.829s-7.673 23.504 7.911 28.062c15.585 4.558 39.081 3.595 39.081 3.595z" fill="#DEA095"/><path d="M963.713 205.544l-.585-.07a6.723 6.723 0 00-5.434 1.856l-45.13 43.651a8.185 8.185 0 00-2.855 1.178l-26.344 17.098c-5.371-1.031-16.215 4.388-20.856 7.437l-4.556 8.877c-7.458 4.904-11.868 9.677-7.111 16.921 3.294 5.012 10.266 6.097 15.192 2.364l52.741-40.041a8.357 8.357 0 001.255-1.185 8.256 8.256 0 001.339-.424l23.18-14.227 23.643-33.104a6.775 6.775 0 001.254-3.718 6.482 6.482 0 00-5.733-6.613zM814.739 313.878c-8.088-3.11-17.239 1.124-20.441 9.454l-1.146 2.987c-1.994 5.181-1.909 10.924.238 15.951l-14.822 38.563-58.791 3.125a6.74 6.74 0 00-5.064 2.718l-.354.477a6.454 6.454 0 00.947 8.692 6.722 6.722 0 003.578 1.617l40.343 5.227 26.198-7.298a7.81 7.81 0 003.763-3.572 8.097 8.097 0 003.171-3.542l27.914-60.056c2.609-5.597.061-12.187-5.534-14.343z" fill="#EEB5AC"/><path d="M940.186 500.785l-.662-1.54a6.899 6.899 0 00.177-3.318l-12.114-62.99-25.066-43.967c-5.734-10.062-18.417-13.757-28.66-8.345-10.721 5.666-14.623 19.077-8.62 29.609l10.051 17.637 13.822 6.56 30.184 52.943-8.688-1.293-.431.492c-11.752 13.334-25.636 23.527-41.151 30.202l5.31 12.348 58.044-24.982a6.874 6.874 0 005.88-2.532l1.924-.824z" fill="#DEA095"/><path d="M881.426 530.61l-10.028-19.101-10.998-4.18-17.224 45.353a7.994 7.994 0 004.626 10.3l33.624-32.372z" fill="#373C41"/><path d="M869.205 531.535l-23.01 23.588 2.506 2.446 23.01-23.588-2.506-2.446z" fill="#fff"/><path d="M699.813 387.308c13.449 0 24.351-10.906 24.351-24.359 0-13.453-10.902-24.358-24.351-24.358-13.448 0-24.35 10.905-24.35 24.358 0 13.453 10.902 24.359 24.35 24.359z" fill="#DB4F69"/><path d="M875.315 375.967c-11.883-2.394-23.388 5.528-25.397 17.484l-3.363 20.024 6.557 13.826-11.952 71.205-28.322 6.998-.523.747a235.795 235.795 0 01-51.248 52.735l8.057 10.755 79.047-59.225a6.91 6.91 0 005.249-3.588l30.438-56.454 8.381-49.917c1.916-11.417-5.572-22.303-16.924-24.59z" fill="#EEB5AC"/><path d="M779.145 562.097l-18.594-10.932-11.544 2.255 9.297 47.616c.846 4.327 5.041 7.152 9.366 6.305l11.475-45.244z" fill="#373C41"/><path d="M769.204 569.262l-7.103 32.183 3.419.756 7.104-32.184-3.42-.755z" fill="#fff"/><path d="M891.454 410.041c.029-.007.022-.007 0 0zM890.823 410.149c-.015 0-.023.008-.038.008.015-.008.023-.008.038-.008zM891.332 410.057l-.508.085c.162-.023.369-.062.508-.085zM891.352 410.057c-.007 0-.014 0-.021.007.007-.007.014-.007.021-.007zM891.455 410.042c-.016 0-.055.007-.101.015.046-.008.085-.015.101-.015zM890.638 410.181c-.016 0-.031.007-.046.007.008-.007.023-.007.046-.007zM890.785 410.149c-.046.008-.085.016-.139.024.039-.008.085-.016.139-.024z" fill="#A4E603"/><path d="M832.309 304.486c4.41-1.609 6.711-6.536 5.103-10.947l-8.689-23.874c-1.608-4.411-5.033-2.594-9.443-.985l-1.501-4.119c-4.41 1.609-6.711 6.536-5.102 10.947l8.689 23.874c1.608 4.411 6.534 6.713 10.943 5.104z" fill="#DEA095"/><path d="M806.774 234.251c.323-.161.646-.323.97-.469.184-.085.377-.162.561-.239.139-.062.277-.123.416-.177.262-.1.523-.193.785-.285.069-.023.138-.054.208-.077.308-.108.615-.2.931-.292l.069-.024a20.982 20.982 0 014.018-.746c4.602-.401 9.166.723 12.952 3.133 0 0 12.275 19.093 17.901 29.486 2.032 3.757-6.187 9.5-9.982 11.471-.023.015-2.485 2.017-2.509 2.024-10.751 5.536-15.284 1.702-23.134-6.112-.331-.093-.654-.193-.977-.293h-.008c-.316-.108-.631-.215-.947-.339-.007 0-.015-.007-.015-.007-.308-.116-.608-.247-.916-.378-.008-.007-.023-.007-.031-.015a17.302 17.302 0 01-.869-.416c-.016-.007-.039-.015-.054-.03a17.581 17.581 0 01-.824-.439c-.023-.016-.054-.031-.077-.046a16.705 16.705 0 01-.877-.532c-.246-.154-.485-.323-.724-.485-.046-.03-.084-.061-.13-.092a37.527 37.527 0 01-.67-.5c-.054-.039-.1-.077-.154-.116a19.063 19.063 0 01-.615-.516l-.17-.146a17.332 17.332 0 01-.562-.524c-.061-.061-.131-.115-.192-.177-.177-.169-.346-.354-.516-.531-.069-.069-.138-.138-.2-.208a16.158 16.158 0 01-.469-.539c-.069-.084-.139-.161-.208-.238-.146-.177-.285-.362-.431-.547-.069-.092-.139-.177-.208-.269-.138-.185-.269-.378-.4-.57-.069-.1-.139-.192-.2-.293l-.393-.623c-.053-.093-.115-.177-.161-.27a20.977 20.977 0 01-.508-.931c-5.126-9.97-.954-22.334 9.32-27.623z" fill="#EEB5AC"/><path d="M790.581 252.951c2.147-12.471 11.745-25.659 28.314-25.798 12.73-.107 23.543 8.469 23.543 8.469l-25.844 9.923-3.555 12.087a6.132 6.132 0 00-7.874-1.763 6.135 6.135 0 00-2.447 8.322c1.485 2.733 4.748 3.873 7.573 2.787l3.317 11.71s-12.96-2.556-13.099-2.656c-7.226-5.281-11.498-13.981-9.928-23.081z" fill="#373C41"/><path d="M813.731 276.294l11.783-5.251a98.209 98.209 0 0118.363-6.097l1.693-.385c2.416 4.211-1.586 7.121-1.586 7.121l-11.205 9.146-10.321 2.656-8.727-7.19z" fill="#DEA095"/><path d="M900.828 369.116l-9.497 69.179 27.991 48.979 20.14 11.994-1.331-47.4-37.303-82.752z" fill="url(#apaint0_linear)"/><path d="M896.841 384.867c-3.24-5.189-6.742-10.67-10.282-16.306l11.36-5.889-35.487-85.986c-1.401.547-64.424 40.071-64.424 40.071s-2.694 3.98-3.687 6.552l22.966 11.363.738-1.594c.231.801.447 1.571.631 2.271l.093.331 6.349 47.516h27.329l.008-.007c4.44 7.313 8.812 14.411 12.937 20.716 6.672 10.201 17.093 11.225 25.182 6.298 8.096-4.935 12.537-15.328 6.287-25.336z" fill="#373C41"/><path d="M897.634 362.033l-45.192 21.148-6.003 29.986 6.25 16.66-11.529 68.718 10.313 11.271 68.318-98.627-22.157-49.156z" fill="#DB4F69"/><path d="M959.818 220.209l-1.354-13.611 4.271-2.286c.154-.416.3-.832.47-1.24.184-.454.369-.916.577-1.362l.3-.67.323-.662a36.962 36.962 0 012.971-5.035 38.683 38.683 0 013.671-4.465c.331-.347.677-.678 1.016-1.017l.523-.492c.17-.162.354-.331.516-.47l1.962-1.74 4.164 3.95-1.632 2.047c-.146.177-.254.324-.377.485l-.361.47a71.93 71.93 0 00-.685.97 31.07 31.07 0 00-2.317 4.088 30.559 30.559 0 00-1.116 2.718l4.018-.97-.031-.077 1.316-.585a54.615 54.615 0 0119.617-4.62h.077l.27 5.736h-.077a48.678 48.678 0 00-14.115 2.771l-.062 1.286a55.105 55.105 0 0117.507-1.147l1.14.108-.55 5.712-1.13-.108a49.53 49.53 0 00-17.244 1.409l-.007.185a54.84 54.84 0 0113.576 1.416l3.245.755-1.298 5.589-3.248-.754a49.054 49.054 0 00-12.399-1.263 54.912 54.912 0 017.027 2.633l3.355 1.524-2.378 5.228-3.355-1.525a49.552 49.552 0 00-8.874-3.056l-6.919-1.671.031-.146-12.414-.108zM706.178 382.226l-12.706 1.201-.039-.038.031.054a34.962 34.962 0 01-3.325-.408 35.168 35.168 0 01-5.187-1.324c-.423-.147-.846-.308-1.27-.462l-.631-.254a13.218 13.218 0 01-.646-.27l-2.748-1.185-3.101 5.774 2.501 1.632c.2.13.446.277.67.423l.692.431c.47.27.939.547 1.424.808a43.457 43.457 0 006.011 2.703 42.325 42.325 0 006.434 1.763l.823.154.831.131c.554.092 1.109.161 1.67.223.501.069 1.001.1 1.509.146l18.324 3.357.039-4.92-1.57-6.02-9.736-3.919z" fill="#EEB5AC"/><path d="M1110.42 191.008c-42.97 0-76.63-15.851-76.63-36.091 0-20.239 33.66-36.091 76.63-36.091 42.96 0 76.62 15.852 76.62 36.091 0 20.24-33.66 36.091-76.62 36.091zm0-66.677c-38.55 0-71.12 14.011-71.12 30.586 0 16.583 32.57 30.587 71.12 30.587 38.55 0 71.12-14.012 71.12-30.587s-32.57-30.586-71.12-30.586z" fill="#fff"/><path d="M1313.88 267.517l-223.83-118.712V-45l223.83 118.713v193.804z" fill="#DB4F69"/><path d="M1258.96 146.326v4.573l-31.46 33.242 31.46 16.291L1578 163.163V78.409l-319.04 67.917z" fill="#DB4F69"/><path d="M1090.05 148.805V-45h-21.52l-.56 8.807v191.157l211.96 112.553h33.95l-223.83-118.712z" fill="#fff"/><path d="M1227.5 184.141v-54.106l319.04-67.917v84.754l-319.04 37.269zM1146.8 200.732l-10.83 4.442-6.77-16.506 5.49-2.255c-4.69.739-9.59 1.262-14.66 1.562l-12.72 5.22-2.06-5.027c-1.52-.046-3.04-.116-4.54-.208l2.79 6.798-16.5 6.775-6.64-16.16c-2.6-.523-5.12-1.108-7.54-1.763l-14.48 5.944-5.69-13.873c-2.59-1.471-4.92-3.033-6.94-4.689l-5.96 2.371-1.15-17.314-4.11.27 2.9 43.851.53 9.377 4.63 10.231-2.5 1.024.49 4.258 3.57-1.471 6.78 16.506-8.21 3.372.49 4.257 9.28-3.81 6.77 16.505-.55.231 5.95 2.064-.01-.047 16.5-6.774 5.99 14.604 8.83 3.056 26.58-10.916 2.08-5.313-12.57 5.166-6.78-16.506 16.5-6.774 5.1 12.402 2.18-5.551-3.46-8.414 8.05-3.303 2.09-5.312-11.7 4.804-6.77-16.506 16.5-6.775 4.72 11.487 2.17-5.551-3.08-7.498 7.18-2.949 2.08-5.312zm-41.73-2.148l6.77 16.506-16.5 6.775-6.77-16.506 16.5-6.775zm-13.54 24.851l-16.5 6.775-6.77-16.506 16.5-6.775 6.77 16.506zm-15.12-36.83l6.77 16.506-16.5 6.775-6.77-16.506 16.5-6.775zm-28.66-11.971l6.78 16.506-13.25 5.442-1.25-18.861 7.72-3.087zm-5.74 32.981l-.44-6.698 14.53-5.967 6.77 16.506-16.5 6.775-4.36-10.616zm5.93 14.434l16.5-6.774 6.77 16.506-16.5 6.774-6.77-16.506zm15.11 36.831l-6.77-16.506 16.5-6.775 6.77 16.506-16.5 6.775zm13.54-24.851l16.5-6.775 6.77 16.506-16.5 6.774-6.77-16.505zm31.62 30.047l-16.5 6.775-6.78-16.506 16.5-6.775 6.78 16.506zm11.97-28.662l-16.5 6.775-6.77-16.506 16.5-6.775 6.77 16.506zm-4.52-21.887l-6.78-16.506 16.5-6.774 6.78 16.505-16.5 6.775z" fill="#fff"/><path d="M700.991 341.023c-6.626 3.249-11.344 9.87-12.876 17.099-1.531 7.221-.031 14.935 3.54 21.395M707.671 341.832c6.534 6.797 9.351 16.967 7.25 26.159-1.101 4.835-3.794 9.654-8.32 11.679" stroke="#373C41" stroke-miterlimit="10"/><path d="M849.926 412.312a401.41 401.41 0 0117.986-25.729c-.124.339-.254.678-.378 1.024" stroke="#BC445C" stroke-width="2" stroke-miterlimit="10"/><path d="M899.519 384.475c.932-.324-3.332 6.158-6.449 9.184a19.094 19.094 0 015.888-.932c-.401 1.194-1.386 2.087-2.325 2.918-5.025 4.458-10.051 8.915-15.076 13.365 8.042-3.68 16.092-7.368 24.135-11.047l-6.173-13.488zM855.675 444.185c2.432-1.278 4.864-2.564 7.288-3.842a22.094 22.094 0 01-7.057-2.64l17.477-8.476a480.572 480.572 0 00-17.316.077l-3.817 16.729 3.425-1.848z" fill="#BC445C"/><path d="M846.617 491.808a51.995 51.995 0 0010.251 3.626" stroke="#BC445C" stroke-width="2" stroke-miterlimit="10"/><path d="M877.101 329.006c.354-.246-19.079 26.329-29.784 39.355-.801.97-1.816 2.033-3.063 1.902-.37-1.532-.054-3.141.277-4.688a721.153 721.153 0 013.555-16.06 182.188 182.188 0 01-17.831 28.901c7.142.439 13.676.777 20.818.369.315-.015.692-.446.384-.515l25.644-49.264zM872.837 369.955c-.115 1.578 3.025-7.922 2.732-6.975 2.263-7.375 3.14-15.012 4.079-22.642l-18.163 36.399 11.352-6.782zM827.145 331.654a395.247 395.247 0 0012.483-38.401l-8.15 5.728-4.333 32.673z" fill="#2F3439"/><path d="M868.989 292.561l3.155 7.644 46.616-35.39a8.258 8.258 0 001.254-1.186c.447-.1.893-.238 1.339-.423l23.135-14.196-75.499 43.551zM973.087 201.979l-6.157 8.468-4.618 2.31 2.524 7.652 15.947-3.803-7.696-14.627zM793.767 342.094l10.005-3.08-25.397 42.343 15.392-39.263zM813.008 505.304l-10.252 21.248 4.864 3.388-39.711 23.604 45.099-48.24z" fill="#DEA095"/><path d="M1117.93 84.02c-.43-.361.38-1.03.84-.7.45.331.44.993.39 1.548a8319.836 8319.836 0 01-4.59 49.81c-.5-.285-1-.562-1.5-.847M1127.74 126.125a1045.114 1045.114 0 0086.07 62.558M1298.59 207.73v30.664M1269.57 82.666c6.98 3.857 13.96 7.714 20.94 11.563 1.16.64 2.4 1.363 2.93 2.572M1234.88 187.382c8.38 3.411 16.76 6.821 25.15 10.232M1254.53 188.96l14.97 6.19" stroke="#BC445C" stroke-width="2" stroke-miterlimit="10"/><defs><linearGradient id="apaint0_linear" x1="-27.466" y1="339.585" x2="1165.67" y2="458.624" gradientUnits="userSpaceOnUse"><stop stop-color="#DB4F69"/><stop offset="1" stop-color="#BC445C"/></linearGradient></defs></svg><svg fill="none" viewBox="0 0 35 35" id="btn-ico" xmlns="http://www.w3.org/2000/svg"><path d="M17.5 35C7.853 35 0 27.147 0 17.5S7.853 0 17.5 0 35 7.853 35 17.5 27.147 35 17.5 35zm0-33.205C8.84 1.795 1.795 8.84 1.795 17.5S8.84 33.205 17.5 33.205 33.205 26.16 33.205 17.5 26.16 1.795 17.5 1.795z" fill="#373C41"/><path d="M26.035 17.724l-3.384 5.852h-4.316l2.261-3.904-12.106-.01V15.76l12.106.009-2.243-3.904 4.307.01 3.375 5.85z" fill="#373C41"/></svg><svg fill="none" viewBox="0 0 23 10" id="chevron" xmlns="http://www.w3.org/2000/svg"><g clip-path="url(#cclip0)"><path d="M.457 8.858L11.5.97l11.043 7.888" stroke="#373C41" stroke-width="2" stroke-miterlimit="10"/></g><defs><clipPath id="cclip0"><path fill="#fff" transform="rotate(180 11.5 4.748)" d="M0 0h23v9.497H0z"/></clipPath></defs></svg><svg fill="none" viewBox="0 0 34 25" id="logo" xmlns="http://www.w3.org/2000/svg"><path d="M4.57 7.403h1.589l.006-5.733h1.88l-.007 5.733h1.589L9.634.08H4.577L4.57 7.403zM14 .013a3.748 3.748 0 00-3.745 3.739 3.748 3.748 0 003.739 3.745 3.748 3.748 0 003.745-3.738A3.744 3.744 0 0014.001.014zm0 5.896c-1.182 0-2.081-.974-2.081-2.157s.899-2.157 2.082-2.15c1.183 0 2.082.974 2.082 2.157s-.9 2.15-2.082 2.15zM19.99.1h-1.608l-.007 7.322h1.588V5.07h.02c1.434 0 2.509-1.108 2.509-2.48A2.463 2.463 0 0019.99.1zm-.026 3.435V1.65c.534 0 .926.446.926.94a.94.94 0 01-.927.946zM22.715.1v1.59h1.46l-.006 5.732h1.588l.007-5.733h1.46V.101h-4.509zM.02 3.74A3.748 3.748 0 003.76 7.484V5.895c-1.183 0-2.082-.973-2.082-2.156 0-1.184.899-2.157 2.082-2.15V0A3.75 3.75 0 00.02 3.739zM3.772 11.736h-1.88V8.87H.305v7.314h1.589v-2.866h1.88v2.866H5.36l.007-7.321H3.779l-.007 2.873zm19.004 1.332l.007-4.178H21.22l-4.232 7.315h1.825l2.387-4.124-.007 4.124h1.595l2.4-4.144-.006 4.15h1.588l.007-7.321h-1.575l-2.427 4.178zM9.735 8.788a3.748 3.748 0 00-3.745 3.739 3.748 3.748 0 003.738 3.745 3.748 3.748 0 003.745-3.738c.007-2.055-1.676-3.739-3.738-3.745zm-.007 5.902c-1.183 0-2.082-.973-2.082-2.156 0-1.183.9-2.157 2.082-2.15 1.183 0 2.082.973 2.082 2.156.007 1.184-.892 2.15-2.082 2.15zm8.498-3.326a2.463 2.463 0 00-2.501-2.488h-1.61l-.006 7.322h1.589v-2.353h.02a2.46 2.46 0 002.508-2.48zm-2.528.947v-1.886c.534 0 .926.446.926.94 0 .493-.399.946-.926.946zM31.26 8.897l-4.232 7.314h1.825l.562-.966h1.967v.966h1.588l.007-7.321-1.717.007zm.115 4.928h-1.15l1.157-1.987-.007 1.987zM9.336 17.658H7.511l-1.9 3.293.007-3.293H4.029l-.007 3.293-1.9-3.3H.298l1.961 3.408L0 24.966h1.825l2.197-3.8-.006 3.8h1.588l.007-3.8 2.19 3.8h1.826l-2.258-3.914 1.967-3.394zm10.026 3.394c.588-.467.757-.892.757-1.5 0-1.32-1.129-1.88-2.319-1.887h-1.082v1.514H17.8c.541.054.71.298.71.676 0 .426-.29.663-.73.663h-.77v1.392h.871c.534 0 .859.318.852.785 0 .453-.284.77-.94.777h-1.081v1.514h1.081c1.4-.013 2.57-.804 2.57-2.237 0-.838-.386-1.339-1.001-1.697zm5.334-.514h-2.022v-2.866h-1.588l-.007 7.321h1.589v-2.866h2.021v2.866h1.589l.007-7.321h-1.59v2.866zm-13 1.318l.006-4.191h-1.588l-.007 7.321h1.602l2.393-4.13-.007 4.13h1.59l.006-7.321h-1.569l-2.427 4.191zm19.7-4.178l-2.428 4.192.007-4.192h-1.589L27.38 25h1.602l2.393-4.13-.007 4.13h1.589l.007-7.322h-1.569z" fill="#373C41"/><path d="M33.802 3.772l-1.27 2.197h-1.617l.845-1.467h-4.543V3.035l4.543.007-.838-1.467h1.616l1.264 2.197z" fill="#A7E600"/></svg></svg>