<svg width="1440" height="303" viewBox="0 0 1440 303" fill="none" xmlns="http://www.w3.org/2000/svg">
<g clip-path="url(#clip0)">
<path d="M1440 0H0V303H1440V0Z" fill="url(#paint0_linear)"/>
<path d="M1190.27 122.599L1214.21 80.6092C1228.53 55.4853 1266.8 65.6728 1266.8 94.6116V136.601C1266.8 152.184 1254.2 164.824 1238.64 164.824H1214.71C1193.1 164.815 1179.55 141.411 1190.27 122.599Z" fill="url(#paint1_linear)"/>
<path d="M1273.87 49.2527V5.15057C1273.87 -26.8785 1231.5 -38.1572 1215.65 -10.3446L1189.15 36.1408C1177.28 56.961 1192.28 82.8793 1216.21 82.8793H1242.71C1242.85 82.8793 1242.98 82.8706 1243.12 82.8706L1230.42 105.14C1219.7 123.952 1233.25 147.356 1254.87 147.356H1278.81C1294.35 147.356 1306.96 134.725 1306.96 119.134V77.1439C1306.94 57.6506 1289.58 46.6687 1273.87 49.2527Z" fill="url(#paint2_linear)"/>
<path d="M1264.53 97.4054L1243.89 118.095V3.09033H1241.24V55.9832L1219.08 33.775V37.5288L1241.24 59.737V221H1243.89V121.857L1264.53 101.168V97.4054Z" fill="#664A46"/>
<path d="M1367.09 199.786V108.579L1313.33 199.786H1367.09Z" fill="#664A46"/>
<path d="M1227 174.907H1270.85L1293.68 136.183V174.907H1337.02L1359.86 136.183V174.907H1397.08V-113.607L1227 174.907Z" fill="url(#paint3_linear)"/>
<path d="M1252.32 113.817H1289.64L1309.07 80.8629V113.817H1345.97L1365.4 80.8629V113.817H1397.08V-131.748L1252.32 113.817Z" fill="url(#paint4_linear)"/>
<path d="M1278.21 53.1894H1308.85L1324.81 26.1188V53.1894H1355.1L1371.06 26.1188V53.1894H1397.08V-148.474L1278.21 53.1894Z" fill="url(#paint5_linear)"/>
<path d="M1299.88 1.8768H1324.94L1337.99 -20.2528V1.8768H1362.76L1375.8 -20.2528V1.8768H1397.08V-163L1299.88 1.8768Z" fill="#51B593"/>
<path d="M564.993 55.1553L608.166 -20.3494C633.994 -65.5269 703.002 -47.2052 703.002 4.82569V80.3304C703.002 108.35 680.275 131.073 652.235 131.073H609.069C570.092 131.073 545.656 88.9816 564.993 55.1553Z" fill="url(#paint6_linear)"/>
<path d="M668.127 2.73901V-1.18018L647.123 19.814V-18.8613H644.345V58.4756L622.948 37.0888V41.008L644.345 62.3948V118.29L611.847 85.8135V89.7327L644.345 122.216V200.001H647.123V97.0201L668.127 76.0259V72.1067L647.123 93.1009V23.7401L668.127 2.73901Z" fill="#664A46"/>
<path d="M669.266 122.599L693.206 80.6092C707.531 55.4853 745.796 65.6728 745.796 94.6116V136.601C745.796 152.184 733.195 164.824 717.642 164.824H693.711C672.096 164.815 658.546 141.411 669.266 122.599Z" fill="url(#paint7_linear)"/>
<path d="M752.868 49.2527V5.15057C752.868 -26.8785 710.501 -38.1572 694.652 -10.3446L668.152 36.1408C656.282 56.961 671.278 82.8793 695.209 82.8793H721.709C721.848 82.8793 721.979 82.8706 722.118 82.8706L709.421 105.14C698.701 123.952 712.251 147.356 733.866 147.356H757.805C773.35 147.356 785.96 134.725 785.96 119.134V77.1439C785.943 57.6506 768.578 46.6687 752.868 49.2527Z" fill="url(#paint8_linear)"/>
<path d="M743.523 97.4054L722.884 118.095V3.09033H720.237V55.9832L698.083 33.775V37.5288L720.237 59.737V221H722.884V121.857L743.523 101.168V97.4054Z" fill="#664A46"/>
<path d="M542.093 199.786V108.579L488.327 199.786H542.093Z" fill="#664A46"/>
<path d="M402 174.907H445.847L468.681 136.183V174.907H512.023L534.857 136.183V174.907H572.077V-113.607L402 174.907Z" fill="url(#paint9_linear)"/>
<path d="M427.324 113.817H464.64L484.069 80.8629V113.817H520.967L540.395 80.8629V113.817H572.077V-131.748L427.324 113.817Z" fill="url(#paint10_linear)"/>
<path d="M453.206 53.1894H483.851L499.805 26.1188V53.1894H530.102L546.056 26.1188V53.1894H572.077V-148.474L453.206 53.1894Z" fill="url(#paint11_linear)"/>
<path d="M474.881 1.8768H499.944L512.99 -20.2528V1.8768H537.757L550.802 -20.2528V1.8768H572.077V-163L474.881 1.8768Z" fill="#51B593"/>
<path d="M-59.0465 55.1553L-15.8733 -20.3494C9.95486 -65.5269 78.9631 -47.2052 78.9631 4.82569V80.3304C78.9631 108.35 56.236 131.073 28.1958 131.073H-14.9705C-53.947 131.073 -78.3832 88.9816 -59.0465 55.1553Z" fill="url(#paint12_linear)"/>
<path d="M44.0884 2.73901V-1.18018L23.0841 19.814V-18.8613H20.3069V58.4756L-1.0902 37.0888V41.008L20.3069 62.3948V118.29L-12.1919 85.8135V89.7327L20.3069 122.216V200.001H23.0841V97.0201L44.0884 76.0259V72.1067L23.0841 93.1009V23.7401L44.0884 2.73901Z" fill="#664A46"/>
<g clip-path="url(#clip1)">
<path d="M1476.86 188H-1.85654C-16.782 188 -29 193.49 -29 200.199V206.804C-29 213.51 -16.782 219 -1.85654 219H1476.86C1491.79 219 1504 213.51 1504 206.804V200.199C1504.01 193.49 1491.79 188 1476.86 188Z" fill="url(#paint13_linear)"/>
<path d="M1440.94 303H-31.3254C-46.0269 303 -58.0615 293.604 -58.0615 282.127V240.243C-58.0615 228.76 -46.0269 219.364 -31.3254 219.364H1440.94C1455.65 219.364 1467.67 228.76 1467.67 240.237V282.121C1467.68 293.604 1455.65 303 1440.94 303Z" fill="url(#paint14_linear)"/>
</g>
<g clip-path="url(#clip2)">
<path d="M885.222 260.994C932.596 260.994 971 259.213 971 257.017C971 254.821 932.596 253.04 885.222 253.04C837.849 253.04 799.445 254.821 799.445 257.017C799.445 259.213 837.849 260.994 885.222 260.994Z" fill="#9D82D0"/>
<path d="M841.28 213.862L841.942 215.426L857.831 208.629C857.604 208.106 857.365 207.595 857.108 207.09L841.28 213.862Z" fill="#373C41"/>
<path d="M834.004 207.934L839.32 191.337C838.787 191.146 838.254 190.974 837.709 190.813L832.393 207.411L834.004 207.934Z" fill="#373C41"/>
<path d="M828.001 206.992L825.992 189.668C825.428 189.718 824.865 189.785 824.313 189.865L826.323 207.195L828.001 206.992Z" fill="#373C41"/>
<path d="M822.139 208.617L813.172 193.701C812.682 193.984 812.198 194.273 811.726 194.581L820.693 209.491L822.139 208.617Z" fill="#373C41"/>
<path d="M817.484 212.557L803.182 202.707C802.851 203.163 802.532 203.63 802.226 204.111L816.535 213.961L817.484 212.557Z" fill="#373C41"/>
<path d="M814.869 218.055L797.773 215.106C797.663 215.66 797.565 216.22 797.485 216.78L814.581 219.729L814.869 218.055Z" fill="#373C41"/>
<path d="M814.777 224.187L797.981 228.594C798.11 229.148 798.257 229.696 798.41 230.238L815.199 225.83L814.777 224.187Z" fill="#373C41"/>
<path d="M817.19 229.77L803.77 240.796C804.113 241.245 804.474 241.682 804.842 242.113L818.262 231.087L817.19 229.77Z" fill="#373C41"/>
<path d="M821.735 233.87L814.036 249.488C814.532 249.753 815.04 250.005 815.549 250.245L823.248 234.627L821.735 233.87Z" fill="#373C41"/>
<path d="M827.517 235.692L826.996 253.121C827.553 253.151 828.117 253.17 828.687 253.17L829.207 235.735L827.517 235.692Z" fill="#373C41"/>
<path d="M833.575 234.941L840.251 251.034C840.778 250.83 841.299 250.609 841.813 250.375L835.137 234.289L833.575 234.941Z" fill="#373C41"/>
<path d="M838.732 231.752L851.473 243.566C851.865 243.16 852.251 242.747 852.624 242.316L839.878 230.502L838.732 231.752Z" fill="#373C41"/>
<path d="M918.972 210.261L907.187 197.487C906.765 197.862 906.348 198.25 905.95 198.644L917.735 211.412L918.972 210.261Z" fill="#373C41"/>
<path d="M915.224 215.051L899.201 208.371C898.968 208.888 898.753 209.411 898.551 209.941L914.581 216.62L915.224 215.051Z" fill="#373C41"/>
<path d="M913.778 220.998L896.444 221.589C896.45 222.161 896.468 222.727 896.499 223.288L913.833 222.697L913.778 220.998Z" fill="#373C41"/>
<path d="M914.923 226.994L899.384 234.757C899.623 235.274 899.874 235.779 900.137 236.277L915.671 228.514L914.923 226.994Z" fill="#373C41"/>
<path d="M918.428 231.986L907.506 245.512C907.935 245.881 908.37 246.238 908.817 246.583L919.738 233.058L918.428 231.986Z" fill="#373C41"/>
<path d="M923.701 235.058L919.321 251.932C919.86 252.086 920.405 252.234 920.957 252.363L925.336 235.489L923.701 235.058Z" fill="#373C41"/>
<path d="M929.734 235.668L932.76 252.838C933.324 252.752 933.875 252.659 934.426 252.542L931.4 235.373L929.734 235.668Z" fill="#373C41"/>
<path d="M935.504 233.679L945.305 248.06C945.776 247.752 946.242 247.426 946.701 247.094L936.901 232.719L935.504 233.679Z" fill="#373C41"/>
<path d="M939.915 229.505L954.787 238.463C955.093 237.989 955.381 237.502 955.663 237.004L940.791 228.04L939.915 229.505Z" fill="#373C41"/>
<path d="M942.211 223.817L959.448 225.818C959.527 225.258 959.589 224.698 959.638 224.131L942.407 222.13L942.211 223.817Z" fill="#373C41"/>
<path d="M941.96 217.735L958.456 212.33C958.296 211.782 958.119 211.246 957.929 210.71L941.434 216.116L941.96 217.735Z" fill="#373C41"/>
<path d="M939.204 212.262L951.999 200.51C951.632 200.079 951.246 199.666 950.854 199.254L938.064 211.006L939.204 212.262Z" fill="#373C41"/>
<path d="M934.475 208.463L941.225 192.402C940.711 192.168 940.196 191.946 939.669 191.737L932.919 207.805L934.475 208.463Z" fill="#373C41"/>
<path d="M928.564 206.961L928.099 189.533C927.529 189.533 926.972 189.552 926.408 189.576L926.874 207.005L928.564 206.961Z" fill="#373C41"/>
<path d="M858.596 232.165C857.243 235.926 855.197 239.361 852.618 242.316C852.245 242.741 851.865 243.16 851.467 243.566C848.716 246.404 845.446 248.725 841.807 250.375C841.293 250.609 840.772 250.824 840.245 251.034C836.699 252.419 832.84 253.182 828.81 253.182C828.767 253.182 828.724 253.182 828.675 253.182C828.105 253.182 827.542 253.164 826.984 253.133C822.917 252.899 819.058 251.889 815.542 250.252C815.028 250.012 814.526 249.759 814.029 249.495C810.526 247.629 807.408 245.117 804.835 242.119C804.468 241.688 804.113 241.251 803.764 240.802C801.362 237.687 799.531 234.116 798.404 230.244C798.245 229.702 798.104 229.154 797.975 228.6C797.436 226.273 797.148 223.854 797.148 221.367C797.148 219.815 797.265 218.289 797.479 216.793C797.559 216.226 797.657 215.672 797.767 215.118C798.557 211.141 800.095 207.423 802.214 204.129C802.52 203.655 802.839 203.187 803.169 202.726C805.491 199.512 808.388 196.748 811.714 194.599C812.186 194.292 812.67 193.996 813.16 193.719C816.535 191.78 820.295 190.45 824.301 189.878C824.859 189.798 825.416 189.73 825.98 189.681C826.911 189.594 827.854 189.551 828.81 189.551C831.897 189.551 834.88 190.001 837.703 190.832C838.248 190.992 838.781 191.164 839.314 191.355C842.855 192.611 846.113 194.482 848.949 196.84L851.16 194.569C845.109 189.465 837.311 186.381 828.81 186.381C809.619 186.362 794 202.061 794 221.354C794 240.648 809.619 256.346 828.816 256.346C844.012 256.346 856.961 246.509 861.702 232.842L858.596 232.165Z" fill="#2F3439"/>
<path d="M860.422 223.269L863.558 223.75C863.613 222.962 863.644 222.161 863.644 221.361C863.644 221.189 863.638 221.016 863.638 220.844L860.477 220.598C860.483 220.85 860.489 221.109 860.489 221.361C860.477 222.001 860.459 222.635 860.422 223.269Z" fill="#2F3439"/>
<path d="M859.956 227.117C859.766 228.145 859.533 229.148 859.251 230.139L862.345 230.817C862.639 229.764 862.89 228.687 863.086 227.591L859.956 227.117Z" fill="#2F3439"/>
<path d="M857.831 208.63C859.166 211.69 860.03 214.995 860.342 218.461L863.534 218.708C862.915 210.397 859.387 202.886 853.984 197.198L851.779 199.469C853.905 201.723 855.706 204.29 857.114 207.085C857.365 207.596 857.604 208.107 857.831 208.63Z" fill="#2F3439"/>
<path d="M962.915 221.354C962.915 202.061 947.295 186.362 928.099 186.362C924.289 186.362 920.626 186.984 917.19 188.123L918.354 191.078C920.914 190.247 923.609 189.73 926.408 189.582C926.966 189.551 927.529 189.539 928.099 189.539C932.178 189.539 936.08 190.321 939.663 191.737C940.19 191.946 940.711 192.168 941.219 192.402C944.845 194.07 948.11 196.409 950.848 199.253C951.24 199.66 951.62 200.078 951.993 200.509C954.56 203.477 956.593 206.93 957.929 210.71C958.119 211.246 958.29 211.781 958.455 212.329C959.301 215.192 959.754 218.221 959.754 221.36C959.754 222.296 959.711 223.22 959.631 224.131C959.582 224.697 959.521 225.263 959.442 225.818C958.878 229.838 957.567 233.617 955.65 237.01C955.374 237.502 955.08 237.988 954.774 238.469C952.637 241.824 949.886 244.754 946.689 247.093C946.236 247.426 945.77 247.752 945.292 248.06C942.028 250.19 938.353 251.735 934.408 252.542C933.857 252.653 933.299 252.751 932.742 252.837C931.223 253.065 929.667 253.182 928.087 253.182C925.63 253.182 923.242 252.899 920.945 252.363C920.393 252.234 919.848 252.092 919.309 251.932C915.463 250.812 911.91 248.977 908.811 246.582C908.364 246.238 907.922 245.881 907.5 245.511C904.511 242.932 901.999 239.804 900.131 236.283C899.868 235.784 899.617 235.274 899.378 234.763C897.742 231.241 896.732 227.369 896.487 223.287C896.45 222.727 896.432 222.155 896.432 221.588C896.432 221.514 896.432 221.434 896.432 221.36C896.432 217.34 897.179 213.493 898.539 209.947C898.741 209.417 898.961 208.894 899.188 208.377C900.823 204.714 903.126 201.42 905.938 198.65C906.342 198.256 906.753 197.868 907.175 197.493C909.442 195.486 911.99 193.799 914.752 192.506L913.588 189.551C901.607 195.086 893.271 207.263 893.271 221.367C893.271 240.66 908.89 256.359 928.087 256.359C947.283 256.359 962.915 240.654 962.915 221.354Z" fill="#2F3439"/>
<path d="M863.08 227.596L864.354 227.794C864.342 227.621 864.336 227.443 864.336 227.264C864.336 226.094 864.575 224.98 864.997 223.97L863.552 223.749L860.416 223.269L834.04 219.236C834.12 219.606 834.163 219.994 834.163 220.388C834.163 221.366 833.906 222.278 833.458 223.072L859.95 227.116L863.08 227.596Z" fill="#40DC9E"/>
<path d="M874.908 219.083L872.299 211.4H875.913V207.521H867.552L871.392 218.917C871.839 218.843 872.293 218.806 872.758 218.806C873.499 218.8 874.222 218.898 874.908 219.083Z" fill="#2F3439"/>
<path d="M874.908 219.083C874.222 218.898 873.499 218.806 872.758 218.806C872.292 218.806 871.839 218.843 871.392 218.917C870.963 218.984 870.546 219.089 870.142 219.225L867.349 219.009L863.539 218.714L860.348 218.467L835.192 216.516L832.325 216.294C831.903 215.919 831.425 215.605 830.904 215.377C830.237 215.081 829.501 214.921 828.73 214.921C825.728 214.921 823.291 217.365 823.291 220.388C823.291 223.411 825.722 225.855 828.73 225.855C828.999 225.855 829.263 225.83 829.52 225.793L858.596 232.171L861.708 232.854L867.962 234.227C869.321 235.175 870.975 235.736 872.758 235.736C872.997 235.736 873.235 235.723 873.468 235.705L870.755 227.726L874.405 226.47L877.131 234.504C879.557 233.021 881.174 230.337 881.174 227.277C881.174 224.894 880.194 222.746 878.619 221.207C877.695 220.302 876.568 219.612 875.306 219.212C875.177 219.157 875.042 219.114 874.908 219.083ZM862.345 230.817L859.252 230.14L832.54 224.285C832.901 223.928 833.213 223.522 833.464 223.072C833.912 222.278 834.169 221.367 834.169 220.388C834.169 219.994 834.126 219.612 834.046 219.237C833.997 218.997 833.924 218.763 833.844 218.535L860.471 220.591L863.631 220.838L866.994 221.096C866.149 221.896 865.463 222.869 865.003 223.965C864.574 224.981 864.342 226.089 864.342 227.258C864.342 227.437 864.348 227.609 864.36 227.788C864.446 229.136 864.838 230.398 865.481 231.5L862.345 230.817Z" fill="#37BE8A"/>
<path d="M874.412 226.458L870.755 227.714L873.468 235.692L874.798 239.602H871.178V243.48H883.459V239.602H878.877L877.137 234.492L874.412 226.458Z" fill="#2F3439"/>
<path d="M853.623 146.045C853.764 145.941 853.899 145.873 854.033 145.787C854.168 145.713 854.297 145.645 854.425 145.584C854.554 145.516 854.683 145.473 854.811 145.417L855.185 145.282C855.681 145.116 856.153 145.023 856.612 144.974C857.531 144.882 858.382 144.993 859.197 145.245L861.653 145.959L864.097 146.704C867.356 147.714 870.584 148.803 873.793 149.967L876.194 150.853L878.589 151.764C880.188 152.368 881.781 152.996 883.373 153.611L888.157 155.464L892.947 157.293L893.976 157.687C897.669 159.097 899.525 163.246 898.123 166.958C898.006 167.272 897.847 167.611 897.688 167.894L892.187 177.855C890.331 181.167 888.5 184.485 886.62 187.785L883.814 192.734L880.984 197.678C879.079 200.965 877.181 204.252 875.227 207.515C874.124 209.356 871.741 209.953 869.91 208.845C868.324 207.885 867.668 205.958 868.238 204.265C869.451 200.657 870.725 197.074 871.986 193.491L873.91 188.123L875.858 182.767C877.15 179.197 878.485 175.644 879.802 172.08L883.808 161.424L888.549 172.025L883.551 170.904L878.54 169.808C876.874 169.439 875.202 169.082 873.536 168.7L871.037 168.134L868.544 167.543C865.224 166.743 861.935 165.862 858.664 164.902L856.214 164.169L853.776 163.412C852.962 163.172 852.184 162.79 851.467 162.205C851.112 161.91 850.769 161.571 850.444 161.159L850.205 160.839C850.132 160.722 850.052 160.611 849.979 160.488C849.905 160.365 849.832 160.235 849.758 160.1C849.691 159.952 849.617 159.823 849.556 159.657C847.675 154.609 849.482 149.068 853.623 146.045Z" fill="url(#paint15_linear)"/>
<path d="M863.742 164.612C866.271 163.11 865.212 159.213 862.272 159.213H843.02C841.428 159.213 840.135 160.512 840.135 162.113V173.551C840.135 175.798 842.567 177.196 844.49 176.051L851.485 171.895L854.879 169.876L863.742 164.612Z" fill="#37BE8A"/>
<path d="M909.962 169.79L910.238 170.497H916.59C922.268 170.497 927.192 167.173 929.532 162.359C929.649 162.23 929.728 162.07 929.747 161.885C930.543 160.093 930.984 158.105 930.984 156.018V155.944C931.094 155.796 931.161 155.618 931.161 155.421C931.161 155.224 931.094 155.045 930.984 154.898V148.637H908.18V169.728V169.79H909.962ZM923.278 150.397H929.244V154.541H923.278V150.397ZM923.278 156.301H929.232C929.195 157.92 928.858 159.466 928.277 160.888H923.278V156.301ZM923.278 162.648H927.382C926.353 164.335 924.944 165.757 923.278 166.804V162.648ZM916.044 150.397H921.52V154.541H916.044V150.397ZM916.044 156.301H921.52V160.888H916.044V156.301ZM916.044 162.648H921.52V167.672C921.52 167.69 921.527 167.703 921.527 167.721C920.007 168.367 918.341 168.731 916.59 168.731H916.044V162.648ZM909.944 150.397H914.293V154.541H909.944V150.397ZM909.944 156.301H914.293V160.888H909.944V156.301ZM909.944 162.648H914.293V168.731H909.944V162.648Z" fill="#373C41"/>
<path d="M929.98 220.555L918.354 191.079L917.191 188.124L910.238 170.498L910.226 170.474V146.575H906.122V169.624L860.398 186.301L854.867 169.883L851.473 171.902L857.059 188.493L851.161 194.557L848.95 196.828L830.893 215.383C831.413 215.611 831.891 215.925 832.314 216.301L835.18 216.522L851.767 199.476L853.972 197.204L858.444 192.611L867.338 219.009L870.131 219.225C870.535 219.089 870.951 218.991 871.38 218.917L867.54 207.522L861.629 189.977L903.617 174.666L875.294 219.206C876.55 219.607 877.683 220.302 878.608 221.201L907.899 175.134L913.583 189.552L914.747 192.507L926.372 221.989C926.672 222.752 927.401 223.214 928.167 223.214C928.406 223.214 928.645 223.171 928.877 223.079C929.888 222.678 930.372 221.552 929.98 220.555Z" fill="#40DC9E"/>
<path d="M915.451 148.637H892.702C891.569 148.637 890.65 147.714 890.65 146.575C890.65 145.436 891.569 144.513 892.702 144.513H915.451C916.584 144.513 917.503 145.436 917.503 146.575C917.503 147.714 916.584 148.637 915.451 148.637Z" fill="#2F3439"/>
<path d="M865.04 103.758C865.445 103.82 865.843 103.925 866.229 104.066C869.451 105.23 871.509 108.419 871.374 111.854C871.141 117.868 870.48 123.84 870.841 129.873C868.219 131.541 865.61 133.031 863.025 134.872C862.008 140.536 861.39 147.511 862.284 152.965C863.178 158.419 857.182 161.676 854.211 162.403C851.24 163.129 852.974 162.347 853.004 162.766C846.983 160.611 843.982 160.217 843.792 152.559C843.394 136.774 847.198 122.929 854.095 108.696C856.955 102.798 859.319 102.921 865.04 103.758Z" fill="#40DC9E"/>
<path d="M864.758 107.637C866.724 108.018 868.635 106.713 869.015 104.737L870.706 95.903C871.085 93.9269 869.787 92.0061 867.821 91.6244C865.854 91.2427 863.943 92.5479 863.564 94.524L861.873 103.358C861.493 105.334 862.792 107.255 864.758 107.637Z" fill="#DEA095"/>
<path d="M866.639 80.5244L878.307 84.9507L878.406 91.4763C878.412 91.5933 878.424 91.7103 878.43 91.8272C878.442 92.1227 878.442 92.4121 878.424 92.6953L878.369 93.1447C878.314 93.6002 878.234 94.0558 878.099 94.4991C877.236 97.3248 874.804 99.5164 871.729 99.8734C871.698 99.8796 871.674 99.8796 871.643 99.8857C865.959 100.501 860.875 96.2413 860.52 90.4421C860.25 86.1081 862.811 82.162 866.639 80.5244Z" fill="#EEB5AC"/>
<path d="M866.933 78.0373C866.964 78.0373 866.994 78.0373 867.025 78.0373L871.343 78.0004C875.441 77.9696 879.355 79.6749 882.124 82.7099L869.708 89.925C869.457 88.3675 867.999 87.2224 866.339 87.4933C865.12 87.6903 864.177 88.6076 863.95 89.8265C863.797 90.6699 863.993 91.4641 864.428 92.0797L864.489 97.8912C860.257 96.7584 857.108 92.9046 857.035 88.2813C856.955 82.7099 861.384 78.1174 866.933 78.0373Z" fill="#623C34"/>
<path d="M847.186 104.208C848.735 100.065 850.665 94.4933 852.086 90.6395C854.444 84.2493 859.43 81.5837 865.757 82.6118C865.586 82.6487 865.757 82.6118 865.757 82.6118C862.254 81.99 864.581 81.9715 860.104 81.1835C861.145 81.3498 860.104 81.1835 860.104 81.1835C855.626 80.3955 848.588 82.6857 846.928 89.002C845.924 92.8127 843.455 98.2609 842.224 102.342C843.792 103.044 845.532 103.672 847.186 104.208Z" fill="#623C34"/>
<path d="M894.545 139.15C892.891 137.753 891.225 136.38 889.565 135.001L887.03 132.908L884.475 130.833C882.963 129.614 881.443 128.408 879.906 127.22L873.481 117.099C872.354 115.338 871.214 113.577 870.118 111.792C869.015 110.013 867.919 108.228 866.853 106.424C866.761 106.27 866.645 106.098 866.535 105.95C864.93 103.857 861.941 103.469 859.864 105.082C857.782 106.695 857.396 109.699 859.001 111.786C860.275 113.448 861.524 115.129 862.768 116.81C864.017 118.49 865.224 120.202 866.443 121.901L873.781 132.089L873.891 132.243C874.105 132.539 874.369 132.803 874.681 133.031C876.458 134.312 878.258 135.561 880.065 136.805L882.785 138.652L885.523 140.474C887.054 141.49 888.579 142.512 890.117 143.515L891.96 148.095C893.277 151.371 896.75 153.217 900.187 152.466L901.871 152.097C903.335 151.777 904.009 150.072 903.163 148.834L900.664 145.171C900.683 144.974 900.689 144.771 900.683 144.568C900.652 143.786 900.389 143.01 899.929 142.339C899.819 142.167 899.684 142.013 899.543 141.859C899.476 141.779 899.396 141.711 899.323 141.644C899.243 141.576 899.17 141.502 899.09 141.441C899.004 141.379 898.925 141.317 898.839 141.256L898.71 141.17L898.68 141.145L898.668 141.133L898.661 141.127L898.637 141.108C898.57 141.059 898.502 141.01 898.435 140.954C898.165 140.745 897.908 140.505 897.663 140.246C897.54 140.117 897.418 139.982 897.295 139.84C897.234 139.766 897.179 139.698 897.118 139.624L896.922 139.384" fill="#EEB5AC"/>
<path d="M882.362 182.379L881.749 181.524L878.442 176.888L875.158 172.234C874.062 170.683 872.972 169.125 871.869 167.586L870.215 165.271L868.537 162.969C866.534 160.242 864.476 157.557 862.369 154.916L862.357 154.547C862.394 154.042 862.381 153.519 862.289 152.971C861.928 150.767 861.818 148.317 861.879 145.811L844.012 143.891C844.006 143.934 844.006 143.983 844 144.026L843.859 143.958L841.623 155.766L841.635 155.791C841.617 155.926 841.611 156.055 841.592 156.185C841.586 156.345 841.58 156.505 841.58 156.652C841.58 156.806 841.592 156.948 841.592 157.102L841.635 157.527C841.703 158.087 841.825 158.592 841.99 159.072C842.315 160.032 842.805 160.851 843.412 161.584L845.188 163.8L846.989 165.998C849.402 168.916 851.877 171.784 854.419 174.598L856.33 176.703L858.265 178.79C859.551 180.188 860.856 181.561 862.155 182.952L866.05 187.107L868.17 189.385L868.065 196.902C868.035 200.626 867.986 204.357 867.98 208.082L867.961 213.678L867.974 219.274C867.998 223.004 868.016 226.735 868.096 230.478C868.133 232.263 869.395 233.845 871.208 234.215C873.303 234.64 875.348 233.273 875.765 231.161C876.494 227.498 877.168 223.823 877.847 220.154L878.834 214.644L879.795 209.134C880.444 205.459 881.045 201.784 881.67 198.109L883.47 187.077C883.703 185.488 883.366 183.789 882.362 182.379Z" fill="#373C41"/>
<path d="M876.751 225.892L866.987 232.811L865.971 237.471L885.087 241.689C886.827 242.07 888.542 240.968 888.922 239.22L876.8 230.441C877.915 229.721 878.239 228.231 877.529 227.111L876.751 225.892Z" fill="#40DC9E"/>
<path d="M875.913 231.35L875.084 232.502L885.859 240.334L886.688 239.182L875.913 231.35Z" fill="white"/>
</g>
<g clip-path="url(#clip3)">
<path d="M1081 250C1130.71 250 1171 248.175 1171 245.924C1171 243.673 1130.71 241.849 1081 241.849C1031.29 241.849 991 243.673 991 245.924C991 248.175 1031.29 250 1081 250Z" fill="#9D82D0"/>
<path d="M1041.65 199.661L1042.34 201.264L1059.01 194.299C1058.78 193.763 1058.53 193.239 1058.26 192.722L1041.65 199.661Z" fill="#373C41"/>
<path d="M1034.01 193.586L1039.59 176.577C1039.03 176.381 1038.47 176.205 1037.9 176.041L1032.32 193.049L1034.01 193.586Z" fill="#373C41"/>
<path d="M1027.71 192.621L1025.6 174.867C1025.01 174.918 1024.42 174.987 1023.84 175.069L1025.95 192.829L1027.71 192.621Z" fill="#373C41"/>
<path d="M1021.56 194.286L1012.14 179.006C1011.63 179.296 1011.12 179.593 1010.63 179.908L1020.04 195.188L1021.56 194.286Z" fill="#373C41"/>
<path d="M1016.67 198.33L1001.67 188.235C1001.32 188.702 1000.99 189.182 1000.67 189.674L1015.68 199.768L1016.67 198.33Z" fill="#373C41"/>
<path d="M1013.94 203.964L996 200.942C995.885 201.51 995.782 202.084 995.698 202.658L1013.64 205.68L1013.94 203.964Z" fill="#373C41"/>
<path d="M1013.83 210.241L996.212 214.758C996.347 215.326 996.501 215.888 996.662 216.443L1014.28 211.926L1013.83 210.241Z" fill="#373C41"/>
<path d="M1016.37 215.963L1002.29 227.263C1002.65 227.723 1003.02 228.171 1003.41 228.613L1017.49 217.313L1016.37 215.963Z" fill="#373C41"/>
<path d="M1021.14 220.165L1013.06 236.171C1013.58 236.442 1014.11 236.701 1014.65 236.947L1022.73 220.941L1021.14 220.165Z" fill="#373C41"/>
<path d="M1027.2 222.032L1026.66 239.893C1027.24 239.924 1027.83 239.943 1028.43 239.95L1028.98 222.083L1027.2 222.032Z" fill="#373C41"/>
<path d="M1033.56 221.263L1040.56 237.755C1041.12 237.546 1041.66 237.319 1042.2 237.079L1035.2 220.594L1033.56 221.263Z" fill="#373C41"/>
<path d="M1038.97 217.995L1052.34 230.102C1052.75 229.685 1053.15 229.263 1053.55 228.821L1040.17 216.714L1038.97 217.995Z" fill="#373C41"/>
<path d="M1123.16 195.97L1110.79 182.879C1110.35 183.264 1109.91 183.662 1109.5 184.065L1121.86 197.15L1123.16 195.97Z" fill="#373C41"/>
<path d="M1119.23 200.885L1102.41 194.04C1102.17 194.57 1101.94 195.106 1101.73 195.649L1118.55 202.494L1119.23 200.885Z" fill="#373C41"/>
<path d="M1117.71 206.973L1099.52 207.579C1099.53 208.166 1099.55 208.746 1099.58 209.32L1117.77 208.714L1117.71 206.973Z" fill="#373C41"/>
<path d="M1118.91 213.118L1102.61 221.074C1102.86 221.604 1103.12 222.121 1103.4 222.632L1119.7 214.676L1118.91 213.118Z" fill="#373C41"/>
<path d="M1122.59 218.234L1111.14 232.095C1111.59 232.474 1112.04 232.84 1112.52 233.193L1123.98 219.332L1122.59 218.234Z" fill="#373C41"/>
<path d="M1128.12 221.383L1123.53 238.676C1124.09 238.833 1124.66 238.985 1125.24 239.117L1129.84 221.824L1128.12 221.383Z" fill="#373C41"/>
<path d="M1134.45 222.007L1137.63 239.603C1138.22 239.515 1138.8 239.42 1139.37 239.3L1136.2 221.705L1134.45 222.007Z" fill="#373C41"/>
<path d="M1140.51 219.97L1150.79 234.707C1151.28 234.392 1151.77 234.057 1152.25 233.717L1141.97 218.985L1140.51 219.97Z" fill="#373C41"/>
<path d="M1145.13 215.692L1160.74 224.871C1161.06 224.386 1161.36 223.887 1161.66 223.376L1146.05 214.19L1145.13 215.692Z" fill="#373C41"/>
<path d="M1147.55 209.862L1165.63 211.913C1165.72 211.339 1165.78 210.765 1165.83 210.184L1147.75 208.134L1147.55 209.862Z" fill="#373C41"/>
<path d="M1147.28 203.63L1164.59 198.09C1164.42 197.529 1164.23 196.98 1164.03 196.431L1146.73 201.97L1147.28 203.63Z" fill="#373C41"/>
<path d="M1144.39 198.021L1157.82 185.977C1157.43 185.535 1157.03 185.113 1156.62 184.69L1143.2 196.734L1144.39 198.021Z" fill="#373C41"/>
<path d="M1139.43 194.128L1146.51 177.668C1145.97 177.428 1145.43 177.201 1144.88 176.987L1137.79 193.453L1139.43 194.128Z" fill="#373C41"/>
<path d="M1133.22 192.595L1132.74 174.735C1132.14 174.735 1131.55 174.754 1130.96 174.779L1131.45 192.64L1133.22 192.595Z" fill="#373C41"/>
<path d="M1061.73 209.301L1065.02 209.793C1065.07 208.986 1065.11 208.165 1065.11 207.345C1065.11 207.169 1065.1 206.992 1065.1 206.815L1061.78 206.563C1061.79 206.822 1061.8 207.087 1061.8 207.345C1061.79 208.001 1061.76 208.651 1061.73 209.301Z" fill="#2F3439"/>
<path d="M1059.82 218.417C1058.4 222.272 1056.25 225.793 1053.55 228.821C1053.15 229.256 1052.75 229.685 1052.34 230.102C1049.45 233.01 1046.02 235.389 1042.2 237.079C1041.66 237.319 1041.12 237.54 1040.56 237.754C1036.84 239.174 1032.79 239.956 1028.56 239.956C1028.52 239.956 1028.47 239.956 1028.42 239.956C1027.83 239.956 1027.23 239.937 1026.65 239.899C1022.38 239.66 1018.33 238.625 1014.64 236.947C1014.1 236.701 1013.58 236.442 1013.05 236.171C1009.37 234.259 1006.1 231.685 1003.4 228.613C1003.02 228.171 1002.65 227.723 1002.28 227.263C999.76 224.07 997.838 220.411 996.656 216.443C996.488 215.888 996.341 215.326 996.206 214.758C995.64 212.374 995.338 209.894 995.338 207.345C995.338 205.755 995.46 204.191 995.685 202.658C995.769 202.077 995.872 201.51 995.987 200.942C996.816 196.866 998.429 193.056 1000.65 189.68C1000.97 189.195 1001.31 188.715 1001.66 188.242C1004.09 184.949 1007.13 182.116 1010.62 179.914C1011.12 179.599 1011.62 179.296 1012.14 179.012C1015.68 177.025 1019.62 175.662 1023.83 175.075C1024.41 174.993 1025 174.924 1025.59 174.873C1026.57 174.785 1027.56 174.741 1028.56 174.741C1031.8 174.741 1034.93 175.201 1037.89 176.053C1038.46 176.217 1039.02 176.394 1039.58 176.589C1043.29 177.876 1046.71 179.794 1049.69 182.211L1052.01 179.883C1045.66 174.652 1037.48 171.492 1028.56 171.492C1008.42 171.492 992.028 187.579 992.028 207.352C992.028 227.124 1008.42 243.212 1028.56 243.212C1044.5 243.212 1058.09 233.13 1063.06 219.124L1059.82 218.417Z" fill="#2F3439"/>
<path d="M1061.24 213.251C1061.04 214.305 1060.79 215.333 1060.5 216.349L1063.74 217.043C1064.05 215.964 1064.32 214.86 1064.52 213.737L1061.24 213.251Z" fill="#2F3439"/>
<path d="M1059.01 194.299C1060.42 197.434 1061.32 200.822 1061.65 204.374L1065 204.626C1064.34 196.109 1060.65 188.412 1054.98 182.583L1052.66 184.911C1054.89 187.22 1056.78 189.851 1058.26 192.715C1058.52 193.239 1058.78 193.762 1059.01 194.299Z" fill="#2F3439"/>
<path d="M1169.27 207.345C1169.27 187.573 1152.88 171.485 1132.74 171.485C1128.74 171.485 1124.9 172.123 1121.3 173.29L1122.52 176.318C1125.2 175.466 1128.03 174.936 1130.97 174.785C1131.55 174.753 1132.14 174.741 1132.74 174.741C1137.02 174.741 1141.12 175.542 1144.87 176.993C1145.43 177.208 1145.97 177.435 1146.51 177.674C1150.31 179.384 1153.74 181.782 1156.61 184.696C1157.02 185.113 1157.42 185.542 1157.81 185.983C1160.5 189.024 1162.64 192.563 1164.04 196.437C1164.24 196.986 1164.42 197.535 1164.59 198.096C1165.48 201.03 1165.95 204.134 1165.95 207.352C1165.95 208.311 1165.91 209.257 1165.83 210.191C1165.77 210.771 1165.71 211.351 1165.63 211.919C1165.04 216.039 1163.66 219.913 1161.65 223.389C1161.35 223.894 1161.05 224.392 1160.73 224.884C1158.49 228.322 1155.6 231.326 1152.25 233.723C1151.77 234.064 1151.28 234.398 1150.78 234.713C1147.36 236.896 1143.5 238.48 1139.36 239.306C1138.78 239.42 1138.2 239.521 1137.61 239.609C1136.02 239.843 1134.39 239.962 1132.73 239.962C1130.15 239.962 1127.64 239.672 1125.23 239.123C1124.66 238.991 1124.08 238.846 1123.52 238.682C1119.48 237.533 1115.76 235.653 1112.5 233.199C1112.03 232.846 1111.57 232.48 1111.12 232.102C1107.99 229.458 1105.35 226.253 1103.39 222.644C1103.11 222.133 1102.85 221.61 1102.6 221.086C1100.88 217.477 1099.82 213.509 1099.57 209.326C1099.53 208.752 1099.51 208.165 1099.51 207.585C1099.51 207.509 1099.51 207.427 1099.51 207.352C1099.51 203.232 1100.29 199.289 1101.72 195.655C1101.93 195.112 1102.16 194.576 1102.4 194.046C1104.12 190.292 1106.53 186.917 1109.48 184.078C1109.91 183.674 1110.34 183.277 1110.78 182.892C1113.16 180.835 1115.83 179.107 1118.73 177.782L1117.51 174.753C1104.94 180.425 1096.19 192.904 1096.19 207.358C1096.19 227.13 1112.58 243.218 1132.72 243.218C1152.86 243.218 1169.27 227.117 1169.27 207.345Z" fill="#2F3439"/>
<path d="M1064.52 213.737L1065.85 213.938C1065.84 213.762 1065.83 213.579 1065.83 213.396C1065.83 212.197 1066.08 211.055 1066.53 210.021L1065.01 209.793L1061.72 209.301L1034.05 205.169C1034.13 205.547 1034.18 205.945 1034.18 206.349C1034.18 207.352 1033.91 208.286 1033.44 209.099L1061.23 213.244L1064.52 213.737Z" fill="#ED992C"/>
<path d="M1076.93 205.011L1074.19 197.138H1077.98V193.163H1069.21L1073.24 204.841C1073.71 204.765 1074.19 204.727 1074.68 204.727C1075.45 204.721 1076.21 204.822 1076.93 205.011Z" fill="#2F3439"/>
<path d="M1095.37 148.54C1095.2 148.307 1094.99 148.092 1094.75 147.909L1072.56 131.159L1051.64 124.187C1048.6 123.178 1045.4 123.784 1043 125.544L1048.45 142.553L1054.01 144.401L1060.42 142.578L1085.74 151.013L1080.12 154.704L1080.02 155.082C1077.17 165.278 1072.71 174.968 1066.8 183.801L1071.71 186.961L1094.61 152.723C1095.16 152.351 1095.61 151.795 1095.81 151.101C1095.85 151.007 1095.86 150.906 1095.88 150.811L1096.79 149.455L1095.37 148.54Z" fill="url(#paint16_linear)"/>
<path d="M1094.75 147.909L1082.25 138.477L1075.41 147.568L1085.74 151.013L1080.12 154.704L1080.02 155.082C1077.17 165.277 1072.71 174.968 1066.8 183.8L1071.71 186.961L1094.61 152.723C1095.16 152.35 1095.61 151.795 1095.81 151.101C1095.85 151.007 1095.86 150.906 1095.88 150.811L1096.79 149.455L1095.37 148.54C1095.2 148.3 1094.99 148.092 1094.75 147.909Z" fill="#DEA095"/>
<path d="M1076.93 205.011C1076.21 204.822 1075.45 204.728 1074.67 204.728C1074.18 204.728 1073.71 204.765 1073.24 204.841C1072.79 204.911 1072.35 205.018 1071.93 205.157L1069 204.936L1065 204.633L1061.65 204.381L1035.26 202.387L1032.25 202.16C1031.81 201.775 1031.31 201.453 1030.76 201.22C1030.06 200.917 1029.29 200.753 1028.48 200.753C1025.33 200.753 1022.77 203.258 1022.77 206.355C1022.77 209.453 1025.33 211.958 1028.48 211.958C1028.76 211.958 1029.04 211.932 1029.31 211.895L1059.82 218.431L1063.08 219.131L1069.64 220.538C1071.07 221.509 1072.81 222.083 1074.68 222.083C1074.93 222.083 1075.18 222.071 1075.42 222.052L1072.57 213.876L1076.41 212.588L1079.26 220.822C1081.81 219.301 1083.51 216.55 1083.51 213.415C1083.51 210.973 1082.48 208.772 1080.83 207.194C1079.86 206.267 1078.67 205.56 1077.35 205.15C1077.21 205.087 1077.07 205.049 1076.93 205.011ZM1063.74 217.043L1060.5 216.349L1032.47 210.349C1032.85 209.983 1033.18 209.567 1033.44 209.106C1033.91 208.292 1034.18 207.358 1034.18 206.355C1034.18 205.951 1034.14 205.56 1034.05 205.175C1034 204.929 1033.92 204.69 1033.84 204.456L1061.78 206.563L1065.09 206.816L1068.62 207.081C1067.74 207.901 1067.02 208.898 1066.53 210.021C1066.08 211.062 1065.84 212.197 1065.84 213.396C1065.84 213.579 1065.85 213.756 1065.86 213.939C1065.95 215.32 1066.36 216.614 1067.03 217.743L1063.74 217.043Z" fill="#373C41"/>
<path d="M1073.97 182.192L1065.99 187.094L1064.53 191.927L1084.84 197.832C1086.68 198.368 1088.62 197.333 1089.17 195.523L1073.97 182.192Z" fill="#BC445C"/>
<path d="M1075.73 186.24L1074.75 187.391L1085.77 196.465L1086.75 195.315L1075.73 186.24Z" fill="white"/>
<path d="M1118.74 177.769L1130.94 207.983C1131.26 208.765 1132.02 209.238 1132.83 209.238C1133.08 209.238 1133.33 209.194 1133.57 209.099C1134.61 208.696 1135.12 207.541 1134.71 206.519L1122.51 176.312L1121.29 173.284L1111.31 148.559C1112.65 147.537 1115.19 145.695 1117.66 143.941L1113.56 141.928C1111.01 143.726 1109.34 144.881 1108.27 145.613C1107.13 146.389 1106.68 147.827 1107.17 149.101L1109.33 154.445L1061.71 171.41L1055.91 154.59L1052.35 156.66L1058.21 173.662L1052.02 179.876L1049.7 182.204L1030.76 201.22C1031.31 201.453 1031.81 201.775 1032.25 202.16L1035.26 202.387L1052.66 184.917L1054.98 182.589L1059.67 177.883L1069 204.935L1071.93 205.156C1072.36 205.017 1072.79 204.917 1073.24 204.841L1069.21 193.163L1063.01 175.183L1107.07 159.492L1077.35 205.137C1078.67 205.547 1079.86 206.26 1080.83 207.181L1111.56 159.972L1117.52 174.747L1118.74 177.769Z" fill="#ED992C"/>
<path d="M1076.41 212.575L1072.57 213.856L1075.42 222.032L1076.81 226.045H1073.01V230.019H1085.9V226.045H1081.09L1079.27 220.802L1076.41 212.575Z" fill="#2F3439"/>
<path d="M1065.22 149.19C1067.87 147.65 1066.76 143.657 1063.67 143.657H1043.47C1041.8 143.657 1040.44 144.988 1040.44 146.628V158.35C1040.44 160.653 1042.99 162.085 1045.01 160.912L1052.35 156.653L1055.91 154.584L1065.22 149.19Z" fill="#2F3439"/>
<path d="M1121.78 145.966L1123.63 142.433L1108.17 134.843L1106.32 138.376L1113.56 141.935L1117.66 143.947L1121.78 145.966Z" fill="#2F3439"/>
<path d="M1061.52 140.116C1061.51 140.097 1061.51 140.078 1061.5 140.053C1061.51 140.072 1061.51 140.097 1061.52 140.116Z" fill="#373C41"/>
<path d="M1061.53 140.155C1061.53 140.143 1061.53 140.13 1061.52 140.117C1061.53 140.13 1061.53 140.143 1061.53 140.155Z" fill="#373C41"/>
<path d="M1061.53 140.155C1061.55 140.205 1061.56 140.224 1061.53 140.155V140.155Z" fill="#373C41"/>
<path d="M1061.5 140.053C1061.49 140.028 1061.48 140.003 1061.48 139.984C1061.49 140.009 1061.49 140.034 1061.5 140.053Z" fill="#373C41"/>
<path d="M1061.48 139.984C1061.48 139.978 1061.48 139.972 1061.48 139.972C1061.48 139.972 1061.48 139.978 1061.48 139.984Z" fill="#373C41"/>
<path d="M1044.34 134.395C1045.97 136.597 1045.24 134.894 1045.04 135.272C1049.95 136.849 1052.92 138.01 1056.75 133.241C1062.94 125.525 1062.43 121.758 1071.71 115.935C1072.88 115.759 1073.99 115.803 1075.18 115.727C1079.12 113.014 1084.06 111.355 1088.15 109.128C1092.84 106.573 1093.11 104.466 1091.69 99.7465C1090.94 97.2671 1089.53 94.4722 1088.19 92.3272C1086.16 89.0907 1084.57 88.1191 1080.72 89.5134C1077.48 90.6869 1073.46 92.8193 1070.32 94.3902C1064.63 97.2355 1060.42 101.254 1057.34 106.712C1057.39 106.617 1057.38 106.636 1057.34 106.712C1051.54 111.267 1048.08 118.919 1043.59 124.061C1040.04 128.137 1042.65 132.124 1044.34 134.395Z" fill="#ED992C"/>
<path d="M1087.11 97.4692C1088.32 99.0906 1090.67 99.4439 1092.32 98.2578L1101.26 91.8164C1102.91 90.624 1101.73 89.4316 1100.52 87.8102L1102.06 86.6998C1100.85 85.0785 1098.5 84.7252 1096.85 85.9112L1087.91 92.3526C1086.25 93.545 1085.89 95.8478 1087.11 97.4692Z" fill="#DEA095"/>
<path d="M1099.62 75.3372C1099.77 75.3246 1099.93 75.3183 1100.09 75.312C1100.18 75.312 1100.27 75.312 1100.36 75.312C1100.42 75.312 1100.49 75.312 1100.56 75.312C1100.68 75.312 1100.8 75.3183 1100.92 75.3246C1100.96 75.3246 1100.99 75.3246 1101.02 75.3309C1101.16 75.3372 1101.3 75.3499 1101.44 75.3688C1101.46 75.3688 1101.46 75.3688 1101.48 75.3688C1102.07 75.4382 1102.66 75.5581 1103.22 75.7284C1105.15 76.3214 1106.8 77.5138 1107.93 79.0911C1107.93 79.0911 1109 88.9645 1109.53 94.0054C1109.72 95.8286 1108.37 97.4816 1106.51 97.6393C1106.5 97.6393 1106.49 97.6393 1106.48 97.6393C1101.22 98.0683 1096.49 95.1662 1094.62 90.7878C1094.5 90.6995 1094.39 90.6048 1094.28 90.5102C1094.17 90.4156 1094.06 90.3209 1093.95 90.22L1093.94 90.2137C1093.84 90.1191 1093.74 90.0181 1093.64 89.9172C1093.64 89.9109 1093.64 89.9109 1093.63 89.9046C1093.53 89.8036 1093.44 89.7027 1093.35 89.6017C1093.34 89.5954 1093.33 89.5891 1093.33 89.5828C1093.24 89.4819 1093.15 89.3809 1093.07 89.2737C1093.06 89.261 1093.05 89.2547 1093.04 89.2421C1092.96 89.1412 1092.88 89.0339 1092.81 88.933C1092.8 88.9204 1092.79 88.9077 1092.78 88.8888C1092.71 88.7879 1092.64 88.6806 1092.57 88.5797C1092.56 88.5608 1092.54 88.5418 1092.53 88.5229C1092.47 88.422 1092.4 88.321 1092.34 88.2138C1092.33 88.1885 1092.32 88.1633 1092.3 88.1444C1092.25 88.0434 1092.2 87.9425 1092.14 87.8415C1092.13 87.81 1092.11 87.7848 1092.1 87.7532C1092.05 87.6523 1092 87.5576 1091.96 87.4567C1091.95 87.4251 1091.93 87.3873 1091.91 87.3558C1091.87 87.2611 1091.83 87.1602 1091.79 87.0592C1091.78 87.0214 1091.76 86.9835 1091.75 86.9457C1091.71 86.851 1091.68 86.7501 1091.64 86.6555C1091.63 86.6113 1091.61 86.5671 1091.6 86.523C1091.57 86.4283 1091.54 86.3337 1091.51 86.2328C1091.5 86.1886 1091.49 86.1381 1091.48 86.094C1091.45 85.9993 1091.43 85.8984 1091.41 85.8038C1091.4 85.7533 1091.39 85.7028 1091.38 85.6587C1091.36 85.5577 1091.34 85.4505 1091.33 85.3495C1091.32 85.3054 1091.32 85.2612 1091.31 85.217C1091.29 85.0656 1091.27 84.9142 1091.26 84.7628C1090.85 79.9617 1094.59 75.7473 1099.62 75.3372Z" fill="#EEB5AC"/>
<path d="M1089.91 74.0819C1090.67 72.9842 1091.65 72.1325 1092.76 71.4952C1096.41 69.4007 1101.5 69.653 1105.23 71.3375C1110.27 73.6214 1113.31 78.5423 1113.31 78.5423L1105.56 79.3625L1102.11 83.5642C1101.79 82.3024 1100.57 81.4381 1099.22 81.5769C1097.75 81.7346 1096.69 83.028 1096.84 84.4727C1096.99 85.7976 1098.11 86.7818 1099.43 86.8133L1096.06 90.9267C1096.06 90.9267 1090.09 84.9017 1090.05 84.8386C1088.03 81.5706 1087.63 77.3436 1089.91 74.0819Z" fill="#623C34"/>
<path d="M1117.84 144.445L1116.65 140.66C1116.72 140.496 1116.78 140.326 1116.82 140.155C1117.01 139.48 1116.98 138.748 1116.76 138.054C1116.71 137.878 1116.64 137.714 1116.56 137.543C1116.52 137.461 1116.47 137.379 1116.42 137.297C1116.38 137.215 1116.33 137.14 1116.28 137.058C1116.22 136.982 1116.16 136.906 1116.1 136.837L1116.01 136.73L1115.99 136.704L1115.97 136.692L1115.97 136.685L1115.95 136.66C1115.9 136.603 1115.86 136.54 1115.81 136.477C1115.63 136.231 1115.48 135.954 1115.33 135.67C1115.26 135.525 1115.19 135.379 1115.12 135.222C1115.09 135.146 1115.06 135.07 1115.02 134.988L1114.92 134.73L1114.46 133.6L1114.41 133.619L1114.41 133.594L1113.57 133.752L1098.33 112.238C1098.31 112.213 1098.29 112.194 1098.26 112.175L1085.07 90.4788C1083.75 88.2959 1080.81 87.6776 1078.69 89.1287C1075.62 91.2233 1074.87 95.3682 1077 98.3839L1077.77 99.4627C1079.1 101.336 1081.13 102.617 1083.42 103.021L1093.63 117.431C1093.78 117.632 1093.94 117.815 1094.12 117.973L1097.7 126.623L1107.89 136.471L1108.26 140.843C1108.53 143.985 1111.06 146.483 1114.26 146.761L1115.83 146.893C1117.2 147 1118.25 145.726 1117.84 144.445Z" fill="#EEB5AC"/>
<path d="M1044.27 141.051L1049.6 145.007L1061.02 177.447L1057.63 188.961L1057.8 189.314C1062.32 198.91 1065.27 209.137 1066.56 219.635L1072.38 218.947L1067.36 177.901C1067.36 177.895 1067.36 177.895 1067.36 177.889L1067.74 150.407L1060.91 129.783C1060.74 129.259 1060.52 128.767 1060.27 128.3C1061.53 126.326 1062.5 124.61 1063.74 122.951L1048.45 117.437C1046.85 119.802 1045.3 122.118 1043.6 124.067L1041.33 127.058C1040.49 130.143 1040.24 133.594 1041.14 136.66L1044.27 141.051Z" fill="#373C41"/>
<path d="M1057.8 189.308C1062.32 198.904 1065.27 209.131 1066.56 219.629L1072.38 218.941L1067.36 177.896C1067.36 177.889 1067.36 177.889 1067.36 177.883L1067.67 155.474L1055 160.344L1061.01 177.441L1057.63 188.955L1057.8 189.308Z" fill="#EEB5AC"/>
<path d="M1071.18 214.014L1064.75 220.764L1064.61 225.805L1085.78 226.379C1087.7 226.43 1089.31 224.941 1089.36 223.054L1071.18 214.014Z" fill="#DB4F69"/>
<path d="M1073.95 217.488L1073.3 218.848L1086.33 224.831L1086.98 223.471L1073.95 217.488Z" fill="white"/>
</g>
</g>
<defs>
<linearGradient id="paint0_linear" x1="719.999" y1="415.218" x2="719.999" y2="-44.5503" gradientUnits="userSpaceOnUse">
<stop stop-color="#F9F9F9"/>
<stop offset="1" stop-color="#69D9EE"/>
</linearGradient>
<linearGradient id="paint1_linear" x1="1186.52" y1="115.578" x2="1266.8" y2="115.578" gradientUnits="userSpaceOnUse">
<stop offset="0.2539" stop-color="#ED8FDB"/>
<stop offset="1" stop-color="#DB4F69"/>
</linearGradient>
<linearGradient id="paint2_linear" x1="1185" y1="60.6081" x2="1306.95" y2="60.6081" gradientUnits="userSpaceOnUse">
<stop offset="0.2539" stop-color="#ED8FDB"/>
<stop offset="1" stop-color="#DB4F69"/>
</linearGradient>
<linearGradient id="paint3_linear" x1="1312.91" y1="72.8151" x2="1312" y2="179.018" gradientUnits="userSpaceOnUse">
<stop offset="0.4324" stop-color="#469C80"/>
<stop offset="1" stop-color="#51B593"/>
</linearGradient>
<linearGradient id="paint4_linear" x1="1324.7" y1="6.82002" x2="1324.7" y2="119.24" gradientUnits="userSpaceOnUse">
<stop offset="0.4324" stop-color="#469C80"/>
<stop offset="1" stop-color="#51B593"/>
</linearGradient>
<linearGradient id="paint5_linear" x1="1337.64" y1="-10.356" x2="1337.64" y2="54.0685" gradientUnits="userSpaceOnUse">
<stop offset="0.4324" stop-color="#469C80"/>
<stop offset="1" stop-color="#51B593"/>
</linearGradient>
<linearGradient id="paint6_linear" x1="748.445" y1="42.5355" x2="603.675" y2="42.5355" gradientUnits="userSpaceOnUse">
<stop offset="0.2539" stop-color="#ED8FDB"/>
<stop offset="1" stop-color="#DB4F69"/>
</linearGradient>
<linearGradient id="paint7_linear" x1="665.518" y1="115.578" x2="745.8" y2="115.578" gradientUnits="userSpaceOnUse">
<stop offset="0.2539" stop-color="#ED8FDB"/>
<stop offset="1" stop-color="#DB4F69"/>
</linearGradient>
<linearGradient id="paint8_linear" x1="663.998" y1="60.6081" x2="785.944" y2="60.6081" gradientUnits="userSpaceOnUse">
<stop offset="0.2539" stop-color="#ED8FDB"/>
<stop offset="1" stop-color="#DB4F69"/>
</linearGradient>
<linearGradient id="paint9_linear" x1="487.905" y1="72.8151" x2="487" y2="179.018" gradientUnits="userSpaceOnUse">
<stop offset="0.4324" stop-color="#469C80"/>
<stop offset="1" stop-color="#51B593"/>
</linearGradient>
<linearGradient id="paint10_linear" x1="499.699" y1="6.82002" x2="499.699" y2="119.24" gradientUnits="userSpaceOnUse">
<stop offset="0.4324" stop-color="#469C80"/>
<stop offset="1" stop-color="#51B593"/>
</linearGradient>
<linearGradient id="paint11_linear" x1="512.64" y1="-10.356" x2="512.64" y2="54.0685" gradientUnits="userSpaceOnUse">
<stop offset="0.4324" stop-color="#469C80"/>
<stop offset="1" stop-color="#51B593"/>
</linearGradient>
<linearGradient id="paint12_linear" x1="124.406" y1="42.5355" x2="-20.3643" y2="42.5355" gradientUnits="userSpaceOnUse">
<stop offset="0.2539" stop-color="#ED8FDB"/>
<stop offset="1" stop-color="#DB4F69"/>
</linearGradient>
<linearGradient id="paint13_linear" x1="737.504" y1="223.04" x2="737.504" y2="200.803" gradientUnits="userSpaceOnUse">
<stop stop-color="#61BE6A"/>
<stop offset="1" stop-color="#A4E603"/>
</linearGradient>
<linearGradient id="paint14_linear" x1="704.806" y1="219.364" x2="704.806" y2="303" gradientUnits="userSpaceOnUse">
<stop stop-color="#CB7BBF"/>
<stop offset="1" stop-color="#F7F7F7"/>
</linearGradient>
<linearGradient id="paint15_linear" x1="919.025" y1="159.954" x2="880.716" y2="171.901" gradientUnits="userSpaceOnUse">
<stop offset="0.1122" stop-color="#373C41"/>
<stop offset="1"/>
</linearGradient>
<linearGradient id="paint16_linear" x1="1099.42" y1="168.692" x2="1049.02" y2="150.229" gradientUnits="userSpaceOnUse">
<stop offset="0.1122" stop-color="#373C41"/>
<stop offset="1"/>
</linearGradient>
<clipPath id="clip0">
<rect width="1440" height="303" fill="white"/>
</clipPath>
<clipPath id="clip1">
<rect width="1533" height="115" fill="white" transform="matrix(1 0 0 -1 -29 303)"/>
</clipPath>
<clipPath id="clip2">
<rect width="177" height="183" fill="white" transform="translate(794 78)"/>
</clipPath>
<clipPath id="clip3">
<rect width="180" height="180" fill="white" transform="translate(991 70)"/>
</clipPath>
</defs>
</svg>
