<svg width="117" height="142" viewBox="0 0 117 142" fill="none" xmlns="http://www.w3.org/2000/svg">
<path d="M35.3688 99.7748L61.7637 46.5793C68.7119 32.576 85.8351 26.8153 99.8109 33.7771L78.0234 22.9274C64.0476 15.9656 46.9244 21.7263 39.9763 35.7296L13.5813 88.9251C6.63317 102.928 12.3826 120.085 26.3584 127.047L48.1458 137.897C34.17 130.935 28.4206 113.784 35.3688 99.7748Z" fill="#8DC603"/>
<path d="M29.7332 86.2779L27.1653 84.8833L28.4606 82.4925L31.0285 83.8871L29.7332 86.2779ZM33.1931 79.891L30.6251 78.4964L31.9205 76.1056L34.4884 77.5002L33.1931 79.891ZM36.6472 73.5099L34.0793 72.1152L35.3746 69.7244L37.9426 71.1191L36.6472 73.5099ZM40.1014 67.1287L37.5335 65.7341L38.8288 63.3375L41.3967 64.7322L40.1014 67.1287ZM43.5613 60.7418L40.9934 59.3472L42.2887 56.9564L44.8566 58.351L43.5613 60.7418ZM47.0155 54.3606L44.4476 52.966L45.7429 50.5752L48.3108 51.9698L47.0155 54.3606Z" fill="#373C41"/>
<path d="M101.271 34.5059L76.2851 22.0566C75.6147 21.7208 74.9387 21.4191 74.2513 21.1401C86.7954 28.6712 91.6926 44.8604 85.074 58.1919L58.679 111.387C52.0661 124.719 36.2268 130.582 22.6658 125.106C23.2964 125.487 23.9497 125.846 24.6201 126.176L49.6061 138.625C63.5819 145.587 80.7051 139.827 87.6533 125.823L114.048 72.6278C120.996 58.6246 115.247 41.4677 101.271 34.5059Z" fill="#A4E603"/>
<path d="M67.3825 129.193C59.2867 125.043 56.0825 115.105 60.2241 106.987L83.8807 60.6511C88.0224 52.5394 97.9418 49.3289 106.043 53.4787C114.139 57.6284 117.343 67.5674 113.202 75.6847L89.5449 122.021C85.4033 130.132 75.4782 133.343 67.3825 129.193Z" fill="url(#paint0_linear)"/>
<path d="M97.2828 62.4954L92.6526 71.5634L90.9709 70.7038L94.8796 63.0476L92.9651 62.0685L93.6866 60.6567L97.2828 62.4954Z" fill="white"/>
<path d="M105.18 76.1797L104.452 77.6028L97.7827 74.1817L98.3565 73.0546L103.697 71.4778C104.299 71.2957 104.748 71.0964 105.038 70.8801C105.327 70.6638 105.543 70.4133 105.691 70.1287C105.907 69.7075 105.93 69.309 105.759 68.939C105.589 68.569 105.231 68.2445 104.68 67.9599C103.759 67.4874 102.89 67.4419 102.078 67.8176L101.362 66.3091C101.958 66.0131 102.623 65.8879 103.356 65.9334C104.089 65.979 104.827 66.1896 105.566 66.571C106.549 67.0719 107.214 67.7095 107.56 68.4779C107.907 69.2464 107.878 70.0319 107.469 70.8346C107.219 71.3241 106.878 71.734 106.452 72.0641C106.026 72.3886 105.379 72.6789 104.509 72.9294L100.913 73.9939L105.18 76.1797Z" fill="white"/>
<path d="M86.8918 85.9595C87.2498 86.7678 87.21 87.6046 86.7725 88.4584C86.4942 89.0049 86.1078 89.4262 85.6192 89.7279C85.125 90.0295 84.5455 90.1775 83.8808 90.1605C83.2161 90.1434 82.4889 89.9385 81.7049 89.5343C81.0572 89.2042 80.4834 88.7886 79.9721 88.2934C79.4608 87.7981 79.0858 87.2801 78.8416 86.7393L80.2221 85.7944C80.4153 86.2441 80.7107 86.6653 81.097 87.0695C81.4833 87.468 81.9265 87.7981 82.4264 88.0543C83.0229 88.3617 83.5513 88.4755 84.0171 88.4015C84.483 88.3275 84.8239 88.0771 85.0454 87.6444C85.2841 87.1777 85.2784 86.7337 85.0341 86.3067C84.7898 85.8798 84.2217 85.4415 83.3354 84.9861L81.1481 83.8647L84.1308 79.1685L89.4427 81.8894L88.7212 83.3011L84.8296 81.3088L83.5626 83.3068L84.4262 83.7508C85.7158 84.4168 86.5339 85.1455 86.8918 85.9595Z" fill="white"/>
<path d="M98.419 87.8035C98.7088 88.9306 98.4815 90.2228 97.7429 91.6743C97.2203 92.6933 96.5953 93.4674 95.8568 93.9968C95.1182 94.5262 94.3172 94.8108 93.4593 94.845C92.6014 94.8791 91.7322 94.6685 90.8516 94.2188C90.3858 93.9797 89.9767 93.7065 89.6131 93.3991C89.2552 93.0917 88.9711 92.7616 88.7666 92.42L90.0335 91.4694C90.3289 91.9931 90.8289 92.4314 91.5277 92.79C92.3969 93.234 93.215 93.3194 93.982 93.0348C94.7489 92.7502 95.3852 92.1069 95.9022 91.0937L95.9079 91.0823C95.4818 91.2588 95.0216 91.3157 94.5274 91.2645C94.0331 91.2132 93.5275 91.0539 93.0105 90.7863C92.414 90.4789 91.9424 90.0918 91.5845 89.6194C91.2266 89.1469 91.0221 88.6346 90.9709 88.071C90.9198 87.5132 91.0334 86.9553 91.3175 86.4032C91.6186 85.8169 92.0276 85.3728 92.5446 85.0825C93.0673 84.7865 93.6354 84.6499 94.2604 84.6613C94.8853 84.6784 95.5045 84.8435 96.1238 85.1622C97.3623 85.7941 98.1293 86.6764 98.419 87.8035ZM95.5557 89.8641C96.0443 89.7446 96.4079 89.46 96.6351 89.0103C96.8624 88.572 96.8794 88.1223 96.6976 87.6612C96.5158 87.2001 96.1295 86.8244 95.5443 86.5227C95.016 86.2552 94.5217 86.1755 94.0501 86.2893C93.5786 86.4032 93.2264 86.6935 92.9878 87.1603C92.7435 87.6327 92.7151 88.0938 92.9025 88.5378C93.09 88.9818 93.4593 89.3461 94.0104 89.6308C94.5501 89.904 95.0614 89.9837 95.5557 89.8641Z" fill="white"/>
<path d="M95.8058 78.2233C96.1126 78.1208 96.425 78.1493 96.7318 78.3087C97.05 78.4738 97.2602 78.7072 97.3511 79.0089C97.442 79.3106 97.4136 79.618 97.2602 79.9196C97.1068 80.2213 96.8795 80.4206 96.5784 80.523C96.2773 80.6255 95.9648 80.5913 95.6467 80.432C95.3342 80.2726 95.1354 80.0392 95.0388 79.7261C94.9422 79.413 94.9706 79.1113 95.1183 78.821C95.2661 78.525 95.499 78.3258 95.8058 78.2233ZM90.8801 75.6959C91.1869 75.5934 91.4994 75.6219 91.8062 75.7813C92.1243 75.9463 92.3345 76.1797 92.4254 76.4814C92.522 76.7831 92.4879 77.0905 92.3345 77.3922C92.1811 77.6939 91.9539 77.8988 91.6528 77.9956C91.3517 78.0981 91.0392 78.0639 90.7211 77.9045C90.4086 77.7451 90.2098 77.5118 90.1132 77.1987C90.0166 76.8856 90.045 76.5839 90.1927 76.2936C90.3404 75.9976 90.5734 75.7983 90.8801 75.6959Z" fill="white"/>
<path d="M10.6238 88.3142L9 91.5864L36.668 105.37L38.2918 102.098L10.6238 88.3142Z" fill="#373C41"/>
<path d="M69.0073 101.272C67.2632 103.953 65.4963 106.668 64.4851 109.708C63.4738 112.742 63.275 116.186 64.6498 119.072" stroke="white" stroke-width="4" stroke-miterlimit="10"/>
<path d="M104.867 55.5791C106.412 58.0041 107.958 60.4233 109.509 62.8483" stroke="white" stroke-width="4" stroke-miterlimit="10"/>
<path d="M27.2866 21.8894C28.9627 27.6426 35.5445 30.4469 41.9914 28.1546L49.5176 53.9886C50.3549 56.8625 53.6458 58.2646 56.8663 57.1195C60.0868 55.9744 62.0196 52.715 61.1824 49.841L53.6546 24.0017L48.7538 7.17985C48.1101 4.97033 45.5787 3.89177 43.1027 4.77213L35.9231 7.32495C29.4762 9.61724 25.6105 16.1362 27.2866 21.8894Z" fill="#373C41"/>
<path d="M51.126 27.6399L47.4504 28.9297L51.1522 41.4548L54.8278 40.165L51.126 27.6399Z" fill="#A4E603"/>
<path d="M33.9559 42.9547C37.01 48.0439 34.7114 55.0165 28.8157 58.5229L42.5479 81.3848C44.0758 83.932 42.9227 87.4167 39.9778 89.1688C37.027 90.9231 33.3988 90.2804 31.8724 87.7384L18.1343 64.8787L9.193 49.9914C8.01855 48.033 8.90446 45.3524 11.1731 44.0038L17.7451 40.0939C23.6408 36.5876 30.8958 37.8676 33.9559 42.9547Z" fill="#373C41"/>
<path d="M28.6405 76.5543L31.8977 74.5469L25.3666 63.2589L22.1095 65.2664L28.6405 76.5543Z" fill="#A4E603"/>
<path d="M38.1958 9.32852C36.3324 10.2799 34.849 11.9525 34.1873 13.8374" stroke="white" stroke-width="4" stroke-miterlimit="10"/>
<path d="M14.5143 44.1612C12.4929 47.2257 13.009 51.399 15.6828 53.5589" stroke="white" stroke-width="4" stroke-miterlimit="10"/>
<defs>
<linearGradient id="paint0_linear" x1="72.0517" y1="83.818" x2="101.398" y2="98.7993" gradientUnits="userSpaceOnUse">
<stop stop-color="#373C41"/>
<stop offset="1"/>
</linearGradient>
</defs>
</svg>
