<svg width="295" height="142" viewBox="0 0 295 142" fill="none" xmlns="http://www.w3.org/2000/svg">
<path d="M191.994 49.1576C191.95 49.1638 191.907 49.17 191.864 49.1762C191.907 49.1762 191.95 49.1638 191.994 49.1576Z" fill="black"/>
<path d="M193.881 48.947C193.789 48.9532 193.702 48.9594 193.609 48.9718C193.702 48.9656 193.789 48.9594 193.881 48.947Z" fill="black"/>
<path d="M192.978 49.0399C192.922 49.0461 192.866 49.0523 192.811 49.0585C192.86 49.0523 192.916 49.0461 192.978 49.0399Z" fill="black"/>
<path d="M191.201 49.2815C191.121 49.2939 191.04 49.3063 190.96 49.3248C191.04 49.3063 191.121 49.2939 191.201 49.2815Z" fill="black"/>
<path d="M194.723 48.885C194.624 48.8912 194.525 48.8974 194.432 48.9036C194.525 48.8974 194.624 48.8912 194.723 48.885Z" fill="black"/>
<path d="M190.409 49.4177C190.322 49.4363 190.236 49.4487 190.143 49.4673C190.236 49.4549 190.322 49.4363 190.409 49.4177Z" fill="black"/>
<path d="M188.775 49.7645C188.713 49.7769 188.651 49.7893 188.596 49.8079C188.657 49.7893 188.713 49.7769 188.775 49.7645Z" fill="black"/>
<path d="M189.611 49.5787C189.53 49.5973 189.444 49.6159 189.363 49.6344C189.444 49.6097 189.53 49.5973 189.611 49.5787Z" fill="black"/>
<path d="M200.925 49.0027C200.832 48.9965 200.745 48.9841 200.653 48.9779C200.745 48.9841 200.838 48.9903 200.925 49.0027Z" fill="black"/>
<path d="M195.552 48.8417C195.46 48.8479 195.361 48.8479 195.268 48.854C195.367 48.8479 195.46 48.8479 195.552 48.8417Z" fill="black"/>
<path d="M200.071 48.9222C199.966 48.916 199.86 48.9098 199.755 48.8975C199.86 48.9098 199.966 48.916 200.071 48.9222Z" fill="black"/>
<path d="M155.389 41.8363C125.766 38.2191 102.865 26.1533 104.233 14.8866L101.058 40.9382C100.532 45.274 103.602 49.7336 109.265 53.7782C112.181 55.8594 116.08 55.8965 119.051 53.8959L128.255 47.7082L134.227 56.7513C138.275 62.8771 144.774 66.9713 152.053 67.8694C152.103 67.8756 152.152 67.8818 152.202 67.888C152.561 67.9313 152.926 67.9747 153.285 68.0181C160.768 68.8728 168.047 65.621 172.621 59.6315C176.087 55.0913 181.459 51.6909 187.816 49.9937L187.853 49.715C200.906 47.5162 209.72 42.6849 210.519 36.1379L211.515 27.9743C210.141 39.2535 185.012 45.4536 155.389 41.8363Z" fill="url(#paint0_linear)"/>
<path d="M199.21 48.8665C199.105 48.8603 199 48.8541 198.895 48.8479C199.006 48.8541 199.111 48.8603 199.21 48.8665Z" fill="black"/>
<path d="M196.382 48.8169C196.308 48.8169 196.239 48.8231 196.165 48.8231C196.239 48.8169 196.308 48.8169 196.382 48.8169Z" fill="black"/>
<path d="M198.338 48.8293C198.245 48.8293 198.152 48.8231 198.053 48.8231C198.146 48.8231 198.239 48.8293 198.338 48.8293Z" fill="black"/>
<path d="M143.772 4.39418C148.884 4.41276 154.275 4.74724 159.827 5.42237C187.5 8.79806 209.305 19.5507 210.939 30.1423C211.23 29.4424 211.428 28.7239 211.515 27.9806C212.889 16.7139 189.988 4.64193 160.359 1.03088C130.737 -2.58637 105.607 3.61994 104.233 14.8867C104.029 16.5652 104.363 18.2562 105.18 19.9409C109.47 14.7752 119.725 11.2632 133.014 10.1298C137.235 9.7705 141.116 7.69554 143.772 4.39418Z" fill="#8CC63F"/>
<path d="M210.525 36.1442L211.521 27.9806C210.451 36.7822 194.89 42.4929 174.019 42.8522L181.051 48.1542L175.808 56.2558C179.045 53.4004 183.174 51.245 187.828 50L187.865 49.7212C200.913 47.5224 209.726 42.6911 210.525 36.1442Z" fill="#A4E603"/>
<path d="M104.438 36.1257C106.561 34.125 108.77 32.2173 111.06 30.4087" stroke="white" stroke-width="4" stroke-miterlimit="10"/>
<path d="M142.453 43.0504C139.55 44.9829 136.79 47.126 134.203 49.4673" stroke="white" stroke-width="4" stroke-miterlimit="10"/>
<path d="M150.072 44.1653C146.185 46.6986 142.305 49.2381 138.418 51.7714" stroke="white" stroke-width="4" stroke-miterlimit="10"/>
<path d="M100.507 104.508L7.9189 126.515L1.29619 98.6242C-4.76947 73.0433 11.0322 47.3757 36.6008 41.2994C62.1694 35.2232 87.8185 51.0363 93.8904 76.6234L100.507 104.508Z" fill="#373C41"/>
<path d="M100.482 104.397C101.98 110.696 82.4646 120.73 56.896 126.813C31.3274 132.895 9.39197 132.709 7.89412 126.41C6.39627 120.111 25.9116 110.077 51.4802 103.994C77.0489 97.9119 98.9843 98.0915 100.482 104.397Z" fill="url(#paint1_linear)"/>
<path d="M9.16919 104.688C30.9561 87.6176 59.3533 79.2249 86.9149 81.7148" stroke="#2F3439" stroke-width="9" stroke-miterlimit="10"/>
<path d="M19.4003 102.502C19.7036 104.905 20.2359 107.283 20.991 109.587" stroke="#2F3439" stroke-width="9" stroke-miterlimit="10"/>
<path d="M32.5281 96.5864C32.9366 99.1693 33.7103 101.696 34.8182 104.069" stroke="#2F3439" stroke-width="9" stroke-miterlimit="10"/>
<path d="M46.7825 92.2631C47.0919 94.6044 47.6366 96.9147 48.4041 99.1507" stroke="#2F3439" stroke-width="9" stroke-miterlimit="10"/>
<path d="M66.2607 88.7511C66.8796 91.1667 67.6843 93.539 68.6622 95.8307" stroke="#2F3439" stroke-width="9" stroke-miterlimit="10"/>
<path d="M84.2039 88.2184C84.7857 89.8845 85.3675 91.5507 85.9493 93.2107" stroke="#2F3439" stroke-width="9" stroke-miterlimit="10"/>
<path d="M233.131 104.175L220.733 81.7904L227.182 77.0397C227.151 76.2778 227.102 75.516 227.102 74.7541C227.09 73.9055 227.077 73.057 227.108 72.2146L227.139 70.9448L227.207 69.6813C227.405 66.3118 227.857 62.9795 228.575 59.7215C229.287 56.4635 230.24 53.2798 231.422 50.2014C231.719 49.4333 232.041 48.6715 232.351 47.9158L232.858 46.7947C233.025 46.4231 233.199 46.0329 233.36 45.7046L235.309 41.6414L244.538 45.1348L243.306 49.4705C243.195 49.8483 243.12 50.158 243.034 50.4925L242.78 51.4835C242.631 52.1525 242.477 52.809 242.347 53.478C241.82 56.1414 241.505 58.8233 241.387 61.4991C241.313 63.1901 241.338 64.881 241.431 66.5534L247.15 62.3415L247.044 62.2424L248.746 60.4399C256.78 51.9419 266.207 45.0852 276.766 40.0558L276.89 40L281.13 48.9193L281.012 48.975C273.486 52.5613 266.603 57.1881 260.482 62.7627L261.243 64.8376C269.45 58.9534 278.611 54.3575 288.229 51.3597L290.104 50.7774L293.038 60.2046L291.163 60.7868C281.674 63.7413 272.681 68.4363 264.777 74.5002L264.889 74.8037C272.062 71.6138 279.595 69.3344 287.35 68.0089L292.995 67.0427L294.654 76.7733L289.009 77.7396C281.928 78.9474 275.058 81.0533 268.522 83.9954C272.799 83.5371 277.119 83.3637 281.414 83.4937L287.746 83.6857L287.449 93.5527L281.117 93.3607C275.745 93.1996 270.323 93.5527 265.019 94.4198L252.949 96.3833L252.906 96.1355L233.131 104.175Z" fill="url(#paint2_linear)"/>
<path d="M196 111.156L202.623 86.4359L210.558 87.5012C211.065 86.9314 211.554 86.3491 212.086 85.8041C212.668 85.1847 213.244 84.5653 213.857 83.9769L214.76 83.085L215.689 82.224C218.171 79.9384 220.807 77.8573 223.586 76.0115C226.359 74.1595 229.256 72.5367 232.245 71.1431C232.994 70.7962 233.749 70.4741 234.505 70.1458L235.65 69.6875C236.027 69.5388 236.423 69.3716 236.764 69.2539L240.985 67.6807L245.194 76.6061L241.301 78.8731C240.96 79.0651 240.694 79.2385 240.397 79.4181L239.524 79.9508C238.955 80.3286 238.385 80.6941 237.828 81.0843C235.6 82.6328 233.508 84.3423 231.571 86.1881C230.339 87.3525 229.188 88.5851 228.092 89.8549L235.136 90.8026L235.13 90.6539L237.605 90.5424C249.285 90.0159 260.822 91.6388 271.907 95.3613L272.037 95.4046L268.893 104.764L268.769 104.72C260.865 102.063 252.708 100.608 244.432 100.36L243.535 102.385C253.525 103.859 263.304 106.925 272.304 111.459L274.061 112.345L269.624 121.165L267.866 120.279C258.99 115.807 249.26 112.927 239.369 111.794L239.24 112.085C246.611 114.779 253.618 118.372 260.117 122.813L264.845 126.046L259.281 134.197L254.552 130.964C248.623 126.913 242.217 123.643 235.476 121.221C238.874 123.866 242.099 126.746 245.095 129.824L249.514 134.364L242.452 141.258L238.033 136.718C234.276 132.865 230.135 129.354 225.722 126.288L215.676 119.307L215.819 119.103L196 111.156Z" fill="#373C41"/>
<path d="M208.707 92.8218C208.484 97.1637 207.085 101.438 204.702 105.073" stroke="#2F3439" stroke-width="9" stroke-miterlimit="10"/>
<defs>
<linearGradient id="paint0_linear" x1="174.085" y1="93.2559" x2="142.216" y2="-9.68532" gradientUnits="userSpaceOnUse">
<stop stop-color="#A4E603"/>
<stop offset="0.0542" stop-color="#8CC503"/>
<stop offset="0.1394" stop-color="#6C9702"/>
<stop offset="0.2303" stop-color="#4F6E01"/>
<stop offset="0.3254" stop-color="#364C01"/>
<stop offset="0.4262" stop-color="#223001"/>
<stop offset="0.5345" stop-color="#131B00"/>
<stop offset="0.654" stop-color="#080C00"/>
<stop offset="0.7934" stop-color="#020300"/>
<stop offset="1"/>
</linearGradient>
<linearGradient id="paint1_linear" x1="59.822" y1="139.145" x2="52.527" y2="108.456" gradientUnits="userSpaceOnUse">
<stop stop-color="#373C41"/>
<stop offset="1"/>
</linearGradient>
<linearGradient id="paint2_linear" x1="272.835" y1="38.3993" x2="245.191" y2="108.905" gradientUnits="userSpaceOnUse">
<stop stop-color="#373C41"/>
<stop offset="1"/>
</linearGradient>
</defs>
</svg>
