<svg width="198" height="122" viewBox="0 0 198 122" fill="none" xmlns="http://www.w3.org/2000/svg">
<path d="M116.369 79.8036L142.764 26.6081C149.712 12.6049 166.835 6.84415 180.811 13.8059L159.024 2.95625C145.048 -4.00555 127.925 1.75515 120.976 15.7584L94.5814 68.9539C87.6333 82.9572 93.3827 100.114 107.358 107.076L129.146 117.926C115.17 110.964 109.421 93.8125 116.369 79.8036Z" fill="#8DC603"/>
<path d="M110.733 66.3068L108.165 64.9122L109.461 62.5214L112.028 63.916L110.733 66.3068ZM114.193 59.92L111.625 58.5253L112.92 56.1345L115.488 57.5292L114.193 59.92ZM117.647 53.5388L115.079 52.1442L116.375 49.7533L118.942 51.148L117.647 53.5388ZM121.101 47.1576L118.533 45.763L119.829 43.3665L122.397 44.7611L121.101 47.1576ZM124.561 40.7707L121.993 39.3761L123.289 36.9853L125.857 38.3799L124.561 40.7707ZM128.015 34.3896L125.447 32.9949L126.743 30.6041L129.311 31.9988L128.015 34.3896Z" fill="#373C41"/>
<path d="M182.271 14.5346L157.285 2.08529C156.615 1.74944 155.939 1.44775 155.251 1.16882C167.795 8.69986 172.693 24.889 166.074 38.2206L139.679 91.4161C133.066 104.748 117.227 110.611 103.666 105.135C104.296 105.516 104.95 105.875 105.62 106.205L130.606 118.654C144.582 125.616 161.705 119.855 168.653 105.852L195.048 52.6565C201.996 38.6532 196.247 21.4964 182.271 14.5346Z" fill="#A4E603"/>
<path d="M148.383 109.222C140.287 105.072 137.083 95.1332 141.224 87.0159L164.881 40.6798C169.022 32.5681 178.942 29.3576 187.043 33.5074C195.139 37.6571 198.343 47.5961 194.202 55.7134L170.545 102.049C166.403 110.161 156.478 113.372 148.383 109.222Z" fill="url(#paint0_linear)"/>
<path d="M178.283 42.5241L173.653 51.5921L171.971 50.7325L175.88 43.0762L173.965 42.0971L174.687 40.6854L178.283 42.5241Z" fill="white"/>
<path d="M186.18 56.2087L185.452 57.6318L178.783 54.2106L179.357 53.0835L184.697 51.5068C185.299 51.3246 185.748 51.1254 186.038 50.909C186.327 50.6927 186.543 50.4423 186.691 50.1576C186.907 49.7364 186.93 49.3379 186.759 48.9679C186.589 48.5979 186.231 48.2735 185.68 47.9888C184.759 47.5164 183.89 47.4708 183.078 47.8465L182.362 46.3381C182.958 46.0421 183.623 45.9168 184.356 45.9624C185.089 46.0079 185.827 46.2185 186.566 46.5999C187.549 47.1008 188.214 47.7384 188.56 48.5069C188.907 49.2753 188.878 50.0609 188.469 50.8635C188.219 51.3531 187.878 51.7629 187.452 52.0931C187.026 52.4175 186.379 52.7078 185.509 52.9583L181.913 54.0228L186.18 56.2087Z" fill="white"/>
<path d="M167.892 65.9881C168.25 66.7964 168.21 67.6332 167.773 68.487C167.494 69.0335 167.108 69.4547 166.619 69.7564C166.125 70.0581 165.545 70.2061 164.881 70.189C164.216 70.172 163.489 69.967 162.705 69.5629C162.057 69.2327 161.483 68.8172 160.972 68.3219C160.461 67.8267 160.086 67.3087 159.842 66.7679L161.222 65.823C161.415 66.2727 161.711 66.6939 162.097 67.0981C162.483 67.4965 162.926 67.8267 163.426 68.0829C164.023 68.3902 164.551 68.5041 165.017 68.4301C165.483 68.3561 165.824 68.1056 166.045 67.673C166.284 67.2062 166.278 66.7622 166.034 66.3353C165.79 65.9084 165.222 65.47 164.335 65.0146L162.148 63.8932L165.131 59.197L170.443 61.918L169.721 63.3297L165.83 61.3374L164.563 63.3354L165.426 63.7794C166.716 64.4454 167.534 65.174 167.892 65.9881Z" fill="white"/>
<path d="M179.419 67.8324C179.709 68.9595 179.482 70.2517 178.743 71.7033C178.22 72.7222 177.595 73.4964 176.857 74.0257C176.118 74.5551 175.317 74.8398 174.459 74.8739C173.601 74.9081 172.732 74.6975 171.852 74.2478C171.386 74.0087 170.977 73.7354 170.613 73.428C170.255 73.1207 169.971 72.7905 169.767 72.449L171.034 71.4983C171.329 72.022 171.829 72.4603 172.528 72.819C173.397 73.263 174.215 73.3484 174.982 73.0637C175.749 72.7791 176.385 72.1359 176.902 71.1226L176.908 71.1112C176.482 71.2877 176.022 71.3446 175.527 71.2934C175.033 71.2422 174.528 71.0828 174.011 70.8152C173.414 70.5079 172.942 70.1208 172.585 69.6483C172.227 69.1758 172.022 68.6635 171.971 68.1C171.92 67.5421 172.033 66.9843 172.318 66.4321C172.619 65.8458 173.028 65.4018 173.545 65.1115C174.067 64.8155 174.635 64.6788 175.26 64.6902C175.885 64.7073 176.505 64.8724 177.124 65.1912C178.362 65.823 179.129 66.7053 179.419 67.8324ZM176.556 69.8931C177.044 69.7735 177.408 69.4889 177.635 69.0392C177.862 68.6009 177.879 68.1512 177.698 67.6901C177.516 67.229 177.13 66.8533 176.544 66.5516C176.016 66.2841 175.522 66.2044 175.05 66.3182C174.579 66.4321 174.226 66.7224 173.988 67.1892C173.744 67.6617 173.715 68.1227 173.903 68.5667C174.09 69.0108 174.459 69.3751 175.01 69.6597C175.55 69.9329 176.061 70.0126 176.556 69.8931Z" fill="white"/>
<path d="M176.806 58.2521C177.112 58.1497 177.425 58.1781 177.732 58.3375C178.05 58.5026 178.26 58.736 178.351 59.0377C178.442 59.3394 178.413 59.6468 178.26 59.9485C178.107 60.2502 177.879 60.4494 177.578 60.5519C177.277 60.6543 176.965 60.6202 176.647 60.4608C176.334 60.3014 176.135 60.068 176.039 59.7549C175.942 59.4418 175.971 59.1401 176.118 58.8498C176.266 58.5538 176.499 58.3546 176.806 58.2521ZM171.88 55.7247C172.187 55.6222 172.499 55.6507 172.806 55.8101C173.124 55.9752 173.334 56.2085 173.425 56.5102C173.522 56.8119 173.488 57.1193 173.334 57.421C173.181 57.7227 172.954 57.9277 172.653 58.0244C172.352 58.1269 172.039 58.0927 171.721 57.9333C171.408 57.774 171.21 57.5406 171.113 57.2275C171.016 56.9144 171.045 56.6127 171.193 56.3224C171.34 56.0264 171.573 55.8272 171.88 55.7247Z" fill="white"/>
<path d="M91.6238 68.343L90 71.6152L117.668 85.399L119.292 82.1268L91.6238 68.343Z" fill="#373C41"/>
<path d="M150.007 81.3008C148.263 83.9819 146.496 86.6972 145.485 89.7369C144.474 92.771 144.275 96.2148 145.65 99.1009" stroke="white" stroke-width="4" stroke-miterlimit="10"/>
<path d="M185.867 35.6079C187.413 38.0329 188.958 40.4521 190.509 42.8771" stroke="white" stroke-width="4" stroke-miterlimit="10"/>
<path d="M28.9119 27.1055C30.8065 33.0199 37.1244 36.28 43.0272 34.3892L51.5344 60.9469C52.4808 63.9014 55.6398 65.5315 58.5884 64.5869C61.5371 63.6424 63.161 60.4802 62.2146 57.5257L53.7056 30.9626L48.166 13.6694C47.4384 11.398 45.0085 10.1441 42.7415 10.8703L36.1679 12.976C30.2651 14.8668 27.0174 21.1911 28.9119 27.1055Z" fill="#373C41"/>
<path d="M51.9697 34.0172L48.6802 35.0709L52.768 47.8321L56.0575 46.7783L51.9697 34.0172Z" fill="#A4E603"/>
<path d="M33.4955 49.5525C36.6507 54.8957 34.8918 61.7891 29.5608 64.9433L43.7464 88.9469C45.3249 91.6212 44.4418 95.066 41.779 96.6423C39.1108 98.2202 35.6704 97.3319 34.0937 94.663L19.9026 70.6611L10.666 55.0304C9.45264 52.9744 10.1309 50.3243 12.1823 49.1113L18.1248 45.5939C23.4558 42.4397 30.3348 44.2111 33.4955 49.5525Z" fill="#373C41"/>
<path d="M30.155 82.9316L33.1277 81.1719L26.3121 69.6363L23.3394 71.396L30.155 82.9316Z" fill="#A4E603"/>
<path d="M39.3092 15.7056C37.5039 16.6066 36.1069 18.2795 35.5336 20.2145" stroke="white" stroke-width="4" stroke-miterlimit="10"/>
<path d="M15.5448 50.5388C13.7811 53.5066 14.4387 57.7012 17.0315 59.9849" stroke="white" stroke-width="4" stroke-miterlimit="10"/>
<defs>
<linearGradient id="paint0_linear" x1="153.052" y1="63.8467" x2="182.398" y2="78.828" gradientUnits="userSpaceOnUse">
<stop stop-color="#373C41"/>
<stop offset="1"/>
</linearGradient>
</defs>
</svg>
