<svg width="134" height="186" viewBox="0 0 134 186" fill="none" xmlns="http://www.w3.org/2000/svg">
<path d="M78.3359 108.718C78.2983 108.723 78.2607 108.729 78.2231 108.734C78.2607 108.734 78.2983 108.723 78.3359 108.718Z" fill="black"/>
<path d="M79.96 108.537C79.8801 108.542 79.8055 108.547 79.7256 108.558C79.8055 108.553 79.8801 108.547 79.96 108.537Z" fill="black"/>
<path d="M79.1822 108.617C79.1342 108.622 79.0863 108.627 79.0383 108.633C79.081 108.627 79.1289 108.622 79.1822 108.617Z" fill="black"/>
<path d="M77.6531 108.825C77.5838 108.835 77.5146 108.846 77.4453 108.862C77.5146 108.846 77.5838 108.835 77.6531 108.825Z" fill="black"/>
<path d="M80.6848 108.483C80.5995 108.489 80.5142 108.494 80.4343 108.499C80.5142 108.494 80.5995 108.489 80.6848 108.483Z" fill="black"/>
<path d="M76.9708 108.942C76.8962 108.958 76.8216 108.969 76.7417 108.985C76.8216 108.974 76.8962 108.958 76.9708 108.942Z" fill="black"/>
<path d="M75.5642 109.24C75.5109 109.251 75.4576 109.262 75.4097 109.278C75.463 109.262 75.5109 109.251 75.5642 109.24Z" fill="black"/>
<path d="M76.2837 109.081C76.2144 109.097 76.1398 109.113 76.0706 109.129C76.1398 109.107 76.2144 109.097 76.2837 109.081Z" fill="black"/>
<path d="M86.024 108.584C85.9441 108.579 85.8695 108.568 85.7896 108.563C85.8695 108.568 85.9494 108.574 86.024 108.584Z" fill="black"/>
<path d="M81.3989 108.446C81.319 108.451 81.2337 108.451 81.1538 108.456C81.2391 108.451 81.319 108.451 81.3989 108.446Z" fill="black"/>
<path d="M85.2886 108.515C85.198 108.51 85.1074 108.504 85.0168 108.494C85.1074 108.504 85.198 108.51 85.2886 108.515Z" fill="black"/>
<path d="M46.8228 102.415C21.321 99.301 1.60593 88.9137 2.78351 79.2144L0.050039 101.642C-0.402876 105.374 2.24002 109.214 7.11551 112.696C9.62519 114.487 12.9821 114.519 15.5397 112.797L23.4631 107.47L28.605 115.255C32.0898 120.529 37.6846 124.053 43.9508 124.826C43.9934 124.832 44.0361 124.837 44.0787 124.842C44.3877 124.88 44.7021 124.917 45.0112 124.954C51.4532 125.69 57.7194 122.891 61.6571 117.735C64.641 113.826 69.2661 110.899 74.7383 109.438L74.7703 109.198C86.0079 107.305 93.5956 103.146 94.283 97.5093L95.1408 90.4814C93.9579 100.191 72.3246 105.529 46.8228 102.415Z" fill="url(#paint0_linear)"/>
<path d="M84.5479 108.467C84.4573 108.462 84.3667 108.456 84.2761 108.451C84.372 108.456 84.4626 108.462 84.5479 108.467Z" fill="black"/>
<path d="M82.113 108.424C82.0491 108.424 81.9905 108.43 81.9265 108.43C81.9905 108.424 82.0491 108.424 82.113 108.424Z" fill="black"/>
<path d="M83.7966 108.436C83.7167 108.436 83.6368 108.43 83.5515 108.43C83.6314 108.43 83.7114 108.436 83.7966 108.436Z" fill="black"/>
<path d="M36.8214 70.1813C41.2227 70.1973 45.8637 70.4853 50.6433 71.0665C74.4666 73.9726 93.2386 83.2294 94.6453 92.3475C94.8957 91.745 95.0662 91.1264 95.1408 90.4866C96.3237 80.7872 76.6086 70.3946 51.1015 67.2859C25.5998 64.1719 3.96642 69.5148 2.78351 79.2142C2.60767 80.6592 2.89541 82.1149 3.59876 83.5653C7.29134 79.1182 16.1205 76.0948 27.5606 75.119C31.1946 74.8097 34.5355 73.0234 36.8214 70.1813Z" fill="#8CC63F"/>
<path d="M94.2883 97.5142L95.1462 90.4863C94.2243 98.0635 80.8287 102.98 62.8613 103.289L68.9144 107.853L64.4012 114.828C67.188 112.37 70.742 110.514 74.749 109.442L74.781 109.203C86.0133 107.31 93.6009 103.15 94.2883 97.5142Z" fill="#A4E603"/>
<path d="M2.95923 97.4983C4.78687 95.776 6.68912 94.1337 8.66063 92.5767" stroke="white" stroke-width="4" stroke-miterlimit="10"/>
<path d="M35.6865 103.46C33.1875 105.124 30.811 106.969 28.5837 108.984" stroke="white" stroke-width="4" stroke-miterlimit="10"/>
<path d="M42.2458 104.42C38.8996 106.601 35.5586 108.787 32.2124 110.968" stroke="white" stroke-width="4" stroke-miterlimit="10"/>
<path d="M114.934 56.5056L35.2264 75.4511L29.525 51.4399C24.3032 29.4177 37.9066 7.32081 59.9183 2.08986C81.93 -3.14108 104.011 10.4722 109.238 32.4997L114.934 56.5056Z" fill="#373C41"/>
<path d="M114.913 56.4096C116.202 61.8325 99.402 70.4707 77.3903 75.707C55.3786 80.9433 36.4947 80.7833 35.2053 75.3604C33.9158 69.9375 50.7163 61.2992 72.7279 56.063C94.7396 50.8267 113.623 50.9813 114.913 56.4096Z" fill="url(#paint1_linear)"/>
<path d="M36.3027 56.6603C55.0587 41.9646 79.5055 34.7394 103.233 36.8829" stroke="#2F3439" stroke-width="9" stroke-miterlimit="10"/>
<path d="M45.1106 54.7778C45.3717 56.8467 45.8299 58.8943 46.48 60.8779" stroke="#2F3439" stroke-width="9" stroke-miterlimit="10"/>
<path d="M56.4121 49.6855C56.7638 51.9091 57.4298 54.0847 58.3836 56.1269" stroke="#2F3439" stroke-width="9" stroke-miterlimit="10"/>
<path d="M68.6836 45.9639C68.95 47.9795 69.4189 49.9684 70.0796 51.8933" stroke="#2F3439" stroke-width="9" stroke-miterlimit="10"/>
<path d="M85.4521 42.9404C85.985 45.02 86.6777 47.0623 87.5196 49.0352" stroke="#2F3439" stroke-width="9" stroke-miterlimit="10"/>
<path d="M100.899 42.4814C101.4 43.9158 101.901 45.3502 102.402 46.7792" stroke="#2F3439" stroke-width="9" stroke-miterlimit="10"/>
<path d="M81.0358 153.499L70.363 134.228L75.9152 130.138C75.8886 129.482 75.846 128.826 75.846 128.17C75.8353 127.44 75.8247 126.709 75.8513 125.984L75.8779 124.891L75.9366 123.803C76.1071 120.902 76.496 118.034 77.1141 115.229C77.7269 112.424 78.5475 109.683 79.5652 107.033C79.821 106.372 80.098 105.716 80.3645 105.066L80.8014 104.1C80.9453 103.781 81.0945 103.445 81.233 103.162L82.9114 99.664L90.8561 102.671L89.7957 106.404C89.6998 106.729 89.6359 106.996 89.5613 107.284L89.3428 108.137C89.215 108.713 89.0817 109.278 88.9698 109.854C88.5169 112.147 88.2452 114.456 88.1439 116.759C88.08 118.215 88.1013 119.671 88.1812 121.11L93.1047 117.484L93.0141 117.399L94.4794 115.847C101.396 108.532 109.511 102.629 118.601 98.299L118.708 98.251L122.358 105.929L122.256 105.977C115.777 109.065 109.852 113.048 104.582 117.847L105.237 119.633C112.303 114.568 120.189 110.611 128.469 108.03L130.084 107.529L132.61 115.645L130.995 116.146C122.827 118.69 115.084 122.731 108.28 127.952L108.376 128.213C114.552 125.467 121.036 123.505 127.713 122.363L132.572 121.532L134 129.909L129.141 130.74C123.045 131.78 117.13 133.593 111.504 136.126C115.186 135.731 118.905 135.582 122.603 135.694L128.054 135.859L127.798 144.354L122.347 144.188C117.722 144.05 113.054 144.354 108.488 145.1L98.0974 146.791L98.0601 146.577L81.0358 153.499Z" fill="url(#paint2_linear)"/>
<path d="M49.0706 159.508L54.772 138.227L61.603 139.144C62.0399 138.654 62.4609 138.152 62.9191 137.683C63.42 137.15 63.9155 136.617 64.443 136.11L65.221 135.342L66.0202 134.601C68.1569 132.634 70.4268 130.842 72.8193 129.253C75.2064 127.659 77.7001 126.262 80.2737 125.062C80.9185 124.763 81.5685 124.486 82.2186 124.203L83.2044 123.809C83.5294 123.681 83.8704 123.537 84.1635 123.435L87.7974 122.081L91.4208 129.765L88.0692 131.716C87.7761 131.882 87.547 132.031 87.2912 132.186L86.5399 132.644C86.0497 132.97 85.5595 133.284 85.08 133.62C83.1617 134.953 81.3607 136.425 79.6929 138.014C78.6326 139.016 77.6415 140.077 76.6984 141.171L82.7621 141.986L82.7568 141.858L84.8881 141.762C94.9428 141.309 104.875 142.706 114.418 145.911L114.53 145.948L111.823 154.005L111.717 153.968C104.912 151.68 97.8895 150.427 90.7654 150.214L89.9927 151.958C98.5928 153.227 107.012 155.866 114.759 159.769L116.272 160.532L112.452 168.125L110.939 167.363C103.298 163.513 94.9215 161.033 86.4067 160.057L86.2948 160.308C92.641 162.628 98.6727 165.72 104.268 169.543L108.338 172.327L103.548 179.344L99.4773 176.561C94.3727 173.073 88.8578 170.258 83.0552 168.173C85.9805 170.45 88.7566 172.929 91.3355 175.58L95.14 179.488L89.0603 185.423L85.2558 181.514C82.0214 178.198 78.4567 175.174 74.6576 172.535L66.0096 166.525L66.1321 166.349L49.0706 159.508Z" fill="#373C41"/>
<path d="M60.0097 143.725C59.8179 147.463 58.6137 151.142 56.5623 154.272" stroke="#2F3439" stroke-width="9" stroke-miterlimit="10"/>
<defs>
<linearGradient id="paint0_linear" x1="62.9174" y1="146.681" x2="35.4825" y2="58.0607" gradientUnits="userSpaceOnUse">
<stop stop-color="#A4E603"/>
<stop offset="0.0542" stop-color="#8CC503"/>
<stop offset="0.1394" stop-color="#6C9702"/>
<stop offset="0.2303" stop-color="#4F6E01"/>
<stop offset="0.3254" stop-color="#364C01"/>
<stop offset="0.4262" stop-color="#223001"/>
<stop offset="0.5345" stop-color="#131B00"/>
<stop offset="0.654" stop-color="#080C00"/>
<stop offset="0.7934" stop-color="#020300"/>
<stop offset="1"/>
</linearGradient>
<linearGradient id="paint1_linear" x1="79.9092" y1="86.3237" x2="73.6291" y2="59.9043" gradientUnits="userSpaceOnUse">
<stop stop-color="#373C41"/>
<stop offset="1"/>
</linearGradient>
<linearGradient id="paint2_linear" x1="115.217" y1="96.8729" x2="91.4188" y2="157.57" gradientUnits="userSpaceOnUse">
<stop stop-color="#373C41"/>
<stop offset="1"/>
</linearGradient>
</defs>
</svg>
