<svg width="169" height="179" viewBox="0 0 169 179" fill="none" xmlns="http://www.w3.org/2000/svg">
<path d="M140.91 144.289L21.1037 131.502C7.95131 130.099 -1.43442 116.72 0.180693 101.679C1.54168 88.9772 7.14375 77.4978 15.9591 69.3546C24.7745 61.2114 35.7414 57.3793 46.8439 58.5628L131.208 67.5682C142.311 68.7516 152.222 74.8153 159.111 84.6323C166.001 94.4492 169.045 106.853 167.684 119.555C166.074 134.596 154.063 145.692 140.91 144.289ZM45.1271 74.5843C29.9304 72.9613 16.0438 85.7875 14.1859 103.173C13.5195 109.383 17.3935 114.906 22.8205 115.481L142.627 128.267C148.054 128.848 153.012 124.266 153.679 118.062C155.542 100.676 144.694 85.2127 129.491 83.5897L45.1271 74.5843Z" fill="url(#paint0_linear)"/>
<path d="M142.565 128.904L22.7527 116.112C11.5938 114.923 3.14548 105.1 1.82967 92.9614C1.056 95.7791 0.502569 98.6927 0.180676 101.674C-1.42879 116.715 7.95694 130.093 21.1037 131.496L140.91 144.283C154.063 145.686 166.069 134.59 167.684 119.549C168.006 116.568 168.079 113.604 167.921 110.685C164.058 122.283 153.724 130.093 142.565 128.904Z" fill="#373C41"/>
<path d="M31.1186 59.3473L28.2366 60.0886L32.7669 77.6285L35.6489 76.8873L31.1186 59.3473Z" fill="#B3B3B3"/>
<path d="M42.2673 57.3728L39.2969 57.5548L40.4095 75.6326L43.3799 75.4506L42.2673 57.3728Z" fill="#B3B3B3"/>
<path d="M68.5237 21.0252L63.5372 4.99805L48.075 9.78816L53.1068 25.9618C47.6515 30.9154 45.2345 38.743 47.5668 46.2381L72.4542 126.239C74.5437 132.956 81.6931 136.709 88.4247 134.624L101.459 130.589C108.19 128.504 111.951 121.37 109.862 114.652L84.9742 34.646C82.6023 27.0269 75.9894 21.8931 68.5237 21.0252Z" fill="url(#paint1_linear)"/>
<path d="M87.9728 131.671L99.9845 127.952C105.479 126.25 108.557 120.423 106.846 114.934L89.0402 57.6724L57.1163 67.5625L74.9277 124.824C76.6388 130.307 82.4781 133.373 87.9728 131.671Z" fill="url(#paint2_linear)"/>
<path d="M74.2138 66.2596C83.0273 63.529 89.6638 59.6817 89.0368 57.6665C88.4098 55.6513 80.7568 56.2312 71.9433 58.9618C63.1298 61.6924 56.4933 65.5397 57.1203 67.5549C57.7473 69.5701 65.4003 68.9902 74.2138 66.2596Z" fill="#F7F7F7"/>
<path d="M46.1154 8.75692L49.2666 18.8782C49.724 20.3434 54.2249 20.2532 59.3187 18.6753C64.4125 17.0974 68.1736 14.629 67.7218 13.1638L64.5706 3.0426L46.1154 8.75692Z" fill="#A4E603"/>
<path d="M56.1661 8.55218C61.2624 6.97325 65.0242 4.50537 64.5683 3.04002C64.1124 1.57468 59.6114 1.66676 54.5152 3.2457C49.4189 4.82463 45.6571 7.29251 46.113 8.75786C46.5689 10.2232 51.0699 10.1311 56.1661 8.55218Z" fill="#8DC603"/>
<path d="M86.2504 177.684L71.0424 176.061C40.711 172.827 18.7545 145.664 21.996 115.396L147.043 128.741C143.802 159.009 116.582 180.919 86.2504 177.684Z" fill="#A4E603"/>
<path d="M33.9498 129.468L33.6332 132.421L132.065 142.932L132.382 139.979L33.9498 129.468Z" fill="#B3B3B3"/>
<path d="M133.619 139.352L129.395 138.901L128.944 143.117L130.96 143.331L128.272 152.252C127.938 153.362 128.695 154.495 129.847 154.619C130.999 154.743 131.982 153.79 131.891 152.635L131.157 143.353L133.173 143.568L133.619 139.352Z" fill="#373C41"/>
<path d="M35.1089 142.767C38.8135 152.015 47.0077 159.347 56.625 162.018C62.052 163.528 66.0446 163.478 71.6354 162.829C69.7153 164.159 68.0889 165.918 66.9199 167.941C75.3682 167.496 83.6922 164.819 90.8078 160.254C86.8773 160.547 82.9355 160.744 78.9937 160.84C79.1857 159.843 79.3721 158.845 79.5641 157.848C73.5498 158.513 67.3943 159.166 61.4985 157.797C58.0424 156.991 54.7783 155.509 51.5989 153.937C45.5394 150.944 40.7675 146.47 35.1089 142.767Z" fill="#8DC603"/>
<path d="M116.136 162.097C116.548 161.939 116.988 161.776 117.423 161.838C117.864 161.9 118.293 162.266 118.259 162.705C118.236 162.965 118.067 163.184 117.898 163.382C115.464 166.222 104.209 172.105 101.278 167.946C105.536 165.264 111.403 163.911 116.136 162.097Z" fill="#8DC603"/>
<defs>
<linearGradient id="paint0_linear" x1="87.9852" y1="72.7511" x2="83.1565" y2="117.969" gradientUnits="userSpaceOnUse">
<stop stop-color="#373C41"/>
<stop offset="1"/>
</linearGradient>
<linearGradient id="paint1_linear" x1="56.7538" y1="75.7646" x2="94.1466" y2="64.1309" gradientUnits="userSpaceOnUse">
<stop stop-color="#F9F9F9"/>
<stop offset="1" stop-color="#69D9EE"/>
</linearGradient>
<linearGradient id="paint2_linear" x1="99.4894" y1="91.2636" x2="67.581" y2="101.191" gradientUnits="userSpaceOnUse">
<stop stop-color="#F9F9F9"/>
<stop offset="1" stop-color="#69D9EE"/>
</linearGradient>
</defs>
</svg>
