<svg width="375" height="107" viewBox="0 0 375 107" fill="none" xmlns="http://www.w3.org/2000/svg">
<path d="M375 0H0V107H375V0Z" fill="url(#paint0_linear)"/>
<g clip-path="url(#clip0)">
<path d="M215.649 24.5544L232.559 -4.97083C242.675 -22.6361 269.71 -15.4723 269.71 4.87268V34.3953C269.71 45.3531 260.806 54.2335 249.826 54.2335H232.916C217.646 54.2362 208.075 37.7781 215.649 24.5544Z" fill="url(#paint1_linear)"/>
<path d="M256.046 4.05823V2.52466L247.818 10.7338V-4.38968H246.733V25.8519L238.348 17.4863V19.0198L246.733 27.3855V49.2402L234.003 36.5392V38.0727L246.733 50.7738V81.1879H247.818V40.9223L256.046 32.7132V31.1796L247.818 39.3888V12.2673L256.046 4.05823Z" fill="#664A46"/>
<path d="M254.078 52.0049L261.655 38.7785C266.186 30.8639 278.299 34.0743 278.299 43.1881V56.4145C278.299 61.323 274.31 65.3029 269.391 65.3029H261.814C254.972 65.3029 250.685 57.9322 254.078 52.0049Z" fill="url(#paint2_linear)"/>
<path d="M280.533 28.9031V15.0134C280.533 4.92316 267.127 1.37313 262.109 10.1315L253.725 24.772C249.967 31.3308 254.714 39.4922 262.287 39.4922H270.672C270.715 39.4922 270.757 39.4895 270.8 39.4895L266.782 46.5047C263.388 52.4294 267.675 59.8027 274.518 59.8027H282.094C287.014 59.8027 291.003 55.8229 291.003 50.9144V37.688C291 31.5484 285.506 28.0886 280.533 28.9031Z" fill="url(#paint3_linear)"/>
<path d="M277.578 44.0717L271.047 50.588V14.366H270.207V31.0231L263.197 24.0291V25.2125L270.207 32.2064V83H271.047V51.7714L277.578 45.255V44.0717Z" fill="#664A46"/>
</g>
<path d="M352.244 74V41.5682L332.961 74H352.244Z" fill="#664A46"/>
<path d="M302 65.155H317.728L325.914 51.3856V65.155H341.462L349.65 51.3856V65.155H363V-37.4383L302 65.155Z" fill="url(#paint4_linear)"/>
<path d="M311.081 43.433H324.468L331.434 31.7138V43.433H344.666L351.635 31.7138V43.433H363V-43.8853L311.081 43.433Z" fill="url(#paint5_linear)"/>
<path d="M320.365 21.8736H331.357L337.08 12.2473V21.8736H347.946L353.667 12.2473V21.8736H363V-49.8333L320.365 21.8736Z" fill="url(#paint6_linear)"/>
<path d="M328.14 3.62755H337.126L341.806 -4.23945V3.62755H350.692L355.371 -4.23945V3.62755H363V-55L328.14 3.62755Z" fill="#61BE6A"/>
<g clip-path="url(#clip1)">
<path d="M400.528 74H-6.52806C-10.6367 74 -14 79.8437 -14 86.986V94.0177C-14 101.156 -10.6367 107 -6.52806 107H400.526C404.637 107 407.998 101.156 407.998 94.0177V86.986C408 79.8437 404.637 74 400.528 74Z" fill="url(#paint7_linear)"/>
<path d="M390.642 107H-14.6402C-18.6871 107 -22 104.304 -22 101.01V88.9915C-22 85.6962 -18.6871 83 -14.6402 83H390.64C394.689 83 398 85.6962 398 88.9898V101.009C398.002 104.304 394.691 107 390.642 107Z" fill="#DB4F69"/>
</g>
<path d="M195.999 103.659C215.328 103.659 230.997 101.775 230.997 99.4494C230.997 97.1243 215.328 95.2394 195.999 95.2394C176.669 95.2394 161 97.1243 161 99.4494C161 101.775 176.669 103.659 195.999 103.659Z" fill="#BC445C"/>
<path d="M199.628 38.7526C200.362 39.3031 201.105 39.8395 201.848 40.373C202.591 40.9094 203.345 41.426 204.1 41.9483L208.602 45.0959L206.192 45.446C206.799 44.7515 207.42 44.0712 208.047 43.3937L208.991 42.383L209.946 41.3809C210.584 40.7118 211.22 40.0427 211.866 39.3822C212.507 38.7187 213.153 38.0582 213.808 37.4032C214.29 36.9205 215.073 36.9177 215.558 37.3976C215.995 37.8295 216.04 38.5042 215.691 38.9869C215.152 39.7379 214.605 40.4831 214.055 41.2228C213.508 41.9652 212.952 42.702 212.396 43.4388L211.563 44.5426L210.721 45.638C210.156 46.3663 209.583 47.089 208.999 47.8004C208.421 48.5033 207.42 48.6558 206.663 48.1956L206.589 48.1505L201.894 45.2907C201.114 44.8108 200.337 44.3281 199.546 43.8623C198.758 43.3965 197.966 42.9307 197.167 42.479C196.087 41.8692 195.709 40.5029 196.322 39.4273C196.934 38.3518 198.307 37.9763 199.387 38.5861C199.469 38.6397 199.554 38.699 199.628 38.7526Z" fill="#EEB5AC"/>
<path d="M201.848 40.373C201.105 39.8395 200.362 39.3003 199.628 38.7526C199.554 38.699 198.976 38.253 198.976 38.253C198.976 38.253 198.361 38.2473 197.853 38.3433L196.603 42.0302C196.761 42.208 196.951 42.3605 197.167 42.4847C197.966 42.9363 198.758 43.3993 199.546 43.8679C200.309 44.3168 201.06 44.7826 201.811 45.2456L201.879 45.2653L203.343 41.426C202.843 41.0788 202.342 40.7316 201.848 40.373Z" fill="#8DC603"/>
<path d="M196.31 61.2351C196.353 61.3057 196.379 61.3707 196.413 61.4356C196.441 61.5005 196.466 61.5654 196.489 61.6275C196.515 61.6925 196.532 61.7518 196.552 61.8139L196.6 61.9945C196.656 62.2317 196.679 62.4547 196.685 62.6692C196.688 63.0983 196.603 63.4907 196.449 63.8549L196.013 64.9615L195.562 66.0625C194.955 67.5277 194.309 68.9759 193.631 70.4128L193.118 71.4884L192.59 72.5583C192.242 73.2725 191.881 73.9811 191.527 74.6925L190.461 76.8267L189.406 78.9665L189.159 79.4662C188.64 80.5135 187.6 81.1402 186.505 81.1854L181.898 81.3717C180.361 81.4226 178.824 81.4847 177.287 81.5214L174.979 81.5835L172.671 81.6343C171.131 81.6597 169.592 81.6879 168.046 81.6879C167.034 81.6879 166.214 80.8721 166.214 79.8642C166.214 79.0117 166.801 78.2975 167.595 78.097C169.09 77.7188 170.59 77.3659 172.09 77.0102L174.338 76.4907L176.59 75.9854C178.09 75.6438 179.592 75.3277 181.095 74.9974L185.606 74.046L182.706 76.2677L183.44 74.0008L184.163 71.7283C184.404 70.9717 184.642 70.2123 184.889 69.4586L185.258 68.3266L185.638 67.1974C186.151 65.6955 186.701 64.2078 187.288 62.7342L187.733 61.6304L188.19 60.5322C188.334 60.1624 188.547 59.8208 188.85 59.5159C189.003 59.3635 189.176 59.2195 189.381 59.0897L189.539 58.9937C189.599 58.9626 189.65 58.9316 189.712 58.9033C189.772 58.8751 189.837 58.8469 189.902 58.8186C189.973 58.7932 190.038 58.765 190.118 58.7452C192.565 58.0931 195.069 59.18 196.31 61.2351Z" fill="url(#paint8_linear)"/>
<path d="M198.976 47.2527V38.253H196.685H192.392H189.848V39.3878C189.321 39.9157 189.108 40.6723 189.304 41.8664C190.384 48.5146 189.868 53.8276 188.073 60.1539C187.177 63.3072 188.496 65.1733 191.516 65.7294C194.535 66.2827 196.03 65.4499 197.051 62.003C198.44 57.3083 199.081 52.6758 198.993 47.9133C198.99 47.6903 198.982 47.4729 198.976 47.2527Z" fill="#A4E603"/>
<path d="M191.516 65.7266C191.385 65.9524 191.348 66.0484 191.516 65.7266V65.7266Z" fill="#A4E603"/>
<path d="M194.49 39.6249C195.434 39.6165 196.2 38.8401 196.191 37.9001L196.155 33.6938C196.146 32.7537 195.366 31.9915 194.422 31.9999C193.478 32.0084 192.712 32.7847 192.721 33.7248L192.758 37.9311C192.766 38.8684 193.546 39.6306 194.49 39.6249Z" fill="#DEA095"/>
<path d="M193.702 26.9411L199.2 29.0471L199.225 32.0988C199.228 32.1552 199.234 32.2089 199.237 32.2653C199.242 32.4036 199.24 32.5391 199.231 32.6718L199.206 32.8807C199.18 33.0953 199.137 33.307 199.075 33.5131C198.658 34.8343 197.501 35.8477 196.05 36.0086C196.035 36.0115 196.024 36.0115 196.01 36.0115C193.325 36.2825 190.934 34.2725 190.784 31.5596C190.671 29.5355 191.89 27.6977 193.702 26.9411Z" fill="#EEB5AC"/>
<path d="M193.849 25.7809C193.863 25.7809 193.88 25.7809 193.895 25.7809L200.989 25.7188L198.613 27.853L201.009 28.011C199.39 29.3181 197.581 30.3739 195.644 31.1418L195.125 31.3478C195.012 30.6195 194.326 30.0803 193.543 30.1989C192.962 30.2892 192.494 30.7494 192.4 31.3281C192.338 31.7064 192.432 32.0592 192.627 32.3387L192.638 35.0573C190.642 34.5125 189.168 32.7029 189.148 30.5405C189.122 27.9348 191.229 25.8006 193.849 25.7809Z" fill="#664A46"/>
<path d="M183.837 72.7531L183.44 73.998L183.264 74.54L181.095 74.9974C179.592 75.3248 178.09 75.6438 176.59 75.9854L174.338 76.4907L172.09 77.0102C170.59 77.363 169.093 77.7159 167.595 78.097C166.804 78.2975 166.214 79.0117 166.214 79.8642C166.214 80.8721 167.034 81.6879 168.046 81.6879C169.589 81.6879 171.128 81.6597 172.671 81.6343L174.979 81.5835L177.287 81.5214C178.827 81.4818 180.361 81.4197 181.898 81.3717L186.505 81.1854C187.6 81.1402 188.64 80.5135 189.159 79.4662L189.406 78.9665L190.379 76.9961L183.837 72.7531Z" fill="#EEB5AC"/>
<path d="M191.3 42.4593C190.486 42.8827 189.678 43.3203 188.876 43.7578C188.071 44.1954 187.277 44.6527 186.48 45.1044L181.688 47.7976L182.408 45.4827C182.777 46.3268 183.125 47.1765 183.471 48.0319L183.982 49.3164L184.481 50.6065C184.813 51.4675 185.144 52.3257 185.468 53.1895C185.794 54.0506 186.114 54.9172 186.429 55.7839C186.658 56.4247 186.327 57.1277 185.683 57.3591C185.105 57.5652 184.472 57.3168 184.183 56.7945C183.735 55.9872 183.293 55.177 182.859 54.3639C182.419 53.5537 181.991 52.735 181.563 51.9192L180.919 50.694L180.281 49.4688C179.865 48.6473 179.453 47.823 179.059 46.9902C178.671 46.1687 178.963 45.2032 179.706 44.7205L179.78 44.6725L184.393 41.6829C185.164 41.1889 185.935 40.6977 186.698 40.1867C187.461 39.6786 188.221 39.1676 188.975 38.6425C189.993 37.934 191.394 38.1824 192.105 39.1958C192.817 40.2093 192.568 41.6039 191.55 42.3125C191.47 42.3661 191.38 42.4169 191.3 42.4593Z" fill="#EEB5AC"/>
<path d="M171.863 82.1057L167.536 78.0349L165.171 77.9954L165.009 87.7038C164.995 88.5874 165.701 89.3129 166.589 89.327L169.657 82.5743C170.116 83.0458 170.873 83.0599 171.347 82.6026L171.863 82.1057Z" fill="#373C41"/>
<path d="M168.567 81.0695L165.826 87.0732L166.466 87.3629L169.207 81.3592L168.567 81.0695Z" fill="white"/>
<path d="M212.263 95.7183C210.964 92.565 209.615 89.4399 208.251 86.3233L207.224 83.9859L206.189 81.654C205.503 80.0986 204.797 78.5515 204.1 77.0017L203.053 74.6755C202.705 73.902 202.359 73.1229 202.016 72.3466L200.983 70.0147L200.462 68.8517C200.286 68.4649 200.113 68.0753 199.934 67.6914C199.223 66.1472 198.474 64.6256 197.683 63.1238C197.479 62.7342 197.269 62.3446 197.059 61.955C197.388 60.8399 197.674 59.7277 197.918 58.6182L188.72 57.6612C188.527 58.4771 188.309 59.3042 188.068 60.1511C187.662 61.5824 187.713 62.7483 188.173 63.646C188.175 63.7222 188.181 63.7956 188.192 63.8662C188.221 64.092 188.275 64.3038 188.348 64.5042C188.422 64.7046 188.524 64.891 188.621 65.0801C189.015 65.831 189.415 66.5791 189.826 67.3216C190.645 68.8065 191.507 70.2688 192.406 71.7114C192.63 72.0727 192.857 72.4312 193.087 72.7898L193.77 73.8653L195.154 76.0108C195.616 76.7251 196.075 77.4421 196.532 78.1591L197.901 80.3131C198.814 81.7472 199.719 83.1869 200.643 84.6182L202.021 86.7665L203.411 88.9092C205.268 91.7633 207.139 94.6089 209.059 97.4291C209.535 98.1264 210.451 98.4228 211.265 98.0897C212.201 97.7114 212.646 96.6471 212.263 95.7183Z" fill="#373C41"/>
<path d="M191.516 65.7266C191.385 65.9524 191.348 66.0484 191.516 65.7266V65.7266Z" fill="#373C41"/>
<path d="M211.268 98.0925C212.201 97.7114 212.649 96.6471 212.266 95.7183C210.967 92.565 209.617 89.4399 208.254 86.3233L207.227 83.9859L206.192 81.654C205.506 80.0986 204.8 78.5515 204.102 77.0017L203.056 74.6755C202.707 73.902 202.361 73.1229 202.018 72.3465L201.681 71.5815L195.097 75.9233L195.154 76.0136C195.616 76.7279 196.075 77.4449 196.532 78.162L197.901 80.3159C198.814 81.75 199.719 83.1898 200.643 84.621L202.021 86.7693L203.411 88.912C205.268 91.7661 207.139 94.6117 209.059 97.4319C209.535 98.1292 210.451 98.4256 211.268 98.0925Z" fill="#EEB5AC"/>
<path d="M210.74 92.2771L209.535 98.0812L210.746 100.105L219.125 95.1396C219.888 94.6879 220.137 93.7083 219.684 92.9489L212.3 93.9003C212.462 93.2623 212.076 92.6158 211.435 92.4549L210.74 92.2771Z" fill="#373C41"/>
<path d="M218.86 93.6984L212.29 94.5319L212.378 95.2264L218.949 94.3929L218.86 93.6984Z" fill="white"/>
<path d="M217.393 34.7355L216.321 33.7785L215.105 33.6147C214.572 33.355 213.934 33.6627 213.812 34.2415L212.825 38.9051L215.184 39.5939L217.178 36.9995L217.767 35.8449C217.974 35.4384 217.807 34.9387 217.393 34.7355Z" fill="#EEB5AC"/>
<path d="M212.802 38.891L212.89 38.3264L212.91 38.1965C212.915 38.157 212.921 38.1175 212.927 38.0808C212.938 38.0045 212.944 37.9255 212.949 37.8521C212.961 37.6997 212.961 37.5529 212.952 37.4117C212.949 37.375 212.946 37.3411 212.941 37.3044L212.938 37.2903V37.2875V37.279L212.935 37.2621L212.927 37.1972C212.921 37.1548 212.915 37.1096 212.912 37.0673C212.91 37.0249 212.91 36.9798 212.91 36.9346C212.91 36.8923 212.91 36.8471 212.915 36.8048C212.924 36.7172 212.932 36.6325 212.955 36.5507C213.034 36.2176 213.199 35.9183 213.437 35.6868C213.672 35.4554 213.976 35.286 214.299 35.221C214.339 35.2126 214.381 35.2069 214.421 35.2013L214.48 35.1928C214.5 35.19 214.52 35.19 214.54 35.19C214.622 35.1872 214.699 35.1843 214.784 35.1928C214.826 35.1956 214.866 35.2013 214.909 35.2069C214.917 35.2069 214.931 35.2097 214.937 35.2097L214.954 35.2154L214.991 35.2239L215.133 35.2577L215.702 35.3961L215.512 36.5902L214.948 36.5479L214.806 36.5366L214.772 36.5337H214.755C214.75 36.5337 214.75 36.5337 214.75 36.5366C214.744 36.5394 214.738 36.5422 214.73 36.5422C214.719 36.5422 214.702 36.5535 214.687 36.5563C214.685 36.5563 214.679 36.5563 214.676 36.5592L214.668 36.5648C214.662 36.5676 214.656 36.5704 214.648 36.5733C214.599 36.6015 214.568 36.6438 214.543 36.6918C214.517 36.737 214.514 36.7963 214.523 36.8358C214.523 36.8471 214.531 36.8556 214.531 36.864C214.531 36.8697 214.537 36.8725 214.537 36.8753C214.54 36.8782 214.54 36.8838 214.543 36.8866C214.546 36.8894 214.548 36.8923 214.551 36.8951C214.551 36.8979 214.554 36.8979 214.554 36.9007L214.557 36.9064L214.563 36.929C214.58 36.9854 214.597 37.0447 214.611 37.1012C214.67 37.3327 214.707 37.5641 214.73 37.7928C214.741 37.9086 214.75 38.0215 214.753 38.1344C214.755 38.1909 214.755 38.2473 214.758 38.3038V38.459L214.764 39.0321L212.802 38.891Z" fill="url(#paint9_linear)"/>
<path d="M187.2 61.2973L188.507 60.9303L189.329 59.9507C189.843 59.626 189.899 58.9005 189.443 58.5025L188.504 57.681C188.496 57.5963 188.482 57.5144 188.465 57.4325C188.391 57.1107 188.218 56.8115 187.974 56.5743C187.915 56.5122 187.847 56.4614 187.776 56.4078C187.742 56.3796 187.705 56.3598 187.668 56.3344C187.631 56.3118 187.591 56.2892 187.554 56.2666C187.515 56.2469 187.475 56.2299 187.435 56.2102L187.373 56.1848L187.359 56.1791L187.35 56.1763L187.347 56.1735L187.336 56.1678C187.305 56.1537 187.271 56.1368 187.24 56.1227C187.112 56.0577 186.985 55.9787 186.863 55.8912C186.8 55.846 186.738 55.8008 186.678 55.75C186.647 55.7246 186.616 55.6992 186.588 55.6738L186.488 55.5891L186.049 55.2193L186.035 55.2391L186.026 55.2306L184.209 56.8764L185.521 60.1906L186.071 61.046C186.307 61.4271 186.817 61.54 187.2 61.2973Z" fill="#EEB5AC"/>
<path d="M191.3 42.4592C191.38 42.4169 191.47 42.3633 191.547 42.3096C192.565 41.601 192.814 40.2065 192.103 39.193C191.391 38.1795 189.99 37.9339 188.972 38.6397C188.218 39.1648 187.458 39.6757 186.695 40.1839C186.318 40.438 185.935 40.6864 185.553 40.9348L187.254 44.6612C187.793 44.3563 188.329 44.0514 188.873 43.7578C189.681 43.3203 190.486 42.8855 191.3 42.4592Z" fill="#A4E603"/>
<defs>
<linearGradient id="paint0_linear" x1="187.5" y1="146.628" x2="187.5" y2="-15.7323" gradientUnits="userSpaceOnUse">
<stop stop-color="#F9F9F9"/>
<stop offset="1" stop-color="#69D9EE"/>
</linearGradient>
<linearGradient id="paint1_linear" x1="287.509" y1="19.6178" x2="230.8" y2="19.6178" gradientUnits="userSpaceOnUse">
<stop offset="0.3781" stop-color="#53A45D"/>
<stop offset="1" stop-color="#61BE6A"/>
</linearGradient>
<linearGradient id="paint2_linear" x1="252.891" y1="49.7945" x2="278.297" y2="49.7945" gradientUnits="userSpaceOnUse">
<stop stop-color="#A4E603"/>
<stop offset="0.7439" stop-color="#61BE6A"/>
</linearGradient>
<linearGradient id="paint3_linear" x1="252.41" y1="32.4805" x2="291.001" y2="32.4805" gradientUnits="userSpaceOnUse">
<stop stop-color="#A4E603"/>
<stop offset="0.8875" stop-color="#61BE6A"/>
</linearGradient>
<linearGradient id="paint4_linear" x1="332.81" y1="28.852" x2="332.491" y2="66.6162" gradientUnits="userSpaceOnUse">
<stop offset="0.3374" stop-color="#53A45D"/>
<stop offset="1" stop-color="#61BE6A"/>
</linearGradient>
<linearGradient id="paint5_linear" x1="337.04" y1="5.38516" x2="337.04" y2="45.3598" gradientUnits="userSpaceOnUse">
<stop offset="0.4256" stop-color="#53A45D"/>
<stop offset="1" stop-color="#61BE6A"/>
</linearGradient>
<linearGradient id="paint6_linear" x1="341.682" y1="-0.722183" x2="341.682" y2="22.1861" gradientUnits="userSpaceOnUse">
<stop offset="0.196" stop-color="#53A45D"/>
<stop offset="1" stop-color="#61BE6A"/>
</linearGradient>
<linearGradient id="paint7_linear" x1="197" y1="111.3" x2="197" y2="87.6288" gradientUnits="userSpaceOnUse">
<stop stop-color="#A4E603"/>
<stop offset="0.8875" stop-color="#61BE6A"/>
</linearGradient>
<linearGradient id="paint8_linear" x1="166.216" y1="70.1206" x2="196.685" y2="70.1206" gradientUnits="userSpaceOnUse">
<stop stop-color="#373C41"/>
<stop offset="1"/>
</linearGradient>
<linearGradient id="paint9_linear" x1="216.197" y1="36.3894" x2="212.476" y2="38.0818" gradientUnits="userSpaceOnUse">
<stop stop-color="#DEA095"/>
<stop offset="1" stop-color="#EEB5AC"/>
</linearGradient>
<clipPath id="clip0">
<rect width="78" height="98" fill="white" transform="translate(213 -15)"/>
</clipPath>
<clipPath id="clip1">
<rect width="422" height="33" fill="white" transform="matrix(1 0 0 -1 -14 107)"/>
</clipPath>
</defs>
</svg>
