<svg width="1440" height="303" viewBox="0 0 1440 303" fill="none" xmlns="http://www.w3.org/2000/svg">
<g clip-path="url(#clip0)">
<path d="M1440 0H0V303H1440V0Z" fill="url(#paint0_linear)"/>
<g clip-path="url(#clip1)">
<path d="M927.557 34.5425L982.191 -60.6613C1014.87 -117.623 1102.22 -94.5234 1102.22 -28.921V66.2743C1102.22 101.608 1073.45 130.243 1037.98 130.243H983.343C934.01 130.251 903.089 77.1823 927.557 34.5425Z" fill="url(#paint1_linear)"/>
<path d="M1058.07 -31.5469V-36.4919L1031.49 -10.0217V-58.7871H1027.98V38.7266L1000.9 11.7517V16.6966L1027.98 43.6716V114.142L986.856 73.1876V78.1325L1027.98 119.087V217.157H1031.49V87.321L1058.07 60.8508V55.9058L1031.49 82.376V-5.07669L1058.07 -31.5469Z" fill="#664A46"/>
<path d="M1051.71 123.056L1076.19 80.4074C1090.83 54.8868 1129.97 65.2388 1129.97 94.6264V137.275C1129.97 153.102 1117.08 165.935 1101.18 165.935H1076.71C1054.6 165.935 1040.75 142.168 1051.71 123.056Z" fill="url(#paint2_linear)"/>
<path d="M1137.18 48.565V3.77785C1137.18 -28.7581 1093.87 -40.2051 1077.66 -11.964L1050.57 35.2444C1038.43 56.3932 1053.77 82.7094 1078.24 82.7094H1105.33C1105.46 82.7094 1105.6 82.7008 1105.74 82.7008L1092.76 105.321C1081.79 124.425 1095.64 148.2 1117.75 148.2H1142.23C1158.12 148.2 1171.01 135.367 1171.01 119.54V76.8917C1171 57.0947 1153.25 45.9385 1137.18 48.565Z" fill="url(#paint3_linear)"/>
<path d="M1127.64 97.4765L1106.54 118.488V1.69092H1103.82V55.4014L1081.18 32.8495V36.6651L1103.82 59.217V223H1106.54V122.304L1127.64 101.292V97.4765Z" fill="#664A46"/>
</g>
<g clip-path="url(#clip2)">
<path d="M1368.26 194V89.4141L1305.99 194H1368.26Z" fill="#664A46"/>
<path d="M1206 165.476H1256.8L1283.23 121.072V165.476H1333.44L1359.89 121.072V165.476H1403V-165.367L1206 165.476Z" fill="url(#paint4_linear)"/>
<path d="M1235.33 95.4273H1278.56L1301.06 57.635V95.4273H1343.79L1366.3 57.635V95.4273H1403V-186.157L1235.33 95.4273Z" fill="url(#paint5_linear)"/>
<path d="M1265.31 25.902H1300.81L1319.29 -5.14099V25.902H1354.38L1372.86 -5.14099V25.902H1403V-205.339L1265.31 25.902Z" fill="url(#paint6_linear)"/>
</g>
<g clip-path="url(#clip3)">
<path d="M1476.86 188H-1.85654C-16.782 188 -29 193.49 -29 200.199V206.804C-29 213.51 -16.782 219 -1.85654 219H1476.86C1491.79 219 1504 213.51 1504 206.804V200.199C1504.01 193.49 1491.79 188 1476.86 188Z" fill="url(#paint7_linear)"/>
<path d="M1440.94 303H-31.3256C-46.027 303 -58.0616 293.604 -58.0616 282.127V240.243C-58.0616 228.76 -46.027 219.364 -31.3256 219.364H1440.94C1455.65 219.364 1467.67 228.76 1467.67 240.237V282.121C1467.68 293.604 1455.65 303 1440.94 303Z" fill="url(#paint8_linear)"/>
</g>
<path d="M809.769 267.221C869.841 267.221 918.538 261.436 918.538 254.3C918.538 247.165 869.841 241.38 809.769 241.38C749.698 241.38 701 247.165 701 254.3C701 261.436 749.698 267.221 809.769 267.221Z" fill="#BC445C"/>
<path d="M819.465 67.9729C821.718 69.6611 823.996 71.3061 826.274 72.9424C828.553 74.5873 830.866 76.1717 833.179 77.7734L846.988 87.4267L839.596 88.5002C841.457 86.3704 843.362 84.2839 845.284 82.2061L848.179 79.1066L851.11 76.0332C853.066 73.9813 855.014 71.9294 856.997 69.9036C858.962 67.869 860.945 65.8431 862.954 63.8345C864.432 62.3541 866.832 62.3454 868.319 63.8172C869.658 65.1418 869.798 67.211 868.728 68.6915C867.076 70.9944 865.397 73.28 863.71 75.5483C862.032 77.8253 860.328 80.085 858.623 82.3446L856.067 85.7298L853.484 89.0889C851.753 91.3226 849.997 93.539 848.205 95.7207C846.431 97.8765 843.362 98.344 841.04 96.9328L840.814 96.7943L826.413 88.024C824.022 86.5522 821.639 85.0718 819.213 83.6433C816.796 82.2147 814.37 80.7862 811.917 79.401C808.604 77.531 807.448 73.3406 809.326 70.0421C811.204 66.7435 815.413 65.592 818.726 67.4621C818.978 67.6266 819.239 67.8084 819.465 67.9729Z" fill="#EEB5AC"/>
<path d="M826.274 72.942C823.995 71.3057 821.717 69.6521 819.465 67.9725C819.239 67.808 817.465 66.4401 817.465 66.4401C817.465 66.4401 815.578 66.4228 814.021 66.7172L810.186 78.0241C810.673 78.5695 811.256 79.037 811.917 79.418C814.369 80.8032 816.795 82.2231 819.213 83.6602C821.552 85.0368 823.856 86.4653 826.161 87.8852L826.369 87.9458L830.857 76.1714C829.326 75.1065 827.787 74.0416 826.274 72.942Z" fill="#8DC603"/>
<path d="M809.291 136.923C809.421 137.139 809.5 137.338 809.604 137.537C809.691 137.737 809.769 137.936 809.839 138.126C809.917 138.325 809.969 138.507 810.03 138.698L810.178 139.252C810.352 139.979 810.421 140.663 810.439 141.321C810.448 142.637 810.187 143.84 809.717 144.957L808.378 148.351L806.995 151.727C805.134 156.221 803.152 160.662 801.073 165.069L799.499 168.367L797.882 171.649C796.812 173.839 795.708 176.012 794.621 178.194L791.351 184.739L788.116 191.302L787.36 192.834C785.768 196.046 782.577 197.968 779.22 198.106L765.089 198.678C760.376 198.834 755.663 199.024 750.95 199.137L743.871 199.327L736.793 199.483C732.071 199.561 727.349 199.647 722.61 199.647C719.505 199.647 716.992 197.145 716.992 194.055C716.992 191.44 718.792 189.25 721.227 188.635C725.81 187.475 730.41 186.393 735.01 185.302L741.906 183.709L748.811 182.159C753.411 181.111 758.02 180.142 762.629 179.129L776.464 176.211L767.568 183.025L769.82 176.073L772.038 169.103C772.777 166.783 773.507 164.454 774.264 162.142L775.394 158.671L776.559 155.208C778.133 150.602 779.82 146.039 781.62 141.52L782.986 138.135L784.386 134.767C784.829 133.633 785.481 132.585 786.412 131.65C786.882 131.183 787.412 130.741 788.038 130.343L788.525 130.049C788.708 129.953 788.864 129.858 789.056 129.771C789.238 129.685 789.438 129.598 789.638 129.512C789.856 129.434 790.056 129.347 790.299 129.287C797.804 127.287 805.482 130.62 809.291 136.923Z" fill="url(#paint9_linear)"/>
<path d="M817.465 94.0406V66.4399H810.439H797.273H789.473V69.9203C787.855 71.5393 787.203 73.8596 787.803 77.5218C791.116 97.9106 789.534 114.204 784.029 133.606C781.281 143.277 785.325 148.999 794.586 150.705C803.847 152.402 808.43 149.848 811.56 139.277C815.821 124.879 817.787 110.672 817.517 96.0665C817.508 95.3825 817.482 94.7159 817.465 94.0406Z" fill="#A4E603"/>
<path d="M794.586 150.696C794.186 151.389 794.073 151.683 794.586 150.696V150.696Z" fill="#A4E603"/>
<path d="M803.708 70.6478C806.604 70.6218 808.952 68.2409 808.926 65.3579L808.812 52.458C808.786 49.575 806.395 47.2374 803.499 47.2634C800.604 47.2894 798.256 49.6702 798.282 52.5532L798.395 65.4532C798.421 68.3275 800.812 70.6651 803.708 70.6478Z" fill="#DEA095"/>
<path d="M801.291 31.748L818.153 38.2067L818.231 47.5656C818.24 47.7388 818.257 47.9033 818.266 48.0764C818.283 48.5006 818.274 48.9162 818.248 49.3231L818.17 49.9638C818.092 50.6218 817.961 51.2711 817.77 51.9031C816.492 55.9549 812.944 59.063 808.492 59.5565C808.448 59.5651 808.413 59.5651 808.37 59.5651C800.135 60.3963 792.804 54.232 792.343 45.912C791.995 39.7044 795.735 34.0683 801.291 31.748Z" fill="#EEB5AC"/>
<path d="M801.743 28.1905C801.787 28.1905 801.839 28.1905 801.882 28.1905L823.639 28L816.352 34.5452L823.7 35.03C818.735 39.0385 813.187 42.2765 807.248 44.6314L805.656 45.2634C805.308 43.0297 803.204 41.3761 800.804 41.7397C799.021 42.0168 797.586 43.428 797.299 45.2028C797.108 46.3629 797.395 47.4451 797.995 48.3022L798.03 56.6396C791.908 54.9686 787.386 49.4191 787.325 42.7873C787.247 34.7963 793.708 28.2511 801.743 28.1905Z" fill="#664A46"/>
<path d="M771.038 172.245L769.82 176.063L769.281 177.725L762.629 179.128C758.02 180.132 753.411 181.111 748.811 182.158L741.906 183.708L735.01 185.301C730.41 186.383 725.819 187.465 721.227 188.634C718.801 189.249 716.992 191.439 716.992 194.054C716.992 197.145 719.505 199.647 722.61 199.647C727.34 199.647 732.062 199.56 736.793 199.482L743.871 199.326L750.95 199.136C755.672 199.015 760.376 198.824 765.089 198.677L779.22 198.106C782.577 197.967 785.768 196.045 787.36 192.833L788.116 191.301L791.099 185.258L771.038 172.245Z" fill="#EEB5AC"/>
<path d="M793.925 79.3401C791.429 80.6387 788.951 81.9806 786.49 83.3226C784.02 84.6645 781.585 86.0671 779.142 87.4523L764.446 95.7117L766.654 88.6124C767.785 91.2011 768.854 93.807 769.915 96.4303L771.481 100.37L773.011 104.326C774.028 106.967 775.046 109.599 776.037 112.248C777.037 114.888 778.02 117.546 778.985 120.204C779.69 122.17 778.672 124.325 776.698 125.035C774.924 125.667 772.985 124.905 772.098 123.304C770.724 120.828 769.367 118.343 768.037 115.849C766.689 113.365 765.376 110.854 764.063 108.352L762.089 104.594L760.132 100.837C758.854 98.3177 757.593 95.7896 756.384 93.2356C755.193 90.7162 756.089 87.7553 758.367 86.2748L758.593 86.1277L772.741 76.9592C775.107 75.4441 777.472 73.9377 779.811 72.3706C782.151 70.8122 784.481 69.2452 786.794 67.6349C789.916 65.4618 794.212 66.2237 796.394 69.3318C798.577 72.4399 797.812 76.7168 794.69 78.8899C794.447 79.0543 794.168 79.2102 793.925 79.3401Z" fill="#EEB5AC"/>
<path d="M734.314 200.929L721.044 188.444L713.792 188.323L713.296 218.097C713.253 220.807 715.418 223.032 718.14 223.075L727.549 202.366C728.958 203.812 731.28 203.855 732.732 202.453L734.314 200.929Z" fill="#373C41"/>
<path d="M724.208 197.751L715.802 216.163L717.765 217.052L726.171 198.639L724.208 197.751Z" fill="white"/>
<path d="M858.214 242.675C854.231 233.005 850.092 223.421 845.909 213.863L842.761 206.694L839.587 199.543C837.483 194.773 835.318 190.028 833.178 185.275L829.97 178.141C828.9 175.769 827.839 173.379 826.787 170.999L823.622 163.847L822.021 160.28C821.482 159.094 820.952 157.9 820.404 156.722C818.221 151.986 815.926 147.32 813.499 142.714C812.873 141.519 812.23 140.324 811.586 139.13C812.595 135.71 813.473 132.299 814.221 128.896L786.012 125.961C785.42 128.463 784.751 131 784.011 133.597C782.768 137.987 782.924 141.563 784.333 144.316C784.342 144.549 784.359 144.775 784.394 144.991C784.481 145.684 784.646 146.333 784.872 146.948C785.098 147.562 785.412 148.134 785.707 148.714C786.916 151.017 788.142 153.311 789.403 155.588C791.916 160.142 794.56 164.627 797.316 169.051C798.003 170.159 798.699 171.258 799.403 172.358L801.499 175.656L805.743 182.236C807.16 184.427 808.569 186.626 809.969 188.825L814.169 195.431C816.969 199.829 819.743 204.244 822.578 208.634L826.804 215.222L831.065 221.793C836.761 230.546 842.5 239.273 848.388 247.922C849.849 250.06 852.657 250.969 855.153 249.948C858.023 248.788 859.388 245.524 858.214 242.675Z" fill="#373C41"/>
<path d="M794.586 150.697C794.186 151.389 794.073 151.684 794.586 150.697V150.697Z" fill="#373C41"/>
<path d="M855.162 249.956C858.023 248.788 859.397 245.524 858.223 242.675C854.24 233.005 850.101 223.421 845.918 213.863L842.77 206.694L839.596 199.543C837.492 194.773 835.326 190.028 833.187 185.275L829.978 178.141C828.909 175.769 827.848 173.379 826.796 170.999L825.761 168.652L805.569 181.968L805.743 182.245C807.16 184.435 808.569 186.634 809.969 188.833L814.169 195.439C816.969 199.837 819.743 204.253 822.578 208.642L826.804 215.231L831.065 221.802C836.761 230.555 842.501 239.282 848.388 247.931C849.849 250.069 852.657 250.978 855.162 249.956Z" fill="#EEB5AC"/>
<path d="M853.545 232.121L849.849 249.921L853.562 256.129L879.259 240.9C881.598 239.515 882.363 236.511 880.972 234.182L858.328 237.099C858.823 235.143 857.641 233.16 855.675 232.667L853.545 232.121Z" fill="#373C41"/>
<path d="M878.447 236.48L858.296 239.037L858.569 241.167L878.72 238.61L878.447 236.48Z" fill="white"/>
<path d="M873.948 55.6517L870.661 52.7168L866.93 52.2146C865.295 51.4181 863.339 52.3618 862.965 54.1366L859.938 68.4391L867.174 70.5516L873.287 62.5952L875.096 59.0542C875.73 57.8075 875.217 56.2751 873.948 55.6517Z" fill="#EEB5AC"/>
<path d="M859.866 68.396L860.136 66.6644L860.197 66.2662C860.214 66.145 860.231 66.0238 860.249 65.9112C860.284 65.6775 860.301 65.435 860.318 65.2099C860.353 64.7424 860.353 64.2922 860.327 63.8594C860.318 63.7468 860.31 63.6429 860.292 63.5304L860.284 63.4871V63.4784V63.4524L860.275 63.4005L860.249 63.2014C860.231 63.0715 860.214 62.933 860.205 62.8031C860.197 62.6733 860.197 62.5347 860.197 62.3962C860.197 62.2663 860.197 62.1278 860.214 61.998C860.24 61.7296 860.266 61.4698 860.336 61.2188C860.579 60.1972 861.084 59.2794 861.814 58.5695C862.536 57.8596 863.466 57.3401 864.458 57.141C864.579 57.115 864.71 57.0977 864.832 57.0804L865.014 57.0544C865.075 57.0458 865.136 57.0458 865.197 57.0458C865.449 57.0371 865.684 57.0285 865.945 57.0544C866.075 57.0631 866.197 57.0804 866.327 57.0977C866.353 57.0977 866.397 57.1064 866.414 57.1064L866.466 57.1237L866.579 57.1497L867.014 57.2536L868.762 57.6778L868.18 61.34L866.449 61.2101L866.014 61.1755L865.91 61.1668H865.858C865.84 61.1668 865.84 61.1668 865.84 61.1755C865.823 61.1841 865.806 61.1928 865.779 61.1928C865.745 61.1928 865.692 61.2274 865.649 61.2361C865.64 61.2361 865.623 61.2361 865.614 61.2447L865.588 61.262C865.571 61.2707 865.553 61.2794 865.527 61.288C865.379 61.3746 865.284 61.5045 865.206 61.6516C865.127 61.7902 865.119 61.972 865.145 62.0932C865.145 62.1278 865.171 62.1538 865.171 62.1798C865.171 62.1971 865.188 62.2057 865.188 62.2144C865.197 62.2231 865.197 62.2404 865.206 62.249C865.214 62.2577 865.223 62.2663 865.232 62.275C865.232 62.2837 865.24 62.2837 865.24 62.2923L865.249 62.3096L865.266 62.3789C865.319 62.552 865.371 62.7339 865.414 62.907C865.597 63.6169 865.71 64.3269 865.779 65.0281C865.814 65.3831 865.84 65.7294 865.849 66.0757C865.858 66.2489 865.858 66.422 865.866 66.5952V67.0713L865.884 68.8289L859.866 68.396Z" fill="url(#paint10_linear)"/>
<path d="M781.351 137.112L785.36 135.987L787.882 132.982C789.456 131.987 789.63 129.762 788.229 128.541L785.351 126.022C785.325 125.762 785.282 125.511 785.229 125.26C785.003 124.273 784.473 123.355 783.725 122.628C783.542 122.437 783.334 122.282 783.116 122.117C783.012 122.03 782.899 121.97 782.786 121.892C782.673 121.823 782.551 121.753 782.438 121.684C782.316 121.624 782.194 121.572 782.073 121.511L781.881 121.433L781.838 121.416L781.812 121.407L781.803 121.398L781.768 121.381C781.673 121.338 781.568 121.286 781.473 121.243C781.081 121.043 780.69 120.801 780.316 120.533C780.125 120.394 779.934 120.256 779.751 120.1C779.655 120.022 779.56 119.944 779.473 119.866L779.168 119.606L777.82 118.472L777.777 118.533L777.751 118.507L772.177 123.554L776.203 133.718L777.89 136.342C778.612 137.51 780.177 137.857 781.351 137.112Z" fill="#EEB5AC"/>
<path d="M793.925 79.3405C794.169 79.2107 794.447 79.0462 794.682 78.8817C797.804 76.7086 798.569 72.4317 796.386 69.3236C794.204 66.2155 789.908 65.4623 786.786 67.6267C784.473 69.237 782.142 70.8041 779.803 72.3625C778.646 73.1416 777.473 73.9035 776.299 74.6654L781.516 86.0935C783.168 85.1585 784.812 84.2235 786.482 83.3231C788.96 81.9811 791.43 80.6478 793.925 79.3405Z" fill="#A4E603"/>
</g>
<defs>
<linearGradient id="paint0_linear" x1="719.999" y1="415.218" x2="719.999" y2="-44.5503" gradientUnits="userSpaceOnUse">
<stop stop-color="#F9F9F9"/>
<stop offset="1" stop-color="#69D9EE"/>
</linearGradient>
<linearGradient id="paint1_linear" x1="1159.72" y1="18.6246" x2="976.509" y2="18.6246" gradientUnits="userSpaceOnUse">
<stop offset="0.3781" stop-color="#53A45D"/>
<stop offset="1" stop-color="#61BE6A"/>
</linearGradient>
<linearGradient id="paint2_linear" x1="1047.88" y1="115.928" x2="1129.96" y2="115.928" gradientUnits="userSpaceOnUse">
<stop stop-color="#A4E603"/>
<stop offset="0.7439" stop-color="#61BE6A"/>
</linearGradient>
<linearGradient id="paint3_linear" x1="1046.32" y1="60.1002" x2="1171" y2="60.1002" gradientUnits="userSpaceOnUse">
<stop stop-color="#A4E603"/>
<stop offset="0.8875" stop-color="#61BE6A"/>
</linearGradient>
<linearGradient id="paint4_linear" x1="1305.5" y1="48.4059" x2="1304.47" y2="170.188" gradientUnits="userSpaceOnUse">
<stop offset="0.3374" stop-color="#53A45D"/>
<stop offset="1" stop-color="#61BE6A"/>
</linearGradient>
<linearGradient id="paint5_linear" x1="1319.16" y1="-27.2697" x2="1319.16" y2="101.641" gradientUnits="userSpaceOnUse">
<stop offset="0.4256" stop-color="#53A45D"/>
<stop offset="1" stop-color="#61BE6A"/>
</linearGradient>
<linearGradient id="paint6_linear" x1="1334.15" y1="-46.9651" x2="1334.15" y2="26.9098" gradientUnits="userSpaceOnUse">
<stop offset="0.196" stop-color="#53A45D"/>
<stop offset="1" stop-color="#61BE6A"/>
</linearGradient>
<linearGradient id="paint7_linear" x1="737.504" y1="223.04" x2="737.504" y2="200.803" gradientUnits="userSpaceOnUse">
<stop stop-color="#61BE6A"/>
<stop offset="1" stop-color="#A4E603"/>
</linearGradient>
<linearGradient id="paint8_linear" x1="704.806" y1="219.364" x2="704.806" y2="303" gradientUnits="userSpaceOnUse">
<stop stop-color="#DB4F69"/>
<stop offset="1" stop-color="#F7F7F7"/>
</linearGradient>
<linearGradient id="paint9_linear" x1="716.998" y1="164.173" x2="810.441" y2="164.173" gradientUnits="userSpaceOnUse">
<stop stop-color="#373C41"/>
<stop offset="1"/>
</linearGradient>
<linearGradient id="paint10_linear" x1="870.28" y1="60.7242" x2="858.866" y2="65.9145" gradientUnits="userSpaceOnUse">
<stop stop-color="#DEA095"/>
<stop offset="1" stop-color="#EEB5AC"/>
</linearGradient>
<clipPath id="clip0">
<rect width="1440" height="303" fill="white"/>
</clipPath>
<clipPath id="clip1">
<rect width="252" height="316" fill="white" transform="translate(919 -93)"/>
</clipPath>
<clipPath id="clip2">
<rect width="197" height="416" fill="white" transform="translate(1206 -222)"/>
</clipPath>
<clipPath id="clip3">
<rect width="1533" height="115" fill="white" transform="matrix(1 0 0 -1 -29 303)"/>
</clipPath>
</defs>
</svg>
