<svg width="346" height="246" viewBox="0 0 346 246" fill="none" xmlns="http://www.w3.org/2000/svg">
<path opacity="0.3" d="M200.167 246C280.587 246 345.78 238.618 345.78 229.512C345.78 220.406 280.587 213.024 200.167 213.024C119.747 213.024 54.5538 220.406 54.5538 229.512C54.5538 238.618 119.747 246 200.167 246Z" fill="#373C41"/>
<path d="M94.8704 220.041L89.1489 230.064C87.8469 232.336 85.7179 233.401 83.589 233.468C80.101 233.572 79.0365 233.42 79.0365 233.42L76.575 216.704C76.575 212.986 79.5878 209.972 83.3039 209.972H89.0254C94.1956 209.972 97.4366 215.553 94.8704 220.041Z" fill="#BC445C"/>
<path d="M91.2399 220.041L85.5184 230.064C82.0969 236.054 72.9444 233.629 72.9444 226.726V216.704C72.9444 212.986 75.9572 209.972 79.6733 209.972H85.3948C90.5651 209.972 93.806 215.553 91.2399 220.041Z" fill="url(#paint0_linear)"/>
<path d="M81.6217 224.805H46.2662C44.584 224.805 43.2249 223.446 43.2249 221.763C43.2249 220.079 44.584 218.72 46.2662 218.72H81.6217C83.3039 218.72 84.663 220.079 84.663 221.763C84.663 223.446 83.3039 224.805 81.6217 224.805Z" fill="#DB4F69"/>
<path d="M52.9096 220.041L47.1881 230.064C45.8861 232.336 43.7571 233.401 41.6282 233.468C38.1402 233.572 37.0757 233.42 37.0757 233.42L34.6141 216.704C34.6141 212.986 37.627 209.972 41.3431 209.972H47.0646C52.2348 209.972 55.4758 215.553 52.9096 220.041Z" fill="#BC445C"/>
<path d="M49.0224 220.041L43.3009 230.064C39.8794 236.054 30.7269 233.629 30.7269 226.726V216.704C30.7269 212.986 33.7397 209.972 37.4559 209.972H43.1774C48.3476 209.972 51.5886 215.553 49.0224 220.041Z" fill="url(#paint1_linear)"/>
<path d="M181.016 238.716C225.192 238.716 261.003 205.778 261.003 165.147C261.003 124.516 225.192 91.5781 181.016 91.5781C136.841 91.5781 101.029 124.516 101.029 165.147C101.029 205.778 136.841 238.716 181.016 238.716Z" fill="#40DC9E"/>
<path d="M181.016 140.349C208.341 140.349 237.024 134.672 247.336 124.003C246.3 122.586 245.188 121.226 244.048 119.886C237.034 127.826 213.093 135.185 181.016 135.185C148.94 135.185 124.999 127.826 117.985 119.886C116.844 121.226 115.742 122.596 114.696 124.003C125.008 134.681 153.692 140.349 181.016 140.349Z" fill="#37BE8A"/>
<path d="M240.379 115.854C239.087 114.542 237.737 113.287 236.349 112.06C225.258 117.623 205.508 121.921 181.016 121.921C156.524 121.921 136.774 117.623 125.683 112.06C124.295 113.287 122.946 114.542 121.653 115.854C134.959 123.214 158.453 127.074 181.016 127.074C203.579 127.074 227.073 123.204 240.379 115.854Z" fill="#37BE8A"/>
<path d="M181.016 153.623C212.038 153.623 244.694 147.385 254.312 135.68C253.466 133.892 252.544 132.143 251.546 130.431C247.859 139.322 219.936 148.46 181.016 148.46C142.097 148.46 114.164 139.322 110.486 130.431C109.488 132.143 108.575 133.892 107.72 135.68C117.338 147.385 149.995 153.623 181.016 153.623Z" fill="#37BE8A"/>
<path d="M181.016 166.907C213.72 166.907 248.087 160.916 259.216 149.677C258.722 147.556 258.142 145.455 257.449 143.411C254.027 152.396 223.604 161.743 181.016 161.743C138.428 161.743 108.005 152.396 104.584 143.411C103.89 145.465 103.31 147.556 102.816 149.686C113.936 160.916 148.312 166.907 181.016 166.907Z" fill="#37BE8A"/>
<path d="M110.03 199.046C112.206 202.887 114.725 206.529 117.576 209.943C132.678 216.551 157.313 220.013 181.016 220.013C204.72 220.013 229.364 216.551 244.456 209.943C247.308 206.539 249.826 202.897 252.003 199.055C244.808 207.185 217.655 214.859 181.016 214.859C144.368 214.849 117.215 207.176 110.03 199.046Z" fill="#37BE8A"/>
<path d="M108.195 195.585C108.157 195.337 108.119 195.081 108.119 194.833H107.825C107.948 195.09 108.072 195.337 108.195 195.585Z" fill="#8DC603"/>
<path d="M254.198 194.843H253.903C253.903 195.09 253.875 195.337 253.827 195.584C253.961 195.337 254.084 195.09 254.198 194.843Z" fill="#8DC603"/>
<path d="M104.213 185.771C105.135 188.691 106.256 191.534 107.549 194.291C123.05 202.44 153.007 206.729 181.719 206.729C209.32 206.729 238.07 202.764 254.027 195.223C255.253 192.713 256.318 190.136 257.239 187.493C247.118 194.947 218.89 201.575 181.719 201.575C141.726 201.566 112.073 193.901 104.213 185.771Z" fill="#37BE8A"/>
<path d="M101.533 173.401C101.818 175.73 102.217 178.022 102.721 180.276C118.289 188.9 150.232 193.455 180.798 193.455C211.696 193.455 244 188.805 259.368 179.99C259.882 177.689 260.271 175.35 260.547 172.982C251.689 180.922 221.39 188.291 180.798 188.291C140.918 188.291 110.971 181.179 101.533 173.401Z" fill="#37BE8A"/>
<path d="M260.994 165.68C260.994 165.499 261.003 165.328 261.003 165.147C261.003 163.179 260.918 161.23 260.756 159.309C252.535 167.401 222.103 175.017 181.111 175.017C139.835 175.017 109.269 167.296 101.295 159.138C101.124 161.125 101.029 163.122 101.029 165.147C101.029 165.28 101.039 165.423 101.039 165.556C115.456 175.112 149.035 180.171 181.111 180.171C213.045 180.18 246.481 175.16 260.994 165.68Z" fill="#37BE8A"/>
<path d="M64.1435 231.68L58.422 241.702C57.12 243.974 54.991 245.039 52.8621 245.106C49.3741 245.211 48.3096 245.058 48.3096 245.058L45.848 228.342C45.848 224.624 48.8608 221.61 52.577 221.61H58.2985C63.4687 221.61 66.7001 227.191 64.1435 231.68Z" fill="#BC445C"/>
<path d="M60.513 231.68L54.7915 241.702C51.37 247.692 42.2175 245.268 42.2175 238.364V228.342C42.2175 224.624 45.2303 221.61 48.9464 221.61H54.6679C59.8382 221.61 63.0791 227.191 60.513 231.68Z" fill="url(#paint2_linear)"/>
<path d="M50.8947 236.443H15.5393C13.8571 236.443 12.498 235.084 12.498 233.401C12.498 231.718 13.8571 230.358 15.5393 230.358H50.8947C52.577 230.358 53.9361 231.718 53.9361 233.401C53.9361 235.084 52.577 236.443 50.8947 236.443Z" fill="#DB4F69"/>
<path d="M22.1827 231.68L16.4612 241.702C15.1591 243.974 13.0302 245.039 10.9013 245.106C7.41325 245.211 6.34878 245.058 6.34878 245.058L3.88721 228.342C3.88721 224.624 6.90002 221.61 10.6161 221.61H16.3376C21.5079 221.61 24.7488 227.191 22.1827 231.68Z" fill="#BC445C"/>
<path d="M18.2955 231.68L12.574 241.702C9.1525 247.702 0 245.268 0 238.364V228.342C0 224.624 3.01282 221.61 6.72894 221.61H12.4504C17.6207 221.61 20.8616 227.191 18.2955 231.68Z" fill="url(#paint3_linear)"/>
<path d="M124.561 69.3186C124.714 64.9351 124.809 60.5611 124.875 56.1776C124.961 51.7941 124.942 47.42 124.951 43.046L125.075 16.783L137.535 23.5627C133.723 25.8257 129.865 28.0223 125.997 30.1902L120.171 33.4137L114.316 36.5896C110.41 38.7101 106.513 40.8305 102.578 42.9034C98.6626 44.9953 94.7279 47.0682 90.7742 49.1031C88.0655 50.5009 84.7485 49.4359 83.3514 46.7259C82.0874 44.2632 82.8477 41.2964 85.0242 39.7275C88.6262 37.1221 92.2568 34.5548 95.8969 32.0064C99.5275 29.4391 103.187 26.9193 106.836 24.3994L112.32 20.615L117.833 16.878C121.52 14.4058 125.217 11.962 128.962 9.58486C132.745 7.18866 137.763 8.31069 140.158 12.1047C140.918 13.3123 141.327 14.6435 141.403 15.9747L141.422 16.3646L142.847 42.5896C143.066 46.9636 143.266 51.3376 143.57 55.7021C143.855 60.0762 144.169 64.4407 144.539 68.8147C145.005 74.3297 140.918 79.1792 135.406 79.6451C129.893 80.111 125.046 76.0223 124.58 70.5072C124.561 70.1269 124.552 69.6895 124.561 69.3186Z" fill="url(#paint4_linear)"/>
<path d="M303.183 95.5053L226.579 75.2803C214.347 72.0473 202.077 79.0077 200.405 90.1329C198.779 100.916 207.21 114.856 219.213 116.225C219.955 116.31 220.696 116.32 221.437 116.31L278.709 115.207L268.968 147.09L275.782 222.047L290.361 215.657L299.286 114.818L303.183 95.5053Z" fill="url(#paint5_linear)"/>
<path d="M292.357 203.562L275.516 222.257L275.592 232.25L316.792 231.946C320.537 231.917 323.55 228.856 323.521 225.109L294.562 212.824C296.52 210.837 296.492 207.642 294.515 205.683L292.357 203.562Z" fill="#40DC9E"/>
<path d="M293.188 215.123L292.022 217.861L317.772 228.838L318.939 226.1L293.188 215.123Z" fill="white"/>
<path d="M104.023 78.7036C104.166 73.9208 104.251 77.8479 104.251 77.8479C107.216 70.1743 111.978 66.8558 119.125 65.1442C122.052 64.4406 123.925 64.4501 126.985 63.6418C133.4 61.9493 140.519 59.9905 146.972 57.813C150.84 63.7369 153.986 70.0127 157.655 76.0412C174.05 81.3185 192.26 78.504 208.474 76.9826C220.991 75.813 226.341 83.8669 228.014 94.4216C228.119 95.0586 228.527 96.2092 228.318 96.9033C224.916 108.143 224.45 114.618 208.493 116.063C173.555 119.23 148.75 112.906 116.873 101.116C102.322 95.7337 103.947 86.149 104.023 78.7036Z" fill="#373C41"/>
<path d="M123.278 101.315C118.555 103.483 113.86 105.718 109.165 107.962C104.47 110.196 99.8221 112.516 95.1651 114.818L67.1753 128.548L66.8902 128.681C62.8509 130.659 57.9753 128.995 55.9889 124.954C54.8675 122.662 54.934 120.066 55.9224 117.917C57.8898 113.705 59.9332 109.521 62.0051 105.347L65.1414 99.1091L68.3253 92.8904C70.4543 88.7446 72.5737 84.5988 74.7501 80.472C76.8981 76.3357 79.084 72.2185 81.289 68.1107C82.7336 65.4292 86.0696 64.4308 88.7498 65.8762C91.1923 67.1979 92.2378 70.098 91.3064 72.6273C89.7002 77.0014 88.056 81.3659 86.3927 85.7209C84.7485 90.0758 83.0473 94.4213 81.3555 98.7573L78.8084 105.261L76.2138 111.746C74.465 116.063 72.6972 120.361 70.8439 124.631L59.591 114.009L86.8584 98.8999C91.4109 96.3991 95.9729 93.9174 100.487 91.3405C105.011 88.7731 109.526 86.1963 114.002 83.5624C118.773 80.7573 124.904 82.3548 127.707 87.1186C130.511 91.892 128.914 98.0251 124.153 100.83C123.877 101.011 123.573 101.173 123.278 101.315Z" fill="#EEB5AC"/>
<path d="M112.795 77.144C114.962 73.5307 113.784 68.8049 110.172 66.6369L94.0151 56.938C90.4035 54.77 85.68 55.9491 83.513 59.5624C81.3461 63.1757 82.5246 67.9016 86.1361 70.0696L102.293 79.7685C105.905 81.9364 110.628 80.7574 112.795 77.144Z" fill="#DEA095"/>
<path d="M71.6613 43.3503L95.5453 32.4438L105.392 41.9335C105.582 42.0952 105.772 42.2568 105.952 42.4185C106.409 42.8274 106.836 43.2648 107.235 43.7117L107.825 44.4534C108.423 45.2141 108.984 46.0033 109.44 46.8591C112.368 52.3266 112.006 59.1919 107.977 64.3171C107.939 64.3646 107.901 64.4122 107.863 64.4597C100.354 73.8638 86.4688 75.176 77.3258 67.1507C70.5018 61.1412 68.4299 51.4898 71.6613 43.3503Z" fill="#EEB5AC"/>
<path d="M68.4109 39.233C68.4584 39.1854 68.5059 39.1379 68.5534 39.0904L74.9022 32.5959C80.9278 26.4248 89.2725 23.0967 97.8928 23.4295L90.1944 52.6308C87.5047 50.7005 83.646 51.195 81.5836 54.0761C80.0725 56.187 80.0345 58.9541 81.5076 61.0935C82.5341 62.5769 84.0072 63.4422 85.5659 63.7084L94.3002 72.1997C86.3357 76.859 75.9382 75.8796 68.9716 69.1569C60.5509 61.046 60.3038 47.6482 68.4109 39.233Z" fill="#623C34"/>
<path d="M43.0918 101.544L49.8303 72.2948C52.6245 60.1807 64.7043 52.6213 76.8126 55.4074L65.8448 52.878C53.7365 50.0825 41.6567 57.6419 38.8625 69.7655L32.124 99.0143L43.0918 101.544Z" fill="#623C34"/>
<path d="M163.367 77.5435L149.367 111.528C165.439 115.588 181.254 117.528 199.711 116.662L190.824 78.656C181.653 79.3406 172.31 79.4357 163.367 77.5435Z" fill="#EEB5AC"/>
<path d="M187.061 3.56577C184.076 12.3613 185.369 21.0333 185.721 30.0856C185.939 35.7908 185.968 41.4865 186.139 47.1918C186.405 56.3011 186.681 65.4105 186.947 74.5198C186.994 75.9746 187.032 77.4295 187.08 78.8938C185.692 78.9699 184.295 79.0365 182.898 79.065L189.247 116.853C195.367 116.919 201.745 116.672 208.502 116.054C224.46 114.609 224.916 108.133 228.328 96.8938C228.385 96.6941 228.394 96.4564 228.375 96.2092C229.098 93.6038 229.307 90.8843 228.832 88.1743C228.708 87.4422 228.508 86.729 228.28 86.0158L210.707 30.58L212.446 31.7306L286.208 46.4976L284.231 30.6941C281.475 29.6006 278.709 28.5071 275.953 27.4231C269.205 24.7512 262.448 22.0792 255.7 19.4073C247.232 16.0602 238.773 12.7132 230.305 9.36609C222.407 6.24723 214.518 3.11886 206.62 0L187.061 3.56577Z" fill="#DB4F69"/>
<path d="M273.216 25.3314L286.341 46.7925L295.94 49.5596L307.364 9.95577C308.4 6.35196 306.328 2.59602 302.726 1.55957L282.72 25.8448C281.371 23.4011 278.301 22.5168 275.858 23.867L273.216 25.3314Z" fill="#40DC9E"/>
<path d="M302.36 6.25913L284.522 27.8384L286.814 29.7351L304.652 8.15588L302.36 6.25913Z" fill="white"/>
<defs>
<linearGradient id="paint0_linear" x1="92.1402" y1="221.719" x2="72.9481" y2="221.719" gradientUnits="userSpaceOnUse">
<stop stop-color="#DB4F69"/>
<stop offset="1" stop-color="#BC445C"/>
</linearGradient>
<linearGradient id="paint1_linear" x1="49.9228" y1="221.719" x2="30.7288" y2="221.719" gradientUnits="userSpaceOnUse">
<stop stop-color="#DB4F69"/>
<stop offset="1" stop-color="#BC445C"/>
</linearGradient>
<linearGradient id="paint2_linear" x1="61.4113" y1="233.359" x2="42.2193" y2="233.359" gradientUnits="userSpaceOnUse">
<stop stop-color="#DB4F69"/>
<stop offset="1" stop-color="#BC445C"/>
</linearGradient>
<linearGradient id="paint3_linear" x1="19.1939" y1="233.359" x2="0" y2="233.359" gradientUnits="userSpaceOnUse">
<stop stop-color="#DB4F69"/>
<stop offset="1" stop-color="#BC445C"/>
</linearGradient>
<linearGradient id="paint4_linear" x1="127.312" y1="19.9571" x2="118.888" y2="43.0135" gradientUnits="userSpaceOnUse">
<stop stop-color="#EEB5AC"/>
<stop offset="1" stop-color="#DEA095"/>
</linearGradient>
<linearGradient id="paint5_linear" x1="312.473" y1="169.906" x2="189.691" y2="110.543" gradientUnits="userSpaceOnUse">
<stop stop-color="#DB4F69"/>
<stop offset="1" stop-color="#BC445C"/>
</linearGradient>
</defs>
</svg>
