<svg width="209" height="214" viewBox="0 0 209 214" fill="none" xmlns="http://www.w3.org/2000/svg">
<g clip-path="url(#clip0)">
<path d="M56.9909 151.689L57.7447 153.451L75.6939 145.755C75.4343 145.172 75.1592 144.588 74.874 144.026L56.9909 151.689Z" fill="#373C41"/>
<path d="M48.7479 145.037L54.7191 126.348C54.1181 126.134 53.507 125.943 52.8944 125.767L46.9232 144.455L48.7479 145.037Z" fill="#373C41"/>
<path d="M41.9494 143.994L39.6291 124.5C38.9867 124.557 38.3584 124.631 37.7286 124.721L40.0489 144.216L41.9494 143.994Z" fill="#373C41"/>
<path d="M35.3265 145.838L25.1435 129.078C24.5866 129.395 24.0439 129.729 23.5083 130.072L33.6921 146.824L35.3265 145.838Z" fill="#373C41"/>
<path d="M30.07 150.289L13.866 139.244C13.4949 139.759 13.1309 140.283 12.7888 140.825L29.0005 151.871L30.07 150.289Z" fill="#373C41"/>
<path d="M27.126 156.483L7.77422 153.21C7.65227 153.835 7.54591 154.462 7.4544 155.098L26.8062 158.372L27.126 156.483Z" fill="#373C41"/>
<path d="M27.0413 163.38L8.05656 168.383C8.20257 169.002 8.36418 169.623 8.55065 170.23L27.5354 165.227L27.0413 163.38Z" fill="#373C41"/>
<path d="M29.7835 169.655L14.6343 182.098C15.0274 182.599 15.429 183.093 15.847 183.581L30.997 171.13L29.7835 169.655Z" fill="#373C41"/>
<path d="M34.9323 174.262L26.2641 191.862C26.8259 192.159 27.397 192.441 27.9773 192.708L36.6456 175.108L34.9323 174.262Z" fill="#373C41"/>
<path d="M41.4801 176.295L40.9341 195.912C41.5677 195.948 42.2027 195.969 42.8478 195.967L43.3938 176.35L41.4801 176.295Z" fill="#373C41"/>
<path d="M48.3249 175.432L55.9211 193.521C56.5173 193.286 57.1065 193.043 57.6823 192.775L50.0862 174.686L48.3249 175.432Z" fill="#373C41"/>
<path d="M54.1542 171.829L68.5996 185.091C69.0443 184.63 69.4733 184.167 69.8967 183.68L55.4513 170.418L54.1542 171.829Z" fill="#373C41"/>
<path d="M144.86 147.431L131.491 133.091C131.01 133.517 130.545 133.953 130.094 134.398L143.462 148.738L144.86 147.431Z" fill="#373C41"/>
<path d="M140.63 152.836L122.485 145.359C122.225 145.94 121.981 146.53 121.751 147.13L139.896 154.607L140.63 152.836Z" fill="#373C41"/>
<path d="M139.007 159.524L119.397 160.237C119.399 160.882 119.426 161.514 119.469 162.147L139.079 161.434L139.007 159.524Z" fill="#373C41"/>
<path d="M140.329 166.271L122.773 175.05C123.041 175.626 123.333 176.196 123.634 176.759L141.182 167.979L140.329 166.271Z" fill="#373C41"/>
<path d="M144.305 171.884L131.99 187.134C132.477 187.55 132.974 187.951 133.48 188.336L145.796 173.086L144.305 171.884Z" fill="#373C41"/>
<path d="M150.272 175.325L145.364 194.334C145.976 194.51 146.59 194.67 147.213 194.815L152.122 175.806L150.272 175.325Z" fill="#373C41"/>
<path d="M157.098 175.993L160.568 195.305C161.199 195.207 161.83 195.102 162.455 194.972L158.986 175.652L157.098 175.993Z" fill="#373C41"/>
<path d="M163.617 173.746L174.746 189.903C175.282 189.553 175.804 189.193 176.319 188.817L165.197 172.668L163.617 173.746Z" fill="#373C41"/>
<path d="M168.6 169.034L185.441 179.077C185.782 178.543 186.11 177.992 186.422 177.432L169.573 167.388L168.6 169.034Z" fill="#373C41"/>
<path d="M171.186 162.625L190.687 164.827C190.777 164.198 190.845 163.56 190.897 162.928L171.405 160.726L171.186 162.625Z" fill="#373C41"/>
<path d="M170.881 155.778L189.532 149.65C189.346 149.035 189.151 148.434 188.933 147.832L170.282 153.959L170.881 155.778Z" fill="#373C41"/>
<path d="M167.749 149.63L182.19 136.366C181.771 135.886 181.335 135.42 180.891 134.961L166.451 148.218L167.749 149.63Z" fill="#373C41"/>
<path d="M162.387 145.365L169.978 127.27C169.397 127.003 168.807 126.759 168.216 126.522L160.617 144.624L162.387 145.365Z" fill="#373C41"/>
<path d="M155.703 143.696L155.132 124.084C154.495 124.087 153.856 124.105 153.223 124.14L153.795 143.752L155.703 143.696Z" fill="#373C41"/>
<path d="M78.6612 162.228L82.205 162.759C82.2655 161.868 82.2948 160.975 82.2937 160.07C82.2965 159.874 82.2915 159.677 82.2857 159.487L78.7091 159.221C78.7138 159.504 78.7177 159.795 78.7224 160.079C78.7256 160.795 78.7047 161.517 78.6612 162.228Z" fill="#2F3439"/>
<path d="M76.6228 172.243C75.0983 176.48 72.7982 180.352 69.889 183.679C69.4662 184.159 69.0365 184.629 68.5919 185.091C65.4902 188.29 61.7902 190.913 57.6816 192.782C57.0988 193.042 56.5166 193.294 55.9204 193.528C51.9107 195.1 47.5511 195.963 42.9967 195.973C42.9492 195.977 42.8946 195.972 42.8471 195.975C42.202 195.977 41.567 195.956 40.9334 195.92C36.3331 195.667 31.964 194.547 27.9852 192.708C27.4048 192.441 26.8337 192.159 26.2719 191.863C22.3018 189.766 18.7686 186.955 15.8541 183.589C15.4354 183.109 15.0337 182.615 14.6413 182.106C11.9201 178.609 9.83002 174.59 8.54993 170.238C8.37126 169.632 8.20965 169.011 8.05584 168.391C7.43751 165.776 7.10524 163.048 7.10212 160.248C7.09396 158.501 7.22463 156.783 7.46223 155.099C7.55373 154.463 7.66009 153.836 7.78204 153.21C8.66864 148.733 10.3928 144.546 12.7803 140.832C13.1294 140.299 13.4864 139.766 13.8575 139.25C16.4722 135.628 19.7472 132.508 23.4997 130.079C24.0354 129.736 24.5781 129.402 25.1349 129.085C28.9511 126.897 33.1988 125.387 37.7278 124.729C38.3576 124.639 38.9937 124.565 39.6283 124.507C40.6834 124.41 41.7497 124.361 42.8279 124.353C46.3205 124.345 49.6943 124.844 52.8866 125.766C53.4992 125.942 54.1095 126.141 54.7114 126.348C58.7236 127.749 62.4102 129.85 65.6285 132.498L68.1275 129.934C61.2678 124.206 52.4389 120.762 42.8267 120.783C21.1087 120.833 3.48018 138.546 3.53868 160.257C3.59717 181.968 21.3024 199.604 43.0134 199.545C60.2004 199.508 74.8304 188.4 80.1531 173.001L76.6228 172.243Z" fill="#2F3439"/>
<path d="M78.1501 166.56C77.9391 167.712 77.6743 168.851 77.3572 169.961L80.8563 170.716C81.1886 169.528 81.4678 168.32 81.6861 167.09L78.1501 166.56Z" fill="#2F3439"/>
<path d="M75.7017 145.756C77.2175 149.194 78.2112 152.913 78.5742 156.817L82.182 157.087C81.46 147.739 77.4522 139.292 71.3227 132.909L68.8322 135.466C71.2435 137.998 73.2914 140.881 74.8819 144.027C75.1663 144.596 75.4422 145.173 75.7017 145.756Z" fill="#2F3439"/>
<path d="M194.598 159.801C194.548 138.083 176.834 120.454 155.123 120.513C150.812 120.523 146.672 121.233 142.79 122.526L144.12 125.852C147.009 124.906 150.061 124.321 153.223 124.147C153.855 124.113 154.494 124.094 155.131 124.092C159.749 124.079 164.165 124.952 168.222 126.538C168.822 126.768 169.404 127.019 169.984 127.287C174.094 129.153 177.787 131.774 180.897 134.978C181.342 135.436 181.777 135.902 182.196 136.382C185.106 139.716 187.413 143.598 188.939 147.848C189.157 148.45 189.352 149.051 189.538 149.666C190.5 152.887 191.028 156.294 191.033 159.826C191.036 160.872 190.993 161.914 190.904 162.944C190.851 163.584 190.776 164.214 190.693 164.843C190.069 169.369 188.59 173.625 186.436 177.449C186.124 178.009 185.797 178.552 185.455 179.094C183.045 182.877 179.942 186.178 176.334 188.826C175.819 189.202 175.296 189.57 174.761 189.913C171.074 192.317 166.921 194.072 162.462 194.988C161.836 195.118 161.213 195.224 160.574 195.321C158.859 195.584 157.1 195.717 155.307 195.721C152.53 195.726 149.823 195.415 147.228 194.824C146.605 194.679 145.983 194.518 145.378 194.343C141.021 193.098 137.001 191.036 133.495 188.353C132.988 187.967 132.491 187.567 132.004 187.151C128.612 184.259 125.767 180.743 123.647 176.784C123.347 176.22 123.062 175.651 122.786 175.074C120.926 171.116 119.773 166.761 119.49 162.173C119.447 161.539 119.429 160.901 119.419 160.263C119.419 160.176 119.411 160.089 119.412 160.003C119.398 155.479 120.24 151.147 121.765 147.154C121.994 146.555 122.239 145.964 122.498 145.383C124.334 141.262 126.934 137.544 130.108 134.415C130.559 133.97 131.032 133.535 131.505 133.108C134.062 130.848 136.939 128.941 140.066 127.475L138.744 124.149C125.208 130.414 115.805 144.138 115.841 160.004C115.891 181.722 133.605 199.35 155.316 199.292C177.027 199.233 194.648 181.519 194.598 159.801Z" fill="#2F3439"/>
<path d="M81.6861 167.09L83.1286 167.305C83.1158 167.107 83.1108 166.91 83.1058 166.713C83.104 165.4 83.3642 164.142 83.8495 163.001L82.2128 162.76L78.669 162.228L48.8211 157.76C48.9153 158.178 48.9613 158.607 48.9662 159.055C48.9723 160.157 48.6788 161.183 48.1774 162.08L78.1579 166.561L81.6861 167.09Z" fill="#A4E603"/>
<path d="M95.0429 157.475L92.0678 148.834L96.1579 148.827L96.1453 144.461L86.6905 144.481L91.0647 157.296C91.5683 157.21 92.0838 157.164 92.6104 157.166C93.4441 157.166 94.2596 157.275 95.0429 157.475Z" fill="#2F3439"/>
<path d="M114.773 95.4082C114.585 95.1545 114.363 94.9212 114.107 94.7162L90.1376 76.3792L67.569 68.7756C64.2915 67.6719 60.8385 68.3448 58.2651 70.2803L64.1793 88.9421L70.1778 90.9632L77.0925 88.9419L104.418 98.1427L98.3635 102.211L98.2536 102.626C95.2066 113.828 90.4263 124.481 84.0826 134.2L89.3793 137.657L113.979 99.9967C114.583 99.5897 115.058 98.974 115.279 98.2162C115.313 98.1093 115.331 98.0009 115.357 97.8933L116.332 96.3967L114.773 95.4082Z" fill="url(#paint0_linear)"/>
<path d="M114.107 94.7238L100.611 84.3982L93.2575 94.3997L104.408 98.1574L98.3542 102.226L98.2443 102.64C95.1974 113.842 90.417 124.496 84.0733 134.215L89.37 137.672L113.969 100.011C114.574 99.6045 115.049 98.9887 115.27 98.231C115.304 98.1241 115.322 98.0157 115.348 97.908L116.322 96.4114L114.789 95.4095C114.593 95.155 114.371 94.9218 114.107 94.7238Z" fill="#DEA095"/>
<path d="M95.0429 157.475C94.2673 157.276 93.4518 157.167 92.6104 157.167C92.0838 157.164 91.5683 157.21 91.0647 157.296C90.5774 157.376 90.1099 157.497 89.6557 157.643L86.4929 157.407L82.182 157.087L78.5742 156.817L50.1168 154.697L46.876 154.454C46.3969 154.032 45.8558 153.682 45.2662 153.43C44.511 153.099 43.6787 152.918 42.8054 152.922C39.4071 152.932 36.6614 155.692 36.671 159.091C36.6806 162.489 39.4413 165.235 42.8396 165.225C43.1465 165.223 43.4401 165.195 43.7351 165.152L76.6454 172.253L80.1601 173.01L87.2356 174.535C88.7787 175.601 90.6465 176.225 92.6604 176.219C92.9276 176.22 93.1963 176.206 93.4657 176.185L90.3805 167.211L94.5095 165.792L97.6208 174.823C100.358 173.147 102.177 170.126 102.172 166.68C102.166 163.998 101.049 161.581 99.2616 159.855C98.2166 158.844 96.937 158.07 95.5088 157.621C95.3417 157.558 95.1965 157.513 95.0429 157.475ZM80.8563 170.716L77.3572 169.961L47.1286 163.444C47.5362 163.042 47.8865 162.579 48.1696 162.079C48.6711 161.183 48.9645 160.157 48.9584 159.055C48.9606 158.615 48.9075 158.177 48.8133 157.759C48.7525 157.486 48.6748 157.227 48.5814 156.967L78.7098 159.213L82.2865 159.48L86.09 159.76C85.132 160.66 84.3599 161.759 83.8424 162.992C83.365 164.135 83.0977 165.384 83.0988 166.705C83.096 166.901 83.1088 167.099 83.1216 167.297C83.2219 168.816 83.67 170.235 84.3945 171.475L80.8563 170.716Z" fill="#373C41"/>
<path d="M91.7926 132.419L83.1983 137.821L81.6354 143.131L103.544 149.563C105.534 150.145 107.623 149.005 108.204 147.015L91.7926 132.419Z" fill="#8DC603"/>
<path d="M93.7062 136.872L92.6473 138.14L104.553 148.081L105.611 146.813L93.7062 136.872Z" fill="white"/>
<path d="M140.053 127.45L153.281 160.604C153.625 161.462 154.449 161.981 155.315 161.976C155.582 161.977 155.854 161.924 156.115 161.823C157.235 161.378 157.779 160.109 157.335 158.989L144.112 125.852L142.783 122.525L131.958 95.402C133.393 94.2792 136.141 92.2422 138.792 90.314L134.375 88.1198C131.624 90.1015 129.837 91.3719 128.675 92.1824C127.454 93.0423 126.967 94.6164 127.503 96.0197L129.844 101.879L78.545 120.63L72.2424 102.168L68.4095 104.449L74.7725 123.106L68.119 129.941L65.62 132.505L45.2499 153.436C45.8387 153.696 46.3798 154.046 46.8597 154.461L50.1004 154.704L68.8159 135.472L71.3064 132.915L76.3486 127.737L86.4758 157.421L89.6386 157.657C90.0935 157.503 90.5682 157.391 91.0476 157.31L86.6735 144.495L79.94 124.765L127.394 107.42L95.4776 157.618C96.898 158.067 98.1777 158.84 99.2304 159.852L132.246 107.926L138.714 124.139L140.053 127.45Z" fill="#A4E603"/>
<path d="M94.4946 165.783L90.3656 167.202L93.4509 176.175L94.9704 180.573L90.8803 180.581L90.8851 184.946L104.777 184.912L104.764 180.546L99.5801 180.56L97.5981 174.813L94.4946 165.783Z" fill="#2F3439"/>
<path d="M82.2662 96.2011C85.1238 94.5047 83.9175 90.1206 80.5901 90.129L58.809 90.1808C57.0078 90.1838 55.5482 91.6504 55.5512 93.4516L55.5792 106.32C55.5847 108.845 58.3389 110.411 60.5131 109.122L68.411 104.433L72.2438 102.152L82.2662 96.2011Z" fill="#2F3439"/>
<path d="M143.24 92.519L145.234 88.6335L128.542 80.342L126.556 84.2282L134.376 88.112L138.793 90.3062L143.24 92.519Z" fill="#2F3439"/>
<path d="M78.2664 86.2528C78.2601 86.2365 78.2545 86.2123 78.2419 86.1797C78.2475 86.2038 78.2609 86.2287 78.2664 86.2528Z" fill="#373C41"/>
<path d="M78.2795 86.2872C78.2722 86.2783 78.2737 86.2621 78.2672 86.2451C78.2737 86.2621 78.2722 86.2783 78.2795 86.2872Z" fill="#373C41"/>
<path d="M78.2791 86.2856C78.2976 86.3435 78.3033 86.3681 78.2791 86.2856V86.2856Z" fill="#373C41"/>
<path d="M78.2423 86.181C78.2297 86.1484 78.2241 86.1242 78.2178 86.1079C78.2312 86.1328 78.2367 86.1569 78.2423 86.181Z" fill="#373C41"/>
<path d="M78.2177 86.1077C78.2185 86.0994 78.2102 86.0986 78.211 86.0903C78.2193 86.0911 78.2185 86.0994 78.2177 86.1077Z" fill="#373C41"/>
<path d="M59.7294 80.013C61.4996 82.4214 60.7 80.5607 60.4881 80.9732C65.7759 82.6913 68.9826 83.9613 73.1035 78.7115C79.7563 70.2168 79.2106 66.0837 89.1977 59.6732C90.4509 59.4769 91.6502 59.5194 92.9399 59.4366C97.1778 56.4471 102.502 54.6139 106.902 52.1509C111.95 49.3321 112.232 47.0152 110.691 41.8366C109.878 39.1175 108.344 36.0471 106.899 33.693C104.709 30.1441 102.985 29.0848 98.8446 30.6208C95.3646 31.9124 91.0297 34.2636 87.6489 36.0049C81.5249 39.1468 76.995 43.5636 73.6909 49.5747C73.7479 49.47 73.7379 49.4926 73.6909 49.5747C67.4527 54.5931 63.7412 63.0037 58.9136 68.6586C55.0767 73.1487 57.9041 77.5207 59.7294 80.013Z" fill="#A4E603"/>
<path d="M105.736 39.3476C107.047 41.1228 109.574 41.5108 111.357 40.2006L120.976 33.1026C122.752 31.7917 121.475 30.4837 120.164 28.7085L121.821 27.4886C120.51 25.7133 117.983 25.3254 116.2 26.6356L106.58 33.7335C104.805 35.0445 104.425 37.5724 105.736 39.3476Z" fill="#DEA095"/>
<path d="M125.678 12.8714C125.839 12.9102 126.008 12.9498 126.169 12.9964C126.261 13.0208 126.353 13.0531 126.444 13.0853C126.513 13.1075 126.582 13.1219 126.642 13.1512C126.764 13.1941 126.886 13.2371 127.007 13.2878C127.037 13.2985 127.076 13.31 127.106 13.3208C127.25 13.3737 127.386 13.4337 127.53 13.4945C127.538 13.4952 127.553 13.5045 127.56 13.5052C128.156 13.7738 128.716 14.094 129.232 14.4573C131.009 15.7103 132.311 17.5004 132.938 19.5178C132.938 19.5178 130.727 30.2011 129.592 35.6462C129.186 37.6133 127.24 38.9002 125.284 38.4561C125.269 38.4546 125.261 38.4539 125.246 38.4446C119.704 37.1666 115.82 32.5769 115.366 27.3908C115.276 27.2565 115.187 27.1222 115.105 26.9887C115.023 26.8551 114.942 26.7138 114.868 26.581C114.868 26.581 114.869 26.5732 114.861 26.5724C114.787 26.4396 114.714 26.299 114.648 26.1591C114.649 26.1514 114.641 26.1506 114.642 26.1428C114.577 26.003 114.51 25.8709 114.453 25.7317C114.446 25.7232 114.446 25.7154 114.439 25.7069C114.381 25.5755 114.331 25.4372 114.281 25.2988C114.275 25.2824 114.268 25.2739 114.269 25.2583C114.219 25.1277 114.177 24.99 114.135 24.8524C114.128 24.8361 114.122 24.8197 114.116 24.7956C114.074 24.6657 114.039 24.5366 114.004 24.3997C113.999 24.3756 113.993 24.3514 113.988 24.3273C113.953 24.1982 113.925 24.0698 113.898 23.9414C113.893 23.9095 113.888 23.8854 113.883 23.8534C113.855 23.7328 113.836 23.6052 113.815 23.4853C113.811 23.4534 113.806 23.4137 113.802 23.3818C113.781 23.2619 113.769 23.1428 113.757 23.0237C113.753 22.9839 113.748 22.9442 113.744 22.9045C113.732 22.7854 113.727 22.6748 113.722 22.5564C113.719 22.5089 113.715 22.4692 113.711 22.4217C113.706 22.3111 113.709 22.2012 113.704 22.0828C113.701 22.0353 113.706 21.9808 113.702 21.9332C113.705 21.8234 113.707 21.7135 113.718 21.6044C113.723 21.5498 113.72 21.4945 113.725 21.44C113.736 21.3308 113.746 21.2217 113.756 21.1126C113.761 21.058 113.767 21.0035 113.772 20.9489C113.783 20.832 113.801 20.7236 113.82 20.6074C113.824 20.5606 113.837 20.5068 113.841 20.46C113.872 20.2978 113.903 20.1356 113.942 19.9741C115.12 14.8241 120.375 11.6474 125.678 12.8714Z" fill="#EEB5AC"/>
<path d="M115.536 11.8354C116.69 10.9377 117.979 10.3673 119.328 10.0699C123.778 9.08225 128.92 11.0146 132.185 14.0044C136.608 18.0474 138.08 24.2024 138.08 24.2024L129.84 22.5125L124.892 25.781C124.995 24.3594 124.033 23.0497 122.598 22.7569C121.039 22.4368 119.513 23.441 119.192 25.0072C118.9 26.4423 119.727 27.8416 121.067 28.3062L116.228 31.4986C116.228 31.4986 112.109 23.2376 112.093 23.1574C111.104 19.0533 112.108 14.5002 115.536 11.8354Z" fill="#623C34"/>
<path d="M138.992 90.86L137.694 86.703C137.766 86.5211 137.831 86.3307 137.88 86.1465C138.076 85.4022 138.05 84.5976 137.814 83.8439C137.762 83.6502 137.677 83.4692 137.591 83.2881C137.553 83.198 137.498 83.1064 137.443 83.0225C137.389 82.9309 137.342 82.8478 137.279 82.7632C137.216 82.6787 137.153 82.6019 137.09 82.5173L136.991 82.3979L136.97 82.3723L136.956 82.3552L136.949 82.3467L136.928 82.3211C136.879 82.2536 136.83 82.1861 136.782 82.1186C136.587 81.8485 136.419 81.5495 136.26 81.2279C136.181 81.0709 136.102 80.9062 136.031 80.7422C135.991 80.6599 135.96 80.5704 135.929 80.4888L135.814 80.2028L135.318 78.9605L135.268 78.9873L135.272 78.9483L134.375 79.1232L117.869 55.5295C117.848 55.504 117.826 55.4784 117.805 55.4606L103.527 31.6683C102.094 29.276 98.9253 28.5995 96.643 30.2007C93.3417 32.5158 92.5349 37.0638 94.85 40.3652L95.6746 41.544C97.1086 43.5982 99.3041 45.0008 101.78 45.4311L112.833 61.2277C112.985 61.4465 113.163 61.6442 113.359 61.82L117.237 71.3086L128.251 82.0998L128.663 86.8966C128.959 90.3455 131.697 93.0812 135.153 93.376L136.846 93.52C138.311 93.6661 139.434 92.2622 138.992 90.86Z" fill="#EEB5AC"/>
<path d="M59.6688 87.3211L65.4261 91.6472L77.819 127.239L74.1951 139.889L74.3787 140.276C79.2754 150.804 82.4861 162.031 83.8996 173.552L90.177 172.784L84.6543 127.727C84.655 127.719 84.655 127.719 84.6557 127.711L85.0035 97.5294L77.5846 74.8957C77.3945 74.3272 77.1632 73.7785 76.8892 73.265C78.2421 71.0963 79.2856 69.2052 80.6139 67.3802L64.1162 61.364C62.4074 63.971 60.7364 66.5107 58.9058 68.6579L56.4716 71.9514C55.5774 75.343 55.3142 79.1323 56.2865 82.4957L59.6688 87.3211Z" fill="#373C41"/>
<path d="M74.378 140.283C79.2747 150.812 82.4854 162.038 83.8989 173.559L90.1763 172.791L84.6536 127.734C84.6543 127.726 84.6543 127.726 84.655 127.719L84.9411 103.107L71.292 108.487L77.8261 127.247L74.2022 139.897L74.378 140.283Z" fill="#EEB5AC"/>
<path d="M88.8708 167.375L81.9565 174.807L81.8191 180.346L104.642 180.92C106.713 180.974 108.441 179.336 108.495 177.257L88.8708 167.375Z" fill="#A4E603"/>
<path d="M91.8689 171.19L91.1722 172.688L105.237 179.229L105.933 177.731L91.8689 171.19Z" fill="white"/>
</g>
<defs>
<linearGradient id="paint0_linear" x1="119.195" y1="117.539" x2="64.5838" y2="98.0419" gradientUnits="userSpaceOnUse">
<stop offset="0.1122" stop-color="#373C41"/>
<stop offset="1"/>
</linearGradient>
<clipPath id="clip0">
<rect width="190.547" height="196.536" fill="white" transform="translate(18.4675) rotate(5.39174)"/>
</clipPath>
</defs>
</svg>
