<svg width="23" height="24" viewBox="0 0 23 24" fill="none" xmlns="http://www.w3.org/2000/svg">
<path d="M11.4694 23.0153C5.06003 22.9846 -0.0152987 17.8786 3.46514e-05 11.4693C0.015368 5.0523 5.17503 -0.0383624 11.615 -2.90688e-05C17.9937 0.0383043 23.0384 5.1903 23 11.6226C22.9617 17.986 17.848 23.0383 11.4694 23.0153ZM10.1354 11.6916C10.1354 12.0213 10.1354 12.305 10.1354 12.5963C10.1354 14.1833 10.166 15.7703 10.1277 17.3573C10.1047 18.1623 10.6414 18.193 11.1167 18.055C11.7607 17.871 12.8724 18.7526 12.995 17.3803C13.0947 16.2533 13.018 15.1033 13.018 13.9686C13.018 13.2096 13.018 12.4506 13.018 11.7146C14.8657 11.4386 14.8657 11.4386 14.95 9.86697C14.95 9.84397 14.95 9.8133 14.9577 9.7903C15.0267 9.34564 14.835 9.1463 14.3904 9.16164C13.9534 9.17697 13.5164 9.16164 13.1024 9.16164C12.8877 7.2833 13.1867 7.29864 14.4134 7.3293C14.5974 7.33697 14.9347 7.06097 14.95 6.88464C15.019 6.28664 14.973 5.68097 14.973 5.0063C13.708 4.94497 12.4967 4.72264 11.4004 5.32064C9.86703 6.1563 10.2427 7.7663 10.074 9.13097C9.42237 9.18464 8.76303 8.99297 8.80137 10.0126C8.8627 11.5383 8.80137 11.5383 10.1354 11.6916Z" fill="#373C41"/>
</svg>
