<svg width="23" height="24" viewBox="0 0 23 24" fill="none" xmlns="http://www.w3.org/2000/svg">
<path d="M22.9308 11.5269C22.9308 17.9555 17.8787 23 11.4501 23.0077C5.04451 23.0077 4.57764e-05 17.9325 4.57764e-05 11.4808C4.57764e-05 5.10598 5.08296 0 11.4116 0C17.8787 0 22.9308 5.05985 22.9308 11.5269ZM4.87534 11.4808C4.87534 12.4112 4.85227 13.3417 4.88303 14.2645C4.95224 16.3484 6.19028 17.8633 8.25882 18.0247C10.3889 18.1862 12.5574 18.1785 14.6874 18.0247C16.6637 17.8786 17.9402 16.456 18.0248 14.4952C18.1094 12.5112 18.1017 10.5119 18.0248 8.52792C17.9479 6.62855 16.6406 5.13674 14.8335 5.0214C12.6727 4.89067 10.4812 4.85991 8.32034 4.99833C6.21335 5.12905 4.94455 6.63624 4.87534 8.77399C4.85227 9.67369 4.87534 10.5811 4.87534 11.4808Z" fill="#373C41"/>
<path d="M6.4056 11.4578C6.4056 10.5274 6.36715 9.59691 6.41329 8.66645C6.48249 7.24385 7.18226 6.45949 8.58179 6.40567C10.4888 6.33646 12.4113 6.33646 14.3183 6.40567C15.7179 6.4518 16.4791 7.22847 16.5099 8.628C16.5637 10.5889 16.5484 12.5498 16.5022 14.5106C16.4715 15.6487 15.8563 16.4254 14.7028 16.4869C12.5574 16.5946 10.4043 16.6023 8.26651 16.4946C7.05922 16.4331 6.49018 15.6949 6.42098 14.4799C6.36715 13.4725 6.41329 12.4652 6.41329 11.4501C6.41329 11.4578 6.41328 11.4578 6.4056 11.4578ZM8.03582 11.527C8.03582 13.4495 9.53532 14.9874 11.4347 14.9951C13.3879 15.0028 15.0335 13.3726 14.995 11.4732C14.9643 9.63535 13.334 8.0282 11.4962 8.0282C9.57377 8.02051 8.03582 9.57384 8.03582 11.527ZM15.9409 8.23582C15.9409 8.1051 15.9409 7.98206 15.9409 7.85134C15.5871 7.61295 15.2565 7.22847 14.8797 7.17464C14.3414 7.09774 13.9262 7.55144 14.0338 8.06665C14.103 8.39731 14.5721 8.85869 14.8874 8.87407C15.2257 8.88945 15.5948 8.46651 15.9409 8.23582Z" fill="#373C41"/>
<path d="M11.4424 13.4725C10.2812 13.4648 9.46611 12.6728 9.45842 11.5501C9.45073 10.3659 10.3427 9.5123 11.55 9.53537C12.665 9.55844 13.4878 10.4043 13.4802 11.5347C13.4802 12.7112 12.665 13.4802 11.4424 13.4725Z" fill="#373C41"/>
</svg>
