<svg width="1440" height="996" viewBox="0 0 1440 996" fill="none" xmlns="http://www.w3.org/2000/svg">
<g clip-path="url(#clip0)">
<path d="M-1463.83 593.97L1799.2 174.818V1338.16H-1463.83V593.97Z" fill="#B797EE"/>
<path d="M945.882 165.008C948.744 167.157 951.632 169.263 954.537 171.351C957.433 173.448 960.372 175.477 963.303 177.522L980.853 189.847L971.468 191.213C973.831 188.497 976.255 185.833 978.696 183.186L982.383 179.232L986.104 175.305C988.588 172.692 991.063 170.071 993.581 167.484C996.082 164.888 998.601 162.301 1001.14 159.74C1003.02 157.849 1006.07 157.841 1007.96 159.714C1009.66 161.407 1009.84 164.054 1008.48 165.937C1006.38 168.876 1004.26 171.79 1002.11 174.686C999.976 177.599 997.81 180.479 995.644 183.358L992.395 187.681L989.112 191.969C986.912 194.823 984.686 197.65 982.4 200.435C980.148 203.185 976.246 203.787 973.298 201.973L973.015 201.793L954.726 190.603C951.683 188.729 948.658 186.83 945.573 185.016C942.496 183.186 939.419 181.372 936.308 179.611C932.105 177.221 930.627 171.875 933.016 167.673C935.406 163.47 940.751 161.992 944.954 164.381C945.263 164.57 945.599 164.802 945.882 165.008Z" fill="#EEB5AC"/>
<path d="M954.537 171.36C951.641 169.272 948.744 167.166 945.882 165.017C945.599 164.811 943.338 163.066 943.338 163.066C943.338 163.066 940.941 163.04 938.964 163.427L934.091 177.857C934.71 178.545 935.449 179.155 936.291 179.636C939.402 181.407 942.488 183.22 945.556 185.042C948.529 186.796 951.452 188.618 954.382 190.431L954.649 190.509L960.347 175.485C958.413 174.119 956.462 172.752 954.537 171.36Z" fill="white"/>
<path d="M932.956 253.008C933.119 253.283 933.222 253.532 933.36 253.799C933.472 254.048 933.575 254.306 933.661 254.546C933.755 254.796 933.824 255.028 933.901 255.268L934.09 255.973C934.314 256.901 934.4 257.769 934.417 258.612C934.434 260.288 934.099 261.826 933.497 263.261L931.796 267.584L930.042 271.89C927.679 277.623 925.161 283.295 922.522 288.916L920.52 293.119L918.466 297.304C917.108 300.097 915.707 302.873 914.323 305.658L910.163 314.012L906.055 322.383L905.093 324.343C903.073 328.451 899.025 330.892 894.754 331.081L876.8 331.803C870.809 332 864.828 332.241 858.829 332.396L849.839 332.645L840.841 332.842C834.842 332.946 828.843 333.049 822.827 333.049C818.882 333.049 815.685 329.852 815.685 325.907C815.685 322.572 817.971 319.779 821.065 318.988C826.892 317.501 832.736 316.126 838.572 314.742L847.338 312.714L856.113 310.737C861.957 309.405 867.819 308.159 873.671 306.878L891.247 303.148L879.945 311.837L882.807 302.959L885.626 294.064C886.572 291.099 887.491 288.125 888.454 285.177L889.889 280.743L891.376 276.325C893.378 270.446 895.519 264.619 897.805 258.861L899.541 254.546L901.32 250.249C901.887 248.805 902.712 247.465 903.889 246.27C904.482 245.677 905.153 245.11 905.961 244.603L906.58 244.224C906.803 244.104 907.018 243.984 907.259 243.872C907.491 243.76 907.74 243.649 907.998 243.545C908.281 243.451 908.522 243.339 908.831 243.253C918.363 240.701 928.117 244.955 932.956 253.008Z" fill="url(#paint0_linear)"/>
<path d="M943.339 198.286V163.057H934.409H917.684H907.766V167.5C905.712 169.572 904.887 172.528 905.644 177.195C909.855 203.219 907.844 224.009 900.848 248.77C897.359 261.103 902.498 268.417 914.264 270.583C926.029 272.749 931.857 269.492 935.827 255.998C941.242 237.632 943.742 219.489 943.399 200.856C943.399 199.996 943.364 199.145 943.339 198.286Z" fill="white"/>
<path d="M914.272 270.583C913.765 271.469 913.619 271.838 914.272 270.583V270.583Z" fill="#A4E603"/>
<path d="M925.867 168.421C929.545 168.386 932.528 165.352 932.502 161.674L932.364 145.207C932.33 141.528 929.296 138.546 925.618 138.572C921.939 138.606 918.957 141.64 918.983 145.319L919.12 161.786C919.155 165.473 922.188 168.455 925.867 168.421Z" fill="#DEA095"/>
<path d="M922.79 118.787L944.207 127.029L944.31 138.976C944.319 139.19 944.336 139.405 944.345 139.62C944.37 140.153 944.362 140.686 944.327 141.21L944.224 142.027C944.121 142.86 943.967 143.694 943.709 144.502C942.093 149.667 937.581 153.646 931.926 154.265C931.874 154.274 931.823 154.274 931.771 154.282C921.312 155.348 911.995 147.476 911.411 136.861C910.981 128.937 915.734 121.744 922.79 118.787Z" fill="#EEB5AC"/>
<path d="M923.365 114.241C923.425 114.241 923.485 114.241 923.537 114.241H923.545L951.185 114L941.92 122.354L951.262 122.973C944.954 128.086 937.907 132.22 930.361 135.228L928.341 136.036C927.903 133.183 925.23 131.069 922.17 131.541C919.91 131.894 918.079 133.699 917.71 135.959C917.469 137.437 917.83 138.821 918.586 139.921L918.629 150.561C910.851 148.43 905.102 141.348 905.033 132.882C904.955 122.672 913.155 114.327 923.365 114.241Z" fill="#664A46"/>
<path d="M884.354 298.077L882.807 302.95L882.12 305.073L873.671 306.869C867.819 308.159 861.957 309.396 856.113 310.728L847.338 312.714L838.572 314.742C832.727 316.126 826.892 317.509 821.065 318.988C817.979 319.778 815.693 322.572 815.685 325.906C815.685 329.851 818.882 333.048 822.827 333.048C828.843 333.048 834.842 332.945 840.841 332.842L849.839 332.644L858.829 332.395C864.819 332.24 870.809 332 876.8 331.802L894.754 331.08C899.025 330.9 903.082 328.45 905.093 324.342L906.055 322.382L909.845 314.673L884.354 298.077Z" fill="#EEB5AC"/>
<path d="M913.438 179.525C910.267 181.183 907.121 182.885 903.984 184.604C900.847 186.314 897.753 188.102 894.642 189.872L875.975 200.418L878.777 191.351C880.212 194.651 881.578 197.986 882.919 201.329L884.905 206.357L886.847 211.402C888.136 214.771 889.434 218.131 890.689 221.517C891.961 224.895 893.207 228.281 894.427 231.676C895.33 234.177 894.023 236.936 891.522 237.838C889.262 238.646 886.795 237.666 885.678 235.638C883.933 232.475 882.214 229.304 880.521 226.124C878.811 222.944 877.144 219.755 875.468 216.558L872.958 211.763L870.492 206.95C868.867 203.735 867.26 200.512 865.73 197.255C864.217 194.041 865.352 190.259 868.248 188.377L868.532 188.196L886.503 176.491C889.503 174.548 892.519 172.632 895.484 170.629C898.458 168.644 901.423 166.641 904.354 164.587C908.316 161.82 913.773 162.782 916.549 166.753C919.317 170.715 918.354 176.173 914.384 178.949C914.1 179.146 913.748 179.361 913.438 179.525Z" fill="#EEB5AC"/>
<path d="M837.695 334.69L820.842 318.756L811.628 318.601L811.001 356.597C810.941 360.052 813.7 362.897 817.155 362.957L829.118 336.529C830.906 338.377 833.854 338.429 835.702 336.641L837.695 334.69Z" fill="#373C41"/>
<path d="M824.822 330.582L814.143 354.079L816.639 355.214L827.318 331.717L824.822 330.582Z" fill="white"/>
<path d="M995.119 387.968C990.057 375.626 984.806 363.396 979.486 351.192L975.489 342.047L971.45 332.92C968.777 326.826 966.027 320.776 963.311 314.708L959.237 305.606C957.871 302.573 956.53 299.53 955.189 296.488L951.167 287.36L949.13 282.805C948.451 281.293 947.772 279.771 947.076 278.267C944.309 272.225 941.387 266.269 938.31 260.391C937.511 258.861 936.703 257.34 935.878 255.818C937.158 251.452 938.276 247.104 939.23 242.763L903.382 239.016C902.626 242.213 901.784 245.453 900.847 248.762C899.265 254.366 899.463 258.93 901.251 262.445C901.268 262.737 901.285 263.029 901.328 263.313C901.44 264.189 901.646 265.023 901.938 265.805C902.222 266.596 902.617 267.318 903.004 268.057C904.542 270.996 906.098 273.927 907.697 276.823C910.894 282.633 914.246 288.366 917.752 294.004C918.62 295.422 919.514 296.823 920.399 298.224L923.063 302.435L928.452 310.832C930.248 313.634 932.045 316.427 933.815 319.237L939.152 327.669C942.71 333.281 946.234 338.919 949.835 344.514L955.207 352.919L960.621 361.307C967.858 372.48 975.146 383.619 982.631 394.654C984.479 397.387 988.055 398.547 991.226 397.241C994.87 395.763 996.615 391.603 995.119 387.968Z" fill="#373C41"/>
<path d="M914.273 270.583C913.766 271.469 913.62 271.838 914.273 270.583V270.583Z" fill="#373C41"/>
<path d="M991.235 397.258C994.87 395.763 996.615 391.603 995.12 387.967C990.057 375.626 984.806 363.396 979.486 351.192L975.49 342.047L971.451 332.92C968.778 326.826 966.028 320.776 963.312 314.708L959.238 305.606C957.871 302.572 956.531 299.53 955.19 296.487L953.875 293.497L928.221 310.488L928.444 310.84C930.24 313.634 932.037 316.435 933.807 319.246L939.144 327.677C942.702 333.289 946.226 338.927 949.827 344.522L955.199 352.928L960.613 361.316C967.85 372.489 975.138 383.627 982.623 394.663C984.488 397.396 988.064 398.556 991.235 397.258Z" fill="#EEB5AC"/>
<path d="M989.181 374.491L984.488 397.207L989.198 405.131L1021.85 385.698C1024.81 383.928 1025.79 380.095 1024.02 377.121L995.248 380.843C995.884 378.35 994.372 375.815 991.879 375.187L989.181 374.491Z" fill="#373C41"/>
<path d="M1020.84 380.088L995.241 383.35L995.588 386.07L1021.19 382.808L1020.84 380.088Z" fill="white"/>
<path d="M1015.1 149.289L1010.92 145.542L1006.18 144.906C1004.1 143.883 1001.62 145.095 1001.13 147.364L997.284 165.619L1006.48 168.309L1014.25 158.15L1016.55 153.63C1017.36 152.04 1016.72 150.08 1015.1 149.289Z" fill="#EEB5AC"/>
<path d="M997.217 165.558L997.561 163.341L997.638 162.834C997.664 162.679 997.681 162.524 997.707 162.378C997.75 162.078 997.775 161.777 997.801 161.476C997.844 160.883 997.853 160.307 997.81 159.748C997.801 159.611 997.784 159.473 997.767 159.336L997.758 159.284V159.267L997.75 159.241L997.741 159.181L997.707 158.923C997.681 158.751 997.664 158.58 997.647 158.408C997.638 158.236 997.638 158.064 997.638 157.892C997.638 157.72 997.638 157.548 997.655 157.385C997.689 157.05 997.724 156.706 997.81 156.388C998.111 155.082 998.764 153.913 999.683 153.002C1000.59 152.091 1001.78 151.429 1003.04 151.18C1003.19 151.154 1003.35 151.128 1003.51 151.102L1003.74 151.068C1003.82 151.059 1003.89 151.059 1003.97 151.051C1004.29 151.042 1004.59 151.025 1004.93 151.068C1005.09 151.085 1005.25 151.102 1005.41 151.12C1005.44 151.128 1005.49 151.128 1005.52 151.137L1005.59 151.154L1005.73 151.188L1006.28 151.326L1008.5 151.867L1007.75 156.543L1005.56 156.379L1005.01 156.336L1004.87 156.328L1004.81 156.319C1004.79 156.319 1004.79 156.328 1004.78 156.328C1004.75 156.336 1004.73 156.345 1004.71 156.354C1004.67 156.354 1004.6 156.397 1004.55 156.405C1004.53 156.414 1004.52 156.414 1004.5 156.414L1004.47 156.44C1004.44 156.457 1004.42 156.465 1004.39 156.474C1004.2 156.586 1004.08 156.749 1003.99 156.938C1003.89 157.119 1003.88 157.342 1003.9 157.497C1003.9 157.54 1003.93 157.574 1003.94 157.608C1003.94 157.626 1003.95 157.643 1003.96 157.66C1003.97 157.677 1003.98 157.686 1003.98 157.703C1004 157.72 1004.01 157.729 1004.02 157.737C1004.02 157.746 1004.02 157.746 1004.02 157.754V157.763L1004.03 157.789L1004.06 157.875C1004.13 158.098 1004.19 158.33 1004.25 158.554C1004.48 159.456 1004.63 160.367 1004.72 161.261C1004.76 161.708 1004.8 162.155 1004.81 162.593C1004.82 162.817 1004.83 163.032 1004.83 163.255L1004.84 163.865L1004.87 166.108L997.217 165.558Z" fill="url(#paint1_linear)"/>
<path d="M897.453 253.248L902.55 251.813L905.755 247.98C907.758 246.708 907.973 243.872 906.194 242.316L902.532 239.102C902.498 238.775 902.446 238.448 902.369 238.13C902.077 236.876 901.415 235.707 900.461 234.77C900.229 234.529 899.963 234.323 899.688 234.117C899.559 234.014 899.404 233.928 899.267 233.833C899.12 233.747 898.974 233.653 898.82 233.575C898.665 233.498 898.51 233.429 898.347 233.361L898.106 233.257L898.046 233.232L898.02 233.223L898.012 233.214L897.969 233.189C897.84 233.128 897.72 233.068 897.591 233.008C897.092 232.75 896.602 232.449 896.121 232.106C895.88 231.934 895.64 231.753 895.399 231.556C895.279 231.461 895.158 231.358 895.047 231.263L894.66 230.928L892.95 229.484L892.898 229.553L892.864 229.519L885.773 235.965L890.896 248.934L893.044 252.286C893.981 253.755 895.958 254.194 897.453 253.248Z" fill="#EEB5AC"/>
<path d="M913.438 179.524C913.748 179.361 914.1 179.146 914.392 178.94C918.354 176.173 919.326 170.715 916.558 166.744C913.791 162.782 908.333 161.811 904.362 164.579C901.432 166.633 898.467 168.627 895.493 170.62C894.015 171.617 892.528 172.589 891.041 173.56L897.667 188.145C899.764 186.95 901.862 185.755 903.984 184.604C907.121 182.885 910.267 181.183 913.438 179.524Z" fill="white"/>
<path d="M838.003 363L-903 655.978V759.688L838.003 363Z" fill="url(#paint2_linear)"/>
</g>
<defs>
<linearGradient id="paint0_linear" x1="815.693" y1="287.781" x2="934.418" y2="287.781" gradientUnits="userSpaceOnUse">
<stop stop-color="#373C41"/>
<stop offset="1"/>
</linearGradient>
<linearGradient id="paint1_linear" x1="1010.32" y1="155.755" x2="995.799" y2="162.33" gradientUnits="userSpaceOnUse">
<stop stop-color="#DEA095"/>
<stop offset="1" stop-color="#EEB5AC"/>
</linearGradient>
<linearGradient id="paint2_linear" x1="-32.4982" y1="759.689" x2="-32.4982" y2="363.002" gradientUnits="userSpaceOnUse">
<stop stop-color="#B797EE"/>
<stop offset="1" stop-color="#9D82D0"/>
</linearGradient>
<clipPath id="clip0">
<rect width="2489" height="1095" fill="white" transform="translate(-1049)"/>
</clipPath>
</defs>
</svg>
