<svg width="469" height="410" viewBox="0 0 469 410" fill="none" xmlns="http://www.w3.org/2000/svg">
<g clip-path="url(#clip0)">
<path d="M213.906 213.396C213.407 214.002 213.175 214.278 213.906 213.396V213.396Z" fill="#A4E603"/>
<path d="M206.605 183.548C215.243 169.533 231.189 145.669 236.252 133.71C238.106 116.417 238.738 107.878 245.504 94.2186C249.247 86.6676 252.92 76.8638 257.492 69.4553C258.428 67.9416 259.364 66.6326 260.327 65.5195L304.868 77.2912C310.403 82.7675 310.973 88.7424 307.096 98.7065C302.639 110.158 295.999 121.912 290.829 133.265C288.208 134.903 285.712 136.114 283.181 137.975C271.344 160.548 257.091 183.985 243.748 205.195C235.503 218.311 226.447 219.647 213.906 213.396C201.373 207.145 199.76 194.652 206.605 183.548Z" fill="#A4E603"/>
<path d="M205.384 211.881C205.366 211.828 205.349 211.775 205.331 211.704C205.349 211.757 205.366 211.819 205.384 211.881Z" fill="#373C41"/>
<path d="M205.42 211.98C205.411 211.953 205.402 211.917 205.393 211.882C205.402 211.917 205.411 211.953 205.42 211.98Z" fill="#373C41"/>
<path d="M205.42 211.98C205.464 212.114 205.482 212.176 205.42 211.98V211.98Z" fill="#373C41"/>
<path d="M205.331 211.704C205.304 211.624 205.286 211.562 205.277 211.518C205.295 211.588 205.313 211.651 205.331 211.704Z" fill="#373C41"/>
<path d="M205.277 211.517C205.268 211.499 205.268 211.49 205.268 211.473C205.259 211.473 205.268 211.49 205.277 211.517Z" fill="#373C41"/>
<path d="M45.2449 202.23C68.2594 220.217 93.9481 234.482 121.393 244.5L122.409 244.874L133.845 265.478L188.368 209.665C190.294 198.036 195.74 187.279 203.985 178.838L208.121 174.608C218.148 164.342 234.701 164.404 244.648 174.751C247.126 177.333 248.953 180.307 250.13 183.468L244.71 183.7L230.11 224.812C217.712 237.501 202.63 252.941 202.63 252.941C194.144 257.242 185.65 261.543 177.164 265.844C168.786 270.091 160.398 274.338 152.019 278.586C147.179 281.035 141.947 282.922 137.633 286.288C135.173 288.212 130.832 288.675 127.998 287.366C121.241 284.258 120.947 281.578 115.759 277.535C112.194 274.748 108.637 271.97 105.072 269.183C95.8288 261.961 86.5945 254.74 77.3512 247.518C68.4199 240.537 59.4797 233.556 50.5484 226.575C45.6727 222.764 40.7971 218.953 35.9214 215.141C35.7609 215.017 35.6094 214.892 35.449 214.768L45.2449 202.23Z" fill="url(#paint0_linear)"/>
<path d="M194.795 196.656C196.203 186.62 201.115 177.404 208.664 170.628L222.4 158.313L222.338 158.545C222.4 158.447 222.462 158.358 222.525 158.26L257.269 183.37C254.283 188.286 251.289 193.139 248.32 197.902L280.239 235.39L307.434 304.097L381.051 390.577L368.92 400.88C349.996 378.645 327.686 359.519 302.826 344.194L301.908 343.633L291.765 311.328L235.788 245.568L216.178 234.233L201.061 216.477L200.598 215.925C200.41 215.711 200.241 215.489 200.072 215.257L193.36 207.012L194.795 196.656Z" fill="#373C41"/>
<path d="M292.487 86.9524C294.483 80.2385 301.757 76.6322 308.317 79.0898L376.835 104.797L431.982 79.0097L433.596 73.5512L457.065 50.5955C459.837 47.8886 464.472 48.8502 465.934 52.4298L467.618 56.5615C471.059 64.994 467.921 74.6821 460.185 79.5083C460.185 79.5083 446.493 88.956 445.638 89.5793L408.192 116.587L378.029 123.247C377.138 123.3 376.273 123.22 375.453 123.024C374.562 123.033 373.662 122.918 372.788 122.659L326.376 108.866C320.84 111.858 314.333 112.535 308.299 110.745L304.823 109.712C295.125 106.845 289.599 96.6494 292.487 86.9524Z" fill="url(#paint1_linear)"/>
<path d="M121.972 147.058L123.755 141.777C125.511 136.559 128.514 131.902 132.124 127.735C132.124 127.735 132.124 127.726 132.133 127.726L156.405 93.328L182.717 77.1753C183.537 76.828 184.384 76.6321 185.222 76.5431C186.06 76.2403 186.942 76.0533 187.86 76.0177L236.234 73.8717C240.485 69.2325 246.413 66.4632 252.706 66.1872L256.325 66.0269C266.441 65.5817 275.007 73.4087 275.453 83.5153C275.765 90.5142 270.069 96.3021 263.063 96.124L189.901 94.2362L145.45 137.601L145.414 138.723L145.388 139.498C145.379 139.729 145.379 139.961 145.379 140.192C145.379 140.655 145.388 141.109 145.405 141.555C145.45 142.445 145.557 143.318 145.717 144.137C145.762 144.342 145.806 144.546 145.851 144.751L145.869 144.831L145.878 144.849L145.887 144.894L145.913 144.992L146.02 145.366C146.083 145.615 146.145 145.873 146.208 146.123C146.252 146.381 146.288 146.63 146.315 146.888C146.341 147.147 146.386 147.396 146.377 147.654C146.386 148.162 146.395 148.678 146.332 149.177C146.118 151.18 145.37 153.068 144.157 154.591C143.854 154.983 143.516 155.348 143.159 155.695L141.965 166.647C141.564 170.352 137.526 172.471 134.246 170.69L130.466 168.651C122.765 164.475 119.173 155.365 121.972 147.058Z" fill="#EEB5AC"/>
<path d="M280.819 236.922L307.417 304.115L381.033 390.595L368.902 400.898C349.979 378.663 327.668 359.536 302.809 344.212L301.89 343.651L291.747 311.345L250.041 262.353L280.819 236.922Z" fill="#EEB5AC"/>
<path d="M213.905 213.396C213.406 214.002 213.175 214.278 213.905 213.396V213.396Z" fill="#373C41"/>
<path d="M260.265 65.5464L320.448 81.0936L342.233 91.4584L332.375 113.746L295.544 113.221L244.586 96.1244L231.59 95.3052L228.648 74.2105L249.372 63.4717L260.265 65.5464Z" fill="#A4E603"/>
<path d="M366.495 373.846L365.996 399.366L375.025 409.971L418.799 372.777C422.775 369.393 423.265 363.436 419.878 359.456L366.495 373.846Z" fill="#373C41"/>
<path d="M415.842 364.633L378.492 375.956L379.698 379.927L417.048 368.603L415.842 364.633Z" fill="white"/>
<path d="M283.707 87.3709C288.85 89.4812 294.795 87.0058 296.908 81.8679L308.353 54.0682C310.465 48.9303 306.017 47.7816 300.874 45.6713L302.844 40.8806C297.701 38.7703 291.756 41.2457 289.643 46.3836L278.198 74.1834C276.077 79.3212 278.555 85.2516 283.707 87.3709Z" fill="#DEA095"/>
<path d="M323.871 10.8817C324.263 11.0509 324.646 11.229 325.021 11.4249C325.235 11.5317 325.448 11.6475 325.662 11.7632C325.823 11.8434 325.983 11.9235 326.135 12.0126C326.42 12.1729 326.705 12.342 326.982 12.5201C327.053 12.5647 327.133 12.6092 327.204 12.6537C327.534 12.8585 327.846 13.0722 328.167 13.2859C328.194 13.3037 328.212 13.3126 328.238 13.3304C329.584 14.2654 330.814 15.3161 331.929 16.4648C335.735 20.3917 338.106 25.4227 338.712 30.712C338.712 30.712 328.229 56.063 322.864 68.9833C320.929 73.6582 315.528 75.9199 310.884 73.8986C310.857 73.8897 310.821 73.8719 310.795 73.863C297.683 68.1107 290.231 54.9499 291.551 41.9138C291.39 41.5487 291.239 41.1747 291.096 40.8007C291.096 40.8007 291.096 40.8007 291.096 40.7918C290.953 40.4178 290.82 40.0438 290.704 39.6698C290.704 39.6609 290.695 39.652 290.695 39.652C290.579 39.2781 290.463 38.9041 290.365 38.5301C290.365 38.5123 290.356 38.5034 290.356 38.4856C290.258 38.1205 290.169 37.7465 290.089 37.3814C290.08 37.3547 290.08 37.328 290.071 37.3102C289.991 36.954 289.928 36.5889 289.866 36.2238C289.857 36.1882 289.857 36.1526 289.848 36.117C289.795 35.7608 289.741 35.4135 289.697 35.0573C289.688 35.0128 289.688 34.9594 289.679 34.9149C289.643 34.5765 289.607 34.2292 289.59 33.8909C289.59 33.8285 289.581 33.7662 289.581 33.7039C289.563 33.3744 289.554 33.0449 289.545 32.7155C289.545 32.6353 289.545 32.5641 289.536 32.4839C289.536 32.1723 289.536 31.8517 289.554 31.5401C289.554 31.451 289.554 31.362 289.563 31.2729C289.572 30.9702 289.599 30.6674 289.625 30.3647C289.634 30.2578 289.643 30.1599 289.652 30.053C289.679 29.7592 289.714 29.4742 289.759 29.1804C289.777 29.0646 289.786 28.9489 289.804 28.842C289.848 28.566 289.893 28.2899 289.946 28.005C289.973 27.8803 289.991 27.7557 290.017 27.631C290.071 27.3639 290.133 27.0967 290.205 26.8296C290.24 26.696 290.267 26.5625 290.294 26.4378C290.365 26.1707 290.445 25.9124 290.517 25.6453C290.552 25.5117 290.588 25.3782 290.632 25.2446C290.722 24.9686 290.82 24.6925 290.918 24.4165C290.962 24.3007 290.998 24.185 291.043 24.0692C291.194 23.6774 291.346 23.2945 291.515 22.9027C296.845 10.757 311.338 5.37874 323.871 10.8817Z" fill="#EEB5AC"/>
<path d="M299.278 3.57118C302.55 1.89714 306.008 1.09574 309.493 0.979978C320.956 0.623799 332.766 7.80971 339.434 16.732C348.463 28.7975 349.221 44.6831 349.221 44.6831L329.647 36.6424L315.875 42.3857C316.785 38.9219 315.029 35.2355 311.615 33.8375C307.907 32.3148 303.664 34.0868 302.14 37.791C300.74 41.1926 302.122 45.0393 305.233 46.8291L291.764 52.4389C291.764 52.4389 285.463 30.0976 285.454 29.8928C284.937 19.3232 289.545 8.53987 299.278 3.57118Z" fill="#623C34"/>
<path d="M433.542 73.4269L435.851 70.7734L436.386 70.1679C436.546 69.9809 436.706 69.8028 436.858 69.6158C437.161 69.2507 437.455 68.8768 437.732 68.5028C438.284 67.7548 438.774 66.989 439.184 66.2143C439.283 66.0184 439.389 65.8225 439.479 65.6266L439.514 65.5554L439.523 65.5376L439.541 65.4931L439.586 65.404L439.755 65.03C439.871 64.7807 439.987 64.5403 440.103 64.2999C440.236 64.0684 440.379 63.8368 440.521 63.6142C440.664 63.3916 440.807 63.1601 440.976 62.9553C441.306 62.5368 441.636 62.1183 442.019 61.7621C443.516 60.2929 445.361 59.2777 447.34 58.8414C449.31 58.4051 451.432 58.512 453.321 59.2332C453.553 59.3312 453.785 59.4291 454.016 59.5271L454.355 59.6785C454.462 59.7319 454.569 59.7942 454.676 59.8565C455.104 60.1059 455.523 60.3374 455.924 60.6668C456.129 60.8271 456.325 60.9785 456.521 61.1477C456.566 61.1833 456.628 61.2367 456.655 61.2634L456.735 61.3436L456.896 61.5039L457.519 62.145L460.006 64.7095L455.104 70.2837L452.332 68.2356L451.637 67.7281L451.467 67.6034L451.378 67.5411C451.351 67.5233 451.351 67.5322 451.334 67.5322C451.289 67.5233 451.253 67.5144 451.218 67.5055C451.164 67.4699 451.039 67.4699 450.959 67.4342C450.932 67.4253 450.915 67.4164 450.897 67.4164H450.825C450.781 67.4164 450.736 67.4075 450.701 67.3986C450.362 67.3808 450.05 67.5055 449.774 67.6658C449.488 67.826 449.283 68.1021 449.194 68.3425C449.159 68.3959 449.168 68.4672 449.141 68.5117C449.123 68.5295 449.141 68.574 449.132 68.5918C449.132 68.6185 449.123 68.6452 449.123 68.6631C449.132 68.6898 449.141 68.7165 449.141 68.7432C449.141 68.7521 449.141 68.7699 449.141 68.7788V68.7877L449.132 68.8322L449.096 68.9658C448.998 69.322 448.891 69.6693 448.775 70.0254C448.321 71.4234 447.759 72.7502 447.126 74.0146C446.814 74.6469 446.476 75.2613 446.128 75.8579C445.959 76.1606 445.78 76.4545 445.602 76.7483L445.103 77.5586L443.258 80.5505L433.542 73.4269Z" fill="url(#paint2_linear)"/>
<path d="M37.9448 216.717L39.0768 210.11L45.245 202.238C68.2595 220.225 93.9482 234.49 121.393 244.508L122.409 244.882L133.845 265.487L169 229.495L187.433 260.652C184.01 262.388 180.587 264.115 177.164 265.852C168.786 270.099 160.398 274.347 152.019 278.594C147.179 281.043 141.947 282.931 137.633 286.296C135.173 288.22 130.832 288.683 127.998 287.374C121.241 284.266 120.947 281.586 115.759 277.543C112.194 274.756 108.638 271.978 105.072 269.191C95.8289 261.969 86.5945 254.748 77.3513 247.526C68.42 240.545 59.4798 233.564 50.5485 226.583C46.3413 223.28 42.1431 220.003 37.9448 216.717Z" fill="#EEB5AC"/>
<path d="M53.0352 228.249L48.3913 203.147L37.4099 194.572L2.0056 239.78C-1.21216 243.894 -0.490172 249.824 3.62785 253.039L53.0352 228.249Z" fill="#373C41"/>
<path d="M38.8795 224.932L4.56641 243.516L6.54604 247.163L40.8591 228.58L38.8795 224.932Z" fill="white"/>
</g>
<defs>
<linearGradient id="paint0_linear" x1="67.9209" y1="264.267" x2="232.872" y2="156.034" gradientUnits="userSpaceOnUse">
<stop stop-color="#373C41"/>
<stop offset="1"/>
</linearGradient>
<linearGradient id="paint1_linear" x1="469.003" y1="86.1678" x2="291.723" y2="86.1678" gradientUnits="userSpaceOnUse">
<stop stop-color="#EEB5AC"/>
<stop offset="1" stop-color="#DEA095"/>
</linearGradient>
<linearGradient id="paint2_linear" x1="429.948" y1="73.27" x2="455.716" y2="67.264" gradientUnits="userSpaceOnUse">
<stop stop-color="#EEB5AC"/>
<stop offset="1" stop-color="#DEA095"/>
</linearGradient>
<clipPath id="clip0">
<rect width="469" height="409" fill="white" transform="translate(0 0.971191)"/>
</clipPath>
</defs>
</svg>
