<svg width="187" height="317" viewBox="0 0 187 317" fill="none" xmlns="http://www.w3.org/2000/svg">
<path d="M37.6135 165.239C37.6044 165.212 37.5953 165.167 37.5771 165.13C37.5862 165.167 37.6044 165.203 37.6135 165.239Z" fill="#373C41"/>
<path d="M37.6318 165.305C37.6226 165.286 37.6226 165.268 37.6133 165.24C37.6226 165.268 37.6226 165.286 37.6318 165.305Z" fill="#373C41"/>
<path d="M37.6309 165.302C37.6579 165.392 37.6669 165.428 37.6309 165.302V165.302Z" fill="#373C41"/>
<path d="M37.5774 165.123C37.5592 165.077 37.5501 165.032 37.541 165.004C37.5501 165.05 37.5683 165.095 37.5774 165.123Z" fill="#373C41"/>
<path d="M37.5407 165.004C37.5407 164.995 37.5313 164.985 37.5313 164.976C37.5313 164.976 37.5312 164.995 37.5407 165.004Z" fill="#373C41"/>
<path d="M53.1657 158.5C60.8739 158.5 67.1261 152.278 67.1261 144.607V94.9463L70.1202 90.3815V65.9363C70.1202 58.9442 64.4232 53.2744 57.3975 53.2744H42.6454C37.0758 53.2744 32.5527 57.7668 32.5527 63.3188V81.9674C32.5527 90.3906 34.8552 98.6598 39.2053 105.887V144.607C39.2053 152.278 45.4574 158.5 53.1657 158.5Z" fill="#A4E603"/>
<path d="M49.6711 58.899C53.2385 58.899 56.1507 55.9917 56.1507 52.4503V33.2583C56.1507 29.7079 53.2294 30.1154 49.6711 30.1154V26.8096C46.1036 26.8096 43.1914 29.7169 43.1914 33.2583V52.4503C43.1914 56.0007 46.1127 58.899 49.6711 58.899Z" fill="#E08B7B"/>
<path d="M54.8312 3.99449C55.1043 4.00354 55.3773 4.0126 55.6503 4.03071C55.805 4.03977 55.9597 4.05789 56.1144 4.076C56.2236 4.08506 56.3419 4.09411 56.4512 4.11223C56.6605 4.1394 56.8698 4.16657 57.0791 4.2028C57.1337 4.21186 57.1883 4.22091 57.2429 4.22997C57.4886 4.27526 57.7252 4.32054 57.971 4.37489C57.9892 4.37489 58.0074 4.38394 58.0256 4.38394C59.0539 4.61037 60.0368 4.93643 60.9742 5.344C64.1867 6.7388 66.8168 9.13894 68.4731 12.1097C68.4731 12.1097 68.4458 29.6171 68.4185 38.5565C68.4094 41.7899 65.7611 44.4346 62.5213 44.3622C62.5031 44.3622 62.4758 44.3622 62.4576 44.3622C53.2841 44.1448 45.6578 38.1761 43.2552 30.1606C43.0732 29.9794 42.8912 29.7983 42.7092 29.6081C42.5363 29.4269 42.3634 29.2367 42.1995 29.0375L42.1904 29.0284C42.0266 28.8382 41.8719 28.648 41.7172 28.4488C41.7081 28.4397 41.7081 28.4307 41.699 28.4307C41.5534 28.2405 41.4078 28.0412 41.2713 27.8419C41.2622 27.8329 41.2531 27.8148 41.244 27.8057C41.1075 27.6155 40.9801 27.4163 40.8527 27.217C40.8436 27.1989 40.8253 27.1808 40.8162 27.1627C40.6979 26.9725 40.5796 26.7732 40.4704 26.5739C40.4522 26.5468 40.4431 26.5196 40.4249 26.4924C40.3157 26.3022 40.2156 26.103 40.1246 25.9037C40.1064 25.8675 40.0882 25.8313 40.07 25.795C39.979 25.6048 39.888 25.4146 39.8061 25.2244C39.7879 25.1791 39.7697 25.1339 39.7515 25.0886C39.6696 24.8984 39.5968 24.7172 39.5331 24.527C39.5149 24.4727 39.4876 24.4183 39.4694 24.364C39.4056 24.1829 39.3419 24.0017 39.2873 23.8115C39.2691 23.7481 39.2418 23.6847 39.2236 23.6213C39.169 23.4402 39.1235 23.259 39.078 23.0869C39.0598 23.0145 39.0416 22.942 39.0234 22.8786C38.9779 22.7065 38.9415 22.5254 38.9051 22.3533C38.8869 22.2718 38.8687 22.1993 38.8505 22.1178C38.8141 21.9457 38.7868 21.7737 38.7595 21.6016C38.7504 21.5201 38.7322 21.4295 38.7231 21.348C38.6958 21.1759 38.6867 21.0038 38.6685 20.8317C38.6594 20.7411 38.6503 20.6596 38.6412 20.5691C38.623 20.3879 38.6139 20.1977 38.6048 20.0166C38.6048 19.9351 38.5957 19.8626 38.5957 19.7811C38.5866 19.5184 38.5866 19.2467 38.5957 18.975C38.7777 10.4703 46.0582 3.78617 54.8312 3.99449Z" fill="#F2A397"/>
<path d="M38.4679 5.63387C39.9968 3.84961 41.8534 2.53632 43.8919 1.63061C50.5991 -1.35825 59.3539 0.0184388 65.4786 3.66847C73.7784 8.60461 78.1012 17.7976 78.1012 17.7976H64.5413L57.7795 24.5271C57.4792 22.2628 55.5316 20.5148 53.1746 20.5148C50.6082 20.5148 48.5241 22.5888 48.5241 25.143C48.5241 27.4888 50.2805 29.427 52.5557 29.7259L45.9395 36.3104C45.9395 36.3104 36.757 24.6448 36.7024 24.5271C33.7993 18.4226 33.9085 10.9323 38.4679 5.63387Z" fill="#623C34"/>
<path d="M65.4703 154.678V192.918L49.7716 238.792C49.0709 240.839 47.178 242.243 45.0029 242.333C42.0179 242.451 39.5334 240.078 39.5334 237.107V179.504L32.8809 170.021V154.678C32.8809 145.522 40.4981 138.176 49.6988 138.475C58.4901 138.756 65.4703 145.929 65.4703 154.678Z" fill="#373C41"/>
<path d="M50.1898 230.948V310.053H39.988C39.988 291.414 37.0485 272.901 31.2787 255.167L31.0693 254.515L41.0982 230.948H50.1898Z" fill="#373C41"/>
<path d="M41.7986 57.6492C36.0743 54.0444 28.4935 55.7381 24.8714 61.4351L23.57 63.4729C21.313 67.0143 20.5668 71.3073 21.4951 75.4012L4.16744 102.663C3.20277 104.176 2.96615 106.032 3.52129 107.735L3.5486 107.808C4.42226 110.507 7.06144 112.237 9.90084 111.956C11.6118 111.793 13.1771 110.905 14.1963 109.528L44.0009 69.2242C46.7675 65.4655 45.7665 60.1489 41.7986 57.6492Z" fill="#F2A397"/>
<path d="M7.95391 101.92L43.5647 137.261C44.6477 138.339 45.1846 139.852 45.0208 141.364L44.9753 141.817C44.7023 144.38 42.5364 146.319 39.9427 146.319C38.9234 146.319 37.9223 146.011 37.0851 145.44L11.5487 128.105L0.500481 110.733C-0.901018 107.518 0.782601 103.795 4.13164 102.708L7.14395 101.73C7.42607 101.64 7.73549 101.712 7.95391 101.92Z" fill="#F2A397"/>
<path d="M50.054 295.906L39.2061 308.115V317H76.0364C79.3854 317 82.0974 314.301 82.0974 310.968L50.054 295.906Z" fill="#A4E603"/>
<path d="M55.0292 301.887L53.9697 304.312L76.9134 314.239L77.9729 311.814L55.0292 301.887Z" fill="white"/>
<path d="M50.172 140.305L83.8262 148.864L120.311 174.269C121.94 175.401 122.713 177.548 122.249 179.658C121.612 182.565 118.909 184.431 116.288 183.761L65.5885 170.863L55.596 175.156L42.0997 171.724C34.0365 169.677 29.468 160.683 32.0071 151.88C34.4279 143.466 42.4728 138.348 50.172 140.305Z" fill="#373C41"/>
<path d="M122.34 179.984V259.089H112.138C112.138 240.449 109.199 221.937 103.429 204.203L103.22 203.551L113.249 179.984H122.34Z" fill="#373C41"/>
<path d="M120.711 248.583L109.863 260.792V269.686H146.694C150.043 269.686 152.755 266.987 152.755 263.654L120.711 248.583Z" fill="#A4E603"/>
<path d="M125.692 254.562L124.633 256.988L147.577 266.915L148.636 264.489L125.692 254.562Z" fill="white"/>
<path d="M86.9199 317.001V270.347H187" stroke="#A7E600" stroke-width="2" stroke-miterlimit="10"/>
<path d="M37.2762 150.041L34.4277 140.105L37.4127 138.828C37.4673 138.529 37.5219 138.221 37.5857 137.923C37.6585 137.587 37.7313 137.252 37.8223 136.926L37.9497 136.428L38.0953 135.939C38.4866 134.635 38.969 133.367 39.5514 132.144C40.1338 130.93 40.7982 129.762 41.5535 128.657C41.7446 128.385 41.9358 128.114 42.1269 127.842L42.4272 127.443C42.5273 127.317 42.6274 127.172 42.7275 127.063L43.8742 125.641L47.205 127.86L46.3223 129.454C46.2404 129.59 46.1858 129.708 46.1221 129.835L45.9309 130.197C45.8126 130.441 45.6943 130.695 45.576 130.94C45.121 131.936 44.757 132.968 44.4657 134.01C44.2837 134.671 44.1381 135.332 44.0198 136.002L46.6681 134.87L46.6317 134.825L47.469 134.273C51.4277 131.664 55.7778 129.826 60.4192 128.811L60.4738 128.802L61.3292 132.697L61.2746 132.706C57.9711 133.43 54.8223 134.617 51.8919 136.256L52.0011 137.144C55.7869 135.577 59.8276 134.608 63.9047 134.309L64.6965 134.254L64.9877 138.231L64.1959 138.285C60.1734 138.584 56.1874 139.607 52.5016 141.265L52.5198 141.391C55.6504 140.794 58.8357 140.585 62.0209 140.767L64.3415 140.902L64.1049 144.878L61.7843 144.743C58.8721 144.571 55.9598 144.77 53.1113 145.331C54.8496 145.54 56.5696 145.866 58.2532 146.309L60.7377 146.962L59.7184 150.811L57.2339 150.159C55.1226 149.606 52.9475 149.253 50.7725 149.108L45.8217 148.773L45.8308 148.673L37.2762 150.041Z" fill="#F2A397"/>
</svg>
