<svg width="48" height="59" viewBox="0 0 48 59" fill="none" xmlns="http://www.w3.org/2000/svg">
<path d="M28.8411 0C29.9246 0.465753 30.2949 1.28767 30.24 2.43836C30.1851 3.60274 30.2263 4.76712 30.2263 5.9863C29.376 5.9863 28.5806 5.9863 27.7029 5.9863C27.7029 7.08219 27.7029 8.12329 27.7029 9.06849C25.2069 9.06849 22.7794 9.06849 20.3109 9.06849C20.3109 8.16438 20.3109 7.13699 20.3109 6.0274C19.4606 6.0274 18.6377 6.0274 17.8011 6.0274C17.8011 4.49315 17.76 3.0411 17.8149 1.60274C17.8423 0.794521 18.4594 0.342466 19.1451 0.0136986C22.3817 0 25.6183 0 28.8411 0Z" fill="#61BE6A"/>
<path d="M23.9863 59C10.7794 58.9863 0 48.2329 0 35.0411C0 21.8356 10.8206 11.0411 24.0411 11.0685C37.2617 11.0959 48.0137 21.863 48 35.0548C47.9863 48.2603 37.1931 59.0137 23.9863 59ZM23.9863 54.4794C34.8069 54.3835 43.4606 45.8493 43.4606 35.0137C43.4606 24.274 34.9166 15.6164 24.0411 15.589C13.3166 15.5616 4.56686 24.0685 4.53943 35C4.52571 45.7671 13.0971 54.3699 23.9863 54.4794Z" fill="#61BE6A"/>
<path d="M41.1017 14.0274C38.784 12.685 36.5349 11.3973 34.1897 10.0411C34.9714 8.76715 35.6709 7.46578 36.5074 6.274C36.9874 5.57537 37.9749 5.43838 38.7566 5.84934C40.0183 6.53427 41.2663 7.2466 42.4869 8.00003C43.2549 8.47948 43.584 9.47948 43.1863 10.274C42.5417 11.5343 41.8149 12.7398 41.1017 14.0274Z" fill="#61BE6A"/>
<path d="M13.5771 10.0411C11.2594 11.3699 9.01029 12.6712 6.67886 14.0274C5.952 12.726 5.19772 11.4932 4.56686 10.1918C4.19657 9.41097 4.56686 8.43836 5.32114 7.97261C6.528 7.23288 7.76229 6.52056 9.01029 5.84932C9.84686 5.39727 10.8754 5.60275 11.3829 6.36987C12.1509 7.54795 12.8229 8.79453 13.5771 10.0411Z" fill="#61BE6A"/>
<path d="M24.0274 50.452C15.5794 50.5068 8.55771 43.5068 8.55771 35.0274C8.55771 26.5616 15.456 19.6712 23.9726 19.6164C32.4206 19.5616 39.4423 26.5616 39.4423 35.0411C39.4286 43.5068 32.544 50.3972 24.0274 50.452ZM32.8731 27.1233C32.5303 27.1917 32.3794 27.2191 32.2423 27.2602C28.5531 28.4657 25.2069 30.3698 21.9154 32.3835C21.0377 32.9178 20.832 33.6027 21.0789 34.6164C21.4354 36.0274 22.3131 37.0685 23.5611 37.7808C24.9737 38.589 25.92 38.4383 26.8251 37.1096C28.4846 34.6712 30.0754 32.1781 31.6389 29.6849C32.1189 28.9178 32.4206 28.0685 32.8731 27.1233Z" fill="#61BE6A"/>
</svg>
