<svg width="1440" height="598" viewBox="0 0 1440 598" fill="none" xmlns="http://www.w3.org/2000/svg">
<path d="M488.255 514.057L492.819 521.794L490.01 526.768L486.97 521.586L439.1 606.61L434.714 603.861L482.483 519.023L476.557 519.054L479.343 514.111L488.255 514.057Z" fill="white"/>
<path d="M544.583 413.96L549.331 421.374L546.522 426.347L543.359 421.389L495.497 506.397L490.995 503.864L538.757 419.041L532.708 419.28L535.494 414.337L544.583 413.96Z" fill="white"/>
<path d="M600.911 313.878L605.836 320.968L603.035 325.942L599.749 321.199L551.887 406.2L547.261 403.882L595.023 319.067L588.851 319.521L591.645 314.579L600.911 313.878Z" fill="white"/>
<path d="M657.231 213.812L662.341 220.571L659.532 225.544L656.13 221.017L608.276 306.018L603.527 303.916L651.282 219.1L644.994 219.77L647.78 214.828L657.231 213.812Z" fill="white"/>
<path d="M512.283 527.661L516.977 535.529L514.137 540.563L511.013 535.298L462.596 621.291L458.11 618.481L506.418 532.672H500.377L503.193 527.676L512.283 527.661Z" fill="white"/>
<path d="M569.257 426.416L574.136 433.953L571.304 438.988L568.049 433.945L519.64 519.931L515.03 517.336L563.338 431.536L557.166 431.759L559.983 426.762L569.257 426.416Z" fill="white"/>
<path d="M626.231 325.188L631.295 332.393L628.455 337.428L625.084 332.601L576.676 418.579L571.943 416.208L620.243 330.415L613.956 330.854L616.772 325.857L626.231 325.188Z" fill="white"/>
<path d="M683.197 223.966L688.446 230.841L685.606 235.876L682.112 231.272L633.704 317.242L628.848 315.094L677.148 229.309L670.738 229.963L673.554 224.967L683.197 223.966Z" fill="white"/>
<path d="M536.872 541.58L541.697 549.586L538.826 554.675L535.609 549.317L486.631 636.319L482.037 633.439L530.915 546.638L524.743 546.607L527.598 541.549L536.872 541.58Z" fill="white"/>
<path d="M594.508 439.165L599.526 446.833L596.655 451.922L593.315 446.787L544.337 533.773L539.619 531.125L588.489 444.331L582.194 444.523L585.041 439.465L594.508 439.165Z" fill="white"/>
<path d="M652.136 336.758L657.346 344.087L654.476 349.176L651.005 344.272L602.034 431.251L597.194 428.826L646.056 342.032L639.63 342.455L642.485 337.397L652.136 336.758Z" fill="white"/>
<path d="M709.764 234.359L715.167 241.349L712.289 246.438L708.695 241.765L659.732 328.728L654.76 326.534L703.615 239.756L697.074 240.395L699.921 235.337L709.764 234.359Z" fill="white"/>
<path d="M562.03 555.83L567.01 563.975L564.1 569.125L560.791 563.675L511.236 651.693L506.534 648.752L555.981 560.926L549.686 560.865L552.572 555.745L562.03 555.83Z" fill="white"/>
<path d="M620.343 452.207L625.515 460.005L622.606 465.156L619.166 459.936L569.618 547.946L564.785 545.236L614.225 457.418L607.799 457.588L610.685 452.468L620.343 452.207Z" fill="white"/>
<path d="M678.649 348.599L684.013 356.051L681.112 361.201L677.541 356.213L627.993 444.215L623.037 441.729L672.469 353.926L665.912 354.319L668.798 349.207L678.649 348.599Z" fill="white"/>
<path d="M736.955 244.999L742.512 252.104L739.602 257.255L735.901 252.497L686.361 340.492L681.273 338.236L730.706 250.441L724.025 251.065L726.904 245.953L736.955 244.999Z" fill="white"/>
<path d="M587.797 570.411L592.915 578.71L589.975 583.922L586.565 578.371L536.425 667.437L531.607 664.427L581.64 575.554L575.214 575.461L578.13 570.28L587.797 570.411Z" fill="white"/>
<path d="M646.803 465.556L652.121 473.501L649.181 478.713L645.633 473.401L595.5 562.458L590.552 559.679L640.577 470.822L634.019 470.96L636.936 465.787L646.803 465.556Z" fill="white"/>
<path d="M705.801 360.716L711.319 368.307L708.379 373.511L704.7 368.438L654.568 457.488L649.489 454.947L699.513 366.098L692.818 366.467L695.742 361.294L705.801 360.716Z" fill="white"/>
<path d="M764.792 255.892L770.51 263.121L767.57 268.325L763.76 263.491L713.628 352.533L708.418 350.223L758.435 261.381L751.608 261.989L754.533 256.816L764.792 255.892Z" fill="white"/>
<path d="M614.179 585.346L619.451 593.799L616.472 599.073L612.963 593.422L562.215 683.557L557.289 680.47L607.922 590.535L601.357 590.404L604.312 585.169L614.179 585.346Z" fill="white"/>
<path d="M673.893 479.236L679.365 487.32L676.394 492.593L672.746 487.181L622.006 577.316L616.942 574.468L667.567 484.541L660.863 484.648L663.819 479.413L673.893 479.236Z" fill="white"/>
<path d="M733.599 373.134L739.279 380.856L736.301 386.122L732.514 380.956L681.781 471.084L676.587 468.481L727.204 378.562L720.37 378.908L723.325 373.673L733.599 373.134Z" fill="white"/>
<path d="M793.298 267.04L799.178 274.399L796.207 279.673L792.282 274.746L741.557 364.858L736.216 362.495L786.833 272.59L779.861 273.183L782.816 267.94L793.298 267.04Z" fill="white"/>
<path d="M701.052 492.947L706.694 501.177L703.677 506.512L699.929 501.008L648.58 592.213L643.393 589.303L694.626 498.305L687.784 498.382L690.77 493.086L701.052 492.947Z" fill="white"/>
<path d="M761.475 385.583L767.316 393.435L764.307 398.77L760.412 393.512L709.072 484.71L703.746 482.046L754.971 391.056L747.991 391.38L750.977 386.083L761.475 385.583Z" fill="white"/>
<path d="M821.881 278.226L827.93 285.709L824.921 291.044L820.888 286.032L769.555 377.222L764.091 374.805L815.309 283.83L808.19 284.4L811.184 279.096L821.881 278.226Z" fill="white"/>
<path d="M729.474 507.29L735.277 515.674L732.229 521.078L728.366 515.466L676.386 607.803L671.076 604.816L722.932 512.702L715.937 512.741L718.969 507.382L729.474 507.29Z" fill="white"/>
<path d="M790.635 398.601L796.653 406.6L793.606 412.004L789.596 406.654L737.624 498.976L732.168 496.242L784.016 404.136L776.882 404.429L779.907 399.071L790.635 398.601Z" fill="white"/>
<path d="M851.788 289.92L858.014 297.542L854.967 302.938L850.819 297.842L798.854 390.156L793.252 387.677L845.1 295.578L837.82 296.133L840.852 290.767L851.788 289.92Z" fill="white"/>
<path d="M758.604 521.994L764.584 530.532L761.498 536.006L757.511 530.293L704.893 623.777L699.444 620.721L751.947 527.452L744.797 527.46L747.86 522.033L758.604 521.994Z" fill="white"/>
<path d="M820.527 411.95L826.722 420.095L823.636 425.561L819.503 420.111L766.885 513.587L761.298 510.793L813.793 417.532L806.497 417.801L809.56 412.374L820.527 411.95Z" fill="white"/>
<path d="M882.434 301.914L888.853 309.667L885.767 315.14L881.495 309.951L828.877 403.412L823.136 400.872L875.631 307.626L868.189 308.158L871.252 302.73L882.434 301.914Z" fill="white"/>
<path d="M788.465 537.076L794.629 545.775L791.505 551.311L787.403 545.49L734.115 640.16L728.528 637.019L781.685 542.58L774.381 542.557L777.482 537.053L788.465 537.076Z" fill="white"/>
<path d="M851.165 425.631L857.56 433.93L854.436 439.473L850.172 433.922L796.892 528.577L791.158 525.705L844.315 431.274L836.858 431.513L839.959 426.016L851.165 425.631Z" fill="white"/>
<path d="M913.857 314.209L920.476 322.108L917.351 327.643L912.941 322.362L859.661 417.008L853.782 414.406L906.931 319.983L899.327 320.483L902.429 314.987L913.857 314.209Z" fill="white"/>
<path d="M819.095 552.534L825.452 561.403L822.289 567.016L818.056 561.08L764.084 656.958L758.35 653.74L812.192 558.093L804.719 558.031L807.859 552.458L819.095 552.534Z" fill="white"/>
<path d="M882.596 439.665L889.184 448.126L886.021 453.738L881.626 448.08L827.661 543.95L821.781 541.002L875.615 445.362L867.989 445.57L871.129 440.004L882.596 439.665Z" fill="white"/>
<path d="M946.089 326.819L952.907 334.864L949.737 340.469L945.196 335.088L891.239 430.951L885.205 428.279L939.031 332.647L931.251 333.132L934.391 327.558L946.089 326.819Z" fill="white"/>
<path d="M850.518 568.394L857.076 577.439L853.866 583.121L849.503 577.07L794.829 674.195L788.95 670.893L843.484 574.006L835.842 573.906L839.02 568.263L850.518 568.394Z" fill="white"/>
<path d="M914.842 454.069L921.63 462.684L918.421 468.373L913.896 462.599L859.238 559.717L853.197 556.692L907.731 459.82L899.927 459.997L903.106 454.354L914.842 454.069Z" fill="white"/>
<path d="M979.151 339.753L986.178 347.952L982.976 353.634L978.289 348.144L923.631 445.255L917.436 442.506L971.963 345.642L963.997 346.097L967.184 340.461L979.151 339.753Z" fill="white"/>
<path d="M882.088 584.33L888.845 593.545L885.59 599.303L881.095 593.137L825.722 691.51L819.688 688.122L874.923 589.988L867.104 589.85L870.321 584.137L882.088 584.33Z" fill="white"/>
<path d="M947.228 468.535L954.231 477.319L950.983 483.07L946.319 477.196L890.954 575.561L884.758 572.459L939.986 474.34L932.005 474.479L935.229 468.766L947.228 468.535Z" fill="white"/>
<path d="M1012.37 352.748L1019.61 361.101L1016.36 366.852L1011.54 361.263L956.178 459.62L949.821 456.81L1005.04 358.699L996.898 359.13L1000.12 353.418L1012.37 352.748Z" fill="white"/>
<path d="M981.183 483.693L988.402 492.655L985.108 498.482L980.298 492.485L924.201 592.167L917.844 588.98L973.802 489.56L965.621 489.66L968.892 483.878L981.183 483.693Z" fill="white"/>
<path d="M1047.18 366.367L1054.65 374.881L1051.36 380.717L1046.38 375.02L990.287 474.678L983.769 471.791L1039.72 372.379L1031.38 372.78L1034.65 366.99L1047.18 366.367Z" fill="white"/>
<path d="M1016.05 499.26L1023.5 508.406L1020.16 514.319L1015.2 508.198L958.341 609.219L951.807 605.948L1008.52 505.188L1000.15 505.257L1003.46 499.391L1016.05 499.26Z" fill="white"/>
<path d="M1082.93 380.355L1090.64 389.039L1087.31 394.952L1082.17 389.14L1025.32 490.153L1018.62 487.181L1075.32 386.43L1066.79 386.799L1070.1 380.933L1082.93 380.355Z" fill="white"/>
<path d="M1051.86 515.258L1059.56 524.589L1056.18 530.578L1051.05 524.335L993.42 626.741L986.709 623.377L1044.19 521.24L1035.61 521.27L1038.97 515.319L1051.86 515.258Z" fill="white"/>
<path d="M1119.67 394.729L1127.62 403.582L1124.24 409.579L1118.94 403.651L1061.31 506.043L1054.43 502.994L1111.9 400.864L1103.15 401.203L1106.51 395.26L1119.67 394.729Z" fill="white"/>
<path d="M1088.67 531.694L1096.62 541.218L1093.19 547.292L1087.9 540.917L1029.47 644.748L1022.57 641.292L1080.85 537.738L1072.06 537.722L1075.46 531.694H1088.67Z" fill="white"/>
<path d="M1157.41 409.495L1165.63 418.533L1162.2 424.607L1156.72 418.556L1098.3 522.372L1091.22 519.238L1149.5 415.7L1140.52 416L1143.92 409.972L1157.41 409.495Z" fill="white"/>
<path d="M1126.52 548.593L1134.73 558.324L1131.26 564.483L1125.78 557.97L1066.53 663.256L1059.44 659.707L1118.54 554.706L1109.52 554.644L1112.96 548.531L1126.52 548.593Z" fill="white"/>
<path d="M1196.22 424.676L1204.71 433.906L1201.23 440.065L1195.57 433.891L1136.33 539.162L1129.06 535.944L1188.14 430.95L1178.94 431.212L1182.39 425.107L1196.22 424.676Z" fill="white"/>
<path d="M1164.62 565.607L1173.1 575.539L1169.58 581.79L1163.93 575.138L1103.85 681.902L1096.56 678.246L1156.47 571.782L1147.23 571.674L1150.73 565.477L1164.62 565.607Z" fill="white"/>
<path d="M1235.28 439.966L1244.06 449.381L1240.53 455.632L1234.68 449.327L1174.62 556.069L1167.14 552.758L1227.04 446.302L1217.61 446.533L1221.11 440.335L1235.28 439.966Z" fill="white"/>
<path d="M1204.65 583.483L1213.41 593.63L1209.83 599.966L1203.99 593.176L1143.05 701.48L1135.54 697.723L1196.32 589.719L1186.84 589.557L1190.39 583.275L1204.65 583.483Z" fill="white"/>
<path d="M1276.33 456.018L1285.39 465.641L1281.82 471.977L1275.77 465.541L1214.84 573.829L1207.14 570.419L1267.91 462.423L1258.23 462.615L1261.78 456.333L1276.33 456.018Z" fill="white"/>
<path d="M1318.57 472.546L1327.95 482.378L1324.32 488.814L1318.07 482.231L1256.24 592.106L1248.31 588.603L1309.98 479.021L1300.04 479.175L1303.63 472.793L1318.57 472.546Z" fill="white"/>
<path d="M1362.08 489.568L1371.78 499.615L1368.09 506.143L1361.62 499.414L1298.88 610.929L1290.71 607.318L1353.29 496.119L1343.08 496.219L1346.73 489.745L1362.08 489.568Z" fill="white"/>
<path d="M1406.89 507.098L1416.93 517.375L1413.19 524.004L1406.5 517.121L1342.81 630.329L1334.4 626.603L1397.9 513.726L1387.42 513.772L1391.12 507.205L1406.89 507.098Z" fill="white"/>
<path d="M1453.08 525.167L1463.47 535.691L1459.68 542.419L1452.75 535.375L1388.08 650.315L1379.41 646.481L1443.89 531.872H1433.11L1436.88 525.197L1453.08 525.167Z" fill="white"/>
<path d="M709.018 378.023L701.583 362.195L662.025 346.367C662.025 346.367 654.352 369.87 669.937 374.428C685.522 378.986 709.018 378.023 709.018 378.023Z" fill="white"/>
<path d="M952.168 196.305L951.583 196.236C949.598 196.005 947.605 196.69 946.15 198.091L901.02 241.742C900.012 241.95 899.042 242.343 898.165 242.92L871.821 260.019C866.449 258.987 855.605 264.407 850.965 267.456L846.409 276.332C838.951 281.236 834.541 286.009 839.297 293.254C842.591 298.266 849.564 299.351 854.49 295.617L907.231 255.577C907.693 255.223 908.116 254.822 908.485 254.391C908.932 254.291 909.378 254.153 909.824 253.968L933.005 239.741L956.647 206.637C957.425 205.544 957.863 204.243 957.902 202.918C957.979 199.546 955.508 196.698 952.168 196.305Z" fill="white"/>
<path d="M803.195 304.64C795.107 301.529 785.956 305.764 782.754 314.094L781.608 317.081C779.614 322.262 779.699 328.005 781.846 333.032L767.023 371.595L708.233 374.72C706.217 374.828 704.354 375.829 703.169 377.438L702.815 377.915C700.822 380.625 701.23 384.374 703.762 386.607C704.762 387.485 706.009 388.054 707.34 388.224L747.683 393.451L773.881 386.153C775.589 385.383 776.867 384.097 777.644 382.581C779.014 381.757 780.122 380.533 780.815 379.039L808.729 318.982C811.338 313.385 808.79 306.795 803.195 304.64Z" fill="white"/>
<path d="M928.642 491.547L927.98 490.007C928.303 488.952 928.372 487.821 928.157 486.689L916.043 423.699L890.977 379.732C885.243 369.67 872.56 365.975 862.317 371.387C851.596 377.053 847.694 390.464 853.697 400.996L863.748 418.633L877.57 425.192L907.754 478.136L899.065 476.842L898.634 477.335C886.883 490.669 872.999 500.862 857.483 507.537L862.794 519.885L920.838 494.903C922.254 495.011 923.724 494.688 925.024 493.872C925.679 493.464 926.248 492.948 926.718 492.37L928.642 491.547Z" fill="white"/>
<path d="M869.882 521.371L859.854 502.271L848.856 498.091L831.632 543.443C830.07 547.562 832.14 552.173 836.258 553.744L869.882 521.371Z" fill="white"/>
<path d="M857.661 522.295L834.651 545.883L837.157 548.33L860.167 524.742L857.661 522.295Z" fill="white"/>
<path d="M688.269 378.069C701.718 378.069 712.62 367.164 712.62 353.711C712.62 340.258 701.718 329.353 688.269 329.353C674.821 329.353 663.919 340.258 663.919 353.711C663.919 367.164 674.821 378.069 688.269 378.069Z" fill="white"/>
<path d="M863.771 366.729C851.888 364.335 840.383 372.257 838.374 384.212L835.011 404.237L841.568 418.063L829.616 489.268L801.294 496.266L800.771 497.012C786.548 517.167 769.255 534.959 749.523 549.748L757.58 560.503L836.627 501.277C838.82 501.008 840.798 499.699 841.876 497.69L872.314 441.236L880.695 391.318C882.611 379.901 875.123 369.015 863.771 366.729Z" fill="white"/>
<path d="M767.601 552.858L749.007 541.926L737.463 544.182L746.76 591.798C747.606 596.124 751.801 598.95 756.126 598.103L767.601 552.858Z" fill="white"/>
<path d="M757.66 560.024L750.556 592.208L753.976 592.963L761.079 560.779L757.66 560.024Z" fill="white"/>
<path d="M879.91 400.803C879.939 400.795 879.932 400.795 879.91 400.803V400.803Z" fill="white"/>
<path d="M879.279 400.912C879.264 400.912 879.256 400.919 879.241 400.919C879.256 400.912 879.264 400.912 879.279 400.912Z" fill="white"/>
<path d="M879.788 400.819C879.688 400.834 879.518 400.865 879.28 400.904C879.441 400.88 879.649 400.842 879.788 400.819Z" fill="white"/>
<path d="M879.808 400.818C879.801 400.818 879.794 400.818 879.787 400.825C879.794 400.818 879.801 400.818 879.808 400.818Z" fill="white"/>
<path d="M879.911 400.803C879.895 400.803 879.856 400.811 879.81 400.819C879.856 400.811 879.895 400.803 879.911 400.803Z" fill="white"/>
<path d="M879.093 400.942C879.078 400.942 879.063 400.95 879.048 400.95C879.056 400.942 879.071 400.942 879.093 400.942Z" fill="white"/>
<path d="M879.241 400.912C879.195 400.919 879.156 400.927 879.102 400.935C879.141 400.927 879.187 400.919 879.241 400.912Z" fill="white"/>
<path d="M820.765 295.248C825.175 293.639 827.476 288.712 825.868 284.3L817.179 260.427C815.571 256.016 812.146 257.833 807.736 259.442L806.235 255.323C801.825 256.932 799.524 261.859 801.133 266.27L809.821 290.144C811.43 294.555 816.355 296.857 820.765 295.248Z" fill="white"/>
<path d="M795.23 225.013C795.553 224.851 795.876 224.69 796.199 224.543C796.384 224.459 796.576 224.382 796.761 224.305C796.9 224.243 797.038 224.182 797.177 224.128C797.438 224.028 797.7 223.935 797.962 223.843C798.031 223.82 798.1 223.789 798.169 223.766C798.477 223.658 798.785 223.566 799.101 223.473C799.124 223.466 799.147 223.458 799.17 223.45C800.501 223.065 801.848 222.819 803.187 222.703C807.79 222.303 812.353 223.427 816.14 225.837C816.14 225.837 828.415 244.929 834.041 255.322C836.073 259.079 827.853 264.822 824.059 266.793C824.036 266.809 821.573 268.81 821.55 268.818C810.799 274.353 806.266 270.519 798.416 262.705C798.085 262.613 797.762 262.513 797.438 262.413C797.438 262.413 797.438 262.413 797.431 262.413C797.115 262.305 796.8 262.197 796.484 262.074C796.476 262.074 796.469 262.066 796.469 262.066C796.161 261.951 795.861 261.82 795.553 261.689C795.545 261.681 795.53 261.681 795.522 261.674C795.23 261.543 794.937 261.404 794.652 261.258C794.637 261.25 794.614 261.243 794.598 261.227C794.321 261.089 794.044 260.942 793.775 260.788C793.752 260.773 793.721 260.758 793.698 260.742C793.436 260.596 793.175 260.434 792.921 260.273C792.89 260.249 792.852 260.226 792.821 260.211C792.574 260.057 792.336 259.888 792.097 259.726C792.051 259.695 792.013 259.664 791.966 259.634C791.743 259.472 791.52 259.303 791.297 259.133C791.243 259.095 791.197 259.056 791.143 259.018C790.935 258.848 790.727 258.679 790.527 258.502C790.473 258.456 790.412 258.402 790.358 258.356C790.166 258.186 789.981 258.009 789.796 257.832C789.735 257.771 789.665 257.717 789.604 257.655C789.427 257.486 789.257 257.301 789.088 257.124C789.019 257.055 788.95 256.985 788.888 256.916C788.726 256.739 788.572 256.562 788.419 256.377C788.349 256.292 788.28 256.215 788.211 256.138C788.065 255.961 787.926 255.777 787.78 255.592C787.71 255.499 787.641 255.415 787.572 255.322C787.433 255.138 787.303 254.945 787.172 254.753C787.103 254.653 787.033 254.56 786.972 254.46C786.841 254.252 786.71 254.044 786.579 253.837C786.525 253.744 786.464 253.659 786.418 253.567C786.241 253.259 786.071 252.951 785.91 252.636C780.784 242.666 784.955 230.302 795.23 225.013Z" fill="white"/>
<path d="M779.037 243.713C781.184 231.241 790.781 218.054 807.351 217.915C820.08 217.807 830.893 226.384 830.893 226.384L805.05 236.307L801.494 248.394C799.709 245.953 796.353 245.145 793.621 246.631C790.651 248.255 789.55 251.974 791.174 254.953C792.659 257.686 795.922 258.825 798.747 257.74L802.064 269.45C802.064 269.45 789.104 266.894 788.965 266.794C781.738 261.512 777.467 252.813 779.037 243.713Z" fill="white"/>
<path d="M802.187 267.055L813.97 261.805C819.873 259.172 826.029 257.132 832.333 255.708L834.026 255.323C836.442 259.534 832.44 262.444 832.44 262.444L821.235 271.59L810.914 274.246L802.187 267.055Z" fill="white"/>
<path d="M889.284 359.877L879.787 429.057L907.777 478.036L927.918 490.03L926.587 442.63L889.284 359.877Z" fill="white"/>
<path d="M885.297 375.629C882.057 370.44 878.555 364.958 875.015 359.323L886.374 353.433L850.888 267.448C849.487 267.994 786.464 307.519 786.464 307.519C786.464 307.519 783.77 311.499 782.777 314.07L805.743 325.434L806.481 323.84C806.712 324.641 806.928 325.411 807.112 326.111C807.143 326.219 807.174 326.334 807.205 326.442L813.554 373.958H840.883L840.891 373.95C845.331 381.264 849.703 388.362 853.828 394.667C860.5 404.868 870.921 405.892 879.009 400.965C887.106 396.03 891.546 385.637 885.297 375.629Z" fill="white"/>
<path d="M886.09 352.795L840.898 373.943L834.895 403.929L841.145 420.589L829.616 489.307L839.929 500.577L908.247 401.95L886.09 352.795Z" fill="white"/>
<path d="M948.274 210.971L946.92 197.36L951.191 195.073C951.345 194.658 951.491 194.242 951.661 193.834C951.845 193.38 952.03 192.918 952.238 192.471L952.538 191.801L952.861 191.139C953.723 189.376 954.716 187.69 955.832 186.105C956.948 184.519 958.179 183.025 959.503 181.639C959.834 181.293 960.18 180.962 960.519 180.623L961.042 180.13C961.211 179.969 961.396 179.799 961.558 179.661L963.52 177.921L967.684 181.87L966.052 183.918C965.906 184.095 965.798 184.241 965.675 184.403L965.313 184.873C965.083 185.196 964.852 185.519 964.629 185.843C963.751 187.152 962.974 188.522 962.312 189.931C961.889 190.824 961.527 191.732 961.196 192.648L965.213 191.678L965.183 191.601L966.499 191.016C972.717 188.268 979.32 186.713 986.116 186.397H986.193L986.462 192.133H986.385C981.545 192.356 976.811 193.287 972.271 194.904L972.209 196.19C977.935 194.881 983.884 194.481 989.718 195.043L990.857 195.15L990.31 200.863L989.171 200.755C983.415 200.201 977.535 200.693 971.932 202.164L971.924 202.349C976.488 202.256 981.044 202.726 985.5 203.765L988.748 204.52L987.447 210.109L984.2 209.354C980.128 208.407 975.973 207.984 971.801 208.092C974.202 208.808 976.557 209.693 978.828 210.725L982.183 212.249L979.805 217.476L976.45 215.952C973.602 214.659 970.616 213.627 967.576 212.896L960.657 211.225L960.688 211.079L948.274 210.971Z" fill="white"/>
<path d="M694.634 372.988L681.928 374.189L681.889 374.151L681.92 374.204C680.812 374.12 679.696 373.989 678.595 373.796C676.848 373.488 675.109 373.05 673.408 372.472C672.985 372.326 672.561 372.164 672.138 372.01L671.507 371.756C671.292 371.672 671.099 371.595 670.861 371.487L668.113 370.301L665.012 376.075L667.513 377.707C667.713 377.838 667.959 377.984 668.182 378.131L668.875 378.562C669.345 378.831 669.814 379.108 670.299 379.37C672.215 380.417 674.232 381.318 676.31 382.072C678.387 382.827 680.542 383.412 682.743 383.835L683.567 383.989L684.398 384.12C684.952 384.213 685.506 384.282 686.068 384.344C686.568 384.413 687.069 384.444 687.577 384.49L705.901 387.846L705.94 382.927L704.369 376.907L694.634 372.988Z" fill="white"/>
<path d="M720.562 387.261L713.128 371.433L673.57 355.604C673.57 355.604 665.897 379.108 681.481 383.666C697.066 388.224 720.562 387.261 720.562 387.261Z" fill="#DEA095"/>
<path d="M963.713 205.544L963.128 205.474C961.142 205.243 959.149 205.928 957.694 207.33L912.564 250.981C911.556 251.189 910.586 251.581 909.709 252.159L883.365 269.257C877.994 268.226 867.15 273.645 862.509 276.694L857.953 285.571C850.495 290.475 846.085 295.248 850.842 302.492C854.136 307.504 861.108 308.589 866.034 304.856L918.775 264.815C919.237 264.461 919.66 264.061 920.03 263.63C920.476 263.529 920.922 263.391 921.369 263.206L944.549 248.979L968.192 215.875C968.969 214.782 969.408 213.481 969.446 212.157C969.523 208.785 967.053 205.936 963.713 205.544Z" fill="#EEB5AC"/>
<path d="M814.739 313.878C806.651 310.768 797.5 315.002 794.298 323.332L793.152 326.319C791.158 331.5 791.243 337.243 793.39 342.27L778.568 380.833L719.777 383.958C717.761 384.066 715.898 385.067 714.713 386.676L714.359 387.153C712.366 389.863 712.774 393.613 715.306 395.845C716.306 396.723 717.553 397.292 718.884 397.462L759.227 402.689L785.425 395.391C787.133 394.621 788.411 393.335 789.188 391.819C790.558 390.995 791.666 389.771 792.359 388.277L820.273 328.221C822.882 322.624 820.334 316.034 814.739 313.878Z" fill="#EEB5AC"/>
<path d="M940.186 500.785L939.524 499.245C939.847 498.19 939.916 497.059 939.701 495.927L927.587 432.937L902.521 388.97C896.787 378.908 884.104 375.213 873.861 380.625C863.14 386.291 859.238 399.702 865.241 410.234L875.292 427.871L889.114 434.431L919.298 487.374L910.61 486.081L910.179 486.573C898.427 499.907 884.543 510.1 869.028 516.775L874.338 529.123L932.382 504.141C933.798 504.249 935.268 503.926 936.569 503.11C937.223 502.702 937.792 502.186 938.262 501.609L940.186 500.785Z" fill="#DEA095"/>
<path d="M881.426 530.61L871.398 511.509L860.4 507.329L843.176 552.682C841.614 556.8 843.684 561.412 847.802 562.982L881.426 530.61Z" fill="#373C41"/>
<path d="M869.205 531.535L846.195 555.123L848.701 557.569L871.711 533.981L869.205 531.535Z" fill="white"/>
<path d="M699.813 387.308C713.262 387.308 724.164 376.402 724.164 362.949C724.164 349.496 713.262 338.591 699.813 338.591C686.365 338.591 675.463 349.496 675.463 362.949C675.463 376.402 686.365 387.308 699.813 387.308Z" fill="#DB4F69"/>
<path d="M875.315 375.967C863.432 373.573 851.927 381.495 849.918 393.451L846.555 413.475L853.112 427.301L841.16 498.506L812.838 505.504L812.315 506.251C798.093 526.406 780.799 544.197 761.067 558.986L769.124 569.741L848.171 510.516C850.364 510.246 852.342 508.938 853.42 506.928L883.858 450.474L892.239 400.557C894.155 389.14 886.667 378.254 875.315 375.967Z" fill="#EEB5AC"/>
<path d="M779.145 562.097L760.551 551.165L749.007 553.42L758.304 601.036C759.15 605.363 763.345 608.188 767.67 607.341L779.145 562.097Z" fill="#373C41"/>
<path d="M769.204 569.262L762.101 601.445L765.52 602.201L772.624 570.017L769.204 569.262Z" fill="white"/>
<path d="M891.454 410.041C891.483 410.034 891.476 410.034 891.454 410.041V410.041Z" fill="#A4E603"/>
<path d="M890.823 410.149C890.808 410.149 890.8 410.157 890.785 410.157C890.8 410.149 890.808 410.149 890.823 410.149Z" fill="#A4E603"/>
<path d="M891.332 410.057C891.232 410.073 891.062 410.103 890.824 410.142C890.986 410.119 891.193 410.08 891.332 410.057Z" fill="#A4E603"/>
<path d="M891.352 410.057C891.345 410.057 891.338 410.057 891.331 410.064C891.338 410.057 891.345 410.057 891.352 410.057Z" fill="#A4E603"/>
<path d="M891.455 410.042C891.439 410.042 891.4 410.049 891.354 410.057C891.4 410.049 891.439 410.042 891.455 410.042Z" fill="#A4E603"/>
<path d="M890.638 410.181C890.622 410.181 890.607 410.188 890.592 410.188C890.6 410.181 890.615 410.181 890.638 410.181Z" fill="#A4E603"/>
<path d="M890.785 410.149C890.739 410.157 890.7 410.165 890.646 410.173C890.685 410.165 890.731 410.157 890.785 410.149Z" fill="#A4E603"/>
<path d="M832.309 304.486C836.719 302.877 839.02 297.95 837.412 293.539L828.723 269.665C827.115 265.254 823.69 267.071 819.28 268.68L817.779 264.561C813.369 266.17 811.068 271.097 812.677 275.508L821.366 299.382C822.974 303.793 827.9 306.095 832.309 304.486Z" fill="#DEA095"/>
<path d="M806.774 234.251C807.097 234.09 807.42 233.928 807.744 233.782C807.928 233.697 808.121 233.62 808.305 233.543C808.444 233.481 808.582 233.42 808.721 233.366C808.983 233.266 809.244 233.173 809.506 233.081C809.575 233.058 809.644 233.027 809.714 233.004C810.022 232.896 810.329 232.804 810.645 232.712C810.668 232.704 810.691 232.696 810.714 232.688C812.046 232.304 813.392 232.057 814.732 231.942C819.334 231.541 823.898 232.665 827.684 235.075C827.684 235.075 839.959 254.168 845.585 264.561C847.617 268.318 839.398 274.061 835.603 276.032C835.58 276.047 833.118 278.049 833.094 278.056C822.343 283.592 817.81 279.758 809.96 271.944C809.629 271.851 809.306 271.751 808.983 271.651C808.983 271.651 808.983 271.651 808.975 271.651C808.659 271.543 808.344 271.436 808.028 271.312C808.021 271.312 808.013 271.305 808.013 271.305C807.705 271.189 807.405 271.058 807.097 270.927C807.089 270.92 807.074 270.92 807.066 270.912C806.774 270.781 806.481 270.643 806.197 270.496C806.181 270.489 806.158 270.481 806.143 270.466C805.866 270.327 805.589 270.181 805.319 270.027C805.296 270.011 805.265 269.996 805.242 269.981C804.981 269.834 804.719 269.673 804.465 269.511C804.434 269.488 804.396 269.465 804.365 269.449C804.119 269.295 803.88 269.126 803.641 268.964C803.595 268.934 803.557 268.903 803.511 268.872C803.287 268.71 803.064 268.541 802.841 268.372C802.787 268.333 802.741 268.295 802.687 268.256C802.479 268.087 802.272 267.917 802.072 267.74C802.018 267.694 801.956 267.64 801.902 267.594C801.71 267.425 801.525 267.248 801.34 267.07C801.279 267.009 801.209 266.955 801.148 266.893C800.971 266.724 800.802 266.539 800.632 266.362C800.563 266.293 800.494 266.224 800.432 266.154C800.271 265.977 800.117 265.8 799.963 265.615C799.894 265.531 799.824 265.454 799.755 265.377C799.609 265.2 799.47 265.015 799.324 264.83C799.255 264.738 799.185 264.653 799.116 264.561C798.978 264.376 798.847 264.183 798.716 263.991C798.647 263.891 798.577 263.799 798.516 263.698C798.385 263.491 798.254 263.283 798.123 263.075C798.07 262.982 798.008 262.898 797.962 262.805C797.785 262.497 797.615 262.19 797.454 261.874C792.328 251.904 796.5 239.54 806.774 234.251Z" fill="#EEB5AC"/>
<path d="M790.581 252.951C792.728 240.48 802.326 227.292 818.895 227.153C831.625 227.046 842.438 235.622 842.438 235.622L816.594 245.545L813.039 257.632C811.253 255.192 807.898 254.383 805.165 255.869C802.195 257.494 801.094 261.212 802.718 264.191C804.203 266.924 807.466 268.064 810.291 266.978L813.608 278.688C813.608 278.688 800.648 276.132 800.509 276.032C793.283 270.751 789.011 262.051 790.581 252.951Z" fill="#373C41"/>
<path d="M813.731 276.294L825.514 271.043C831.417 268.41 837.573 266.37 843.877 264.946L845.57 264.561C847.986 268.772 843.984 271.682 843.984 271.682L832.779 280.828L822.458 283.484L813.731 276.294Z" fill="#DEA095"/>
<path d="M900.828 369.116L891.331 438.295L919.322 487.274L939.462 499.268L938.131 451.868L900.828 369.116Z" fill="url(#paint0_linear)"/>
<path d="M896.841 384.867C893.601 379.678 890.099 374.197 886.559 368.561L897.919 362.672L862.432 276.686C861.031 277.233 798.008 316.757 798.008 316.757C798.008 316.757 795.314 320.737 794.321 323.309L817.287 334.672L818.025 333.078C818.256 333.879 818.472 334.649 818.656 335.349C818.687 335.457 818.718 335.573 818.749 335.68L825.098 383.196H852.427L852.435 383.189C856.875 390.502 861.247 397.6 865.372 403.905C872.044 414.106 882.465 415.13 890.554 410.203C898.65 405.268 903.091 394.875 896.841 384.867Z" fill="#373C41"/>
<path d="M897.634 362.033L852.442 383.181L846.439 413.167L852.689 429.827L841.16 498.545L851.473 509.816L919.791 411.189L897.634 362.033Z" fill="#DB4F69"/>
<path d="M959.818 220.209L958.464 206.598L962.735 204.312C962.889 203.896 963.035 203.48 963.205 203.072C963.389 202.618 963.574 202.156 963.782 201.71L964.082 201.04L964.405 200.378C965.267 198.615 966.26 196.929 967.376 195.343C968.492 193.757 969.723 192.263 971.047 190.878C971.378 190.531 971.724 190.2 972.063 189.861L972.586 189.369C972.756 189.207 972.94 189.038 973.102 188.899L975.064 187.159L979.228 191.109L977.596 193.156C977.45 193.333 977.342 193.48 977.219 193.641L976.858 194.111C976.627 194.434 976.396 194.758 976.173 195.081C975.295 196.39 974.518 197.76 973.856 199.169C973.433 200.062 973.071 200.97 972.74 201.887L976.758 200.917L976.727 200.84L978.043 200.255C984.261 197.506 990.865 195.951 997.66 195.635H997.737L998.007 201.371H997.93C993.089 201.594 988.356 202.526 983.815 204.142L983.753 205.428C989.479 204.119 995.428 203.719 1001.26 204.281L1002.4 204.389L1001.85 210.101L1000.72 209.993C994.959 209.439 989.079 209.932 983.476 211.402L983.469 211.587C988.032 211.494 992.588 211.964 997.045 213.003L1000.29 213.758L998.992 219.347L995.744 218.593C991.673 217.646 987.517 217.222 983.345 217.33C985.747 218.046 988.102 218.931 990.372 219.963L993.727 221.487L991.349 226.715L987.994 225.19C985.146 223.897 982.16 222.865 979.12 222.134L972.201 220.463L972.232 220.317L959.818 220.209Z" fill="#EEB5AC"/>
<path d="M706.178 382.226L693.472 383.427L693.433 383.389L693.464 383.443C692.356 383.358 691.24 383.227 690.139 383.035C688.392 382.727 686.653 382.288 684.952 381.711C684.529 381.564 684.106 381.403 683.682 381.249L683.051 380.995C682.836 380.91 682.643 380.833 682.405 380.725L679.657 379.54L676.556 385.314L679.057 386.946C679.257 387.076 679.503 387.223 679.727 387.369L680.419 387.8C680.889 388.07 681.358 388.347 681.843 388.608C683.759 389.656 685.776 390.556 687.854 391.311C689.932 392.065 692.086 392.65 694.288 393.074L695.111 393.228L695.942 393.359C696.496 393.451 697.051 393.52 697.612 393.582C698.113 393.651 698.613 393.682 699.121 393.728L717.445 397.085L717.484 392.165L715.914 386.145L706.178 382.226Z" fill="#EEB5AC"/>
<path d="M1110.42 191.008C1067.45 191.008 1033.79 175.157 1033.79 154.917C1033.79 134.678 1067.45 118.826 1110.42 118.826C1153.38 118.826 1187.04 134.678 1187.04 154.917C1187.04 175.157 1153.38 191.008 1110.42 191.008ZM1110.42 124.331C1071.87 124.331 1039.3 138.342 1039.3 154.917C1039.3 171.5 1071.87 185.504 1110.42 185.504C1148.97 185.504 1181.54 171.492 1181.54 154.917C1181.54 138.342 1148.97 124.331 1110.42 124.331Z" fill="white"/>
<path d="M1313.88 267.517L1090.05 148.805V-45L1313.88 73.7125V267.517Z" fill="#DB4F69"/>
<path d="M1258.96 146.326V150.899L1227.5 184.141L1258.96 200.432L1578 163.163V78.4087L1258.96 146.326Z" fill="#DB4F69"/>
<path d="M1090.05 148.805V-45H1068.53L1067.97 -36.1928V154.964L1279.93 267.517H1313.88L1090.05 148.805Z" fill="white"/>
<path d="M1227.5 184.141V130.035L1546.54 62.1182V146.872L1227.5 184.141Z" fill="white"/>
<path d="M1146.8 200.732L1135.97 205.174L1129.2 188.668L1134.69 186.413C1130 187.152 1125.1 187.675 1120.03 187.975L1107.31 193.195L1105.25 188.168C1103.73 188.122 1102.21 188.052 1100.71 187.96L1103.5 194.758L1087 201.533L1080.36 185.373C1077.76 184.85 1075.24 184.265 1072.82 183.61L1058.34 189.554L1052.65 175.681C1050.06 174.21 1047.73 172.648 1045.71 170.992L1039.75 173.363L1038.6 156.049L1034.49 156.319L1037.39 200.17L1037.92 209.547L1042.55 219.778L1040.05 220.802L1040.54 225.06L1044.11 223.589L1050.89 240.095L1042.68 243.467L1043.17 247.724L1052.45 243.914L1059.22 260.419L1058.67 260.65L1064.62 262.714L1064.61 262.667L1081.11 255.893L1087.1 270.497L1095.93 273.553L1122.51 262.637L1124.59 257.324L1112.02 262.49L1105.24 245.984L1121.74 239.21L1126.84 251.612L1129.02 246.061L1125.56 237.647L1133.61 234.344L1135.7 229.032L1124 233.836L1117.23 217.33L1133.73 210.555L1138.45 222.042L1140.62 216.491L1137.54 208.993L1144.72 206.044L1146.8 200.732ZM1105.07 198.584L1111.84 215.09L1095.34 221.865L1088.57 205.359L1105.07 198.584ZM1091.53 223.435L1075.03 230.21L1068.26 213.704L1084.76 206.929L1091.53 223.435ZM1076.41 186.605L1083.18 203.111L1066.68 209.886L1059.91 193.38L1076.41 186.605ZM1047.75 174.634L1054.53 191.14L1041.28 196.582L1040.03 177.721L1047.75 174.634ZM1042.01 207.615L1041.57 200.917L1056.1 194.95L1062.87 211.456L1046.37 218.231L1042.01 207.615ZM1047.94 222.049L1064.44 215.275L1071.21 231.781L1054.71 238.555L1047.94 222.049ZM1063.05 258.88L1056.28 242.374L1072.78 235.599L1079.55 252.105L1063.05 258.88ZM1076.59 234.029L1093.09 227.254L1099.86 243.76L1083.36 250.534L1076.59 234.029ZM1108.21 264.076L1091.71 270.851L1084.93 254.345L1101.43 247.57L1108.21 264.076ZM1120.18 235.414L1103.68 242.189L1096.91 225.683L1113.41 218.908L1120.18 235.414ZM1115.66 213.527L1108.88 197.021L1125.38 190.247L1132.16 206.752L1115.66 213.527Z" fill="white"/>
<path d="M700.991 341.023C694.365 344.272 689.647 350.893 688.115 358.122C686.584 365.343 688.084 373.057 691.655 379.517" stroke="#373C41" stroke-miterlimit="10"/>
<path d="M707.671 341.832C714.205 348.629 717.022 358.799 714.921 367.991C713.82 372.826 711.127 377.645 706.601 379.67" stroke="#373C41" stroke-miterlimit="10"/>
<path d="M849.926 412.312C855.582 403.505 861.585 394.921 867.912 386.583C867.788 386.922 867.658 387.261 867.534 387.607" stroke="#BC445C" stroke-width="2" stroke-miterlimit="10"/>
<path d="M899.519 384.475C900.451 384.151 896.187 390.633 893.07 393.659C894.963 393.043 896.964 392.727 898.958 392.727C898.557 393.921 897.572 394.814 896.633 395.645C891.608 400.103 886.582 404.56 881.557 409.01C889.599 405.33 897.649 401.642 905.692 397.963L899.519 384.475Z" fill="#BC445C"/>
<path d="M855.675 444.185C858.107 442.907 860.539 441.621 862.963 440.343C860.485 439.874 858.084 438.981 855.906 437.703C861.732 434.877 867.558 432.052 873.383 429.227C867.611 429.15 861.839 429.173 856.067 429.304L852.25 446.033L855.675 444.185Z" fill="#BC445C"/>
<path d="M846.617 491.808C849.895 493.371 853.335 494.587 856.868 495.434" stroke="#BC445C" stroke-width="2" stroke-miterlimit="10"/>
<path d="M877.101 329.006C877.455 328.76 858.022 355.335 847.317 368.361C846.516 369.331 845.501 370.394 844.254 370.263C843.884 368.731 844.2 367.122 844.531 365.575C845.654 360.209 846.84 354.858 848.086 349.515C843.061 359.677 837.081 369.362 830.255 378.416C837.397 378.855 843.931 379.193 851.073 378.785C851.388 378.77 851.765 378.339 851.457 378.27L877.101 329.006Z" fill="#2F3439"/>
<path d="M872.837 369.955C872.722 371.533 875.862 362.033 875.569 362.98C877.832 355.605 878.709 347.968 879.648 340.338L861.485 376.737L872.837 369.955Z" fill="#2F3439"/>
<path d="M827.145 331.654C831.955 319.075 836.127 306.256 839.628 293.253L831.478 298.981L827.145 331.654Z" fill="#2F3439"/>
<path d="M868.989 292.561L872.144 300.205L918.76 264.815C919.222 264.461 919.645 264.061 920.014 263.629C920.461 263.529 920.907 263.391 921.353 263.206L944.488 249.01L868.989 292.561Z" fill="#DEA095"/>
<path d="M973.087 201.979L966.93 210.447L962.312 212.757L964.836 220.409L980.783 216.606L973.087 201.979Z" fill="#DEA095"/>
<path d="M793.767 342.094L803.772 339.014L778.375 381.357L793.767 342.094Z" fill="#DEA095"/>
<path d="M813.008 505.304L802.756 526.552L807.62 529.94L767.909 553.544L813.008 505.304Z" fill="#DEA095"/>
<path d="M1117.93 84.0208C1117.5 83.659 1118.31 82.9892 1118.77 83.3202C1119.22 83.6513 1119.21 84.3134 1119.16 84.8677C1117.68 101.474 1116.15 118.079 1114.57 134.678C1114.07 134.393 1113.57 134.116 1113.07 133.831" stroke="#BC445C" stroke-width="2" stroke-miterlimit="10"/>
<path d="M1127.74 126.125C1155.35 148.42 1184.08 169.314 1213.81 188.683" stroke="#BC445C" stroke-width="2" stroke-miterlimit="10"/>
<path d="M1298.59 207.73C1298.59 217.954 1298.59 228.17 1298.59 238.394" stroke="#BC445C" stroke-width="2" stroke-miterlimit="10"/>
<path d="M1269.57 82.666C1276.55 86.523 1283.53 90.38 1290.51 94.2293C1291.67 94.8683 1292.91 95.592 1293.44 96.8006" stroke="#BC445C" stroke-width="2" stroke-miterlimit="10"/>
<path d="M1234.88 187.382C1243.26 190.793 1251.64 194.203 1260.03 197.614" stroke="#BC445C" stroke-width="2" stroke-miterlimit="10"/>
<path d="M1254.53 188.96C1259.52 191.024 1264.51 193.087 1269.5 195.15" stroke="#BC445C" stroke-width="2" stroke-miterlimit="10"/>
<defs>
<linearGradient id="paint0_linear" x1="-27.4664" y1="339.585" x2="1165.67" y2="458.624" gradientUnits="userSpaceOnUse">
<stop stop-color="#DB4F69"/>
<stop offset="1" stop-color="#BC445C"/>
</linearGradient>
</defs>
</svg>
