<svg width="52" height="50" viewBox="0 0 52 50" fill="none" xmlns="http://www.w3.org/2000/svg">
<path d="M37.6213 20.5375C37.6213 20.2 37.6213 20.025 37.6213 19.8375C37.6088 15.625 37.6088 11.4 37.5964 7.1875C37.5964 6.8 37.5839 6.425 37.559 6.0375C37.4594 4.4875 36.3763 3.45 34.8202 3.45C29.7161 3.45 24.6244 3.45 19.5202 3.45C15.163 3.45 10.8058 3.45 6.44865 3.45C4.51903 3.45 3.46086 4.5 3.46086 6.4375C3.46086 18.8 3.46086 31.1625 3.47331 43.5125C3.47331 44.0375 3.53555 44.6125 3.75964 45.075C4.2327 46.1 5.12904 46.55 6.23701 46.55C12.1006 46.55 17.9516 46.55 23.8152 46.55C27.4503 46.55 31.073 46.55 34.7082 46.55C36.5631 46.55 37.6711 45.475 37.6088 43.6125C37.5839 42.8 37.7706 42.275 38.5051 41.8375C39.3766 41.325 40.1609 40.6625 41.0448 40.025C41.0572 40.2375 41.0697 40.3875 41.0697 40.5375C41.0697 42.1125 41.0697 43.7 41.0697 45.275C41.0572 48.025 39.0903 50 36.3639 50C25.8319 50 15.3124 50 4.78046 50C1.96696 50 0 48.025 0 45.2125C0 37.6375 0 30.075 0 22.5C0 16.575 0 10.6625 0 4.7375C0 2.3125 1.53124 0.475 3.88413 0.05C4.15801 0.0125 4.43189 0 4.70577 0C15.2377 0 25.7572 0 36.2892 0C39.0529 0 41.0448 2.025 41.0572 4.8125C41.0572 7.85 41.0697 10.8875 41.0448 13.925C41.0448 14.2625 40.9327 14.65 40.7709 14.95C39.8497 16.6375 38.9035 18.3125 37.9574 19.9875C37.8827 20.125 37.7831 20.2625 37.6213 20.5375Z" fill="#61BE6A"/>
<path d="M31.8075 41.8375C31.9943 39.3625 32.1561 37 32.3677 34.65C32.4051 34.2375 32.5545 33.8 32.7536 33.425C36.5008 26.7125 40.2605 20.0125 44.0326 13.3C44.7671 11.9875 45.9622 11.625 47.2818 12.3125C48.4271 12.9125 49.5724 13.525 50.7053 14.15C51.9627 14.8375 52.3486 16.125 51.639 17.375C47.8544 24.15 44.0575 30.9125 40.248 37.675C40.0364 38.05 39.7127 38.4125 39.3641 38.675C37.5341 40.0375 35.6792 41.375 33.8118 42.675C33.4881 42.9 33.0524 43.075 32.679 43.0625C32.0814 43.05 31.7826 42.5125 31.8075 41.8375ZM48.2777 20.4375C48.9749 19.175 49.6596 17.975 50.3194 16.75C50.5808 16.25 50.4812 15.8125 50.0081 15.525C48.8753 14.8625 47.7299 14.2125 46.5846 13.5875C46.1489 13.35 45.7007 13.4625 45.4518 13.8875C44.7297 15.1125 44.0575 16.35 43.3354 17.6125C44.9787 18.5625 46.5971 19.4875 48.2777 20.4375ZM46.7589 21.6875C46.4352 21.4875 46.1489 21.3125 45.8501 21.1125C43.1113 26.0125 40.3974 30.85 37.6711 35.725C37.9698 35.925 38.2437 36.1 38.5549 36.3C41.2813 31.425 43.9952 26.5875 46.7589 21.6875ZM37.9823 37.9375C36.5506 37.125 35.1688 36.3375 33.7371 35.5125C33.6873 36.1125 33.6375 36.625 33.6002 37.1375C33.4757 38.75 33.4757 38.75 34.8949 39.55C34.982 39.6 35.0692 39.675 35.1688 39.6875C35.3057 39.7125 35.48 39.7375 35.5796 39.6625C36.3639 39.125 37.1357 38.55 37.9823 37.9375Z" fill="#61BE6A"/>
<path d="M14.8394 35.3C14.8145 37.85 12.7853 39.85 10.2705 39.8375C7.74336 39.825 5.73905 37.75 5.77639 35.175C5.81374 32.6625 7.86785 30.6875 10.4199 30.725C12.8475 30.75 14.8643 32.8375 14.8394 35.3ZM10.2954 32.7C8.87623 32.7 7.73091 33.85 7.73091 35.275C7.73091 36.7125 8.86378 37.85 10.283 37.875C11.6897 37.9 12.8599 36.7375 12.8724 35.3125C12.8848 33.8625 11.7395 32.7 10.2954 32.7Z" fill="#61BE6A"/>
<path d="M26.3424 21.4375C28.9691 21.4375 31.5959 21.4375 34.2226 21.4375C35.0567 21.4375 35.5672 22.175 35.2186 22.875C34.9945 23.3125 34.621 23.45 34.148 23.45C30.0522 23.4375 25.9564 23.45 21.8731 23.45C20.7651 23.45 19.6572 23.45 18.5616 23.45C17.7898 23.45 17.3167 23.05 17.3292 22.425C17.3416 21.8125 17.7898 21.4375 18.5367 21.4375C21.1262 21.4375 23.728 21.4375 26.3424 21.4375Z" fill="#61BE6A"/>
<path d="M26.305 12.5C23.7031 12.5 21.0888 12.5 18.487 12.5C17.8396 12.5 17.4039 12.175 17.3167 11.625C17.2296 11.0375 17.6653 10.5125 18.3127 10.4875C19.0347 10.4625 19.7692 10.475 20.4913 10.475C24.9605 10.475 29.4422 10.475 33.9114 10.475C34.8451 10.475 35.3182 10.8125 35.3182 11.475C35.3182 12.1375 34.8327 12.5 33.9239 12.5C31.3842 12.5 28.8446 12.5 26.305 12.5Z" fill="#61BE6A"/>
<path d="M9.31195 24.4125C10.3452 23.4125 11.2665 22.4875 12.2375 21.6C12.4865 21.375 12.8475 21.2 13.1712 21.1375C13.694 21.05 14.1173 21.3125 14.3663 21.7875C14.6153 22.275 14.6153 22.8 14.2418 23.2C12.9346 24.575 11.5901 25.9375 10.2456 27.2625C9.79746 27.7 9.06296 27.6625 8.5899 27.2125C7.8554 26.5125 7.13335 25.7875 6.4362 25.05C5.92578 24.525 5.97558 23.75 6.4611 23.2625C6.94661 22.775 7.73091 22.75 8.24132 23.2375C8.62724 23.625 8.97582 24.05 9.31195 24.4125Z" fill="#61BE6A"/>
<path d="M9.36174 13.4125C10.3701 12.425 11.3412 11.4875 12.3122 10.55C12.7479 10.1375 13.333 10.0375 13.831 10.3C14.3289 10.5625 14.6028 11.075 14.4783 11.65C14.4161 11.925 14.2667 12.2125 14.08 12.4125C12.8724 13.675 11.6399 14.9125 10.4075 16.15C9.79746 16.7625 9.06297 16.7625 8.44051 16.15C7.8056 15.525 7.1707 14.8875 6.53579 14.2375C5.93823 13.625 5.91334 12.825 6.4611 12.3C6.98396 11.7875 7.76826 11.8375 8.35336 12.4C8.70194 12.7375 9.03807 13.0875 9.36174 13.4125Z" fill="#61BE6A"/>
<path d="M30.2514 34.3875C28.1101 34.3875 25.9564 34.3875 23.7903 34.3875C22.0474 34.3875 20.3045 34.3875 18.5616 34.3875C17.7649 34.3875 17.3167 34.025 17.3043 33.4C17.2918 32.775 17.7649 32.3875 18.5367 32.3875C22.508 32.3875 26.4793 32.3875 30.4506 32.3875C30.5999 32.3875 30.7493 32.3875 30.9112 32.3875C30.6871 33.0625 30.4879 33.6875 30.2514 34.3875Z" fill="#61BE6A"/>
<path d="M23.4666 38.1875C21.8109 38.1875 20.1551 38.1875 18.4994 38.1875C18.0263 38.1875 17.6404 38.05 17.4288 37.6125C17.0802 36.925 17.5782 36.1625 18.4123 36.15C19.5451 36.1375 20.6904 36.15 21.8233 36.1375C24.0268 36.1375 26.2428 36.1375 28.4463 36.1375C29.3177 36.1375 29.853 36.875 29.5044 37.5875C29.2803 38.05 28.8695 38.175 28.384 38.175C26.7407 38.1875 25.1099 38.2 23.4666 38.1875C23.4666 38.2 23.4666 38.2 23.4666 38.1875Z" fill="#61BE6A"/>
<path d="M23.4666 16.275C21.8109 16.275 20.1551 16.275 18.4994 16.275C17.7649 16.275 17.3043 15.875 17.3167 15.2625C17.3292 14.65 17.7898 14.275 18.5243 14.2625C21.8233 14.2625 25.1099 14.2625 28.4089 14.2625C29.1434 14.2625 29.604 14.65 29.6165 15.25C29.6289 15.875 29.1683 16.2625 28.384 16.2625C26.7407 16.275 25.0974 16.275 23.4666 16.275Z" fill="#61BE6A"/>
<path d="M23.5039 25.2125C25.1472 25.2125 26.7781 25.2125 28.4214 25.2125C29.131 25.2125 29.604 25.625 29.604 26.2375C29.604 26.825 29.1434 27.2375 28.4587 27.2375C25.1223 27.2375 21.7984 27.25 18.4621 27.2375C17.7649 27.2375 17.3167 26.8375 17.3043 26.25C17.2918 25.65 17.7774 25.225 18.487 25.225C20.1551 25.2125 21.8358 25.2125 23.5039 25.2125Z" fill="#61BE6A"/>
</svg>
