<svg width="178" height="190" viewBox="0 0 178 190" fill="none" xmlns="http://www.w3.org/2000/svg">
<g clip-path="url(#clip0)">
<path d="M49.6121 144.156L50.3589 145.787L66.8963 138.158C66.6422 137.617 66.3728 137.083 66.0879 136.558L49.6121 144.156Z" fill="#373C41"/>
<path d="M41.7668 138.135L46.879 120.511C46.3169 120.325 45.7395 120.163 45.1698 120.008L40.0577 137.632L41.7668 138.135Z" fill="#373C41"/>
<path d="M35.4152 137.315L32.7822 119.143C32.1893 119.212 31.5965 119.297 31.0191 119.398L33.6521 137.578L35.4152 137.315Z" fill="#373C41"/>
<path d="M29.2868 139.201L19.3937 123.772C18.8855 124.082 18.3851 124.406 17.8924 124.746L27.7855 140.167L29.2868 139.201Z" fill="#373C41"/>
<path d="M24.4981 143.491L9.13865 133.551C8.79989 134.045 8.47654 134.548 8.16858 135.058L23.5357 144.999L24.4981 143.491Z" fill="#373C41"/>
<path d="M21.9036 149.358L3.80329 146.761C3.7032 147.348 3.61852 147.936 3.54922 148.531L21.6495 151.128L21.9036 149.358Z" fill="#373C41"/>
<path d="M21.9882 155.812L4.42688 160.953C4.58086 161.533 4.75024 162.105 4.92731 162.669L22.4886 157.529L21.9882 155.812Z" fill="#373C41"/>
<path d="M24.6983 161.617L10.8863 173.621C11.2636 174.085 11.6485 174.534 12.0489 174.974L25.8608 162.97L24.6983 161.617Z" fill="#373C41"/>
<path d="M29.6025 165.792L21.9497 182.457C22.481 182.72 23.0199 182.975 23.5665 183.207L31.2193 166.534L29.6025 165.792Z" fill="#373C41"/>
<path d="M35.754 167.539L35.7155 185.897C36.3083 185.912 36.9011 185.912 37.5016 185.904L37.5401 167.539H35.754Z" fill="#373C41"/>
<path d="M42.1133 166.572L49.6275 183.307C50.1741 183.075 50.7207 182.828 51.252 182.573L43.7455 165.838L42.1133 166.572Z" fill="#373C41"/>
<path d="M47.4487 163.055L61.2221 175.106C61.6225 174.665 62.0151 174.217 62.4001 173.761L48.6266 161.71L47.4487 163.055Z" fill="#373C41"/>
<path d="M131.36 138.049L118.564 124.963C118.133 125.373 117.702 125.79 117.294 126.223L130.089 139.317L131.36 138.049Z" fill="#373C41"/>
<path d="M127.549 143.205L110.465 136.65C110.234 137.199 110.026 137.756 109.826 138.32L126.91 144.875L127.549 143.205Z" fill="#373C41"/>
<path d="M126.201 149.505L107.955 150.641C107.978 151.244 108.016 151.839 108.063 152.427L126.309 151.29L126.201 149.505Z" fill="#373C41"/>
<path d="M127.587 155.781L111.442 164.415C111.712 164.949 111.989 165.474 112.282 165.992L128.419 157.358L127.587 155.781Z" fill="#373C41"/>
<path d="M131.429 160.937L120.319 175.5C120.781 175.879 121.251 176.242 121.736 176.59L132.846 162.027L131.429 160.937Z" fill="#373C41"/>
<path d="M137.072 164.006L132.953 181.9C133.531 182.047 134.108 182.186 134.693 182.302L138.812 164.408L137.072 164.006Z" fill="#373C41"/>
<path d="M143.447 164.47L147.143 182.449C147.728 182.341 148.313 182.225 148.89 182.094L145.195 164.114L143.447 164.47Z" fill="#373C41"/>
<path d="M149.468 162.205L160.223 177.046C160.716 176.706 161.193 176.35 161.663 175.987L150.915 161.146L149.468 162.205Z" fill="#373C41"/>
<path d="M153.987 157.683L169.916 166.673C170.224 166.162 170.517 165.645 170.794 165.111L154.857 156.122L153.987 157.683Z" fill="#373C41"/>
<path d="M156.25 151.631L174.466 153.223C174.535 152.636 174.582 152.04 174.62 151.438L156.404 149.845L156.25 151.631Z" fill="#373C41"/>
<path d="M155.804 145.238L173.026 139.054C172.842 138.482 172.642 137.926 172.426 137.369L155.203 143.553L155.804 145.238Z" fill="#373C41"/>
<path d="M152.74 139.557L165.874 126.803C165.474 126.362 165.058 125.937 164.635 125.52L151.508 138.266L152.74 139.557Z" fill="#373C41"/>
<path d="M147.643 135.699L154.279 118.594C153.733 118.362 153.179 118.145 152.616 117.937L145.972 135.05L147.643 135.699Z" fill="#373C41"/>
<path d="M141.368 134.3L140.367 115.973C139.767 115.989 139.174 116.02 138.589 116.074L139.59 134.401L141.368 134.3Z" fill="#373C41"/>
<path d="M68.3976 162.901C67.081 166.905 65.0254 170.576 62.4001 173.761C62.0228 174.217 61.6302 174.673 61.2221 175.106C58.4043 178.174 55.0245 180.718 51.2443 182.565C50.7131 182.828 50.1664 183.067 49.6198 183.299C45.9243 184.861 41.8823 185.781 37.6402 185.897C37.594 185.897 37.5478 185.897 37.5016 185.897C36.9011 185.912 36.3083 185.912 35.7155 185.889C31.4272 185.765 27.3236 184.822 23.5742 183.199C23.0276 182.959 22.4887 182.712 21.9574 182.449C18.208 180.586 14.8513 178.035 12.0566 174.959C11.6562 174.518 11.2713 174.062 10.894 173.606C8.27637 170.398 6.23615 166.696 4.93503 162.653C4.75025 162.089 4.58857 161.517 4.43459 160.937C3.79558 158.502 3.42603 155.967 3.34904 153.347C3.30285 151.716 3.37984 150.1 3.55691 148.523C3.6262 147.928 3.71089 147.333 3.81098 146.753C4.52698 142.54 6.03598 138.583 8.17629 135.05C8.48425 134.54 8.8076 134.038 9.14636 133.543C11.4945 130.095 14.4663 127.096 17.9078 124.731C18.4005 124.391 18.9009 124.074 19.4091 123.757C22.9121 121.616 26.8309 120.109 31.0345 119.382C31.6196 119.282 32.2047 119.197 32.7976 119.127C33.7753 119.011 34.7685 118.934 35.7694 118.911C39.0183 118.818 42.1749 119.204 45.1775 119.993C45.7549 120.147 46.3246 120.31 46.8867 120.495C50.6515 121.709 54.1391 123.579 57.2033 125.983L59.4668 123.525C52.9381 118.331 44.6309 115.324 35.677 115.571C15.4518 116.143 -0.546635 133.133 0.0230878 153.439C0.592811 173.745 17.5151 189.808 37.7403 189.236C53.7541 188.787 67.1041 178.043 71.7004 163.519L68.3976 162.901Z" fill="#2F3439"/>
<path d="M70.0529 153.486L73.3711 153.896C73.4019 153.061 73.4096 152.226 73.3865 151.376C73.3788 151.19 73.3711 151.012 73.3634 150.827L70.0298 150.665C70.0452 150.935 70.0529 151.198 70.0606 151.468C70.0759 152.149 70.0759 152.821 70.0529 153.486Z" fill="#2F3439"/>
<path d="M69.6756 157.552C69.5062 158.634 69.2906 159.708 69.0212 160.752L72.3009 161.37C72.5781 160.249 72.8091 159.113 72.9861 157.954L69.6756 157.552Z" fill="#2F3439"/>
<path d="M66.8963 138.158C68.3899 141.334 69.4061 144.79 69.8373 148.43L73.2094 148.593C72.3086 139.866 68.3745 132.067 62.5156 126.238L60.2598 128.696C62.5695 131.008 64.5404 133.651 66.1033 136.557C66.3727 137.075 66.6422 137.616 66.8963 138.158Z" fill="#2F3439"/>
<path d="M177.985 148.423C177.415 128.117 160.493 112.054 140.267 112.626C136.256 112.742 132.407 113.5 128.827 114.806L130.143 117.882C132.815 116.932 135.64 116.306 138.581 116.066C139.166 116.02 139.759 115.981 140.36 115.965C144.656 115.842 148.79 116.553 152.609 117.936C153.171 118.137 153.725 118.362 154.272 118.594C158.144 120.24 161.647 122.605 164.619 125.519C165.043 125.937 165.458 126.362 165.859 126.803C168.653 129.856 170.894 133.427 172.411 137.361C172.626 137.918 172.826 138.482 173.011 139.046C173.989 142.038 174.559 145.215 174.651 148.508C174.682 149.489 174.659 150.463 174.605 151.422C174.566 152.017 174.52 152.612 174.451 153.207C173.973 157.451 172.703 161.47 170.786 165.103C170.509 165.629 170.216 166.155 169.908 166.665C167.753 170.259 164.943 173.421 161.647 175.987C161.178 176.35 160.7 176.706 160.208 177.046C156.836 179.388 153.001 181.119 148.875 182.086C148.297 182.217 147.712 182.341 147.127 182.441C145.533 182.727 143.901 182.897 142.231 182.944C139.644 183.013 137.118 182.789 134.686 182.294C134.1 182.178 133.523 182.039 132.946 181.892C128.857 180.833 125.062 179.001 121.728 176.574C121.243 176.226 120.774 175.863 120.312 175.484C117.086 172.856 114.353 169.641 112.274 165.992C111.981 165.474 111.697 164.949 111.435 164.415C109.61 160.752 108.432 156.709 108.055 152.427C108.001 151.831 107.963 151.236 107.947 150.641C107.947 150.564 107.939 150.479 107.939 150.401C107.824 146.173 108.494 142.1 109.826 138.328C110.026 137.763 110.234 137.207 110.465 136.658C112.081 132.754 114.407 129.222 117.294 126.215C117.709 125.782 118.133 125.365 118.564 124.955C120.889 122.775 123.53 120.928 126.402 119.482L125.085 116.406C112.628 122.59 104.198 135.653 104.613 150.494C105.183 170.8 122.106 186.863 142.331 186.291C162.556 185.719 178.554 168.736 177.985 148.423Z" fill="#2F3439"/>
<path d="M72.9862 157.961L74.3335 158.131C74.3181 157.946 74.3027 157.76 74.3027 157.575C74.2719 156.345 74.4874 155.163 74.9032 154.088L73.3711 153.895L70.0528 153.485L42.1441 150.03C42.2365 150.417 42.2981 150.819 42.3058 151.236C42.3366 152.264 42.0902 153.238 41.6437 154.081L69.6756 157.551L72.9862 157.961Z" fill="#37BE8A"/>
<path d="M85.1967 148.647L82.2172 140.639L86.0282 140.531L85.9127 136.449L77.1051 136.697L81.4858 148.577C81.9554 148.484 82.4328 148.43 82.9255 148.415C83.7031 148.392 84.4653 148.477 85.1967 148.647Z" fill="#2F3439"/>
<path d="M85.1967 148.647C84.4653 148.477 83.7031 148.392 82.9255 148.415C82.4328 148.431 81.9554 148.485 81.4858 148.577C81.0393 148.662 80.6004 148.786 80.177 148.933L77.2283 148.786L73.2017 148.593L69.8296 148.431L43.2682 147.132L40.2425 146.985C39.7882 146.606 39.2724 146.289 38.7181 146.065C38.0098 145.779 37.2322 145.625 36.4161 145.648C33.2518 145.741 30.7574 148.384 30.8497 151.561C30.9421 154.738 33.5752 157.242 36.7395 157.15C37.0243 157.142 37.3015 157.103 37.5709 157.057L68.3976 162.901L71.6927 163.527L78.3215 164.787C79.7843 165.745 81.5397 166.286 83.4182 166.232C83.6723 166.224 83.9187 166.201 84.165 166.178L81.0701 157.861L84.881 156.431L87.9914 164.802C90.5013 163.163 92.1258 160.296 92.0334 157.072C91.9641 154.568 90.8631 152.334 89.1617 150.757C88.1608 149.837 86.9521 149.142 85.6124 148.755C85.4816 148.717 85.3353 148.678 85.1967 148.647ZM72.3009 161.378L69.0212 160.759L40.7044 155.387C41.074 155.001 41.3896 154.56 41.6437 154.081C42.0902 153.231 42.3366 152.264 42.3058 151.236C42.2904 150.819 42.2365 150.417 42.1441 150.031C42.0825 149.775 41.9978 149.536 41.9055 149.296L70.0221 150.672L73.3557 150.834L76.9049 151.005C76.0349 151.87 75.342 152.921 74.8878 154.081C74.472 155.163 74.2488 156.338 74.2873 157.567C74.295 157.753 74.3027 157.938 74.3181 158.124C74.4413 159.538 74.9032 160.86 75.6038 162.004L72.3009 161.378Z" fill="#373C41"/>
<path d="M84.8811 156.431L81.0701 157.853L84.165 166.178L85.6817 170.251L81.8708 170.36L81.9862 174.441L94.9205 174.078L94.805 169.996L89.9778 170.128L87.9991 164.802L84.8811 156.431Z" fill="#2F3439"/>
<path d="M60.6139 72.4085C60.7602 72.2925 60.8988 72.2229 61.0374 72.1225C61.1759 72.0452 61.3145 71.9679 61.4454 71.8983C61.584 71.8287 61.7149 71.7746 61.8458 71.7128L62.2384 71.5582C62.7542 71.3727 63.247 71.2567 63.732 71.1949C64.6944 71.0712 65.6028 71.164 66.4651 71.4036L69.0751 72.0838L71.6773 72.7949C75.1342 73.7612 78.5756 74.8124 81.9862 75.941L84.5423 76.799L87.0907 77.6879C88.7921 78.2753 90.4859 78.886 92.1874 79.4889L97.2764 81.2977L102.373 83.0832L103.466 83.4697C107.401 84.8456 109.479 89.1588 108.109 93.101C107.993 93.4334 107.839 93.7967 107.678 94.0981L102.173 104.742C100.317 108.282 98.4774 111.83 96.5989 115.355L93.7887 120.65L90.9478 125.937C89.0385 129.454 87.1291 132.971 85.1736 136.465C84.065 138.436 81.5782 139.132 79.615 138.019C77.9135 137.052 77.1667 135.043 77.721 133.242C78.899 129.408 80.1231 125.597 81.3549 121.786L83.2258 116.082L85.1197 110.385C86.3746 106.589 87.6758 102.81 88.9538 99.022L92.8649 87.6902L98.1772 98.705L92.8726 97.6693L87.568 96.6644C85.7972 96.3243 84.0265 95.9996 82.2634 95.6518L79.615 95.1339L76.9742 94.5851C73.4558 93.8353 69.9605 93.0082 66.4882 92.0961L63.886 91.4004L61.2914 90.6738C60.4214 90.442 59.5977 90.0709 58.8278 89.4757C58.4428 89.1743 58.0733 88.8264 57.7191 88.409L57.4573 88.0767C57.3727 87.953 57.288 87.8448 57.2033 87.7134C57.1186 87.5897 57.0416 87.4505 56.9646 87.3114C56.8876 87.1568 56.8106 87.0254 56.7413 86.8553C54.5933 81.5991 56.341 75.7168 60.6139 72.4085Z" fill="url(#paint0_linear)"/>
<path d="M71.8236 91.6553C74.4413 90.0011 73.2094 85.9275 70.1144 86.0125L49.8277 86.5845C48.1493 86.6309 46.8251 88.0377 46.8713 89.7228L47.21 101.758C47.2793 104.123 49.8816 105.515 51.8756 104.255L59.1203 99.6787L62.6388 97.4526L71.8236 91.6553Z" fill="#2F3439"/>
<path d="M120.674 95.7291L120.989 96.4634L127.68 96.2779C133.662 96.1078 138.751 92.4671 141.076 87.3268C141.191 87.1877 141.268 87.0099 141.291 86.8244C142.077 84.9152 142.485 82.8127 142.423 80.6174V80.5401C142.531 80.3855 142.6 80.1923 142.592 79.9836C142.585 79.7749 142.508 79.5894 142.392 79.4348L142.208 72.8413L118.179 73.5215L118.803 95.7213V95.7832L120.674 95.7291ZM134.131 74.9206L140.414 74.7428L140.537 79.1024L134.255 79.2802L134.131 74.9206ZM134.301 81.1353L140.575 80.9575C140.583 82.6658 140.275 84.3045 139.698 85.8118L134.432 85.9587L134.301 81.1353ZM134.493 87.8138L138.812 87.6901C137.781 89.4912 136.333 91.0371 134.609 92.1889L134.493 87.8138ZM126.509 75.137L132.276 74.9747L132.399 79.3343L126.633 79.4966L126.509 75.137ZM126.686 81.3518L132.453 81.1894L132.592 86.0128L126.825 86.1751L126.686 81.3518ZM126.871 88.0303L132.638 87.8679L132.784 93.1551C132.784 93.1705 132.792 93.186 132.792 93.2092C131.213 93.9358 129.466 94.3686 127.626 94.415L127.048 94.4305L126.871 88.0303ZM120.081 75.3148L124.662 75.1834L124.785 79.543L120.204 79.6744L120.081 75.3148ZM120.258 81.5295L124.839 81.3981L124.977 86.2215L120.396 86.3529L120.258 81.5295ZM120.443 88.2158L125.023 88.0844L125.201 94.4846L120.62 94.616L120.443 88.2158Z" fill="#373C41"/>
<path d="M143.262 148.562L130.143 117.882L128.827 114.806L120.981 96.4634L120.974 96.4402L120.265 71.2876L115.946 71.4113L116.624 95.6672L68.9442 114.582L62.631 97.4682L59.1126 99.6944L65.4951 116.978L59.4591 123.533L57.1956 125.991L38.7181 146.057C39.2724 146.282 39.7882 146.598 40.2425 146.977L43.2682 147.124L60.2367 128.689L62.4925 126.231L67.0657 121.26L77.2129 148.778L80.1616 148.925C80.585 148.771 81.0162 148.655 81.4704 148.57L77.0897 136.689L70.3454 118.4L114.129 101.032L85.6047 148.747C86.9444 149.134 88.1531 149.83 89.154 150.749L118.656 101.395L125.07 116.406L126.386 119.483L139.505 150.17C139.844 150.966 140.622 151.43 141.43 151.406C141.676 151.399 141.93 151.345 142.177 151.244C143.224 150.796 143.701 149.598 143.262 148.562Z" fill="#37BE8A"/>
<path d="M125.832 73.2975L101.865 73.9777C100.672 74.0086 99.6785 73.0656 99.64 71.8675C99.6015 70.6694 100.548 69.6722 101.742 69.6336L125.709 68.9534C126.902 68.9225 127.895 69.8655 127.934 71.0636C127.964 72.2694 127.025 73.2666 125.832 73.2975Z" fill="#2F3439"/>
<path d="M71.4002 27.5679C71.8313 27.622 72.247 27.7225 72.6628 27.8539C76.0965 28.9825 78.3523 32.2753 78.3138 35.9006C78.2445 42.239 77.7287 48.5387 78.283 54.8848C75.573 56.7168 72.863 58.3632 70.1914 60.3807C69.2829 66.3712 68.8441 73.7299 69.945 79.4422C71.046 85.1545 64.8252 88.7643 61.7149 89.6146C58.6045 90.4726 60.4137 89.5991 60.4522 90.032C54.0467 87.945 50.8747 87.6203 50.4436 79.5582C49.5582 62.9547 53.1613 48.2682 60.0057 33.087C62.8466 26.7949 65.3411 26.8568 71.4002 27.5679Z" fill="#40DC9E"/>
<path d="M71.2077 31.6573C73.2864 31.9974 75.2651 30.5674 75.6038 28.4804L77.1205 19.1351C77.4593 17.0481 76.035 15.0615 73.9562 14.7214C71.8775 14.3813 69.8989 15.8113 69.5601 17.8984L68.0434 27.2359C67.7047 29.3229 69.129 31.3172 71.2077 31.6573Z" fill="#DEA095"/>
<path d="M72.3933 3.06494L84.8195 7.37814L85.112 14.2422C85.1197 14.3658 85.1351 14.4895 85.1505 14.6132C85.1736 14.9224 85.1813 15.2238 85.1736 15.533L85.1351 16.0045C85.0889 16.4915 85.0196 16.9708 84.8887 17.4423C84.065 20.4414 81.5628 22.8222 78.3369 23.286C78.3061 23.2937 78.2753 23.2937 78.2522 23.3014C72.2855 24.1208 66.7962 19.7844 66.2496 13.6933C65.8338 9.13279 68.413 4.90462 72.3933 3.06494Z" fill="#EEB5AC"/>
<path d="M72.632 0.436748C72.6628 0.436748 72.7013 0.436748 72.7321 0.436748L77.2745 0.274424C81.5859 0.119829 85.7664 1.80491 88.7767 4.90454L75.9117 12.8662C75.6038 11.2352 74.0332 10.0757 72.2932 10.4081C71.0152 10.6555 70.0451 11.6449 69.845 12.9357C69.7064 13.8324 69.9374 14.6595 70.4147 15.2933L70.6534 21.4075C66.1572 20.3408 62.7311 16.3832 62.5155 11.5212C62.2538 5.6466 66.7885 0.69183 72.632 0.436748Z" fill="#623C34"/>
<path d="M52.5916 28.5731C54.1006 24.1671 55.9714 18.2461 57.3573 14.1416C59.6592 7.34717 64.8253 4.39441 71.5233 5.28333C71.3463 5.32971 71.5233 5.28333 71.5233 5.28333C67.8124 4.73452 70.2684 4.64949 65.5259 3.95382C66.6268 4.10068 65.5259 3.95382 65.5259 3.95382C60.791 3.25814 53.4385 5.87852 51.8756 12.5725C50.9286 16.6151 48.4881 22.4202 47.3178 26.7566C48.9885 27.4445 50.8362 28.0552 52.5916 28.5731Z" fill="#623C34"/>
<path d="M103.528 63.9364C101.749 62.5141 99.9479 61.115 98.1541 59.7159L95.4209 57.5825L92.6724 55.4723C91.0402 54.2355 89.408 53.0065 87.7528 51.8084L80.6851 41.3501C79.4456 39.5258 78.1906 37.7094 76.9896 35.8697C75.7732 34.03 74.5721 32.1826 73.3865 30.312C73.2864 30.1574 73.1555 29.9719 73.04 29.825C71.2847 27.6684 68.1281 27.3515 65.9801 29.1139C63.8321 30.8763 63.5164 34.0455 65.2718 36.2021C66.6653 37.9103 68.028 39.6418 69.3907 41.381C70.7534 43.1124 72.0777 44.8748 73.4096 46.6295L81.4473 57.1342L81.5705 57.2965C81.8092 57.598 82.094 57.8763 82.4251 58.1004C84.3344 59.399 86.2669 60.659 88.207 61.9112L91.1249 63.7741L94.0582 65.6137C95.6981 66.6418 97.338 67.6621 98.9856 68.6824L101.064 73.4517C102.55 76.8605 106.261 78.7002 109.864 77.8113L111.627 77.3784C113.159 76.9996 113.814 75.1832 112.89 73.9078L110.149 70.1279C110.164 69.9192 110.164 69.7028 110.149 69.4941C110.095 68.667 109.795 67.8631 109.287 67.1751C109.164 66.9974 109.017 66.8428 108.871 66.6804C108.802 66.6031 108.717 66.5336 108.632 66.4563C108.548 66.3867 108.463 66.3171 108.378 66.2476C108.286 66.1857 108.201 66.1239 108.109 66.0621L107.97 65.9616L107.932 65.9384L107.916 65.9307L107.909 65.9229L107.878 65.9075C107.801 65.8611 107.732 65.807 107.662 65.7529C107.377 65.5442 107.1 65.2968 106.831 65.034C106.7 64.9026 106.561 64.7635 106.43 64.6166C106.369 64.547 106.3 64.4697 106.238 64.3924L106.022 64.1451" fill="#EEB5AC"/>
<path d="M91.9641 109.797L91.2943 108.916L87.6758 104.131L84.0803 99.3311C82.8793 97.7311 81.686 96.1233 80.4772 94.5387L78.668 92.1502L76.8356 89.7772C74.6414 86.9713 72.3933 84.204 70.099 81.4831L70.0605 81.0967C70.0836 80.5633 70.0528 80.0145 69.9451 79.4425C69.4985 77.139 69.3137 74.5573 69.2983 71.9137L50.4205 70.4219C50.4205 70.4683 50.4205 70.5146 50.4128 70.561L50.2588 70.4914L48.2494 82.9827L48.2648 83.0059C48.2494 83.1528 48.2494 83.2842 48.234 83.4233C48.234 83.5934 48.2263 83.7557 48.234 83.918C48.234 84.0803 48.2571 84.2349 48.2648 84.3895L48.3187 84.8378C48.4034 85.4253 48.5496 85.9587 48.7344 86.4534C49.104 87.4505 49.6506 88.3008 50.305 89.0506L52.2451 91.3308L54.2084 93.5879C56.8337 96.5871 59.5284 99.5321 62.2846 102.423L64.3633 104.58L66.4651 106.721C67.8586 108.151 69.2752 109.565 70.6842 110.98L74.9109 115.231L77.2129 117.566L77.3207 125.481C77.3976 129.408 77.4515 133.327 77.5593 137.253L77.7056 143.143L77.8827 149.033C78.0213 152.96 78.1521 156.887 78.3446 160.821C78.437 162.7 79.8074 164.331 81.7322 164.655C83.9572 165.042 86.0667 163.542 86.4439 161.308C87.106 157.428 87.7066 153.548 88.3148 149.667L89.1925 143.839L90.047 138.011C90.6245 134.123 91.148 130.242 91.6946 126.354L93.2652 114.69C93.4731 113.028 93.065 111.25 91.9641 109.797Z" fill="#DB4F69"/>
<path d="M87.337 155.758L77.2514 163.333L76.3198 168.273L96.5912 172.145C98.4312 172.501 100.21 171.28 100.564 169.432L87.5295 160.551C88.6843 159.762 88.9846 158.185 88.1993 157.026L87.337 155.758Z" fill="#40DC9E"/>
<path d="M86.6059 161.538L85.765 162.777L97.3446 170.697L98.1855 169.458L86.6059 161.538Z" fill="white"/>
</g>
<defs>
<linearGradient id="paint0_linear" x1="129.929" y1="85.1065" x2="89.9249" y2="98.8364" gradientUnits="userSpaceOnUse">
<stop stop-color="#DB4F69"/>
<stop offset="1" stop-color="#BC445C"/>
</linearGradient>
<clipPath id="clip0">
<rect width="178" height="189" fill="white" transform="translate(0 0.258789)"/>
</clipPath>
</defs>
</svg>
