<svg width="34" height="25" viewBox="0 0 34 25" fill="none" xmlns="http://www.w3.org/2000/svg">
<path d="M4.57004 7.40265H6.15873L6.16549 1.66982H8.04489L8.03813 7.40265H9.62682L9.63358 0.0811249H4.5768L4.57004 7.40265ZM14.0008 0.0135208C11.9389 0.0135208 10.2555 1.6901 10.2555 3.75203C10.2555 5.81395 11.9321 7.4973 13.994 7.4973C16.056 7.4973 17.7393 5.82071 17.7393 3.75879C17.7461 1.69686 16.0627 0.0135208 14.0008 0.0135208ZM14.0008 5.9086C12.8177 5.9086 11.9186 4.9351 11.9186 3.75203C11.9186 2.56896 12.8177 1.59546 14.0008 1.60222C15.1839 1.60222 16.083 2.57572 16.083 3.75879C16.083 4.94186 15.1839 5.9086 14.0008 5.9086ZM19.9905 0.101406H18.3816L18.3748 7.42293H19.9635V5.07031H19.9838C21.417 5.07031 22.4919 3.9616 22.4919 2.58924C22.4919 1.21687 21.4237 0.101406 19.9905 0.101406ZM19.9635 3.53569V1.64954C20.4976 1.64954 20.8897 2.09573 20.8897 2.58924C20.8964 3.08275 20.4908 3.53569 19.9635 3.53569ZM22.715 0.101406V1.6901H24.1752L24.1685 7.42293H25.7572L25.7639 1.6901H27.2242V0.101406H22.715ZM0.0202789 3.73851C0.0202789 5.80043 1.69686 7.48377 3.75879 7.48377V5.89508C2.57571 5.89508 1.67658 4.92158 1.67658 3.73851C1.67658 2.55544 2.57571 1.58194 3.75879 1.5887V0C1.70362 0 0.0270393 1.67658 0.0202789 3.73851Z" fill="#373C41"/>
<path d="M3.77231 11.7361H1.89292V8.86964H0.304222V16.1844H1.89292V13.318H3.77231V16.1844H5.36101L5.36777 8.86288H3.77907L3.77231 11.7361ZM22.7758 13.0679L22.7826 8.88992H21.2209L16.9889 16.2047H18.8142L21.2007 12.0808L21.1939 16.2047H22.7893L25.1893 12.0606L25.1825 16.2114H26.7712L26.778 8.88992H25.2028L22.7758 13.0679ZM9.735 8.78851C7.67307 8.78851 5.98973 10.4651 5.98973 12.527C5.98973 14.5889 7.66631 16.2723 9.72824 16.2723C11.7902 16.2723 13.4735 14.5957 13.4735 12.5338C13.4803 10.4786 11.7969 8.79527 9.735 8.78851ZM9.72824 14.6904C8.54516 14.6904 7.64603 13.7169 7.64603 12.5338C7.64603 11.3507 8.54516 10.3772 9.72824 10.384C10.9113 10.384 11.8104 11.3575 11.8104 12.5405C11.8172 13.7236 10.9181 14.6904 9.72824 14.6904ZM18.2261 11.3642C18.2261 9.99187 17.1579 8.8764 15.7247 8.8764H14.1157L14.109 16.1979H15.6977V13.8453H15.718C17.1512 13.8521 18.2261 12.7366 18.2261 11.3642ZM15.6977 12.3107V10.4245C16.2318 10.4245 16.6239 10.8707 16.6239 11.3642C16.6239 11.8577 16.225 12.3107 15.6977 12.3107ZM31.2601 8.89668L27.0281 16.2114H28.8534L29.4146 15.2447H31.3818V16.2114H32.9705L32.9773 8.88992L31.2601 8.89668ZM31.3751 13.825H30.2258L31.3818 11.8375L31.3751 13.825Z" fill="#373C41"/>
<path d="M9.33613 17.6582H7.51082L5.61114 20.9505L5.6179 17.6582H4.0292L4.02244 20.9505L2.12277 17.6514H0.297458L2.25798 21.0586L0 24.9662H1.82531L4.02244 21.1668L4.01568 24.9662H5.60438L5.61114 21.1668L7.80151 24.9662H9.62682L7.36885 21.0519L9.33613 17.6582ZM19.3618 21.0519C19.95 20.5854 20.119 20.1595 20.119 19.5511C20.119 18.2328 18.99 17.6717 17.8002 17.6649H16.7185V19.1793H17.8002C18.341 19.2333 18.51 19.4767 18.51 19.8553C18.51 20.2812 18.2193 20.5178 17.7799 20.5178H17.0092V21.9105H17.8813C18.4154 21.9105 18.7399 22.2282 18.7331 22.6947C18.7331 23.1476 18.4492 23.4654 17.7934 23.4721H16.7117V24.9864H17.7934C19.1928 24.9729 20.3624 24.182 20.3624 22.7487C20.3624 21.9105 19.977 21.4102 19.3618 21.0519ZM24.6958 20.5381H22.6744V17.6717H21.0857L21.079 24.9932H22.6677V22.1268H24.689V24.9932H26.2777L26.2845 17.6717H24.6958V20.5381ZM11.6955 21.8564L11.7023 17.6649H10.1136L10.1068 24.9864H11.709L14.1022 20.8558L14.0955 24.9864H15.6842L15.6909 17.6649H14.1225L11.6955 21.8564ZM31.3953 17.6784L28.9684 21.8699L28.9751 17.6784H27.3864L27.3797 25H28.9819L31.3751 20.8694L31.3683 25H32.957L32.9638 17.6784H31.3953Z" fill="#373C41"/>
<path d="M33.8021 3.7723L32.5311 5.96943H30.9154L31.7604 4.50242H27.2174V3.03541L31.7604 3.04217L30.9221 1.57516H32.5379L33.8021 3.7723Z" fill="#A7E600"/>
</svg>
