<svg width="253" height="246" viewBox="0 0 253 246" fill="none" xmlns="http://www.w3.org/2000/svg">
<g clip-path="url(#clip0)">
<path d="M176.997 37.0765C178.263 35.083 180.951 34.5843 182.846 36.0018L201.571 50.9754L220.083 39.79C220.321 39.6558 220.125 37.4166 220.125 37.4166L227.422 28.9877C228.286 27.991 229.876 28.191 230.467 29.3707L231.148 30.7311C232.54 33.5056 231.747 36.8759 229.264 38.7237L227.768 39.8406C226.348 40.8984 224.7 41.5432 222.991 41.985C222.936 41.9975 222.888 42.0218 222.853 42.051L210.93 52.4426C208.465 53.4819 205.967 54.4549 203.559 55.6086C202.773 55.9871 201.875 56.2763 201.029 56.0518C199.323 55.5979 197.431 53.9706 195.888 53.0416C194.134 51.9833 192.382 50.9313 190.628 49.873C187.257 47.843 183.892 45.8124 180.522 43.7887C179.764 43.3323 178.995 42.896 178.248 42.4256C176.468 41.2941 175.866 38.8646 176.997 37.0765Z" fill="#EEB5AC"/>
<path d="M114.77 143.065C123.253 137.712 130.846 131.055 137.274 123.337L137.508 123.051L149.854 121.053L162.054 93.2752L169.768 75.4084L175.936 75.2195C180.181 77.2676 182.04 82.3279 180.138 86.6519C178.758 89.8009 176.39 92.8109 174.547 95.7061C172.606 98.758 170.62 101.79 168.598 104.787C166.037 108.58 163.319 112.257 160.628 115.957C158.267 119.201 156.263 122.539 153.156 125.154C149.423 128.289 145.01 130.406 140.914 132.99C136.315 135.896 131.74 138.843 127.135 141.744C123.984 143.735 120.827 145.72 117.677 147.711L114.77 143.065Z" fill="url(#paint0_linear)"/>
<path d="M169.226 72.2036C171.301 65.657 171.655 60.6521 171.23 53.6816C171.005 49.9659 170.064 44.0492 169.839 39.9906C169.612 35.856 171.728 33.8898 175.725 33.6728C177.786 33.5606 180.619 33.9732 182.804 33.9553C186.108 40.2029 189.292 46.4574 192.389 52.7848C190.093 55.4186 187.901 57.5583 185.575 60.5509C184.845 68.6898 182.717 80.6656 181.102 87.6571C179.488 94.6548 178.061 91.4459 174.345 92.7243C172.731 93.2764 170.574 91.9958 169.098 91.6817C165.311 90.8723 163.663 87.9544 164.835 84.1805C165.972 80.493 168.118 75.6911 169.226 72.2036Z" fill="#A4E603"/>
<path d="M178.026 37.586C179.923 37.3585 181.285 35.6084 181.051 33.71L179.806 23.4132C179.577 21.5078 178.055 21.9164 176.158 22.1439L175.944 20.3703C174.048 20.5978 172.685 22.3479 172.919 24.2463L174.164 34.5431C174.392 36.4423 176.136 37.8128 178.026 37.586Z" fill="#DEA095"/>
<path d="M177.205 7.80401C177.349 7.78822 177.493 7.77871 177.638 7.77547C177.72 7.77282 177.802 7.77017 177.884 7.76752C177.947 7.76693 178.003 7.76075 178.067 7.76644C178.181 7.76663 178.295 7.7731 178.403 7.77398C178.435 7.77682 178.46 7.77407 178.492 7.77692C178.625 7.78132 178.753 7.79269 178.887 7.80965C178.894 7.80897 178.907 7.81387 178.913 7.81318C179.476 7.87199 180.018 7.97747 180.541 8.13589C182.34 8.68124 183.89 9.79357 184.964 11.2822C184.964 11.2822 186.086 20.6782 186.65 25.4679C186.853 27.1983 185.618 28.7882 183.892 28.9589C183.879 28.9603 183.867 28.9616 183.861 28.9623C178.97 29.4364 174.531 26.7236 172.742 22.5766C172.631 22.4935 172.52 22.4041 172.416 22.3203C172.312 22.2302 172.207 22.1401 172.108 22.0493L172.102 22.0437C172.003 21.9529 171.91 21.8552 171.812 21.7644C171.805 21.7588 171.805 21.7588 171.798 21.7532C171.706 21.6617 171.619 21.5633 171.532 21.4649C171.525 21.4593 171.518 21.4537 171.518 21.4474C171.432 21.3553 171.351 21.2561 171.271 21.157C171.263 21.1452 171.256 21.1396 171.249 21.1277C171.175 21.0342 171.101 20.9344 171.027 20.8346C171.019 20.8227 171.005 20.8053 170.997 20.7934C170.93 20.6992 170.862 20.5987 170.8 20.4975C170.786 20.4801 170.777 20.4619 170.763 20.4445C170.702 20.3496 170.641 20.2547 170.585 20.1528C170.57 20.1291 170.561 20.1047 170.546 20.0872C170.492 19.9916 170.443 19.8954 170.395 19.7991C170.379 19.7691 170.363 19.7454 170.354 19.7147C170.306 19.6247 170.264 19.5277 170.221 19.4308C170.205 19.4008 170.189 19.3645 170.179 19.3338C170.138 19.2431 170.102 19.1455 170.066 19.0541C170.05 19.0178 170.039 18.9809 170.023 18.9446C169.987 18.8532 169.958 18.7611 169.929 18.6691C169.918 18.6259 169.901 18.5896 169.884 18.547C169.855 18.455 169.832 18.3622 169.804 18.2764C169.793 18.2332 169.775 18.1907 169.764 18.1411C169.741 18.0484 169.718 17.9557 169.702 17.8685C169.69 17.819 169.679 17.7757 169.667 17.7262C169.65 17.6265 169.633 17.5268 169.616 17.4271C169.611 17.3832 169.6 17.3462 169.596 17.3023C169.573 17.1587 169.558 17.0144 169.542 16.87C169.097 12.3085 172.533 8.25405 177.205 7.80401Z" fill="#EEB5AC"/>
<path d="M123.915 145.577L115.879 142.054L111.332 143.525L117.405 162.372C117.959 164.083 119.788 165.025 121.492 164.476L123.915 145.577Z" fill="#A4E603"/>
<path d="M120.246 148.981L118.949 162.367L120.368 162.507L121.665 149.121L120.246 148.981Z" fill="white"/>
<path d="M168.444 9.75757C169.143 8.70273 170.039 7.88034 171.065 7.25961C174.438 5.22508 179.173 5.40319 182.669 6.96214C182.782 7.01322 182.889 7.06498 183.002 7.11605C186.472 8.77952 188.804 12.1683 189.275 15.9966L189.76 19.9441L182.923 14.5611C183.223 17.0619 182.526 19.5771 180.98 21.5568L180.293 22.4388L179.786 18.2334C179.328 17.2233 178.228 16.5948 177.064 16.8117C175.862 17.0327 174.979 18.1458 175.032 19.372C175.092 20.7306 176.197 21.7523 177.489 21.7691L174.402 25.7217C174.402 25.7217 168.767 20.0542 168.728 19.9949C166.797 16.9114 166.361 12.8949 168.444 9.75757Z" fill="#623C34"/>
<path d="M143.856 22.8235C148.225 20.9907 154.062 18.5456 157.965 16.4974C164.432 13.1067 169.148 12.8234 174.117 18.1259C174.064 18.1572 174.117 18.1259 174.117 18.1259C173.009 16.7808 171.983 15.3822 170.898 14.0281L170.928 14.0121C166.349 9.16192 161.354 8.91715 155.265 12.1202C151.589 14.0483 146.019 16.2736 141.931 18.0755C142.495 19.7026 143.138 21.2958 143.856 22.8235Z" fill="#623C34"/>
<path d="M167.306 77.4444C167.7 76.4357 168.084 75.441 168.435 74.4943C171.795 75.0458 177.704 76.3523 182.845 79.1848C182.53 80.8641 181.955 82.6546 181.863 84.3475C184.366 85.0314 186.885 86.6152 189.185 87.8103C191.718 89.1258 194.204 90.5227 196.643 92.0011C199.507 93.7374 202.314 95.5817 205.039 97.5366C207.659 99.4078 210.753 101.22 212.22 104.209C212.676 105.137 212.283 106.222 212.031 107.151C211.473 109.206 210.947 111.265 210.447 113.333C208.151 122.863 206.445 132.531 204.35 142.11C204.034 143.611 203.718 145.106 203.397 146.609L198.056 145.462C200.134 135.619 200.666 125.502 199.622 115.488L199.581 115.117C201.498 112.367 202.454 110.769 204.349 108.002C203.814 108.765 198.155 102.25 173.971 98.754C171.492 98.3978 165.248 95.9343 162.772 91.3546C159.304 84.9283 167.306 77.4444 167.306 77.4444Z" fill="#373C41"/>
<path d="M133.305 73.713C133.302 72.3099 133.617 71.9514 133.774 71.0832C133.873 70.5452 134.037 70.0255 134.24 69.5142C134.388 69.1297 134.492 68.5848 134.649 68.2309C134.996 67.4752 135.257 66.6845 135.485 65.8847C136.048 63.9367 136.792 62.0134 137.41 60.1039C138.293 57.3841 139.247 54.5613 140.582 51.9824C141.28 50.6292 142.093 49.3459 143.009 48.1339C143.81 47.0744 144.223 45.3715 145.605 44.8894L169.222 36.6799C171.123 36.0837 173.146 37.125 173.778 39.0241C174.504 41.1987 173.212 43.5317 170.987 44.0556L148.565 48.641C147.644 50.387 146.73 52.1385 145.81 53.8844C144.2 56.9508 142.584 60.0178 140.974 63.0905C140.571 63.8524 140.169 64.6205 139.766 65.3824C139.552 65.7933 138.879 66.4579 139.088 66.9747C139.149 67.1331 139.306 67.2365 139.421 67.3635C139.594 67.5541 139.673 67.8122 139.757 68.057C140.18 69.3186 141.026 70.4639 141.314 71.7595C141.463 72.429 141.425 73.1127 141.202 73.7341C141.144 73.8929 141.079 74.0462 141 74.1945L141.805 77.84C142.08 79.0736 141.014 80.1877 139.777 79.9744L138.359 79.7301C135.447 79.231 133.303 76.6852 133.305 73.713Z" fill="#EEB5AC"/>
<path d="M204.899 139.115L197.857 144.347L196.862 149.041L216.147 153.171C217.901 153.543 219.623 152.42 219.993 150.665L204.899 139.115Z" fill="#A4E603"/>
<path d="M206.847 142.841L206.019 144.007L216.923 151.825L217.751 150.659L206.847 142.841Z" fill="white"/>
<path d="M173.975 33.8523L168.16 34.4914L162.245 38.9899L167.251 45.6601L172.729 45.1215L177.311 42.8144L174.291 36.4975L173.975 33.8523Z" fill="#A4E603"/>
<path d="M182.784 33.9448L189.422 41.1468L183.912 47.4868L181.105 41.5021L182.784 33.9448Z" fill="#A4E603"/>
<path d="M223.061 37.7291L223.814 36.7002L223.99 36.4649C224.039 36.396 224.094 36.3201 224.144 36.2512C224.242 36.107 224.339 35.9629 224.425 35.8202C224.602 35.534 224.76 35.2436 224.886 34.9503C224.915 34.8772 224.945 34.804 224.975 34.7309L224.985 34.7044L224.991 34.6975L224.995 34.6842L225.004 34.6515L225.052 34.5129C225.087 34.4202 225.121 34.3276 225.155 34.2412C225.196 34.1541 225.244 34.0664 225.285 33.9793C225.332 33.8916 225.373 33.8045 225.428 33.7286C225.537 33.5706 225.639 33.4069 225.769 33.2657C226.262 32.6907 226.898 32.2652 227.601 32.0545C228.298 31.8382 229.067 31.8172 229.767 32.0261C229.852 32.0549 229.937 32.0836 230.022 32.1123L230.147 32.1557C230.187 32.1704 230.227 32.1914 230.267 32.2124C230.428 32.29 230.587 32.3614 230.738 32.4718C230.813 32.5207 230.895 32.5752 230.97 32.6241C230.984 32.6353 231.011 32.6514 231.025 32.6626L231.053 32.6912L231.116 32.7478L231.361 32.9622L232.334 33.8205L230.733 35.9842L229.673 35.3195L229.408 35.1518L229.34 35.1084L229.306 35.0868C229.293 35.0819 229.294 35.0881 229.293 35.0819C229.281 35.0832 229.261 35.079 229.248 35.0741C229.228 35.0636 229.184 35.0622 229.152 35.0593C229.145 35.06 229.139 35.0544 229.126 35.0558L229.101 35.0585C229.082 35.0606 229.069 35.0557 229.057 35.0571C228.937 35.0638 228.823 35.1145 228.729 35.182C228.629 35.2501 228.565 35.3588 228.543 35.4438C228.532 35.464 228.535 35.4891 228.531 35.5086C228.525 35.5155 228.533 35.5274 228.535 35.5399C228.536 35.5525 228.537 35.5588 228.531 35.5657C228.532 35.5783 228.539 35.5839 228.541 35.5964C228.541 35.6027 228.541 35.6027 228.542 35.609L228.537 35.6222L228.53 35.6738C228.507 35.8034 228.477 35.9337 228.447 36.064C228.326 36.5789 228.16 37.0798 227.972 37.5576C227.879 37.7966 227.778 38.0299 227.669 38.2514C227.619 38.3649 227.562 38.4791 227.504 38.5871L227.348 38.8963L226.772 40.0329L223.061 37.7291Z" fill="url(#paint1_linear)"/>
<path d="M22.0392 225.651L24.2536 245.799L121.418 163.633L22.0392 225.651Z" fill="url(#paint2_linear)"/>
</g>
<defs>
<linearGradient id="paint0_linear" x1="131.245" y1="153.47" x2="166.213" y2="71.0896" gradientUnits="userSpaceOnUse">
<stop stop-color="#373C41"/>
<stop offset="1"/>
</linearGradient>
<linearGradient id="paint1_linear" x1="223.014" y1="36.0953" x2="232.401" y2="35.8157" gradientUnits="userSpaceOnUse">
<stop stop-color="#EEB5AC"/>
<stop offset="1" stop-color="#DEA095"/>
</linearGradient>
<linearGradient id="paint2_linear" x1="20.3722" y1="210.483" x2="125.3" y2="198.951" gradientUnits="userSpaceOnUse">
<stop stop-color="#469C80" stop-opacity="0"/>
<stop offset="1" stop-color="#469C80"/>
</linearGradient>
<clipPath id="clip0">
<rect width="230" height="222" fill="white" transform="translate(0 25.1274) rotate(-6.27211)"/>
</clipPath>
</defs>
</svg>
