<svg width="216" height="250" viewBox="0 0 216 250" fill="none" xmlns="http://www.w3.org/2000/svg">
<g clip-path="url(#clip0)">
<path d="M152.199 33.1947C153.214 30.6358 156.103 29.3856 158.659 30.4014C160.611 31.1762 162.569 31.9185 164.534 32.6543C166.499 33.3966 168.47 34.0868 170.448 34.79L179.243 37.961C179.783 37.0689 180.336 36.1834 180.883 35.2979L182.633 32.511L184.402 29.7372C185.586 27.8881 186.764 26.0454 187.974 24.2092C189.125 22.4381 189.294 22.2102 190.472 20.4522L190.511 18.4988L194.017 7.17572C194.434 5.84091 196.067 5.34605 197.147 6.23809L198.389 7.26036C200.926 9.35048 201.597 12.9707 199.97 15.8292L196.886 21.2531C196.886 21.2531 195.787 22.679 195.741 22.7897C194.805 24.7757 194.46 25.3682 193.497 27.3346C192.541 29.3075 191.558 31.2739 190.582 33.2338L189.112 36.1769L187.622 39.107C186.621 41.0538 185.606 43.0007 184.552 44.9215C183.667 46.5298 181.761 47.3698 179.926 46.8358L179.751 46.7837L167.683 43.2481C165.672 42.6491 163.669 42.0435 161.645 41.4836C159.629 40.9171 157.605 40.3636 155.576 39.8362C155.387 39.7841 155.172 39.719 154.99 39.6474C152.433 38.6447 151.184 35.7537 152.199 33.1947Z" fill="url(#paint0_linear)"/>
<path d="M150.495 26.7679C150.423 26.5661 150.495 26.7679 150.495 26.7679C153.962 26.1689 156.864 28.7408 158.789 31.5016C159.577 32.6346 160.201 33.9238 161.223 35.3954C163.356 38.4687 165.718 42.4536 167.689 45.8394C165.185 48.8541 162.842 51.7321 160.416 54.9487C159.902 64.0319 157.124 74.1179 154.001 82.1788C151.594 88.4036 147.34 89.2175 141.972 88.2603C141.647 88.2017 141.055 87.9803 140.801 87.8176C136.709 85.1544 133.047 82.0225 135.61 76.1168C141.218 63.1789 143.065 50.2801 142.044 36.3395C141.582 29.9585 145.524 27.6274 150.495 26.7679Z" fill="#ED992C"/>
<path d="M152.219 30.8768C154.307 30.9679 156.09 29.3271 156.181 27.237L156.584 17.8738C156.675 15.7837 155.036 13.9996 152.947 13.9084C150.859 13.8172 149.077 15.4581 148.985 17.5482L148.582 26.9114C148.491 29.0015 150.13 30.7856 152.219 30.8768Z" fill="#DEA095"/>
<path d="M151.933 2.57861L163.851 7.89832L163.558 14.6896C163.558 14.8133 163.565 14.937 163.558 15.0607C163.558 15.3667 163.532 15.6663 163.5 15.9658L163.415 16.4281C163.33 16.9034 163.22 17.3722 163.051 17.8215C161.977 20.7125 159.303 22.8352 156.07 23.024C156.044 23.024 156.012 23.024 155.986 23.0305C150.013 23.3235 144.958 18.5833 144.939 12.5278C144.926 7.99598 147.84 4.05016 151.933 2.57861Z" fill="#EEB5AC"/>
<path d="M152.394 0.0131713C152.427 0.0131713 152.459 0.0196825 152.492 0.0196825L157 0.247577C161.281 0.462448 165.269 2.48094 167.975 5.80168L154.574 12.5474C154.411 10.913 152.954 9.63682 151.204 9.81262C149.922 9.94285 148.875 10.8414 148.563 12.0916C148.348 12.9576 148.511 13.7975 148.92 14.4617L148.634 20.5106C144.282 19.0716 141.224 14.8784 141.432 10.0666C141.693 4.25852 146.598 -0.240768 152.394 0.0131713Z" fill="#623C34"/>
<path d="M104.097 108.387L116.685 110.705L133.645 80.8245C133.827 80.5054 134.022 80.1864 134.244 79.8933C137.874 75.1141 145.967 75.0425 150.163 78.4739C154.489 82.016 154.353 89.0286 149.864 93.4433C144.568 98.6523 139.259 103.842 133.97 109.057C131.583 111.414 129.189 113.765 126.756 116.063C124.895 117.821 123.451 120.452 120.881 121.266C120.009 121.539 119.086 121.565 118.175 121.591C107.824 121.858 97.4738 122.177 87.1234 122.451C81.9124 122.588 76.6948 122.731 71.4838 122.868L67.5024 116.031L104.097 108.387Z" fill="url(#paint1_linear)"/>
<path d="M122.26 18.5313C125.611 15.764 129.729 11.8638 132.949 9.36346C138.284 5.2288 144.171 6.8436 148.354 11.3103C148.211 11.2387 148.354 11.3103 148.354 11.3103C145.947 8.64071 147.71 9.99505 144.64 6.60268C145.362 7.37101 144.64 6.60268 144.64 6.60268C141.563 3.21031 134.367 0.351865 129.436 4.98137C126.456 7.77471 121.863 11.3168 118.669 14.2925C119.769 15.725 121.024 17.1965 122.26 18.5313Z" fill="#623C34"/>
<path d="M101.228 108.986L105.99 121.924C99.6988 122.1 93.4143 122.282 87.1234 122.451C81.9124 122.588 76.6948 122.731 71.4838 122.868L67.5024 116.031L101.228 108.986Z" fill="#EEB5AC"/>
<path d="M133.235 81.7035C133.684 80.4013 137.926 69.7944 138.485 68.5703C138.485 68.5703 138.993 68.7787 138.485 68.5703C142.747 70.3284 151.776 74.0463 156.213 75.8955C155.615 77.7642 154.984 79.5744 154.333 81.3063C158.373 83.4876 162.42 85.6624 166.46 87.8437C169.296 89.3738 172.074 90.9951 174.904 92.5253C177.357 93.847 180.024 94.7065 181.865 96.9334C183.231 98.5872 183.934 100.671 184.61 102.702C189.255 116.689 193.978 130.649 198.721 144.602L193.373 150.436L175.229 117.717L173.629 104.33L140.047 96.7446C139.689 96.6664 139.331 96.5687 138.986 96.4385C135.779 95.247 133.541 92.2062 132.656 88.9831C131.98 86.5219 132.416 84.0606 133.235 81.7035Z" fill="#373C41"/>
<path d="M188.644 114.774C191.981 124.724 195.345 134.666 198.721 144.603L193.373 150.437L177.252 121.364L188.644 114.774Z" fill="#EEB5AC"/>
<path d="M99.907 63.9471L101.631 60.0924C102.164 58.9008 103.095 57.9307 104.266 57.3511C105.294 55.6452 105.703 55.2285 106.751 53.5421C107.805 51.8296 108.885 50.1367 109.958 48.4437L111.572 45.9043L113.204 43.378C114.304 41.6981 115.41 40.0312 116.561 38.3838C117.036 37.7002 117.732 37.1662 118.585 36.8993L118.767 36.8407L130.763 33.0772C132.767 32.4586 134.771 31.853 136.761 31.1954C138.752 30.5443 140.743 29.8866 142.727 29.1964C142.909 29.1313 143.13 29.0727 143.319 29.0272C146.058 28.4411 148.751 30.2317 149.259 33.0055C149.747 35.6751 147.945 38.2276 145.297 38.794C143.28 39.2238 141.276 39.6861 139.266 40.1614C137.223 40.6367 135.194 41.1576 133.164 41.6655L122.241 44.3677C121.337 45.5592 120.419 46.7378 119.489 47.9098L117.615 50.2604L115.716 52.5979C114.447 54.1541 113.185 55.7168 111.897 57.26C110.967 58.393 110.023 59.5129 109.08 60.6393L108.95 61.6811L108.911 61.9676C108.898 62.0523 108.891 62.1434 108.878 62.2281C108.859 62.3974 108.846 62.5732 108.839 62.736C108.826 63.0745 108.833 63.4001 108.865 63.7127C108.872 63.7908 108.885 63.8689 108.898 63.9471L108.904 63.9731V63.9796V63.9991L108.911 64.0382L108.937 64.1815C108.95 64.2791 108.969 64.3768 108.976 64.468C108.982 64.5656 108.989 64.6633 108.989 64.761C108.989 64.8586 108.995 64.9563 108.989 65.0475C108.976 65.2363 108.963 65.4316 108.917 65.6139C108.768 66.3562 108.416 67.0334 107.909 67.5608C107.779 67.6975 107.642 67.8213 107.493 67.9385L106.653 71.9885C106.367 73.3558 104.786 74.007 103.628 73.2256L102.288 72.3271C99.5752 70.4844 98.5603 66.9487 99.907 63.9471Z" fill="#EEB5AC"/>
<path d="M197.205 138.697L193.302 150.58L195.345 155.112L214.016 146.693C215.714 145.924 216.468 143.932 215.707 142.232L200.074 142.467C200.562 141.171 199.912 139.719 198.617 139.231L197.205 138.697Z" fill="#DB4F69"/>
<path d="M213.794 143.621L199.886 143.803L199.906 145.281L213.813 145.099L213.794 143.621Z" fill="white"/>
<path d="M134.439 31.9311L144.724 27.7704L148.582 27.1909L152.531 40.6562L142.226 39.4647L135.753 41.0013L134.439 31.9311Z" fill="#ED992C"/>
<path d="M156.044 28.0898L166.18 33.2598L161.697 43.5867L155.647 34.0216L156.044 28.0898Z" fill="#ED992C"/>
<path d="M190.472 18.4662L190.752 17.2291L190.817 16.9491C190.836 16.8644 190.856 16.7798 190.869 16.6951C190.901 16.5258 190.934 16.3566 190.953 16.1873C190.999 15.8552 191.025 15.5296 191.025 15.2106C191.025 15.1324 191.025 15.0543 191.018 14.9762V14.9436V14.9371V14.9176V14.8785L191.005 14.7352C190.999 14.6376 190.992 14.5399 190.992 14.4422C190.992 14.3446 190.999 14.2469 191.005 14.1492C191.012 14.0516 191.018 13.9539 191.038 13.8627C191.07 13.6739 191.103 13.4851 191.161 13.3028C191.383 12.58 191.793 11.9354 192.352 11.4601C192.905 10.9848 193.595 10.6527 194.317 10.555C194.408 10.5485 194.499 10.5355 194.583 10.529L194.72 10.5225C194.766 10.5225 194.811 10.5225 194.857 10.5225C195.032 10.529 195.208 10.529 195.39 10.568C195.481 10.5811 195.572 10.6006 195.663 10.6201C195.683 10.6266 195.715 10.6266 195.728 10.6332L195.767 10.6462L195.846 10.6722L196.151 10.7699L197.381 11.1606L196.782 13.7716L195.553 13.5958L195.247 13.5502L195.169 13.5372L195.13 13.5307C195.117 13.5307 195.123 13.5307 195.117 13.5307C195.104 13.5372 195.091 13.5372 195.078 13.5437C195.052 13.5437 195.013 13.5632 194.987 13.5632C194.98 13.5632 194.967 13.5632 194.961 13.5697L194.941 13.5828C194.928 13.5893 194.915 13.5958 194.896 13.6023C194.785 13.6544 194.707 13.7455 194.648 13.8497C194.583 13.9474 194.57 14.0711 194.583 14.1623C194.577 14.1818 194.596 14.2078 194.596 14.2274C194.596 14.2339 194.603 14.2469 194.609 14.2534C194.616 14.2599 194.616 14.2729 194.616 14.2795C194.622 14.286 194.629 14.2925 194.635 14.3055C194.635 14.312 194.642 14.312 194.642 14.3185L194.648 14.3316L194.661 14.3771C194.694 14.5074 194.72 14.6376 194.74 14.7678C194.837 15.2887 194.883 15.8096 194.902 16.3175C194.909 16.5714 194.909 16.8254 194.902 17.0728C194.896 17.1965 194.896 17.3202 194.889 17.4439L194.87 17.789L194.798 19.0587L190.472 18.4662Z" fill="url(#paint2_linear)"/>
<path d="M77.5666 123.173L67.3853 115.92L62.454 116.525L64.9522 136.867C65.1799 138.716 66.8584 140.031 68.706 139.803L73.1168 124.795C74.2097 125.648 75.7841 125.452 76.6363 124.365L77.5666 123.173Z" fill="#DB4F69"/>
<path d="M70.4813 123.814L66.5325 137.162L67.9485 137.581L71.8972 124.234L70.4813 123.814Z" fill="white"/>
<path d="M59.3639 248.021L197.758 155.209L0 250C19.7121 249.635 39.5152 248.971 59.3639 248.021Z" fill="url(#paint3_linear)"/>
</g>
<defs>
<linearGradient id="paint0_linear" x1="200.861" y1="26.4002" x2="151.847" y2="26.4002" gradientUnits="userSpaceOnUse">
<stop stop-color="#EEB5AC"/>
<stop offset="1" stop-color="#DEA095"/>
</linearGradient>
<linearGradient id="paint1_linear" x1="92.4299" y1="134.516" x2="129.936" y2="67.0675" gradientUnits="userSpaceOnUse">
<stop stop-color="#373C41"/>
<stop offset="1"/>
</linearGradient>
<linearGradient id="paint2_linear" x1="189.789" y1="17.1076" x2="198.229" y2="12.8508" gradientUnits="userSpaceOnUse">
<stop stop-color="#EEB5AC"/>
<stop offset="1" stop-color="#DEA095"/>
</linearGradient>
<linearGradient id="paint3_linear" x1="0" y1="202.606" x2="197.759" y2="202.606" gradientUnits="userSpaceOnUse">
<stop stop-color="#469C80" stop-opacity="0"/>
<stop offset="1" stop-color="#469C80"/>
</linearGradient>
<clipPath id="clip0">
<rect width="216" height="250" fill="white"/>
</clipPath>
</defs>
</svg>
