<svg width="248" height="260" viewBox="0 0 248 260" fill="none" xmlns="http://www.w3.org/2000/svg">
<path d="M149.594 81.8242C149.401 82.0573 149.314 82.1638 149.594 81.8242V81.8242Z" fill="#A4E603"/>
<path d="M146.778 70.3262C150.108 64.9266 156.262 55.7387 158.218 51.1314C158.932 44.4735 159.179 41.1845 161.789 35.9247C163.231 33.0152 164.646 29.2402 166.415 26.3906C166.775 25.8047 167.136 25.3053 167.509 24.8726L184.69 29.4066C186.826 31.5172 187.046 33.8142 185.551 37.6558C183.829 42.07 181.273 46.5907 179.277 50.965C178.262 51.5975 177.301 52.0635 176.327 52.7826C171.761 61.4778 166.261 70.4993 161.115 78.6753C157.931 83.7286 154.44 84.2413 149.601 81.8311C144.755 79.4143 144.134 74.6073 146.778 70.3262Z" fill="#A4E603"/>
<path d="M146.304 81.2384C146.297 81.2185 146.29 81.1985 146.284 81.1719C146.29 81.1985 146.297 81.2185 146.304 81.2384Z" fill="#373C41"/>
<path d="M146.317 81.2787C146.31 81.2654 146.31 81.2521 146.304 81.2388C146.31 81.2587 146.317 81.2654 146.317 81.2787Z" fill="#373C41"/>
<path d="M146.317 81.2783C146.337 81.3316 146.344 81.3582 146.317 81.2783V81.2783Z" fill="#373C41"/>
<path d="M146.284 81.1729C146.277 81.1462 146.264 81.1196 146.264 81.0996C146.271 81.1262 146.277 81.1529 146.284 81.1729Z" fill="#373C41"/>
<path d="M146.264 81.0997C146.264 81.0926 146.264 81.0854 146.257 81.0854C146.257 81.0854 146.264 81.0926 146.264 81.0997Z" fill="#373C41"/>
<path d="M84.5289 77.5233C93.4063 84.4475 103.318 89.947 113.904 93.8019L114.298 93.9417L118.71 101.878L139.742 80.3795C140.483 75.8988 142.586 71.7575 145.77 68.5085L147.365 66.8773C151.236 62.9225 157.617 62.9491 161.455 66.9305C162.41 67.9226 163.117 69.0744 163.571 70.2861L161.482 70.3793L155.849 86.2119C151.069 91.0988 145.249 97.0443 145.249 97.0443C141.972 98.7022 138.701 100.36 135.424 102.011C132.193 103.649 128.956 105.287 125.725 106.918C123.856 107.863 121.841 108.589 120.172 109.881C119.224 110.62 117.549 110.8 116.454 110.294C113.851 109.095 113.731 108.063 111.735 106.505C110.36 105.433 108.985 104.361 107.61 103.289C104.046 100.506 100.482 97.7234 96.9172 94.9471C93.4731 92.2573 90.0222 89.5675 86.5781 86.8777C84.6958 85.4129 82.8135 83.9415 80.9379 82.4768C80.8778 82.4302 80.8178 82.3836 80.7577 82.337L84.5289 77.5233Z" fill="url(#paint0_linear)"/>
<path d="M142.219 75.3795C142.759 71.5113 144.655 67.9626 147.565 65.3527L152.865 60.6056L152.838 60.6988C152.858 60.6655 152.885 60.6256 152.912 60.5923L166.315 70.2596C165.16 72.1504 164.005 74.0213 162.864 75.8589L175.179 90.2999L185.671 116.765L214.072 150.075L209.393 154.043C202.091 145.481 193.487 138.111 183.896 132.212L183.542 131.992L179.631 119.548L158.038 94.2215L150.475 89.8539L144.648 83.0162L144.468 82.8031C144.395 82.7232 144.328 82.6367 144.268 82.5435L141.678 79.3676L142.219 75.3795Z" fill="#373C41"/>
<path d="M179.904 33.1214C180.679 30.5381 183.482 29.1466 186.012 30.092L212.444 39.9923L233.716 30.0587L234.337 27.9548L243.388 19.1131C244.456 18.0678 246.245 18.4406 246.812 19.8188L247.459 21.4101C248.788 24.6591 247.58 28.3876 244.596 30.2518C244.596 30.2518 239.316 33.8937 238.989 34.1267L224.545 44.5464L212.911 47.1097C212.57 47.1296 212.237 47.0963 211.916 47.0231C211.569 47.0231 211.229 46.9832 210.888 46.8833L192.987 41.5703C190.851 42.7221 188.341 42.9817 186.012 42.296L184.67 41.8965C180.926 40.7846 178.79 36.8565 179.904 33.1214Z" fill="url(#paint1_linear)"/>
<path d="M114.131 56.2714L114.819 54.2407C115.5 52.23 116.654 50.4324 118.049 48.8345L127.414 35.5852L137.566 29.3601C137.887 29.2269 138.207 29.147 138.534 29.1137C138.861 29.0005 139.202 28.9273 139.549 28.914L158.211 28.0884C159.853 26.2974 162.136 25.2388 164.566 25.1256L165.961 25.0657C169.866 24.8926 173.17 27.9086 173.343 31.8035C173.463 34.5 171.267 36.7304 168.564 36.6571L140.343 35.9314L123.196 52.6362L123.182 53.0689L123.176 53.3685C123.176 53.4551 123.169 53.5483 123.169 53.6349C123.169 53.8146 123.169 53.9877 123.182 54.1608C123.202 54.507 123.242 54.8399 123.303 55.1595C123.316 55.2394 123.336 55.3193 123.356 55.3992L123.363 55.4258V55.4325L123.369 55.4525L123.383 55.4858L123.423 55.6322C123.449 55.7321 123.469 55.8253 123.496 55.9252C123.509 56.025 123.523 56.1249 123.536 56.2181C123.549 56.318 123.563 56.4179 123.563 56.5111C123.563 56.7108 123.57 56.9039 123.543 57.097C123.463 57.8693 123.169 58.595 122.702 59.1809C122.582 59.334 122.455 59.4739 122.315 59.607L121.854 63.8281C121.701 65.2529 120.145 66.0719 118.877 65.3861L117.409 64.5871C114.432 62.9826 113.05 59.4739 114.131 56.2714Z" fill="#EEB5AC"/>
<path d="M175.406 90.8857L185.665 116.765L214.066 150.075L209.387 154.043C202.084 145.481 193.481 138.11 183.889 132.211L183.535 131.992L179.624 119.548L163.531 100.68L175.406 90.8857Z" fill="#EEB5AC"/>
<path d="M149.594 81.8242C149.401 82.0572 149.314 82.1638 149.594 81.8242V81.8242Z" fill="#373C41"/>
<path d="M167.476 24.879L190.691 30.8645L199.094 34.8593L195.296 43.4413L181.086 43.2416L161.429 36.6569L156.416 36.344L155.281 28.2147L163.271 24.0801L167.476 24.879Z" fill="#A4E603"/>
<path d="M208.459 143.623L208.265 153.45L211.749 157.538L228.637 143.211C230.172 141.906 230.359 139.609 229.05 138.084L208.459 143.623Z" fill="#373C41"/>
<path d="M227.492 140.074L213.083 144.436L213.548 145.965L227.957 141.603L227.492 140.074Z" fill="white"/>
<path d="M176.52 33.2813C178.503 34.0935 180.799 33.1414 181.613 31.164L186.025 20.4581C186.839 18.4807 185.124 18.0413 183.142 17.2223L183.902 15.3781C181.92 14.5658 179.624 15.5179 178.81 17.4953L174.398 28.2013C173.577 30.1853 174.531 32.469 176.52 33.2813Z" fill="#DEA095"/>
<path d="M192.012 3.82004C192.166 3.88662 192.313 3.9532 192.459 4.02644C192.546 4.06639 192.626 4.11299 192.706 4.1596C192.767 4.19289 192.827 4.21952 192.887 4.25281C193 4.31273 193.107 4.37931 193.214 4.44589C193.24 4.46586 193.274 4.47918 193.301 4.49915C193.427 4.57905 193.547 4.65894 193.674 4.74549C193.681 4.75215 193.694 4.75881 193.701 4.76547C194.222 5.125 194.696 5.53113 195.123 5.97055C196.591 7.4819 197.506 9.41936 197.739 11.4567C197.739 11.4567 193.694 21.2172 191.625 26.1973C190.878 27.995 188.795 28.8672 187.006 28.0882C186.993 28.0815 186.986 28.0815 186.973 28.0749C181.913 25.8578 179.043 20.7911 179.551 15.7644C179.49 15.6245 179.43 15.4781 179.377 15.3316C179.324 15.1851 179.27 15.0453 179.223 14.8988V14.8922C179.177 14.7524 179.137 14.6059 179.097 14.4594C179.097 14.4528 179.097 14.4461 179.09 14.4461C179.05 14.3063 179.017 14.1598 178.983 14.02C178.983 14.0133 178.977 14 178.977 13.9934C178.95 13.8535 178.923 13.7137 178.896 13.5739C178.896 13.5606 178.89 13.5473 178.89 13.534C178.87 13.4008 178.85 13.261 178.83 13.1278C178.83 13.1079 178.823 13.0879 178.823 13.0746C178.81 12.9414 178.796 12.8082 178.79 12.6817C178.79 12.6551 178.783 12.6351 178.783 12.6085C178.776 12.482 178.77 12.3555 178.77 12.229C178.77 12.2024 178.77 12.1691 178.77 12.1425C178.77 12.0226 178.77 11.8961 178.776 11.7763C178.776 11.743 178.776 11.7097 178.776 11.6764C178.783 11.5632 178.79 11.4434 178.803 11.3302C178.803 11.2902 178.81 11.2503 178.81 11.2103C178.823 11.0972 178.836 10.984 178.85 10.8774C178.856 10.8308 178.863 10.7909 178.87 10.7443C178.883 10.6378 178.903 10.5312 178.923 10.4247C178.93 10.3781 178.936 10.3315 178.95 10.2782C178.97 10.1717 178.997 10.0718 179.023 9.96531C179.037 9.91205 179.043 9.86544 179.057 9.81218C179.083 9.71231 179.117 9.61244 179.143 9.50591C179.157 9.45265 179.17 9.40604 179.19 9.35278C179.223 9.24625 179.264 9.13973 179.304 9.0332C179.317 8.98659 179.337 8.93999 179.35 8.90004C179.41 8.74691 179.47 8.60043 179.531 8.45396C181.586 3.77344 187.173 1.70282 192.012 3.82004Z" fill="#EEB5AC"/>
<path d="M182.527 1.00376C183.789 0.357941 185.124 0.0516762 186.472 0.00507072C190.898 -0.134746 195.45 2.63495 198.026 6.07044C201.51 10.7177 201.804 16.8363 201.804 16.8363L194.255 13.7404L188.942 15.9508C189.296 14.6192 188.615 13.1944 187.3 12.6551C185.872 12.0692 184.23 12.7483 183.642 14.1798C183.101 15.4914 183.635 16.9695 184.837 17.6619L179.644 19.8257C179.644 19.8257 177.214 11.2237 177.208 11.1438C176.994 7.07579 178.77 2.92124 182.527 1.00376Z" fill="#623C34"/>
<path d="M234.317 27.9085L235.205 26.8898L235.411 26.6568C235.472 26.5836 235.532 26.517 235.592 26.4437C235.712 26.3039 235.825 26.1575 235.932 26.011C236.146 25.7247 236.333 25.4317 236.493 25.1321C236.533 25.0589 236.573 24.9857 236.606 24.9058L236.62 24.8791L236.626 24.8725L236.633 24.8525L236.646 24.8192L236.713 24.6794C236.76 24.5862 236.8 24.493 236.847 24.3998C236.9 24.3132 236.953 24.22 237.007 24.1334C237.06 24.0469 237.113 23.9603 237.18 23.8804C237.307 23.7207 237.434 23.5609 237.581 23.421C238.155 22.8551 238.869 22.4623 239.637 22.2959C240.397 22.1294 241.218 22.1694 241.946 22.449C242.033 22.4823 242.126 22.5222 242.213 22.5622L242.346 22.6221C242.387 22.6421 242.427 22.6687 242.473 22.6887C242.64 22.7885 242.8 22.8751 242.954 23.0016C243.034 23.0615 243.107 23.1214 243.188 23.188C243.208 23.2013 243.228 23.2213 243.241 23.2346L243.274 23.2679L243.334 23.3278L243.575 23.5742L244.536 24.5662L242.647 26.7167L241.579 25.9244L241.312 25.7247L241.245 25.6781L241.212 25.6515C241.198 25.6448 241.198 25.6515 241.198 25.6448C241.185 25.6448 241.165 25.6381 241.152 25.6315C241.132 25.6182 241.085 25.6182 241.052 25.6048C241.045 25.6048 241.038 25.5982 241.025 25.5982H240.998C240.978 25.5982 240.965 25.5982 240.951 25.5915C240.825 25.5849 240.698 25.6315 240.591 25.6981C240.484 25.758 240.404 25.8645 240.371 25.9577C240.357 25.9777 240.357 26.0043 240.351 26.0243C240.344 26.031 240.351 26.0443 240.351 26.0576C240.351 26.0709 240.351 26.0776 240.344 26.0842C240.351 26.0975 240.351 26.1042 240.351 26.1175C240.351 26.1242 240.351 26.1242 240.351 26.1308L240.344 26.1441L240.331 26.1974C240.291 26.3372 240.251 26.4704 240.211 26.6035C240.037 27.1428 239.817 27.6555 239.576 28.1415C239.456 28.3879 239.33 28.6209 239.196 28.8539C239.129 28.9671 239.063 29.0803 238.989 29.1935L238.796 29.5064L238.088 30.6582L234.317 27.9085Z" fill="url(#paint2_linear)"/>
<path d="M81.7122 83.1028L82.1527 80.5595L84.5289 77.5234C93.4063 84.4477 103.318 89.9471 113.904 93.8021L114.298 93.9419L118.71 101.878L132.273 88.0163L139.382 100.014C138.06 100.68 136.745 101.352 135.424 102.018C132.193 103.656 128.956 105.294 125.725 106.925C123.856 107.87 121.841 108.596 120.172 109.888C119.224 110.627 117.549 110.806 116.454 110.3C113.851 109.102 113.731 108.07 111.735 106.512C110.36 105.44 108.985 104.368 107.61 103.296C104.046 100.513 100.482 97.7302 96.9172 94.9539C93.4731 92.2641 90.0222 89.5743 86.5781 86.8845C84.9561 85.6328 83.3341 84.3678 81.7122 83.1028Z" fill="#EEB5AC"/>
<path d="M87.5392 87.5434L85.7504 77.8761L81.5186 74.5737L67.8621 91.9909C66.6206 93.5755 66.9009 95.8591 68.4895 97.0975L87.5392 87.5434Z" fill="#373C41"/>
<path d="M82.0751 86.2725L68.8374 93.4312L69.6009 94.8359L82.8386 87.6772L82.0751 86.2725Z" fill="white"/>
<path d="M79.3293 246.135C79.6363 246.082 79.9434 246.022 80.2504 245.969L212.944 157.279L0 259.005C26.7657 255.17 53.2511 250.876 79.3293 246.135Z" fill="url(#paint3_linear)"/>
<defs>
<linearGradient id="paint0_linear" x1="93.2783" y1="101.419" x2="156.851" y2="59.6424" gradientUnits="userSpaceOnUse">
<stop stop-color="#373C41"/>
<stop offset="1"/>
</linearGradient>
<linearGradient id="paint1_linear" x1="247.997" y1="32.8202" x2="179.611" y2="32.8202" gradientUnits="userSpaceOnUse">
<stop stop-color="#EEB5AC"/>
<stop offset="1" stop-color="#DEA095"/>
</linearGradient>
<linearGradient id="paint2_linear" x1="232.932" y1="27.8525" x2="242.87" y2="25.5325" gradientUnits="userSpaceOnUse">
<stop stop-color="#EEB5AC"/>
<stop offset="1" stop-color="#DEA095"/>
</linearGradient>
<linearGradient id="paint3_linear" x1="14.1175" y1="277.666" x2="198.491" y2="138.174" gradientUnits="userSpaceOnUse">
<stop stop-color="#469C80" stop-opacity="0"/>
<stop offset="1" stop-color="#469C80"/>
</linearGradient>
</defs>
</svg>
