<svg width="348" height="305" viewBox="0 0 348 305" fill="none" xmlns="http://www.w3.org/2000/svg">
<g clip-path="url(#clip0)">
<path d="M216.074 80.7232L219.74 74.7806C219.807 72.6206 219.88 70.4592 219.97 68.3019C220.062 65.7695 220.185 63.2452 220.299 60.7154L220.483 56.9256L220.695 53.1371C220.847 50.6142 221.013 48.0885 221.223 45.5682C221.366 43.8898 222.494 42.3794 224.188 41.8203L224.364 41.7631L238.161 37.2629C240.46 36.5237 242.768 35.79 245.059 35.0093C247.351 34.2355 249.641 33.4479 251.923 32.6257C252.111 32.5588 252.329 32.4932 252.528 32.4457C255.431 31.7715 258.333 33.5825 259.007 36.4857C259.681 39.3888 257.87 42.2908 254.967 42.9649C252.608 43.5146 250.254 44.0919 247.91 44.6817C245.558 45.2659 243.231 45.9027 240.894 46.5271L229.638 49.4901C229.456 50.9747 229.26 52.4621 229.056 53.944L228.527 57.7028L227.97 61.4603C227.598 63.963 227.226 66.4656 226.824 68.967C226.437 71.4656 226.484 71.8019 226.053 74.3019C226.038 74.4058 226.222 77.0193 226.222 77.0193L223.308 89.7027C222.963 91.1988 221.211 91.8702 219.952 90.9871L218.507 89.9687C215.552 87.8948 214.524 83.9901 216.074 80.7232Z" fill="url(#paint0_linear)"/>
<path d="M245.596 81.1427C245.405 81.1958 245.255 81.2695 245.087 81.3322C244.928 81.4004 244.778 81.4742 244.641 81.5451C244.49 81.6188 244.368 81.6939 244.226 81.7731L243.85 82.0149C243.362 82.3442 242.958 82.6996 242.604 83.0811C241.892 83.8374 241.414 84.6761 241.085 85.5782L240.057 88.2569L239.054 90.9521C237.736 94.5466 236.513 98.1796 235.373 101.839L234.533 104.588L233.715 107.346C233.166 109.186 232.647 111.034 232.113 112.878L230.518 118.416L228.9 123.944L232.472 119.598L221.922 127.222C218.422 129.789 214.903 132.331 211.415 134.917L206.178 138.793L200.959 142.688C197.492 145.306 194.016 147.918 190.58 150.587C188.663 152.077 188.314 154.835 189.804 156.752C191.1 158.42 193.349 158.893 195.175 158.02C199.101 156.137 202.987 154.198 206.88 152.257L212.697 149.329L218.503 146.375C222.376 144.41 226.219 142.4 230.081 140.415L241.615 134.378C243.009 133.649 244.052 132.502 244.662 131.175L245.187 130.032L247.585 124.8L250.013 119.576C250.821 117.835 251.643 116.098 252.434 114.347L253.632 111.727L254.8 109.099C256.344 105.589 257.795 102.046 259.167 98.4698L260.178 95.7801L261.159 93.0822C261.503 92.1842 261.686 91.2395 261.649 90.2026C261.63 89.6807 261.558 89.1478 261.407 88.5805L261.284 88.1516C261.233 88.0036 261.189 87.8611 261.122 87.709C261.064 87.5623 260.996 87.4033 260.922 87.2526C260.832 87.0908 260.765 86.9386 260.659 86.7727C257.363 81.6274 251.155 79.4987 245.596 81.1427Z" fill="url(#paint1_linear)"/>
<path d="M248.914 98.3126C252.065 99.3962 249.652 98.5808 249.652 98.5808C256.091 98.1489 261.319 96.4711 262.069 88.7203C263.591 73.0413 266.517 57.7841 271.3 42.4893C272.889 37.421 270.084 35.1653 266.242 33.3717C264.595 32.6031 261.559 31.7629 259.545 31.5295C254.619 30.9637 251.73 31.671 249.906 37.248C244.7 53.1613 242.34 69.7878 240.155 85.8241C239.073 93.8222 245.738 97.2124 248.914 98.3126Z" fill="#FF9E1B"/>
<path d="M263.475 37.3171C265.514 38.316 268.002 37.474 269.001 35.435L273.486 26.3158C274.485 24.2769 273.643 21.7895 271.604 20.7905C269.565 19.7915 267.077 20.6336 266.079 22.6726L261.593 31.7918C260.586 33.8252 261.435 36.3112 263.475 37.3171Z" fill="#DEA095"/>
<path d="M275.525 9.0986L285.05 19.5736L281.801 26.1881C281.746 26.3073 281.699 26.432 281.645 26.5581C281.512 26.8588 281.355 27.1499 281.196 27.4341L280.915 27.8585C280.628 28.2911 280.309 28.7086 279.946 29.0846C277.622 31.4853 274.039 32.4269 270.745 31.2066C270.714 31.1983 270.683 31.1832 270.659 31.1735C264.595 28.8646 261.638 21.9434 264.26 15.9313C266.2 11.4257 270.813 8.77047 275.525 9.0986Z" fill="#EEB5AC"/>
<path d="M277.102 6.74829C277.134 6.76344 277.166 6.77859 277.199 6.80067L277.206 6.79927L292.509 14.3255L285.092 16.3671L290.072 19.2988C285.175 20.3695 280.149 20.6956 275.157 20.2656L273.822 20.1469C274.371 18.451 273.482 16.5494 271.663 15.9597C270.322 15.5254 268.808 16.019 267.98 17.159C267.441 17.9093 267.256 18.7751 267.37 19.5875L264.447 25.4661C260.748 22.1381 259.542 16.6417 261.849 11.9539C264.615 6.30135 271.447 3.96764 277.102 6.74829Z" fill="#623C34"/>
<path d="M202.382 157.475L190.008 150.285L184.454 151.496L189.438 174.408C189.889 176.492 191.95 177.81 194.027 177.361L197.48 159.8C198.814 160.661 200.593 160.272 201.447 158.939L202.382 157.475Z" fill="#373C41"/>
<path d="M194.387 158.948L191.287 174.57L192.949 174.9L196.049 159.277L194.387 158.948Z" fill="white"/>
<path d="M226.267 77.0679L226.064 78.4487L226.013 78.7618C225.996 78.8587 225.987 78.9543 225.976 79.0429C225.95 79.2354 225.937 79.4182 225.923 79.601C225.896 79.9666 225.897 80.3265 225.924 80.674C225.934 80.7584 225.937 80.8442 225.948 80.9356L225.955 80.9702L225.957 80.9771L225.961 80.9979L225.969 81.0394L225.995 81.1999C226.009 81.3051 226.023 81.4103 226.037 81.5155C226.044 81.6221 226.044 81.7301 226.045 81.8381C226.045 81.9461 226.045 82.054 226.037 82.1565C226.014 82.3629 225.999 82.5747 225.947 82.7798C225.766 83.5943 225.367 84.3235 224.797 84.8925C224.235 85.46 223.505 85.8743 222.718 86.0409C222.621 86.0605 222.523 86.0732 222.426 86.0929L222.279 86.1153C222.229 86.1182 222.179 86.1211 222.13 86.124C221.936 86.1272 221.745 86.1443 221.538 86.1212C221.436 86.1132 221.34 86.1037 221.237 86.0887C221.214 86.086 221.185 86.0847 221.17 86.0806L221.124 86.0682L221.041 86.049L220.694 85.9682L219.31 85.6433L219.75 82.7306L221.115 82.8216L221.459 82.8457L221.546 82.8496L221.59 82.8551C221.604 82.8523 221.604 82.8523 221.604 82.8523C221.617 82.8425 221.637 82.8383 221.651 82.8355C221.68 82.8369 221.718 82.8077 221.752 82.8007C221.759 82.7993 221.773 82.7965 221.78 82.7951L221.806 82.7826C221.819 82.7728 221.839 82.7686 221.852 82.7589C221.968 82.6922 222.047 82.5826 222.103 82.4704C222.166 82.3567 222.174 82.2182 222.155 82.1213C222.158 82.0992 222.138 82.0743 222.134 82.0535C222.133 82.0466 222.123 82.0342 222.12 82.0204C222.112 82.0148 222.109 82.001 222.107 81.9941C222.099 81.9886 222.089 81.9761 222.088 81.9692C222.087 81.9623 222.08 81.9637 222.078 81.9568L222.076 81.9429L222.057 81.889C222.014 81.7465 221.972 81.6109 221.936 81.467C221.786 80.9066 221.694 80.3419 221.632 79.7855C221.605 79.5101 221.585 79.2332 221.571 78.955C221.566 78.8193 221.56 78.6836 221.561 78.5466L221.556 78.1658L221.533 76.7731L226.267 77.0679Z" fill="url(#paint2_linear)"/>
<path d="M252.769 37.2659C255.036 35.2655 258.577 35.6075 260.535 37.9122C262.065 39.7057 263.611 41.4743 265.165 43.2414C266.746 45.0389 268.363 46.8004 269.974 48.5702L275.934 55.1644C276.348 54.5764 276.755 53.9898 277.169 53.4018L279.444 50.1969L281.745 47.0085C283.281 44.8824 284.81 42.7578 286.369 40.6413C287.913 38.5208 289.474 36.4113 291.052 34.3128C291.086 34.2698 291.071 34.1577 291.028 34.0152C290.799 33.2404 290.883 32.4095 291.306 31.726L291.483 31.4597C291.538 31.3765 291.588 31.3017 291.643 31.2185C291.748 31.0604 291.837 30.8982 291.927 30.736C292.106 30.4116 292.256 30.0859 292.386 29.7644C292.413 29.6868 292.446 29.6009 292.472 29.5164L292.48 29.4859L292.486 29.4776L292.49 29.4623L292.504 29.4235L292.552 29.2697C292.582 29.17 292.619 29.0688 292.649 28.9691C292.687 28.8679 292.732 28.7723 292.778 28.6766C292.823 28.581 292.868 28.4853 292.922 28.3952C293.03 28.215 293.137 28.0347 293.27 27.8711C293.785 27.2122 294.457 26.7233 295.216 26.4543C295.411 26.386 295.609 26.3315 295.808 26.284L298.623 22.7178C299.574 21.5097 301.446 21.6493 302.2 22.9877L303.073 24.5252C304.854 27.6653 304.117 31.6391 301.324 33.926L295.764 38.0192C294.575 40.1541 293.37 42.278 292.155 44.3895C290.859 46.6686 289.538 48.9312 288.219 51.2008L286.234 54.5989L284.232 57.979C282.886 60.2251 281.525 62.467 280.129 64.6799C279.97 64.9281 279.765 65.1931 279.549 65.4096C277.858 67.1275 275.09 67.1479 273.372 65.4573L273.237 65.3261L263.007 55.246C261.311 53.5581 259.621 51.8619 257.889 50.2101C256.163 48.55 254.431 46.8982 252.674 45.2658C252.531 45.1291 252.367 44.9606 252.236 44.8072C250.313 42.5674 250.561 39.2039 252.769 37.2659Z" fill="#EEB5AC"/>
<path d="M240.99 79.8064C241.159 78.6126 241.328 77.4187 241.503 76.2235L263.08 79.9082C263.034 80.2849 262.986 80.6547 262.933 81.0327C264.807 81.2872 266.683 81.5556 268.557 81.8461L271.721 82.3509L274.883 82.8848C276.992 83.2357 279.092 83.6101 281.197 83.9762L287.515 85.0814L293.832 86.1507L295.024 86.3486C298.799 86.9891 301.65 90.2941 301.607 94.2428L301.46 106.719C301.388 110.882 301.337 115.042 301.229 119.205L301.082 125.451L300.906 131.695C300.769 135.858 300.64 140.025 300.439 144.193C300.344 146.215 298.851 147.979 296.759 148.323C294.362 148.722 292.118 147.03 291.692 144.639C290.975 140.563 290.323 136.488 289.669 132.407L288.708 126.234L287.774 120.056C287.143 115.942 286.575 111.821 285.971 107.701L285.343 103.175L279.215 102.968C277.083 102.895 274.945 102.831 272.81 102.745L269.607 102.615L266.406 102.457C262.146 102.231 257.89 101.912 253.651 101.502L250.474 101.18L247.297 100.822C246.239 100.719 245.19 100.449 244.174 99.949C243.668 99.6913 243.16 99.3837 242.67 98.9931L242.298 98.6866C242.173 98.5678 242.053 98.4698 241.933 98.3427C241.808 98.2239 241.688 98.0899 241.574 97.9545C241.457 97.8053 241.336 97.6712 241.215 97.5012C239.193 94.5182 238.605 90.87 239.436 87.5037C240.073 84.9548 240.629 82.4004 240.99 79.8064Z" fill="#DB4F69"/>
<path d="M305.248 143.039L290.985 141.893L286.497 145.38L300.884 163.896C302.19 165.577 304.615 165.885 306.301 164.572L301.834 147.238C303.408 147.438 304.846 146.319 305.039 144.746L305.248 143.039Z" fill="#373C41"/>
<path d="M300.305 147.405L298.664 147.825L302.611 163.254L304.252 162.835L300.305 147.405Z" fill="white"/>
<path d="M86.2657 286.093L198.188 173.119L46.0528 287.91C59.3058 287.517 72.7174 286.913 86.2657 286.093Z" fill="url(#paint3_linear)"/>
<path d="M194.584 275.502L302.703 166.366L151.204 280.675C165.555 279.16 180.022 277.434 194.584 275.502Z" fill="url(#paint4_linear)"/>
</g>
<defs>
<linearGradient id="paint0_linear" x1="209.544" y1="72.6436" x2="264.281" y2="47.9" gradientUnits="userSpaceOnUse">
<stop stop-color="#EEB5AC"/>
<stop offset="1" stop-color="#DEA095"/>
</linearGradient>
<linearGradient id="paint1_linear" x1="218.505" y1="137.88" x2="249.289" y2="100.385" gradientUnits="userSpaceOnUse">
<stop stop-color="#DB4F69"/>
<stop offset="1" stop-color="#BC445C"/>
</linearGradient>
<linearGradient id="paint2_linear" x1="226.949" y1="80.4149" x2="218.591" y2="82.1068" gradientUnits="userSpaceOnUse">
<stop stop-color="#EEB5AC"/>
<stop offset="1" stop-color="#DEA095"/>
</linearGradient>
<linearGradient id="paint3_linear" x1="38.5004" y1="250.604" x2="206.974" y2="216.497" gradientUnits="userSpaceOnUse">
<stop stop-color="#469C80" stop-opacity="0"/>
<stop offset="1" stop-color="#469C80"/>
</linearGradient>
<linearGradient id="paint4_linear" x1="143.424" y1="242.234" x2="311.19" y2="208.271" gradientUnits="userSpaceOnUse">
<stop stop-color="#469C80" stop-opacity="0"/>
<stop offset="1" stop-color="#469C80"/>
</linearGradient>
<clipPath id="clip0">
<rect width="304.537" height="249.409" fill="white" transform="translate(0 60.4258) rotate(-11.4445)"/>
</clipPath>
</defs>
</svg>
