<svg width="54" height="35" viewBox="0 0 54 35" fill="none" xmlns="http://www.w3.org/2000/svg">
<path d="M54 18.9985C53.5275 20.1892 52.65 20.6842 51.381 20.5772C50.895 20.5371 50.3955 20.5772 49.8285 20.5772C49.8285 20.8582 49.8285 21.0722 49.8285 21.2729C49.8285 23.6946 49.8285 26.1296 49.8285 28.5512C49.8285 30.0631 49.032 30.8524 47.52 30.8658C46.926 30.8658 46.332 30.8658 45.711 30.8658C45.711 21.9285 45.711 13.0715 45.711 4.06726C46.6155 4.1074 47.5065 4.06726 48.3705 4.22781C49.2615 4.38836 49.815 5.24463 49.815 6.22131C49.8285 8.70985 49.815 11.185 49.815 13.6735C49.815 13.8876 49.815 14.1017 49.815 14.3826C50.3685 14.3826 50.8545 14.4094 51.3405 14.3826C52.623 14.3024 53.541 14.784 53.973 16.0283C54 17.0317 54 18.0218 54 18.9985Z" fill="#61BE6A"/>
<path d="M18.684 14.3693C24.2595 14.3693 29.754 14.3693 35.3025 14.3693C35.3025 14.1151 35.3025 13.8742 35.3025 13.6468C35.3025 9.91399 35.3025 6.19457 35.3025 2.46177C35.3025 0.762609 36.0585 0.0133738 37.773 0.0133738C38.961 0.0133738 40.1625 -5.42542e-06 41.3505 0.0133738C42.7815 0.026753 43.5915 0.856264 43.5915 2.27446C43.5915 12.4159 43.5915 22.5573 43.5915 32.6988C43.5915 34.1839 42.768 34.9866 41.256 34.9866C40.041 34.9866 38.826 34.9866 37.611 34.9866C36.099 34.9866 35.289 34.1839 35.289 32.6854C35.2755 28.9125 35.289 25.1529 35.289 21.38C35.289 21.1525 35.289 20.9117 35.289 20.6307C29.7405 20.6307 24.246 20.6307 18.6705 20.6307C18.6705 20.8849 18.6705 21.1124 18.6705 21.3398C18.6705 25.0726 18.6705 28.792 18.6705 32.5248C18.6705 34.224 17.9145 34.9866 16.2 34.9866C14.985 34.9866 13.77 34.9866 12.555 34.9866C11.2455 34.9732 10.368 34.1437 10.368 32.8459C10.368 22.6109 10.368 12.3624 10.368 2.12729C10.368 0.883022 11.1915 0.0401322 12.447 0.0133738C13.77 -0.0133846 15.066 -5.42542e-06 16.362 0.0133738C17.8875 0.026753 18.684 0.816126 18.684 2.3146C18.6975 6.08753 18.684 9.84709 18.684 13.62C18.684 13.8475 18.684 14.0749 18.684 14.3693Z" fill="#61BE6A"/>
<path d="M4.1715 14.396C4.1715 14.1284 4.1715 13.9144 4.1715 13.7003C4.1715 11.2787 4.1715 8.84366 4.1715 6.42202C4.1715 4.92355 4.9815 4.1208 6.4935 4.10742C7.074 4.10742 7.641 4.10742 8.2755 4.10742C8.2755 13.0314 8.2755 21.9151 8.2755 30.8123C7.425 30.8123 6.588 30.8926 5.778 30.7856C4.8195 30.6651 4.185 29.7687 4.185 28.7118C4.1715 26.25 4.185 23.7749 4.185 21.3131C4.185 21.099 4.185 20.8849 4.185 20.5505C3.591 20.5505 3.024 20.5505 2.457 20.5505C0.783002 20.5505 0.0270023 19.7745 0.0270023 18.1154C0.0270023 17.607 0.0270023 17.0853 0.0270023 16.5768C0.0405023 15.2523 0.877502 14.396 2.2275 14.3693C2.835 14.396 3.4695 14.396 4.1715 14.396Z" fill="#61BE6A"/>
</svg>
