<svg width="1004" height="526" viewBox="0 0 1004 526" fill="none" xmlns="http://www.w3.org/2000/svg">
<path d="M928.398 48.4119C931.114 50.4511 933.855 52.4496 936.612 54.4318C939.36 56.4221 942.15 58.3472 944.931 60.2885L961.586 71.9857L952.68 73.2827C954.922 70.7051 957.223 68.1764 959.539 65.664L963.038 61.9118L966.57 58.184C968.927 55.7043 971.276 53.2164 973.666 50.7611C976.039 48.2977 978.429 45.8424 980.843 43.4116C982.621 41.6171 985.517 41.6089 987.311 43.3872C988.926 44.9941 989.097 47.5065 987.808 49.2928C985.81 52.0826 983.796 54.8478 981.757 57.5967C979.734 60.3619 977.678 63.0945 975.623 65.8272L972.54 69.9301L969.424 74.0005C967.336 76.7086 965.224 79.3923 963.054 82.0352C960.917 84.6454 957.214 85.2164 954.417 83.4953L954.148 83.324L936.791 72.7035C933.904 70.9253 931.033 69.1226 928.105 67.4015C925.185 65.664 922.265 63.9429 919.312 62.2707C915.324 60.003 913.921 54.9294 916.188 50.9406C918.456 46.9518 923.529 45.5488 927.518 47.8164C927.811 47.9959 928.129 48.2161 928.398 48.4119Z" fill="#EEB5AC"/>
<path d="M936.612 54.4402C933.863 52.4581 931.114 50.4596 928.398 48.4203C928.129 48.2246 925.984 46.5687 925.984 46.5687C925.984 46.5687 923.708 46.5442 921.833 46.9113L917.208 60.607C917.795 61.2595 918.497 61.8387 919.296 62.2955C922.249 63.9758 925.177 65.6969 928.088 67.4262C930.911 69.0903 933.684 70.8196 936.465 72.5407L936.718 72.6141L942.125 58.3556C940.29 57.0586 938.439 55.7617 936.612 54.4402Z" fill="white"/>
<path d="M916.132 131.932C916.287 132.193 916.385 132.429 916.515 132.682C916.621 132.919 916.719 133.164 916.801 133.392C916.891 133.629 916.956 133.849 917.029 134.077L917.209 134.746C917.421 135.627 917.502 136.451 917.519 137.25C917.535 138.841 917.217 140.301 916.646 141.663L915.031 145.766L913.367 149.853C911.124 155.294 908.734 160.677 906.23 166.012L904.33 170.001L902.381 173.973C901.092 176.624 899.762 179.259 898.449 181.902L894.502 189.83L890.603 197.775L889.689 199.635C887.773 203.534 883.931 205.851 879.877 206.03L862.839 206.716C857.154 206.903 851.477 207.132 845.784 207.278L837.253 207.515L828.713 207.703C823.02 207.8 817.327 207.898 811.618 207.898C807.874 207.898 804.84 204.864 804.84 201.12C804.84 197.955 807.009 195.304 809.946 194.553C815.476 193.142 821.022 191.837 826.56 190.524L834.879 188.599L843.207 186.723C848.753 185.458 854.316 184.276 859.87 183.06L876.55 179.52L865.824 187.767L868.54 179.341L871.216 170.898C872.113 168.084 872.985 165.262 873.899 162.464L875.261 158.255L876.672 154.062C878.572 148.482 880.603 142.952 882.773 137.487L884.42 133.392L886.109 129.313C886.647 127.943 887.43 126.671 888.548 125.537C889.11 124.974 889.747 124.436 890.513 123.954L891.1 123.595C891.313 123.481 891.516 123.367 891.745 123.261C891.965 123.155 892.202 123.049 892.446 122.951C892.715 122.861 892.944 122.755 893.237 122.674C902.283 120.251 911.54 124.289 916.132 131.932Z" fill="url(#paint0_linear)"/>
<path d="M925.985 79.9957V46.5601H917.51H901.638H892.226V50.7772C890.277 52.7431 889.494 55.5491 890.211 59.9784C894.208 84.6779 892.299 104.41 885.66 127.91C882.349 139.615 887.226 146.557 898.392 148.613C909.558 150.668 915.088 147.577 918.856 134.77C923.994 117.339 926.368 100.119 926.042 82.4347C926.042 81.619 926.009 80.8114 925.985 79.9957Z" fill="white"/>
<path d="M898.4 148.613C897.919 149.453 897.78 149.804 898.4 148.613V148.613Z" fill="#A4E603"/>
<path d="M909.404 51.6503C912.894 51.6177 915.725 48.7383 915.7 45.2471L915.57 29.6182C915.537 26.127 912.658 23.2965 909.167 23.321C905.676 23.3536 902.846 26.233 902.87 29.7242L903.001 45.3531C903.033 48.8525 905.913 51.683 909.404 51.6503Z" fill="#DEA095"/>
<path d="M906.484 4.54346L926.809 12.3661L926.907 23.7043C926.915 23.9083 926.931 24.1122 926.94 24.3161C926.964 24.8218 926.956 25.3276 926.923 25.8252L926.825 26.6001C926.727 27.3913 926.581 28.1825 926.336 28.9493C924.803 33.8517 920.521 37.6284 915.154 38.2157C915.105 38.2238 915.056 38.2238 915.007 38.232C905.081 39.2435 896.239 31.7716 895.685 21.6977C895.277 14.1769 899.787 7.34948 906.484 4.54346Z" fill="#EEB5AC"/>
<path d="M907.03 0.228397C907.087 0.228397 907.144 0.228397 907.193 0.228397H907.201L933.432 0L924.639 7.92864L933.505 8.51594C927.518 13.3694 920.83 17.2929 913.669 20.1479L911.752 20.9146C911.336 18.2065 908.8 16.1999 905.896 16.6485C903.751 16.9829 902.014 18.6959 901.663 20.8412C901.434 22.2442 901.777 23.5575 902.495 24.6016L902.536 34.7C895.154 32.6771 889.698 25.9557 889.632 17.921C889.559 8.23044 897.34 0.309967 907.03 0.228397Z" fill="#664A46"/>
<path d="M870.008 174.708L868.54 179.333L867.888 181.347L859.87 183.052C854.316 184.276 848.753 185.45 843.207 186.715L834.879 188.599L826.56 190.524C821.014 191.837 815.476 193.151 809.946 194.554C807.018 195.304 804.848 197.955 804.84 201.12C804.84 204.864 807.874 207.898 811.618 207.898C817.327 207.898 823.02 207.801 828.713 207.703L837.253 207.515L845.784 207.279C851.469 207.132 857.154 206.903 862.839 206.716L879.877 206.031C883.931 205.859 887.781 203.534 889.689 199.635L890.603 197.776L894.2 190.459L870.008 174.708Z" fill="#EEB5AC"/>
<path d="M897.609 62.1892C894.6 63.7635 891.614 65.3786 888.637 67.01C885.66 68.6332 882.724 70.3299 879.771 72.0102L862.056 82.0189L864.715 73.4132C866.077 76.5455 867.374 79.7105 868.646 82.8836L870.53 87.6554L872.374 92.4436C873.597 95.6412 874.829 98.8306 876.02 102.044C877.227 105.25 878.409 108.464 879.568 111.686C880.424 114.06 879.184 116.678 876.811 117.535C874.666 118.301 872.325 117.371 871.264 115.446C869.609 112.445 867.977 109.435 866.371 106.417C864.747 103.399 863.165 100.372 861.575 97.3378L859.193 92.7862L856.852 88.2183C855.311 85.1675 853.785 82.1086 852.334 79.0171C850.898 75.9664 851.975 72.3773 854.723 70.5909L854.993 70.4196L872.047 59.3097C874.894 57.4662 877.757 55.6472 880.571 53.7466C883.393 51.8624 886.207 49.9618 888.988 48.0122C892.748 45.3857 897.927 46.2993 900.562 50.0678C903.188 53.8282 902.275 59.0079 898.506 61.6426C898.237 61.8303 897.903 62.0342 897.609 62.1892Z" fill="#EEB5AC"/>
<path d="M825.728 209.456L809.733 194.333L800.99 194.187L800.394 230.249C800.337 233.528 802.955 236.228 806.234 236.285L817.588 211.202C819.284 212.956 822.082 213.005 823.836 211.308L825.728 209.456Z" fill="#373C41"/>
<path d="M813.511 205.558L803.376 227.858L805.745 228.935L815.88 206.634L813.511 205.558Z" fill="white"/>
<path d="M975.126 260.022C970.322 248.308 965.339 236.701 960.29 225.118L956.497 216.439L952.664 207.776C950.127 201.993 947.517 196.25 944.94 190.491L941.074 181.853C939.777 178.974 938.505 176.086 937.232 173.198L933.415 164.536L931.482 160.212C930.838 158.777 930.194 157.333 929.533 155.906C926.907 150.171 924.133 144.518 921.213 138.939C920.455 137.487 919.688 136.043 918.905 134.599C920.121 130.456 921.181 126.328 922.086 122.209L888.067 118.652C887.349 121.687 886.549 124.762 885.66 127.902C884.16 133.221 884.347 137.552 886.044 140.888C886.06 141.166 886.076 141.443 886.117 141.712C886.223 142.544 886.419 143.336 886.696 144.078C886.965 144.828 887.341 145.513 887.708 146.215C889.168 149.005 890.644 151.786 892.161 154.535C895.195 160.049 898.376 165.49 901.704 170.841C902.528 172.187 903.376 173.517 904.216 174.846L906.744 178.843L911.858 186.813C913.563 189.472 915.268 192.123 916.948 194.79L922.013 202.792C925.39 208.119 928.734 213.47 932.151 218.78L937.249 226.757L942.387 234.719C949.255 245.323 956.171 255.894 963.275 266.368C965.029 268.962 968.422 270.063 971.431 268.823C974.89 267.42 976.545 263.472 975.126 260.022Z" fill="#373C41"/>
<path d="M898.401 148.613C897.92 149.453 897.781 149.804 898.401 148.613V148.613Z" fill="#373C41"/>
<path d="M971.439 268.84C974.889 267.42 976.545 263.472 975.126 260.022C970.322 248.308 965.338 236.701 960.29 225.118L956.497 216.439L952.664 207.776C950.127 201.993 947.517 196.25 944.94 190.491L941.074 181.853C939.777 178.974 938.504 176.086 937.232 173.199L935.984 170.36L911.638 186.486L911.85 186.821C913.554 189.472 915.259 192.131 916.939 194.798L922.004 202.8C925.381 208.127 928.725 213.478 932.142 218.788L937.24 226.766L942.379 234.727C949.246 245.331 956.163 255.903 963.267 266.376C965.037 268.97 968.43 270.071 971.439 268.84Z" fill="#EEB5AC"/>
<path d="M969.489 247.231L965.036 268.79L969.506 276.311L1000.49 257.868C1003.31 256.188 1004.24 252.55 1002.55 249.727L975.248 253.26C975.851 250.894 974.416 248.488 972.05 247.892L969.489 247.231Z" fill="#373C41"/>
<path d="M999.539 252.543L975.241 255.64L975.57 258.221L999.868 255.125L999.539 252.543Z" fill="white"/>
<path d="M994.087 33.4929L990.124 29.9365L985.621 29.3328C983.648 28.3622 981.29 29.5123 980.834 31.6658L977.18 48.9913L985.907 51.5444L993.28 41.9028L995.466 37.6122C996.233 36.1032 995.621 34.2434 994.087 33.4929Z" fill="#EEB5AC"/>
<path d="M977.116 48.934L977.442 46.8295L977.516 46.3483C977.54 46.2014 977.557 46.0546 977.581 45.9159C977.622 45.6305 977.646 45.345 977.671 45.0595C977.712 44.4966 977.72 43.9501 977.679 43.4199C977.671 43.2894 977.655 43.1589 977.638 43.0284L977.63 42.9794V42.9631L977.622 42.9386L977.614 42.8815L977.581 42.6368C977.557 42.4737 977.54 42.3105 977.524 42.1474C977.516 41.9843 977.516 41.8211 977.516 41.658C977.516 41.4948 977.516 41.3317 977.532 41.1767C977.565 40.8586 977.597 40.5323 977.679 40.2305C977.965 38.9906 978.584 37.8813 979.457 37.0166C980.322 36.152 981.447 35.5239 982.638 35.2873C982.785 35.2629 982.94 35.2384 983.087 35.2139L983.307 35.1813C983.38 35.1731 983.454 35.1731 983.527 35.165C983.829 35.1568 984.114 35.1405 984.432 35.1813C984.587 35.1976 984.742 35.2139 984.889 35.2302C984.922 35.2384 984.971 35.2384 984.995 35.2466L985.06 35.2629L985.191 35.2955L985.721 35.426L987.825 35.9399L987.116 40.3773L985.036 40.2223L984.514 40.1816L984.383 40.1734L984.318 40.1652C984.302 40.1652 984.302 40.1734 984.294 40.1734C984.269 40.1816 984.245 40.1897 984.228 40.1979C984.188 40.1979 984.122 40.2387 984.073 40.2468C984.057 40.255 984.049 40.255 984.033 40.255L984 40.2794C983.976 40.2958 983.951 40.3039 983.927 40.3121C983.747 40.4181 983.625 40.5731 983.543 40.7525C983.454 40.9238 983.437 41.1359 983.462 41.2828C983.462 41.3235 983.486 41.3562 983.494 41.3888C983.494 41.4051 983.511 41.4214 983.519 41.4377C983.527 41.4541 983.535 41.4622 983.535 41.4785C983.551 41.4948 983.56 41.503 983.568 41.5111C983.576 41.5193 983.576 41.5193 983.576 41.5275V41.5356L983.584 41.5601L983.609 41.6417C983.674 41.8537 983.731 42.074 983.788 42.2861C984.008 43.1426 984.147 44.0072 984.237 44.8555C984.277 45.2797 984.31 45.7039 984.326 46.1199C984.334 46.332 984.343 46.5359 984.343 46.748L984.351 47.3271L984.375 49.4561L977.116 48.934Z" fill="url(#paint1_linear)"/>
<path d="M882.439 132.16L887.275 130.798L890.318 127.16C892.218 125.953 892.422 123.261 890.734 121.784L887.259 118.734C887.226 118.424 887.177 118.114 887.104 117.812C886.827 116.621 886.199 115.512 885.293 114.623C885.073 114.394 884.82 114.198 884.559 114.003C884.437 113.905 884.29 113.823 884.16 113.733C884.021 113.652 883.882 113.562 883.736 113.489C883.589 113.415 883.442 113.35 883.287 113.285L883.059 113.187L883.001 113.162L882.977 113.154L882.969 113.146L882.928 113.122C882.806 113.065 882.692 113.007 882.569 112.95C882.096 112.706 881.631 112.42 881.175 112.094C880.946 111.931 880.718 111.759 880.489 111.572C880.375 111.482 880.261 111.384 880.155 111.294L879.788 110.976L878.165 109.606L878.116 109.671L878.083 109.639L871.354 115.756L876.216 128.065L878.255 131.247C879.144 132.641 881.02 133.057 882.439 132.16Z" fill="#EEB5AC"/>
<path d="M897.609 62.1892C897.902 62.0342 898.237 61.8303 898.514 61.6345C902.274 59.008 903.196 53.8283 900.57 50.0597C897.943 46.2993 892.764 45.3776 888.996 48.0041C886.214 49.9537 883.401 51.8461 880.579 53.7385C879.176 54.6848 877.765 55.6065 876.354 56.5282L882.642 70.3707C884.632 69.2369 886.622 68.1031 888.637 67.01C891.614 65.3786 894.599 63.7635 897.609 62.1892Z" fill="white"/>
<path d="M969.384 276.254L-126 460.603V525.86L969.384 276.254Z" fill="url(#paint2_linear)"/>
<defs>
<linearGradient id="paint0_linear" x1="804.848" y1="164.935" x2="917.519" y2="164.935" gradientUnits="userSpaceOnUse">
<stop stop-color="#373C41"/>
<stop offset="1"/>
</linearGradient>
<linearGradient id="paint1_linear" x1="989.554" y1="39.6298" x2="975.771" y2="45.8694" gradientUnits="userSpaceOnUse">
<stop stop-color="#DEA095"/>
<stop offset="1" stop-color="#EEB5AC"/>
</linearGradient>
<linearGradient id="paint2_linear" x1="421.692" y1="525.861" x2="421.692" y2="276.256" gradientUnits="userSpaceOnUse">
<stop stop-color="#B797EE"/>
<stop offset="1" stop-color="#9D82D0"/>
</linearGradient>
</defs>
</svg>
