<svg width="24" height="23" viewBox="0 0 24 23" fill="none" xmlns="http://www.w3.org/2000/svg">
<path d="M11.5115 23C5.14081 22.9924 -0.0305573 17.7981 -2.62563e-06 11.4427C0.030552 5.11794 5.20956 -0.0152433 11.542 3.40129e-05C17.9279 0.0153113 23.0458 5.16377 23.0229 11.5573C23.0076 17.9051 17.8745 23.0077 11.5115 23ZM11.5496 16.7669C11.5496 16.7058 11.5496 16.6447 11.5496 16.5836C13.0239 16.5836 14.5058 16.6141 15.9801 16.5759C16.9349 16.5454 17.5842 16.003 17.7522 15.0635C18.18 12.6802 18.1953 10.2893 17.737 7.91368C17.5536 6.95121 16.912 6.46234 15.9342 6.4547C13.0086 6.42415 10.083 6.42415 7.15742 6.4547C6.08037 6.4547 5.46164 6.95121 5.27067 8.01299C4.87346 10.3122 4.88874 12.6344 5.25539 14.9412C5.40817 15.8808 5.98871 16.4613 6.95882 16.5301C8.49419 16.6294 10.0219 16.6905 11.5496 16.7669Z" fill="#373C41"/>
<path d="M9.86919 13.9405C9.86919 12.2677 9.86919 10.7552 9.86919 9.07471C11.3434 9.87677 12.7337 10.633 14.2996 11.4885C12.7795 12.3364 11.3969 13.1003 9.86919 13.9405Z" fill="#373C41"/>
</svg>
